<?xml version="1.0" encoding="UTF-8"?>
<svg xmlns="http://www.w3.org/2000/svg" version="1.1" width="100" height="100" viewBox="0 0 100 100"><rect x="0" y="0" width="100" height="100" fill="#ffffff"/><g transform="scale(3.448)"><g transform="translate(0,0)"><path fill-rule="evenodd" d="M10 0L10 2L11 2L11 0ZM12 0L12 1L13 1L13 2L12 2L12 4L13 4L13 3L14 3L14 4L17 4L17 5L21 5L21 4L19 4L19 3L20 3L20 2L21 2L21 1L20 1L20 0L19 0L19 1L20 1L20 2L18 2L18 3L14 3L14 2L16 2L16 0L15 0L15 1L14 1L14 0ZM8 1L8 2L9 2L9 1ZM8 3L8 4L9 4L9 5L8 5L8 7L9 7L9 8L6 8L6 9L7 9L7 10L6 10L6 11L5 11L5 8L0 8L0 9L3 9L3 10L2 10L2 13L3 13L3 14L4 14L4 13L5 13L5 15L4 15L4 16L5 16L5 21L7 21L7 20L9 20L9 19L10 19L10 21L11 21L11 17L12 17L12 18L13 18L13 19L12 19L12 21L13 21L13 20L14 20L14 21L16 21L16 22L15 22L15 23L14 23L14 24L15 24L15 25L12 25L12 23L13 23L13 22L11 22L11 24L8 24L8 29L9 29L9 26L10 26L10 29L11 29L11 26L10 26L10 25L12 25L12 26L13 26L13 27L12 27L12 29L13 29L13 28L14 28L14 29L19 29L19 28L23 28L23 29L24 29L24 28L25 28L25 26L26 26L26 27L27 27L27 28L26 28L26 29L27 29L27 28L28 28L28 26L29 26L29 25L27 25L27 24L28 24L28 23L27 23L27 24L26 24L26 23L25 23L25 22L26 22L26 21L27 21L27 22L29 22L29 21L27 21L27 20L28 20L28 18L29 18L29 16L28 16L28 15L27 15L27 16L26 16L26 13L27 13L27 14L29 14L29 13L28 13L28 12L29 12L29 11L28 11L28 10L29 10L29 9L28 9L28 8L27 8L27 9L28 9L28 10L27 10L27 12L25 12L25 11L26 11L26 8L25 8L25 9L24 9L24 8L23 8L23 9L22 9L22 8L21 8L21 6L20 6L20 8L21 8L21 9L19 9L19 8L16 8L16 7L17 7L17 6L16 6L16 5L15 5L15 6L14 6L14 8L16 8L16 9L19 9L19 10L20 10L20 11L21 11L21 12L19 12L19 11L18 11L18 10L15 10L15 9L12 9L12 7L13 7L13 5L11 5L11 6L10 6L10 4L11 4L11 3ZM9 6L9 7L10 7L10 6ZM11 6L11 7L12 7L12 6ZM15 6L15 7L16 7L16 6ZM18 6L18 7L19 7L19 6ZM10 8L10 9L9 9L9 10L7 10L7 11L6 11L6 12L5 12L5 13L6 13L6 14L8 14L8 15L5 15L5 16L8 16L8 18L7 18L7 17L6 17L6 18L7 18L7 19L6 19L6 20L7 20L7 19L8 19L8 18L10 18L10 17L11 17L11 14L13 14L13 15L12 15L12 17L15 17L15 18L16 18L16 17L17 17L17 18L19 18L19 21L18 21L18 22L16 22L16 23L17 23L17 24L16 24L16 25L15 25L15 26L16 26L16 27L14 27L14 28L18 28L18 27L17 27L17 26L18 26L18 25L20 25L20 26L19 26L19 27L22 27L22 26L23 26L23 27L24 27L24 26L25 26L25 25L26 25L26 26L27 26L27 25L26 25L26 24L25 24L25 25L24 25L24 26L23 26L23 25L22 25L22 26L21 26L21 25L20 25L20 23L18 23L18 22L19 22L19 21L20 21L20 20L21 20L21 19L22 19L22 20L23 20L23 18L24 18L24 17L25 17L25 19L26 19L26 20L25 20L25 21L26 21L26 20L27 20L27 19L26 19L26 18L28 18L28 17L26 17L26 16L24 16L24 14L23 14L23 15L22 15L22 14L21 14L21 13L20 13L20 14L19 14L19 16L20 16L20 18L19 18L19 17L17 17L17 16L18 16L18 15L17 15L17 16L16 16L16 17L15 17L15 16L14 16L14 15L15 15L15 14L18 14L18 13L19 13L19 12L18 12L18 11L17 11L17 12L18 12L18 13L14 13L14 12L16 12L16 11L14 11L14 12L13 12L13 13L12 13L12 11L13 11L13 10L12 10L12 9L11 9L11 8ZM10 9L10 11L11 11L11 9ZM21 9L21 11L23 11L23 12L22 12L22 13L25 13L25 12L24 12L24 11L25 11L25 10L24 10L24 9L23 9L23 10L22 10L22 9ZM3 10L3 11L4 11L4 10ZM23 10L23 11L24 11L24 10ZM8 11L8 12L6 12L6 13L8 13L8 12L9 12L9 13L11 13L11 12L9 12L9 11ZM0 12L0 13L1 13L1 12ZM3 12L3 13L4 13L4 12ZM0 14L0 15L1 15L1 16L2 16L2 17L3 17L3 18L2 18L2 20L3 20L3 21L4 21L4 17L3 17L3 15L2 15L2 14ZM9 14L9 15L10 15L10 14ZM20 14L20 16L21 16L21 17L22 17L22 18L23 18L23 17L24 17L24 16L23 16L23 17L22 17L22 16L21 16L21 14ZM0 17L0 21L1 21L1 17ZM14 19L14 20L15 20L15 19ZM17 19L17 20L16 20L16 21L17 21L17 20L18 20L18 19ZM8 21L8 23L9 23L9 21ZM21 21L21 24L24 24L24 21ZM22 22L22 23L23 23L23 22ZM17 24L17 25L16 25L16 26L17 26L17 25L18 25L18 24ZM0 0L0 7L7 7L7 0ZM1 1L1 6L6 6L6 1ZM2 2L2 5L5 5L5 2ZM22 0L22 7L29 7L29 0ZM23 1L23 6L28 6L28 1ZM24 2L24 5L27 5L27 2ZM0 22L0 29L7 29L7 22ZM1 23L1 28L6 28L6 23ZM2 24L2 27L5 27L5 24Z" fill="#000000"/></g></g></svg>
