<?xml version="1.0" encoding="UTF-8"?>
<svg xmlns="http://www.w3.org/2000/svg" version="1.1" width="100" height="100" viewBox="0 0 100 100"><rect x="0" y="0" width="100" height="100" fill="#ffffff"/><g transform="scale(3.448)"><g transform="translate(0,0)"><path fill-rule="evenodd" d="M8 0L8 1L9 1L9 2L10 2L10 3L11 3L11 1L13 1L13 0L11 0L11 1L9 1L9 0ZM14 0L14 1L18 1L18 0ZM20 0L20 1L19 1L19 2L18 2L18 3L17 3L17 2L16 2L16 5L17 5L17 6L16 6L16 7L17 7L17 6L18 6L18 7L19 7L19 8L15 8L15 11L16 11L16 9L17 9L17 12L15 12L15 13L14 13L14 7L15 7L15 6L14 6L14 7L13 7L13 5L12 5L12 4L13 4L13 2L12 2L12 4L11 4L11 5L10 5L10 4L9 4L9 5L10 5L10 8L9 8L9 6L8 6L8 8L9 8L9 9L8 9L8 11L7 11L7 10L6 10L6 9L7 9L7 8L6 8L6 9L5 9L5 8L3 8L3 10L4 10L4 9L5 9L5 11L7 11L7 12L6 12L6 13L8 13L8 11L9 11L9 13L10 13L10 12L11 12L11 13L13 13L13 14L10 14L10 15L9 15L9 14L6 14L6 15L5 15L5 13L3 13L3 12L4 12L4 11L2 11L2 8L0 8L0 9L1 9L1 10L0 10L0 11L2 11L2 13L1 13L1 12L0 12L0 14L1 14L1 15L2 15L2 17L3 17L3 18L1 18L1 17L0 17L0 21L2 21L2 20L4 20L4 19L5 19L5 20L6 20L6 21L7 21L7 20L8 20L8 22L9 22L9 23L10 23L10 24L11 24L11 23L10 23L10 22L11 22L11 19L12 19L12 21L14 21L14 24L13 24L13 25L12 25L12 26L13 26L13 25L15 25L15 26L14 26L14 27L12 27L12 28L11 28L11 25L9 25L9 24L8 24L8 26L9 26L9 27L8 27L8 29L9 29L9 27L10 27L10 28L11 28L11 29L13 29L13 28L15 28L15 27L16 27L16 29L17 29L17 27L16 27L16 26L17 26L17 24L18 24L18 25L19 25L19 26L18 26L18 27L19 27L19 26L21 26L21 25L23 25L23 26L24 26L24 27L21 27L21 28L18 28L18 29L21 29L21 28L25 28L25 27L26 27L26 28L27 28L27 27L28 27L28 28L29 28L29 23L28 23L28 26L27 26L27 25L26 25L26 23L27 23L27 19L26 19L26 20L25 20L25 19L24 19L24 18L25 18L25 17L26 17L26 16L27 16L27 15L29 15L29 12L28 12L28 9L29 9L29 8L28 8L28 9L26 9L26 10L25 10L25 9L24 9L24 10L23 10L23 11L22 11L22 9L23 9L23 8L22 8L22 9L21 9L21 10L20 10L20 7L21 7L21 6L20 6L20 7L19 7L19 6L18 6L18 5L20 5L20 4L21 4L21 3L20 3L20 4L19 4L19 2L20 2L20 1L21 1L21 0ZM14 4L14 5L15 5L15 4ZM17 4L17 5L18 5L18 4ZM11 5L11 7L12 7L12 9L10 9L10 10L9 10L9 11L10 11L10 10L12 10L12 11L13 11L13 10L12 10L12 9L13 9L13 7L12 7L12 5ZM18 9L18 10L19 10L19 11L20 11L20 12L22 12L22 11L20 11L20 10L19 10L19 9ZM24 10L24 11L23 11L23 14L22 14L22 13L19 13L19 12L17 12L17 14L16 14L16 15L15 15L15 14L14 14L14 15L12 15L12 16L9 16L9 17L6 17L6 16L7 16L7 15L6 15L6 16L5 16L5 15L3 15L3 16L5 16L5 19L6 19L6 20L7 20L7 19L6 19L6 18L9 18L9 19L8 19L8 20L9 20L9 21L10 21L10 18L11 18L11 17L14 17L14 16L16 16L16 20L18 20L18 21L16 21L16 24L17 24L17 22L18 22L18 23L19 23L19 24L20 24L20 23L19 23L19 22L18 22L18 21L19 21L19 20L20 20L20 19L18 19L18 18L19 18L19 17L18 17L18 15L17 15L17 14L18 14L18 13L19 13L19 14L21 14L21 15L19 15L19 16L21 16L21 15L23 15L23 16L22 16L22 18L21 18L21 17L20 17L20 18L21 18L21 20L24 20L24 19L22 19L22 18L24 18L24 17L25 17L25 16L26 16L26 15L27 15L27 13L28 13L28 12L27 12L27 11L25 11L25 10ZM24 11L24 12L25 12L25 11ZM2 13L2 14L3 14L3 13ZM24 13L24 14L23 14L23 15L24 15L24 16L23 16L23 17L24 17L24 16L25 16L25 15L26 15L26 13ZM9 17L9 18L10 18L10 17ZM17 17L17 18L18 18L18 17ZM3 18L3 19L4 19L4 18ZM12 18L12 19L13 19L13 20L14 20L14 19L15 19L15 18ZM28 18L28 19L29 19L29 18ZM28 20L28 21L29 21L29 20ZM21 21L21 24L24 24L24 21ZM25 21L25 22L26 22L26 21ZM12 22L12 23L13 23L13 22ZM22 22L22 23L23 23L23 22ZM24 25L24 26L26 26L26 27L27 27L27 26L26 26L26 25ZM0 0L0 7L7 7L7 0ZM1 1L1 6L6 6L6 1ZM2 2L2 5L5 5L5 2ZM22 0L22 7L29 7L29 0ZM23 1L23 6L28 6L28 1ZM24 2L24 5L27 5L27 2ZM0 22L0 29L7 29L7 22ZM1 23L1 28L6 28L6 23ZM2 24L2 27L5 27L5 24Z" fill="#000000"/></g></g></svg>
