<?xml version="1.0" encoding="UTF-8"?>
<svg xmlns="http://www.w3.org/2000/svg" version="1.1" width="100" height="100" viewBox="0 0 100 100"><rect x="0" y="0" width="100" height="100" fill="#ffffff"/><g transform="scale(3.448)"><g transform="translate(0,0)"><path fill-rule="evenodd" d="M10 0L10 2L11 2L11 0ZM12 0L12 1L13 1L13 2L12 2L12 4L13 4L13 3L14 3L14 4L15 4L15 3L16 3L16 4L17 4L17 5L21 5L21 4L19 4L19 3L21 3L21 2L19 2L19 1L20 1L20 0L19 0L19 1L18 1L18 0L17 0L17 1L16 1L16 0L15 0L15 1L14 1L14 0ZM8 1L8 2L9 2L9 1ZM17 1L17 2L16 2L16 3L19 3L19 2L18 2L18 1ZM14 2L14 3L15 3L15 2ZM8 3L8 4L9 4L9 5L8 5L8 7L9 7L9 8L6 8L6 9L10 9L10 11L11 11L11 9L12 9L12 10L13 10L13 11L12 11L12 13L13 13L13 12L14 12L14 13L19 13L19 14L20 14L20 16L19 16L19 15L18 15L18 14L17 14L17 15L18 15L18 16L17 16L17 17L16 17L16 16L15 16L15 15L16 15L16 14L15 14L15 15L14 15L14 16L15 16L15 17L12 17L12 15L13 15L13 14L10 14L10 13L11 13L11 12L9 12L9 10L8 10L8 13L7 13L7 12L6 12L6 13L7 13L7 14L6 14L6 15L7 15L7 16L6 16L6 17L7 17L7 18L6 18L6 19L5 19L5 18L4 18L4 15L5 15L5 14L4 14L4 13L3 13L3 14L2 14L2 12L3 12L3 11L1 11L1 14L0 14L0 15L1 15L1 14L2 14L2 16L1 16L1 17L0 17L0 21L1 21L1 17L2 17L2 18L4 18L4 20L3 20L3 21L4 21L4 20L5 20L5 21L7 21L7 20L8 20L8 23L9 23L9 22L10 22L10 24L11 24L11 25L12 25L12 26L13 26L13 27L12 27L12 29L13 29L13 28L14 28L14 29L19 29L19 28L22 28L22 27L23 27L23 29L24 29L24 28L25 28L25 26L24 26L24 25L25 25L25 24L26 24L26 25L27 25L27 26L26 26L26 27L27 27L27 28L26 28L26 29L27 29L27 28L28 28L28 26L29 26L29 25L27 25L27 24L28 24L28 23L27 23L27 24L26 24L26 21L27 21L27 22L29 22L29 21L27 21L27 20L29 20L29 19L28 19L28 18L29 18L29 17L28 17L28 16L26 16L26 15L27 15L27 14L29 14L29 13L27 13L27 12L29 12L29 11L28 11L28 10L29 10L29 9L28 9L28 8L27 8L27 9L28 9L28 10L27 10L27 12L25 12L25 11L26 11L26 8L25 8L25 9L24 9L24 8L23 8L23 9L22 9L22 8L21 8L21 6L20 6L20 7L19 7L19 6L18 6L18 7L19 7L19 8L17 8L17 6L16 6L16 5L15 5L15 6L14 6L14 8L15 8L15 9L12 9L12 7L13 7L13 5L11 5L11 6L10 6L10 4L11 4L11 3ZM9 6L9 7L10 7L10 6ZM11 6L11 7L12 7L12 6ZM15 6L15 8L16 8L16 6ZM0 8L0 10L1 10L1 9L3 9L3 10L4 10L4 12L5 12L5 10L4 10L4 9L5 9L5 8ZM10 8L10 9L11 9L11 8ZM19 8L19 9L15 9L15 10L16 10L16 12L18 12L18 11L20 11L20 12L19 12L19 13L21 13L21 10L22 10L22 13L23 13L23 14L24 14L24 13L25 13L25 12L24 12L24 13L23 13L23 11L25 11L25 10L24 10L24 9L23 9L23 10L22 10L22 9L21 9L21 8ZM19 9L19 10L21 10L21 9ZM6 10L6 11L7 11L7 10ZM17 10L17 11L18 11L18 10ZM14 11L14 12L15 12L15 11ZM8 13L8 14L7 14L7 15L8 15L8 16L7 16L7 17L10 17L10 18L9 18L9 19L8 19L8 20L9 20L9 21L10 21L10 20L11 20L11 22L13 22L13 23L12 23L12 25L15 25L15 26L16 26L16 28L19 28L19 27L18 27L18 26L19 26L19 25L20 25L20 27L21 27L21 26L23 26L23 27L24 27L24 26L23 26L23 25L20 25L20 23L18 23L18 22L19 22L19 21L20 21L20 20L21 20L21 19L22 19L22 20L25 20L25 21L26 21L26 20L27 20L27 18L28 18L28 17L26 17L26 16L24 16L24 17L23 17L23 15L22 15L22 14L21 14L21 16L20 16L20 18L18 18L18 17L19 17L19 16L18 16L18 17L17 17L17 20L18 20L18 19L19 19L19 21L14 21L14 20L16 20L16 19L14 19L14 20L13 20L13 21L12 21L12 19L13 19L13 18L12 18L12 17L10 17L10 16L11 16L11 15L10 15L10 14L9 14L9 13ZM26 13L26 14L25 14L25 15L26 15L26 14L27 14L27 13ZM3 14L3 15L4 15L4 14ZM8 14L8 15L9 15L9 16L10 16L10 15L9 15L9 14ZM2 16L2 17L3 17L3 16ZM21 16L21 17L22 17L22 18L23 18L23 17L22 17L22 16ZM15 17L15 18L16 18L16 17ZM24 17L24 19L25 19L25 20L26 20L26 17ZM10 18L10 19L9 19L9 20L10 20L10 19L11 19L11 18ZM20 18L20 19L21 19L21 18ZM6 19L6 20L7 20L7 19ZM21 21L21 24L24 24L24 21ZM15 22L15 23L14 23L14 24L15 24L15 25L19 25L19 24L17 24L17 23L16 23L16 22ZM22 22L22 23L23 23L23 22ZM15 23L15 24L16 24L16 23ZM8 24L8 29L9 29L9 28L10 28L10 27L11 27L11 26L9 26L9 24ZM14 27L14 28L15 28L15 27ZM0 0L0 7L7 7L7 0ZM1 1L1 6L6 6L6 1ZM2 2L2 5L5 5L5 2ZM22 0L22 7L29 7L29 0ZM23 1L23 6L28 6L28 1ZM24 2L24 5L27 5L27 2ZM0 22L0 29L7 29L7 22ZM1 23L1 28L6 28L6 23ZM2 24L2 27L5 27L5 24Z" fill="#000000"/></g></g></svg>
