<?xml version="1.0" encoding="UTF-8"?>
<svg xmlns="http://www.w3.org/2000/svg" version="1.1" width="100" height="100" viewBox="0 0 100 100"><rect x="0" y="0" width="100" height="100" fill="#ffffff"/><g transform="scale(3.448)"><g transform="translate(0,0)"><path fill-rule="evenodd" d="M10 0L10 2L11 2L11 0ZM12 0L12 1L13 1L13 2L12 2L12 4L13 4L13 3L14 3L14 4L16 4L16 5L15 5L15 6L14 6L14 8L15 8L15 9L12 9L12 7L13 7L13 5L11 5L11 6L10 6L10 4L11 4L11 3L8 3L8 4L9 4L9 5L8 5L8 7L9 7L9 8L6 8L6 9L8 9L8 10L9 10L9 9L10 9L10 11L11 11L11 9L12 9L12 10L13 10L13 11L12 11L12 13L13 13L13 12L14 12L14 13L16 13L16 14L15 14L15 15L14 15L14 16L15 16L15 17L12 17L12 15L13 15L13 14L11 14L11 17L12 17L12 18L13 18L13 19L12 19L12 21L13 21L13 20L14 20L14 21L19 21L19 19L18 19L18 20L17 20L17 19L16 19L16 18L17 18L17 17L18 17L18 18L20 18L20 22L19 22L19 23L18 23L18 22L17 22L17 23L18 23L18 24L17 24L17 25L16 25L16 24L15 24L15 23L16 23L16 22L15 22L15 23L14 23L14 24L15 24L15 25L12 25L12 23L13 23L13 22L11 22L11 21L10 21L10 20L9 20L9 19L11 19L11 18L9 18L9 17L8 17L8 16L9 16L9 15L8 15L8 14L9 14L9 13L11 13L11 12L8 12L8 11L7 11L7 10L5 10L5 8L0 8L0 12L1 12L1 13L0 13L0 14L1 14L1 13L2 13L2 14L4 14L4 12L5 12L5 11L7 11L7 12L6 12L6 13L7 13L7 14L5 14L5 15L7 15L7 16L6 16L6 17L8 17L8 18L6 18L6 19L8 19L8 23L9 23L9 24L8 24L8 29L11 29L11 26L9 26L9 25L12 25L12 26L13 26L13 27L12 27L12 29L13 29L13 28L14 28L14 29L20 29L20 28L21 28L21 29L22 29L22 28L23 28L23 29L24 29L24 28L25 28L25 27L27 27L27 28L26 28L26 29L27 29L27 28L28 28L28 26L29 26L29 25L27 25L27 24L28 24L28 22L29 22L29 20L28 20L28 18L29 18L29 17L28 17L28 18L27 18L27 20L22 20L22 19L21 19L21 18L20 18L20 16L21 16L21 17L22 17L22 18L23 18L23 19L26 19L26 18L25 18L25 17L24 17L24 16L26 16L26 17L27 17L27 16L26 16L26 15L24 15L24 16L23 16L23 17L22 17L22 16L21 16L21 14L22 14L22 15L23 15L23 13L24 13L24 14L26 14L26 13L27 13L27 14L29 14L29 13L27 13L27 12L29 12L29 11L28 11L28 10L29 10L29 9L28 9L28 8L27 8L27 9L28 9L28 10L27 10L27 12L26 12L26 10L25 10L25 9L26 9L26 8L25 8L25 9L24 9L24 8L23 8L23 9L22 9L22 8L20 8L20 9L19 9L19 8L17 8L17 6L16 6L16 5L20 5L20 4L21 4L21 2L19 2L19 3L17 3L17 2L18 2L18 1L17 1L17 2L16 2L16 0L15 0L15 1L14 1L14 0ZM19 0L19 1L20 1L20 0ZM8 1L8 2L9 2L9 1ZM14 2L14 3L15 3L15 2ZM16 3L16 4L17 4L17 3ZM19 3L19 4L20 4L20 3ZM9 6L9 7L10 7L10 6ZM11 6L11 7L12 7L12 6ZM15 6L15 8L16 8L16 9L15 9L15 10L16 10L16 11L17 11L17 12L16 12L16 13L17 13L17 14L18 14L18 13L21 13L21 11L23 11L23 12L22 12L22 13L23 13L23 12L24 12L24 13L26 13L26 12L25 12L25 11L24 11L24 10L21 10L21 9L20 9L20 10L19 10L19 9L17 9L17 8L16 8L16 6ZM18 6L18 7L19 7L19 6ZM20 6L20 7L21 7L21 6ZM10 8L10 9L11 9L11 8ZM1 9L1 10L2 10L2 9ZM3 9L3 10L4 10L4 9ZM16 9L16 10L17 10L17 9ZM20 10L20 11L21 11L21 10ZM2 11L2 13L3 13L3 12L4 12L4 11ZM14 11L14 12L15 12L15 11ZM18 11L18 12L17 12L17 13L18 13L18 12L19 12L19 11ZM7 12L7 13L8 13L8 12ZM19 14L19 16L18 16L18 15L16 15L16 17L15 17L15 18L16 18L16 17L17 17L17 16L18 16L18 17L19 17L19 16L20 16L20 14ZM2 15L2 16L0 16L0 21L1 21L1 18L2 18L2 17L3 17L3 16L4 16L4 21L5 21L5 16L4 16L4 15ZM28 15L28 16L29 16L29 15ZM23 17L23 18L24 18L24 17ZM2 19L2 20L3 20L3 19ZM14 19L14 20L16 20L16 19ZM6 20L6 21L7 21L7 20ZM9 21L9 23L11 23L11 22L10 22L10 21ZM21 21L21 24L24 24L24 21ZM26 21L26 22L28 22L28 21ZM22 22L22 23L23 23L23 22ZM25 23L25 24L27 24L27 23ZM19 24L19 25L18 25L18 26L17 26L17 27L16 27L16 28L20 28L20 27L22 27L22 26L23 26L23 27L24 27L24 26L27 26L27 25L24 25L24 26L23 26L23 25L22 25L22 26L20 26L20 24ZM15 25L15 26L16 26L16 25ZM18 26L18 27L19 27L19 26ZM9 27L9 28L10 28L10 27ZM14 27L14 28L15 28L15 27ZM0 0L0 7L7 7L7 0ZM1 1L1 6L6 6L6 1ZM2 2L2 5L5 5L5 2ZM22 0L22 7L29 7L29 0ZM23 1L23 6L28 6L28 1ZM24 2L24 5L27 5L27 2ZM0 22L0 29L7 29L7 22ZM1 23L1 28L6 28L6 23ZM2 24L2 27L5 27L5 24Z" fill="#000000"/></g></g></svg>
