<?xml version="1.0" encoding="UTF-8"?>
<svg xmlns="http://www.w3.org/2000/svg" version="1.1" width="100" height="100" viewBox="0 0 100 100"><rect x="0" y="0" width="100" height="100" fill="#ffffff"/><g transform="scale(3.448)"><g transform="translate(0,0)"><path fill-rule="evenodd" d="M10 0L10 2L11 2L11 0ZM12 0L12 1L13 1L13 2L12 2L12 4L13 4L13 3L14 3L14 4L17 4L17 5L15 5L15 6L14 6L14 8L15 8L15 9L12 9L12 7L13 7L13 5L11 5L11 6L10 6L10 4L11 4L11 3L8 3L8 4L9 4L9 5L8 5L8 7L9 7L9 8L6 8L6 9L8 9L8 12L6 12L6 11L7 11L7 10L6 10L6 11L5 11L5 8L0 8L0 9L1 9L1 10L0 10L0 11L1 11L1 12L2 12L2 11L3 11L3 13L0 13L0 14L1 14L1 15L0 15L0 21L1 21L1 17L3 17L3 19L7 19L7 20L6 20L6 21L7 21L7 20L8 20L8 23L9 23L9 24L8 24L8 29L11 29L11 28L9 28L9 27L10 27L10 25L12 25L12 26L13 26L13 27L12 27L12 29L13 29L13 28L14 28L14 29L16 29L16 28L14 28L14 27L17 27L17 26L18 26L18 28L17 28L17 29L18 29L18 28L22 28L22 29L24 29L24 28L25 28L25 26L26 26L26 27L27 27L27 28L26 28L26 29L27 29L27 28L28 28L28 26L29 26L29 25L27 25L27 24L28 24L28 23L27 23L27 24L26 24L26 21L27 21L27 22L29 22L29 21L28 21L28 20L26 20L26 19L27 19L27 18L29 18L29 17L28 17L28 16L29 16L29 15L27 15L27 16L25 16L25 15L26 15L26 14L25 14L25 13L24 13L24 12L26 12L26 13L27 13L27 14L29 14L29 13L27 13L27 12L29 12L29 11L27 11L27 10L29 10L29 9L28 9L28 8L27 8L27 10L25 10L25 9L26 9L26 8L25 8L25 9L24 9L24 8L23 8L23 9L22 9L22 8L21 8L21 5L20 5L20 4L21 4L21 3L17 3L17 2L19 2L19 1L21 1L21 0L18 0L18 1L17 1L17 2L16 2L16 0L15 0L15 1L14 1L14 0ZM8 1L8 2L9 2L9 1ZM14 2L14 3L15 3L15 2ZM17 5L17 8L16 8L16 9L15 9L15 10L16 10L16 9L17 9L17 12L18 12L18 11L20 11L20 12L19 12L19 13L14 13L14 12L15 12L15 11L14 11L14 12L13 12L13 13L12 13L12 11L13 11L13 10L12 10L12 9L11 9L11 8L10 8L10 9L9 9L9 12L11 12L11 13L9 13L9 15L11 15L11 14L13 14L13 15L12 15L12 17L9 17L9 18L11 18L11 19L8 19L8 16L7 16L7 15L5 15L5 16L4 16L4 18L5 18L5 17L6 17L6 18L7 18L7 19L8 19L8 20L11 20L11 22L9 22L9 23L11 23L11 22L13 22L13 23L12 23L12 25L15 25L15 26L17 26L17 25L16 25L16 24L18 24L18 23L19 23L19 22L20 22L20 18L21 18L21 19L22 19L22 20L24 20L24 19L25 19L25 18L27 18L27 17L25 17L25 16L23 16L23 15L24 15L24 13L23 13L23 12L24 12L24 11L21 11L21 10L22 10L22 9L20 9L20 8L19 8L19 7L20 7L20 5ZM9 6L9 7L10 7L10 6ZM11 6L11 7L12 7L12 6ZM15 6L15 7L16 7L16 6ZM18 6L18 7L19 7L19 6ZM17 8L17 9L18 9L18 10L20 10L20 9L18 9L18 8ZM10 9L10 11L11 11L11 9ZM23 9L23 10L24 10L24 9ZM1 10L1 11L2 11L2 10ZM26 11L26 12L27 12L27 11ZM5 12L5 13L3 13L3 14L2 14L2 16L3 16L3 14L5 14L5 13L6 13L6 14L8 14L8 13L6 13L6 12ZM21 12L21 13L19 13L19 14L18 14L18 15L19 15L19 14L20 14L20 16L17 16L17 17L16 17L16 16L15 16L15 15L16 15L16 14L15 14L15 15L14 15L14 16L15 16L15 17L12 17L12 18L13 18L13 19L12 19L12 21L13 21L13 20L14 20L14 21L16 21L16 22L15 22L15 23L14 23L14 24L16 24L16 23L17 23L17 21L18 21L18 22L19 22L19 21L18 21L18 20L17 20L17 21L16 21L16 20L14 20L14 19L16 19L16 18L17 18L17 19L19 19L19 18L20 18L20 16L21 16L21 17L22 17L22 18L25 18L25 17L22 17L22 16L21 16L21 14L22 14L22 15L23 15L23 13L22 13L22 12ZM6 16L6 17L7 17L7 16ZM15 17L15 18L16 18L16 17ZM17 17L17 18L19 18L19 17ZM2 20L2 21L5 21L5 20ZM25 20L25 21L26 21L26 20ZM21 21L21 24L24 24L24 21ZM22 22L22 23L23 23L23 22ZM19 24L19 25L18 25L18 26L19 26L19 27L21 27L21 26L23 26L23 27L22 27L22 28L23 28L23 27L24 27L24 26L25 26L25 25L26 25L26 26L27 26L27 25L26 25L26 24L25 24L25 25L24 25L24 26L23 26L23 25L21 25L21 26L19 26L19 25L20 25L20 24ZM0 0L0 7L7 7L7 0ZM1 1L1 6L6 6L6 1ZM2 2L2 5L5 5L5 2ZM22 0L22 7L29 7L29 0ZM23 1L23 6L28 6L28 1ZM24 2L24 5L27 5L27 2ZM0 22L0 29L7 29L7 22ZM1 23L1 28L6 28L6 23ZM2 24L2 27L5 27L5 24Z" fill="#000000"/></g></g></svg>
