<?xml version="1.0" encoding="UTF-8"?>
<svg xmlns="http://www.w3.org/2000/svg" version="1.1" width="100" height="100" viewBox="0 0 100 100"><rect x="0" y="0" width="100" height="100" fill="#ffffff"/><g transform="scale(3.448)"><g transform="translate(0,0)"><path fill-rule="evenodd" d="M8 0L8 1L9 1L9 2L8 2L8 5L9 5L9 4L11 4L11 5L10 5L10 10L9 10L9 8L8 8L8 11L9 11L9 13L11 13L11 15L10 15L10 14L8 14L8 12L6 12L6 11L7 11L7 10L6 10L6 9L7 9L7 8L6 8L6 9L5 9L5 11L4 11L4 13L3 13L3 12L2 12L2 13L3 13L3 14L1 14L1 13L0 13L0 14L1 14L1 15L0 15L0 16L3 16L3 17L1 17L1 18L0 18L0 19L1 19L1 18L2 18L2 19L5 19L5 20L3 20L3 21L5 21L5 20L6 20L6 21L8 21L8 22L9 22L9 21L10 21L10 23L11 23L11 24L10 24L10 25L8 25L8 29L10 29L10 28L9 28L9 27L11 27L11 26L12 26L12 28L11 28L11 29L12 29L12 28L14 28L14 27L15 27L15 29L17 29L17 28L16 28L16 27L15 27L15 26L16 26L16 25L17 25L17 27L18 27L18 24L15 24L15 22L14 22L14 23L11 23L11 21L10 21L10 20L12 20L12 19L11 19L11 18L10 18L10 17L11 17L11 16L12 16L12 17L13 17L13 16L12 16L12 14L13 14L13 15L14 15L14 18L13 18L13 21L15 21L15 20L17 20L17 21L18 21L18 20L19 20L19 18L18 18L18 19L16 19L16 17L15 17L15 16L17 16L17 15L14 15L14 14L16 14L16 13L17 13L17 14L19 14L19 15L18 15L18 17L21 17L21 18L22 18L22 17L21 17L21 15L22 15L22 14L24 14L24 12L23 12L23 11L25 11L25 13L26 13L26 14L25 14L25 15L24 15L24 17L26 17L26 16L25 16L25 15L26 15L26 14L27 14L27 15L29 15L29 13L28 13L28 11L27 11L27 10L25 10L25 9L27 9L27 8L24 8L24 9L22 9L22 8L21 8L21 3L20 3L20 2L21 2L21 1L20 1L20 0L19 0L19 1L20 1L20 2L18 2L18 0L17 0L17 2L18 2L18 3L16 3L16 2L15 2L15 3L14 3L14 5L13 5L13 3L12 3L12 4L11 4L11 2L14 2L14 0L12 0L12 1L11 1L11 0L10 0L10 1L9 1L9 0ZM15 0L15 1L16 1L16 0ZM16 4L16 5L14 5L14 6L13 6L13 5L12 5L12 6L11 6L11 8L12 8L12 6L13 6L13 8L14 8L14 9L15 9L15 10L14 10L14 11L11 11L11 13L12 13L12 12L13 12L13 14L14 14L14 12L15 12L15 11L16 11L16 8L15 8L15 7L16 7L16 5L17 5L17 7L18 7L18 5L19 5L19 4ZM8 6L8 7L9 7L9 6ZM14 6L14 7L15 7L15 6ZM19 6L19 8L18 8L18 9L17 9L17 12L18 12L18 10L19 10L19 11L20 11L20 12L19 12L19 13L20 13L20 14L22 14L22 13L23 13L23 12L22 12L22 13L21 13L21 10L19 10L19 8L20 8L20 9L21 9L21 8L20 8L20 6ZM0 8L0 9L2 9L2 10L1 10L1 11L0 11L0 12L1 12L1 11L3 11L3 9L4 9L4 8ZM28 8L28 10L29 10L29 8ZM11 9L11 10L12 10L12 9ZM22 10L22 11L23 11L23 10ZM26 11L26 12L27 12L27 11ZM6 13L6 14L7 14L7 13ZM27 13L27 14L28 14L28 13ZM5 15L5 17L4 17L4 18L5 18L5 19L6 19L6 20L7 20L7 19L6 19L6 18L7 18L7 17L8 17L8 21L9 21L9 20L10 20L10 18L9 18L9 16L10 16L10 15L9 15L9 16L7 16L7 15ZM19 15L19 16L20 16L20 15ZM6 16L6 17L5 17L5 18L6 18L6 17L7 17L7 16ZM28 16L28 17L27 17L27 18L24 18L24 19L23 19L23 20L21 20L21 19L20 19L20 21L19 21L19 22L18 22L18 23L19 23L19 24L20 24L20 25L21 25L21 26L22 26L22 25L24 25L24 26L25 26L25 27L23 27L23 28L22 28L22 27L20 27L20 28L19 28L19 29L23 29L23 28L24 28L24 29L25 29L25 27L27 27L27 29L28 29L28 27L29 27L29 25L28 25L28 27L27 27L27 24L26 24L26 23L27 23L27 22L25 22L25 21L28 21L28 22L29 22L29 19L28 19L28 17L29 17L29 16ZM24 19L24 20L25 20L25 19ZM27 19L27 20L28 20L28 19ZM1 20L1 21L2 21L2 20ZM21 21L21 24L24 24L24 21ZM22 22L22 23L23 23L23 22ZM28 23L28 24L29 24L29 23ZM12 24L12 26L13 26L13 27L14 27L14 26L15 26L15 24ZM13 25L13 26L14 26L14 25ZM25 25L25 26L26 26L26 25ZM0 0L0 7L7 7L7 0ZM1 1L1 6L6 6L6 1ZM2 2L2 5L5 5L5 2ZM22 0L22 7L29 7L29 0ZM23 1L23 6L28 6L28 1ZM24 2L24 5L27 5L27 2ZM0 22L0 29L7 29L7 22ZM1 23L1 28L6 28L6 23ZM2 24L2 27L5 27L5 24Z" fill="#000000"/></g></g></svg>
