<?xml version="1.0" encoding="UTF-8"?>
<svg xmlns="http://www.w3.org/2000/svg" version="1.1" width="100" height="100" viewBox="0 0 100 100"><rect x="0" y="0" width="100" height="100" fill="#ffffff"/><g transform="scale(3.448)"><g transform="translate(0,0)"><path fill-rule="evenodd" d="M10 0L10 2L11 2L11 0ZM12 0L12 1L13 1L13 2L12 2L12 4L13 4L13 3L14 3L14 4L15 4L15 3L16 3L16 4L17 4L17 5L21 5L21 4L19 4L19 3L21 3L21 2L19 2L19 1L20 1L20 0L19 0L19 1L18 1L18 0L17 0L17 1L18 1L18 2L19 2L19 3L16 3L16 0L15 0L15 1L14 1L14 0ZM8 1L8 2L9 2L9 1ZM14 2L14 3L15 3L15 2ZM8 3L8 4L9 4L9 5L8 5L8 7L9 7L9 8L6 8L6 9L7 9L7 10L5 10L5 8L0 8L0 9L1 9L1 10L2 10L2 9L4 9L4 10L3 10L3 11L1 11L1 12L0 12L0 21L1 21L1 17L2 17L2 21L3 21L3 18L6 18L6 19L7 19L7 18L6 18L6 17L8 17L8 19L9 19L9 20L8 20L8 23L9 23L9 20L10 20L10 19L9 19L9 18L10 18L10 16L11 16L11 17L12 17L12 18L13 18L13 19L12 19L12 21L13 21L13 20L14 20L14 21L16 21L16 22L15 22L15 23L14 23L14 24L15 24L15 25L12 25L12 23L13 23L13 22L11 22L11 21L10 21L10 22L11 22L11 24L8 24L8 29L10 29L10 28L11 28L11 27L10 27L10 28L9 28L9 26L11 26L11 25L12 25L12 26L13 26L13 27L12 27L12 29L13 29L13 28L14 28L14 29L20 29L20 28L23 28L23 29L24 29L24 28L25 28L25 27L27 27L27 28L26 28L26 29L27 29L27 28L28 28L28 26L29 26L29 25L27 25L27 24L28 24L28 22L29 22L29 20L28 20L28 18L29 18L29 17L28 17L28 15L27 15L27 14L29 14L29 13L28 13L28 12L29 12L29 11L28 11L28 10L29 10L29 9L28 9L28 8L27 8L27 9L28 9L28 10L26 10L26 11L28 11L28 12L25 12L25 9L26 9L26 8L25 8L25 9L24 9L24 8L23 8L23 9L22 9L22 8L19 8L19 9L18 9L18 8L17 8L17 6L16 6L16 5L15 5L15 6L14 6L14 8L15 8L15 9L12 9L12 7L13 7L13 5L11 5L11 6L10 6L10 4L11 4L11 3ZM9 6L9 7L10 7L10 6ZM11 6L11 7L12 7L12 6ZM15 6L15 8L16 8L16 9L15 9L15 10L16 10L16 9L17 9L17 12L18 12L18 13L14 13L14 12L15 12L15 11L14 11L14 12L13 12L13 13L12 13L12 11L13 11L13 10L12 10L12 9L11 9L11 8L10 8L10 9L8 9L8 10L9 10L9 11L5 11L5 12L7 12L7 13L6 13L6 14L7 14L7 15L5 15L5 13L4 13L4 12L1 12L1 13L3 13L3 15L2 15L2 14L1 14L1 15L2 15L2 16L3 16L3 17L4 17L4 16L10 16L10 15L8 15L8 13L9 13L9 12L11 12L11 13L10 13L10 14L13 14L13 15L12 15L12 17L15 17L15 18L17 18L17 20L16 20L16 21L17 21L17 22L18 22L18 23L15 23L15 24L18 24L18 23L19 23L19 25L15 25L15 26L18 26L18 27L14 27L14 28L18 28L18 27L19 27L19 28L20 28L20 27L22 27L22 26L23 26L23 27L24 27L24 26L25 26L25 25L24 25L24 26L23 26L23 25L22 25L22 26L21 26L21 25L20 25L20 23L19 23L19 22L18 22L18 21L20 21L20 20L21 20L21 19L22 19L22 20L24 20L24 19L23 19L23 18L22 18L22 17L25 17L25 19L26 19L26 20L25 20L25 21L26 21L26 22L25 22L25 24L27 24L27 23L26 23L26 22L28 22L28 21L26 21L26 20L27 20L27 18L28 18L28 17L27 17L27 18L26 18L26 17L25 17L25 16L27 16L27 15L25 15L25 16L23 16L23 15L24 15L24 14L23 14L23 15L22 15L22 14L21 14L21 13L20 13L20 14L19 14L19 15L18 15L18 13L19 13L19 12L22 12L22 13L25 13L25 12L24 12L24 11L23 11L23 10L24 10L24 9L23 9L23 10L22 10L22 9L20 9L20 10L18 10L18 9L17 9L17 8L16 8L16 6ZM18 6L18 7L19 7L19 6ZM20 6L20 7L21 7L21 6ZM10 9L10 11L11 11L11 9ZM20 10L20 11L22 11L22 10ZM26 13L26 14L27 14L27 13ZM15 14L15 15L14 15L14 16L15 16L15 17L17 17L17 18L18 18L18 20L17 20L17 21L18 21L18 20L20 20L20 19L19 19L19 18L20 18L20 16L21 16L21 17L22 17L22 16L21 16L21 14L20 14L20 16L16 16L16 15L17 15L17 14ZM3 15L3 16L4 16L4 15ZM18 17L18 18L19 18L19 17ZM4 19L4 21L5 21L5 19ZM14 19L14 20L15 20L15 19ZM6 20L6 21L7 21L7 20ZM21 21L21 24L24 24L24 21ZM22 22L22 23L23 23L23 22ZM19 25L19 27L20 27L20 25ZM26 25L26 26L27 26L27 25ZM0 0L0 7L7 7L7 0ZM1 1L1 6L6 6L6 1ZM2 2L2 5L5 5L5 2ZM22 0L22 7L29 7L29 0ZM23 1L23 6L28 6L28 1ZM24 2L24 5L27 5L27 2ZM0 22L0 29L7 29L7 22ZM1 23L1 28L6 28L6 23ZM2 24L2 27L5 27L5 24Z" fill="#000000"/></g></g></svg>
