<?xml version="1.0" encoding="UTF-8"?>
<svg xmlns="http://www.w3.org/2000/svg" version="1.1" width="100" height="100" viewBox="0 0 100 100"><rect x="0" y="0" width="100" height="100" fill="#ffffff"/><g transform="scale(3.448)"><g transform="translate(0,0)"><path fill-rule="evenodd" d="M8 0L8 1L9 1L9 2L8 2L8 5L9 5L9 4L11 4L11 5L10 5L10 10L9 10L9 8L8 8L8 10L5 10L5 9L4 9L4 8L0 8L0 9L1 9L1 11L0 11L0 15L1 15L1 16L4 16L4 17L1 17L1 18L0 18L0 19L1 19L1 18L3 18L3 19L4 19L4 20L6 20L6 21L7 21L7 20L6 20L6 19L7 19L7 18L6 18L6 19L4 19L4 17L5 17L5 15L8 15L8 14L9 14L9 15L11 15L11 16L10 16L10 17L11 17L11 16L12 16L12 17L13 17L13 16L12 16L12 14L13 14L13 15L14 15L14 18L13 18L13 21L15 21L15 19L16 19L16 20L17 20L17 21L18 21L18 19L16 19L16 17L15 17L15 15L14 15L14 14L16 14L16 16L17 16L17 15L18 15L18 12L19 12L19 15L20 15L20 16L18 16L18 17L21 17L21 18L20 18L20 20L19 20L19 21L20 21L20 22L18 22L18 24L17 24L17 22L16 22L16 24L15 24L15 22L14 22L14 23L10 23L10 24L9 24L9 25L8 25L8 29L9 29L9 28L10 28L10 27L11 27L11 26L12 26L12 28L11 28L11 29L12 29L12 28L14 28L14 27L15 27L15 26L16 26L16 29L17 29L17 27L18 27L18 28L20 28L20 29L21 29L21 28L22 28L22 26L21 26L21 27L18 27L18 24L19 24L19 23L20 23L20 25L19 25L19 26L20 26L20 25L23 25L23 28L24 28L24 29L25 29L25 27L26 27L26 26L27 26L27 24L26 24L26 23L25 23L25 22L26 22L26 21L27 21L27 19L28 19L28 16L29 16L29 13L28 13L28 10L29 10L29 8L28 8L28 9L27 9L27 8L24 8L24 10L23 10L23 9L22 9L22 8L20 8L20 7L21 7L21 6L20 6L20 5L21 5L21 3L20 3L20 2L18 2L18 1L16 1L16 0L15 0L15 1L16 1L16 2L15 2L15 3L14 3L14 5L13 5L13 3L12 3L12 4L11 4L11 2L14 2L14 0L12 0L12 1L11 1L11 0L10 0L10 1L9 1L9 0ZM19 0L19 1L20 1L20 0ZM17 2L17 3L16 3L16 4L17 4L17 7L16 7L16 5L14 5L14 6L13 6L13 5L12 5L12 6L11 6L11 8L12 8L12 6L13 6L13 8L14 8L14 9L15 9L15 10L14 10L14 11L11 11L11 13L10 13L10 14L11 14L11 13L12 13L12 12L13 12L13 14L14 14L14 12L15 12L15 11L16 11L16 8L17 8L17 7L18 7L18 5L19 5L19 4L20 4L20 3L19 3L19 4L17 4L17 3L18 3L18 2ZM8 6L8 7L9 7L9 6ZM14 6L14 7L15 7L15 8L16 8L16 7L15 7L15 6ZM19 6L19 7L20 7L20 6ZM6 8L6 9L7 9L7 8ZM2 9L2 11L1 11L1 14L2 14L2 13L3 13L3 12L5 12L5 11L4 11L4 9ZM11 9L11 10L12 10L12 9ZM17 9L17 10L18 10L18 9ZM20 9L20 10L19 10L19 11L20 11L20 12L21 12L21 11L22 11L22 13L21 13L21 14L22 14L22 15L21 15L21 17L22 17L22 18L21 18L21 20L25 20L25 19L24 19L24 18L25 18L25 17L24 17L24 18L23 18L23 16L24 16L24 15L25 15L25 16L26 16L26 18L27 18L27 14L28 14L28 13L25 13L25 11L24 11L24 12L23 12L23 10L22 10L22 9ZM25 9L25 10L27 10L27 9ZM8 10L8 11L6 11L6 12L8 12L8 13L9 13L9 12L8 12L8 11L9 11L9 10ZM17 11L17 12L18 12L18 11ZM26 11L26 12L27 12L27 11ZM6 13L6 14L7 14L7 13ZM16 13L16 14L17 14L17 13ZM22 13L22 14L23 14L23 15L24 15L24 14L23 14L23 13ZM3 14L3 15L5 15L5 14ZM25 14L25 15L26 15L26 14ZM6 16L6 17L7 17L7 16ZM8 16L8 19L10 19L10 20L9 20L9 21L8 21L8 22L9 22L9 21L10 21L10 22L11 22L11 21L10 21L10 20L12 20L12 19L11 19L11 18L9 18L9 16ZM1 20L1 21L2 21L2 20ZM28 20L28 22L29 22L29 20ZM21 21L21 24L24 24L24 21ZM22 22L22 23L23 23L23 22ZM28 23L28 24L29 24L29 23ZM10 24L10 25L11 25L11 24ZM12 24L12 26L13 26L13 27L14 27L14 26L15 26L15 24ZM13 25L13 26L14 26L14 25ZM16 25L16 26L17 26L17 25ZM28 25L28 27L27 27L27 29L28 29L28 27L29 27L29 25ZM9 26L9 27L10 27L10 26ZM24 26L24 27L25 27L25 26ZM0 0L0 7L7 7L7 0ZM1 1L1 6L6 6L6 1ZM2 2L2 5L5 5L5 2ZM22 0L22 7L29 7L29 0ZM23 1L23 6L28 6L28 1ZM24 2L24 5L27 5L27 2ZM0 22L0 29L7 29L7 22ZM1 23L1 28L6 28L6 23ZM2 24L2 27L5 27L5 24Z" fill="#000000"/></g></g></svg>
