<?xml version="1.0" encoding="UTF-8"?>
<svg xmlns="http://www.w3.org/2000/svg" version="1.1" width="100" height="100" viewBox="0 0 100 100"><rect x="0" y="0" width="100" height="100" fill="#ffffff"/><g transform="scale(3.448)"><g transform="translate(0,0)"><path fill-rule="evenodd" d="M10 0L10 2L11 2L11 0ZM12 0L12 1L13 1L13 2L12 2L12 4L13 4L13 3L14 3L14 4L17 4L17 5L15 5L15 6L14 6L14 8L15 8L15 9L12 9L12 7L13 7L13 5L11 5L11 6L10 6L10 4L11 4L11 3L8 3L8 4L9 4L9 5L8 5L8 7L9 7L9 8L6 8L6 9L5 9L5 8L0 8L0 9L1 9L1 10L2 10L2 11L1 11L1 12L6 12L6 13L7 13L7 14L6 14L6 15L5 15L5 14L4 14L4 13L1 13L1 14L0 14L0 16L3 16L3 15L4 15L4 18L6 18L6 19L5 19L5 20L3 20L3 18L2 18L2 17L0 17L0 21L1 21L1 18L2 18L2 20L3 20L3 21L7 21L7 20L8 20L8 19L9 19L9 21L8 21L8 23L9 23L9 24L8 24L8 29L9 29L9 27L10 27L10 26L11 26L11 25L12 25L12 26L13 26L13 27L12 27L12 29L13 29L13 28L14 28L14 29L19 29L19 28L21 28L21 29L22 29L22 28L21 28L21 27L20 27L20 25L21 25L21 26L22 26L22 27L23 27L23 29L24 29L24 28L25 28L25 27L26 27L26 25L27 25L27 28L26 28L26 29L27 29L27 28L28 28L28 26L29 26L29 25L27 25L27 24L28 24L28 22L29 22L29 21L28 21L28 19L27 19L27 20L26 20L26 19L25 19L25 18L26 18L26 17L27 17L27 18L29 18L29 17L27 17L27 16L25 16L25 15L27 15L27 14L29 14L29 13L27 13L27 12L29 12L29 11L27 11L27 10L29 10L29 9L28 9L28 8L27 8L27 10L26 10L26 11L24 11L24 10L25 10L25 9L26 9L26 8L25 8L25 9L24 9L24 8L23 8L23 9L22 9L22 8L21 8L21 5L20 5L20 4L21 4L21 0L18 0L18 2L19 2L19 3L17 3L17 2L16 2L16 0L15 0L15 1L14 1L14 0ZM8 1L8 2L9 2L9 1ZM19 1L19 2L20 2L20 1ZM14 2L14 3L16 3L16 2ZM19 3L19 4L20 4L20 3ZM17 5L17 7L16 7L16 6L15 6L15 7L16 7L16 8L19 8L19 9L15 9L15 10L18 10L18 11L16 11L16 13L14 13L14 12L15 12L15 11L14 11L14 12L13 12L13 13L12 13L12 11L13 11L13 10L12 10L12 9L11 9L11 8L10 8L10 9L6 9L6 10L5 10L5 9L2 9L2 10L3 10L3 11L4 11L4 10L5 10L5 11L6 11L6 12L7 12L7 13L9 13L9 12L11 12L11 13L10 13L10 14L9 14L9 15L8 15L8 16L10 16L10 17L6 17L6 18L7 18L7 19L6 19L6 20L7 20L7 19L8 19L8 18L10 18L10 19L11 19L11 20L10 20L10 21L11 21L11 22L9 22L9 23L10 23L10 25L9 25L9 26L10 26L10 25L11 25L11 22L13 22L13 23L12 23L12 25L15 25L15 26L16 26L16 27L14 27L14 28L18 28L18 27L17 27L17 26L18 26L18 25L20 25L20 23L19 23L19 21L20 21L20 20L21 20L21 19L22 19L22 20L23 20L23 19L24 19L24 17L25 17L25 16L24 16L24 15L25 15L25 14L27 14L27 13L26 13L26 12L27 12L27 11L26 11L26 12L24 12L24 11L23 11L23 10L21 10L21 11L20 11L20 10L19 10L19 9L21 9L21 8L20 8L20 5ZM9 6L9 7L10 7L10 6ZM11 6L11 7L12 7L12 6ZM18 6L18 7L19 7L19 6ZM10 9L10 11L11 11L11 9ZM6 10L6 11L7 11L7 12L9 12L9 11L7 11L7 10ZM18 11L18 12L17 12L17 13L16 13L16 14L15 14L15 15L14 15L14 16L15 16L15 17L12 17L12 15L13 15L13 14L10 14L10 16L11 16L11 17L12 17L12 18L13 18L13 19L12 19L12 21L13 21L13 20L14 20L14 21L19 21L19 20L20 20L20 19L18 19L18 18L17 18L17 17L19 17L19 18L20 18L20 16L21 16L21 17L22 17L22 18L23 18L23 17L24 17L24 16L23 16L23 17L22 17L22 16L21 16L21 14L22 14L22 15L23 15L23 14L25 14L25 13L22 13L22 11L21 11L21 13L19 13L19 11ZM18 13L18 14L17 14L17 16L16 16L16 17L15 17L15 18L16 18L16 19L14 19L14 20L18 20L18 19L17 19L17 18L16 18L16 17L17 17L17 16L20 16L20 14L19 14L19 13ZM18 14L18 15L19 15L19 14ZM6 15L6 16L7 16L7 15ZM25 20L25 21L26 21L26 23L25 23L25 24L27 24L27 22L28 22L28 21L26 21L26 20ZM21 21L21 24L24 24L24 21ZM15 22L15 23L14 23L14 24L15 24L15 25L18 25L18 24L19 24L19 23L18 23L18 24L17 24L17 22ZM22 22L22 23L23 23L23 22ZM15 23L15 24L16 24L16 23ZM22 25L22 26L25 26L25 25ZM0 0L0 7L7 7L7 0ZM1 1L1 6L6 6L6 1ZM2 2L2 5L5 5L5 2ZM22 0L22 7L29 7L29 0ZM23 1L23 6L28 6L28 1ZM24 2L24 5L27 5L27 2ZM0 22L0 29L7 29L7 22ZM1 23L1 28L6 28L6 23ZM2 24L2 27L5 27L5 24Z" fill="#000000"/></g></g></svg>
