<?xml version="1.0" encoding="UTF-8"?>
<svg xmlns="http://www.w3.org/2000/svg" version="1.1" width="100" height="100" viewBox="0 0 100 100"><rect x="0" y="0" width="100" height="100" fill="#ffffff"/><g transform="scale(3.448)"><g transform="translate(0,0)"><path fill-rule="evenodd" d="M10 0L10 2L11 2L11 0ZM12 0L12 1L13 1L13 2L12 2L12 4L13 4L13 3L14 3L14 4L17 4L17 5L20 5L20 4L21 4L21 3L20 3L20 4L19 4L19 1L21 1L21 0L18 0L18 1L16 1L16 0L15 0L15 1L14 1L14 0ZM8 1L8 2L9 2L9 1ZM14 2L14 3L15 3L15 2ZM16 2L16 3L18 3L18 2ZM8 3L8 4L9 4L9 5L8 5L8 7L9 7L9 8L6 8L6 9L7 9L7 10L5 10L5 8L0 8L0 10L1 10L1 12L2 12L2 16L1 16L1 13L0 13L0 16L1 16L1 17L0 17L0 21L1 21L1 17L2 17L2 21L5 21L5 20L6 20L6 21L8 21L8 23L10 23L10 24L11 24L11 25L10 25L10 26L9 26L9 24L8 24L8 29L10 29L10 28L11 28L11 25L12 25L12 26L13 26L13 27L12 27L12 29L13 29L13 28L14 28L14 29L15 29L15 28L16 28L16 29L19 29L19 28L21 28L21 29L22 29L22 28L23 28L23 29L24 29L24 28L25 28L25 26L22 26L22 25L27 25L27 28L26 28L26 29L27 29L27 28L28 28L28 26L29 26L29 25L27 25L27 24L28 24L28 22L29 22L29 21L28 21L28 20L25 20L25 19L26 19L26 18L27 18L27 19L28 19L28 18L29 18L29 17L28 17L28 18L27 18L27 16L25 16L25 13L26 13L26 14L27 14L27 15L28 15L28 14L29 14L29 13L28 13L28 12L29 12L29 11L27 11L27 12L25 12L25 10L26 10L26 8L25 8L25 9L24 9L24 8L23 8L23 9L22 9L22 8L16 8L16 7L17 7L17 6L16 6L16 5L15 5L15 6L14 6L14 8L15 8L15 9L12 9L12 7L13 7L13 5L11 5L11 6L10 6L10 4L11 4L11 3ZM9 6L9 7L10 7L10 6ZM11 6L11 7L12 7L12 6ZM15 6L15 7L16 7L16 6ZM18 6L18 7L19 7L19 6ZM20 6L20 7L21 7L21 6ZM10 8L10 9L9 9L9 10L8 10L8 11L6 11L6 12L4 12L4 13L3 13L3 16L2 16L2 17L3 17L3 18L4 18L4 14L5 14L5 13L6 13L6 14L7 14L7 15L6 15L6 16L9 16L9 18L8 18L8 19L6 19L6 20L8 20L8 21L9 21L9 20L10 20L10 23L11 23L11 22L13 22L13 23L12 23L12 25L15 25L15 26L16 26L16 28L18 28L18 27L17 27L17 26L18 26L18 25L20 25L20 24L18 24L18 23L17 23L17 22L18 22L18 21L19 21L19 22L20 22L20 20L21 20L21 19L22 19L22 20L24 20L24 19L25 19L25 18L26 18L26 17L25 17L25 16L24 16L24 17L23 17L23 15L22 15L22 14L21 14L21 13L20 13L20 14L19 14L19 13L17 13L17 12L18 12L18 11L17 11L17 10L19 10L19 12L22 12L22 13L23 13L23 14L24 14L24 13L25 13L25 12L24 12L24 11L20 11L20 10L22 10L22 9L20 9L20 10L19 10L19 9L15 9L15 10L16 10L16 11L14 11L14 12L13 12L13 13L12 13L12 11L13 11L13 10L12 10L12 9L11 9L11 8ZM27 8L27 10L29 10L29 9L28 9L28 8ZM1 9L1 10L2 10L2 12L3 12L3 11L5 11L5 10L4 10L4 9L3 9L3 10L2 10L2 9ZM10 9L10 11L11 11L11 9ZM23 9L23 10L24 10L24 9ZM6 12L6 13L8 13L8 14L9 14L9 13L11 13L11 12ZM14 12L14 13L16 13L16 14L15 14L15 15L14 15L14 16L16 16L16 17L19 17L19 18L18 18L18 19L19 19L19 18L20 18L20 19L21 19L21 18L20 18L20 16L21 16L21 17L22 17L22 18L23 18L23 19L24 19L24 18L25 18L25 17L24 17L24 18L23 18L23 17L22 17L22 16L21 16L21 14L20 14L20 16L19 16L19 15L18 15L18 14L17 14L17 13L16 13L16 12ZM23 12L23 13L24 13L24 12ZM27 13L27 14L28 14L28 13ZM10 14L10 15L9 15L9 16L10 16L10 18L9 18L9 19L8 19L8 20L9 20L9 19L10 19L10 18L11 18L11 17L12 17L12 18L13 18L13 19L12 19L12 21L13 21L13 20L14 20L14 21L16 21L16 22L15 22L15 23L14 23L14 24L16 24L16 25L18 25L18 24L16 24L16 22L17 22L17 21L18 21L18 20L17 20L17 18L15 18L15 17L12 17L12 15L13 15L13 14ZM16 15L16 16L18 16L18 15ZM5 17L5 18L7 18L7 17ZM3 19L3 20L5 20L5 19ZM14 19L14 20L15 20L15 19ZM16 20L16 21L17 21L17 20ZM21 21L21 24L24 24L24 21ZM26 21L26 23L25 23L25 24L27 24L27 22L28 22L28 21ZM22 22L22 23L23 23L23 22ZM20 26L20 27L22 27L22 26ZM14 27L14 28L15 28L15 27ZM0 0L0 7L7 7L7 0ZM1 1L1 6L6 6L6 1ZM2 2L2 5L5 5L5 2ZM22 0L22 7L29 7L29 0ZM23 1L23 6L28 6L28 1ZM24 2L24 5L27 5L27 2ZM0 22L0 29L7 29L7 22ZM1 23L1 28L6 28L6 23ZM2 24L2 27L5 27L5 24Z" fill="#000000"/></g></g></svg>
