<?xml version="1.0" encoding="UTF-8"?>
<svg xmlns="http://www.w3.org/2000/svg" version="1.1" width="100" height="100" viewBox="0 0 100 100"><rect x="0" y="0" width="100" height="100" fill="#ffffff"/><g transform="scale(3.448)"><g transform="translate(0,0)"><path fill-rule="evenodd" d="M10 0L10 2L11 2L11 0ZM12 0L12 1L13 1L13 2L12 2L12 4L13 4L13 3L14 3L14 4L16 4L16 5L15 5L15 6L14 6L14 8L15 8L15 9L12 9L12 7L13 7L13 5L11 5L11 6L10 6L10 4L11 4L11 3L8 3L8 4L9 4L9 5L8 5L8 7L9 7L9 8L6 8L6 9L5 9L5 8L0 8L0 14L1 14L1 15L0 15L0 21L1 21L1 17L2 17L2 18L5 18L5 17L7 17L7 18L6 18L6 19L5 19L5 20L3 20L3 19L2 19L2 20L3 20L3 21L5 21L5 20L6 20L6 21L7 21L7 20L8 20L8 23L9 23L9 21L10 21L10 23L11 23L11 24L10 24L10 25L9 25L9 24L8 24L8 29L9 29L9 28L10 28L10 29L11 29L11 27L9 27L9 26L11 26L11 25L12 25L12 26L13 26L13 27L12 27L12 29L13 29L13 28L14 28L14 29L19 29L19 28L21 28L21 29L22 29L22 27L23 27L23 29L24 29L24 28L25 28L25 26L26 26L26 27L27 27L27 28L26 28L26 29L27 29L27 28L28 28L28 26L29 26L29 25L27 25L27 24L28 24L28 22L29 22L29 21L28 21L28 22L27 22L27 24L25 24L25 23L26 23L26 22L25 22L25 21L27 21L27 20L25 20L25 19L24 19L24 18L25 18L25 17L22 17L22 16L21 16L21 14L22 14L22 15L24 15L24 16L26 16L26 17L28 17L28 18L26 18L26 19L28 19L28 18L29 18L29 17L28 17L28 16L26 16L26 15L27 15L27 14L29 14L29 13L27 13L27 12L29 12L29 11L27 11L27 12L25 12L25 11L22 11L22 12L21 12L21 13L19 13L19 12L17 12L17 10L15 10L15 9L18 9L18 10L20 10L20 11L21 11L21 9L22 9L22 10L23 10L23 9L24 9L24 10L26 10L26 8L25 8L25 9L24 9L24 8L23 8L23 9L22 9L22 8L21 8L21 5L20 5L20 4L21 4L21 1L20 1L20 0L19 0L19 1L20 1L20 4L19 4L19 2L18 2L18 3L17 3L17 4L16 4L16 3L14 3L14 2L16 2L16 0L15 0L15 1L14 1L14 0ZM8 1L8 2L9 2L9 1ZM17 5L17 7L16 7L16 6L15 6L15 8L18 8L18 9L21 9L21 8L20 8L20 5ZM9 6L9 7L10 7L10 6ZM11 6L11 7L12 7L12 6ZM18 6L18 7L19 7L19 6ZM10 8L10 9L8 9L8 11L9 11L9 12L11 12L11 13L9 13L9 14L7 14L7 13L8 13L8 12L7 12L7 11L6 11L6 10L7 10L7 9L6 9L6 10L4 10L4 9L2 9L2 11L1 11L1 13L2 13L2 17L5 17L5 16L7 16L7 17L8 17L8 16L7 16L7 15L9 15L9 14L13 14L13 15L12 15L12 17L11 17L11 18L10 18L10 16L9 16L9 19L8 19L8 18L7 18L7 19L6 19L6 20L7 20L7 19L8 19L8 20L11 20L11 22L13 22L13 23L12 23L12 25L15 25L15 26L16 26L16 25L17 25L17 26L18 26L18 27L17 27L17 28L19 28L19 26L20 26L20 27L22 27L22 26L23 26L23 27L24 27L24 26L25 26L25 25L24 25L24 26L23 26L23 25L22 25L22 26L20 26L20 23L19 23L19 22L18 22L18 21L20 21L20 20L18 20L18 19L20 19L20 18L21 18L21 19L22 19L22 20L23 20L23 18L22 18L22 17L21 17L21 16L20 16L20 14L19 14L19 13L14 13L14 12L16 12L16 11L14 11L14 12L13 12L13 13L12 13L12 11L13 11L13 10L12 10L12 9L11 9L11 8ZM27 8L27 10L29 10L29 9L28 9L28 8ZM10 9L10 11L11 11L11 9ZM3 11L3 12L4 12L4 13L3 13L3 15L4 15L4 13L7 13L7 12L6 12L6 11L5 11L5 12L4 12L4 11ZM22 12L22 13L25 13L25 12ZM26 13L26 14L25 14L25 15L26 15L26 14L27 14L27 13ZM6 14L6 15L7 15L7 14ZM15 14L15 15L14 15L14 16L15 16L15 17L12 17L12 18L13 18L13 19L12 19L12 21L13 21L13 20L14 20L14 21L16 21L16 22L15 22L15 23L14 23L14 24L15 24L15 25L16 25L16 23L18 23L18 24L17 24L17 25L19 25L19 23L18 23L18 22L17 22L17 21L18 21L18 20L17 20L17 19L18 19L18 18L17 18L17 17L19 17L19 18L20 18L20 16L19 16L19 14ZM15 15L15 16L16 16L16 17L15 17L15 18L16 18L16 17L17 17L17 16L18 16L18 15ZM14 19L14 20L15 20L15 19ZM16 20L16 21L17 21L17 20ZM21 21L21 24L24 24L24 21ZM22 22L22 23L23 23L23 22ZM26 25L26 26L27 26L27 25ZM14 27L14 28L15 28L15 27ZM0 0L0 7L7 7L7 0ZM1 1L1 6L6 6L6 1ZM2 2L2 5L5 5L5 2ZM22 0L22 7L29 7L29 0ZM23 1L23 6L28 6L28 1ZM24 2L24 5L27 5L27 2ZM0 22L0 29L7 29L7 22ZM1 23L1 28L6 28L6 23ZM2 24L2 27L5 27L5 24Z" fill="#000000"/></g></g></svg>
