<?xml version="1.0" encoding="UTF-8"?>
<svg xmlns="http://www.w3.org/2000/svg" version="1.1" width="100" height="100" viewBox="0 0 100 100"><rect x="0" y="0" width="100" height="100" fill="#ffffff"/><g transform="scale(3.448)"><g transform="translate(0,0)"><path fill-rule="evenodd" d="M10 0L10 2L11 2L11 0ZM12 0L12 1L13 1L13 2L12 2L12 4L13 4L13 3L14 3L14 4L17 4L17 5L15 5L15 6L14 6L14 8L15 8L15 9L12 9L12 7L13 7L13 5L11 5L11 6L10 6L10 4L11 4L11 3L8 3L8 4L9 4L9 5L8 5L8 7L9 7L9 8L6 8L6 9L7 9L7 10L5 10L5 8L0 8L0 9L1 9L1 11L0 11L0 12L1 12L1 11L2 11L2 10L5 10L5 11L7 11L7 12L4 12L4 11L3 11L3 12L2 12L2 14L3 14L3 13L4 13L4 15L3 15L3 16L2 16L2 17L3 17L3 18L4 18L4 19L2 19L2 21L7 21L7 20L5 20L5 19L8 19L8 20L9 20L9 21L8 21L8 23L9 23L9 24L8 24L8 29L9 29L9 26L10 26L10 25L9 25L9 24L10 24L10 22L11 22L11 25L12 25L12 26L13 26L13 27L12 27L12 29L13 29L13 28L14 28L14 29L20 29L20 28L21 28L21 29L22 29L22 28L21 28L21 27L23 27L23 29L24 29L24 28L25 28L25 27L26 27L26 26L24 26L24 25L25 25L25 24L26 24L26 25L27 25L27 28L26 28L26 29L27 29L27 28L28 28L28 26L29 26L29 25L27 25L27 24L28 24L28 23L27 23L27 22L29 22L29 21L27 21L27 20L29 20L29 19L28 19L28 18L29 18L29 16L25 16L25 15L26 15L26 13L28 13L28 14L27 14L27 15L28 15L28 14L29 14L29 13L28 13L28 12L29 12L29 11L28 11L28 12L26 12L26 11L27 11L27 10L29 10L29 9L28 9L28 8L27 8L27 10L25 10L25 9L26 9L26 8L25 8L25 9L24 9L24 8L23 8L23 9L22 9L22 8L20 8L20 9L18 9L18 8L17 8L17 9L16 9L16 8L15 8L15 6L16 6L16 7L17 7L17 5L20 5L20 4L21 4L21 0L18 0L18 2L19 2L19 3L14 3L14 2L17 2L17 1L16 1L16 0L15 0L15 1L14 1L14 0ZM8 1L8 2L9 2L9 1ZM19 1L19 2L20 2L20 1ZM19 3L19 4L20 4L20 3ZM9 6L9 7L10 7L10 6ZM11 6L11 7L12 7L12 6ZM18 6L18 7L19 7L19 6ZM20 6L20 7L21 7L21 6ZM10 8L10 9L9 9L9 12L7 12L7 13L5 13L5 14L7 14L7 15L6 15L6 16L5 16L5 18L7 18L7 17L8 17L8 18L9 18L9 20L10 20L10 21L11 21L11 22L13 22L13 23L12 23L12 25L15 25L15 26L16 26L16 25L17 25L17 26L18 26L18 27L16 27L16 28L18 28L18 27L19 27L19 28L20 28L20 27L21 27L21 26L23 26L23 27L24 27L24 26L23 26L23 25L21 25L21 26L19 26L19 25L20 25L20 23L19 23L19 25L17 25L17 24L18 24L18 22L19 22L19 21L20 21L20 20L21 20L21 19L22 19L22 20L23 20L23 18L24 18L24 17L25 17L25 16L24 16L24 17L23 17L23 15L22 15L22 14L21 14L21 13L20 13L20 14L19 14L19 13L14 13L14 12L16 12L16 11L14 11L14 12L13 12L13 13L12 13L12 11L13 11L13 10L12 10L12 9L11 9L11 8ZM10 9L10 11L11 11L11 9ZM15 9L15 10L16 10L16 9ZM17 9L17 12L21 12L21 9L20 9L20 10L18 10L18 9ZM7 10L7 11L8 11L8 10ZM22 10L22 11L24 11L24 10ZM9 12L9 13L7 13L7 14L8 14L8 16L9 16L9 17L10 17L10 18L11 18L11 17L12 17L12 18L13 18L13 19L12 19L12 21L13 21L13 20L14 20L14 21L16 21L16 22L15 22L15 23L14 23L14 24L15 24L15 25L16 25L16 24L17 24L17 23L16 23L16 22L18 22L18 21L19 21L19 20L17 20L17 21L16 21L16 20L14 20L14 19L17 19L17 18L15 18L15 17L19 17L19 18L20 18L20 19L21 19L21 18L20 18L20 16L21 16L21 17L22 17L22 18L23 18L23 17L22 17L22 16L21 16L21 14L20 14L20 16L17 16L17 15L18 15L18 14L17 14L17 15L16 15L16 14L15 14L15 15L14 15L14 16L15 16L15 17L12 17L12 15L13 15L13 14L11 14L11 16L10 16L10 13L11 13L11 12ZM22 12L22 13L23 13L23 14L24 14L24 13L26 13L26 12L24 12L24 13L23 13L23 12ZM0 13L0 21L1 21L1 13ZM6 16L6 17L7 17L7 16ZM26 17L26 20L25 20L25 22L27 22L27 21L26 21L26 20L27 20L27 18L28 18L28 17ZM10 19L10 20L11 20L11 19ZM21 21L21 24L24 24L24 21ZM22 22L22 23L23 23L23 22ZM15 23L15 24L16 24L16 23ZM26 23L26 24L27 24L27 23ZM10 27L10 28L11 28L11 27ZM14 27L14 28L15 28L15 27ZM0 0L0 7L7 7L7 0ZM1 1L1 6L6 6L6 1ZM2 2L2 5L5 5L5 2ZM22 0L22 7L29 7L29 0ZM23 1L23 6L28 6L28 1ZM24 2L24 5L27 5L27 2ZM0 22L0 29L7 29L7 22ZM1 23L1 28L6 28L6 23ZM2 24L2 27L5 27L5 24Z" fill="#000000"/></g></g></svg>
