<?xml version="1.0" encoding="UTF-8"?>
<svg xmlns="http://www.w3.org/2000/svg" version="1.1" width="100" height="100" viewBox="0 0 100 100"><rect x="0" y="0" width="100" height="100" fill="#ffffff"/><g transform="scale(3.448)"><g transform="translate(0,0)"><path fill-rule="evenodd" d="M10 0L10 2L11 2L11 0ZM12 0L12 1L13 1L13 2L12 2L12 4L13 4L13 3L14 3L14 4L17 4L17 5L15 5L15 6L14 6L14 8L15 8L15 9L12 9L12 7L13 7L13 5L11 5L11 6L10 6L10 4L11 4L11 3L8 3L8 4L9 4L9 5L8 5L8 7L9 7L9 8L6 8L6 9L7 9L7 10L6 10L6 11L5 11L5 12L4 12L4 10L5 10L5 8L0 8L0 9L1 9L1 10L2 10L2 12L1 12L1 11L0 11L0 12L1 12L1 14L0 14L0 15L2 15L2 16L0 16L0 21L1 21L1 18L2 18L2 20L3 20L3 21L8 21L8 23L9 23L9 24L8 24L8 29L9 29L9 27L10 27L10 24L11 24L11 25L12 25L12 26L13 26L13 27L12 27L12 29L13 29L13 28L14 28L14 29L19 29L19 28L21 28L21 27L23 27L23 29L24 29L24 28L25 28L25 26L26 26L26 27L27 27L27 28L26 28L26 29L27 29L27 28L28 28L28 26L29 26L29 25L27 25L27 24L28 24L28 22L29 22L29 21L28 21L28 20L29 20L29 19L28 19L28 18L29 18L29 17L28 17L28 16L25 16L25 17L24 17L24 16L23 16L23 17L22 17L22 16L21 16L21 14L22 14L22 15L25 15L25 14L26 14L26 13L27 13L27 12L26 12L26 11L27 11L27 10L29 10L29 9L28 9L28 8L27 8L27 10L26 10L26 8L25 8L25 9L24 9L24 8L23 8L23 9L22 9L22 8L21 8L21 5L20 5L20 4L21 4L21 2L20 2L20 4L19 4L19 3L16 3L16 2L17 2L17 1L16 1L16 0L15 0L15 1L14 1L14 0ZM18 0L18 2L19 2L19 1L21 1L21 0ZM8 1L8 2L9 2L9 1ZM14 2L14 3L15 3L15 2ZM17 5L17 7L16 7L16 6L15 6L15 7L16 7L16 9L15 9L15 10L16 10L16 9L17 9L17 10L18 10L18 9L20 9L20 10L19 10L19 12L18 12L18 11L16 11L16 12L15 12L15 11L14 11L14 12L13 12L13 13L12 13L12 11L13 11L13 10L12 10L12 9L11 9L11 8L10 8L10 9L8 9L8 11L6 11L6 12L11 12L11 13L5 13L5 14L4 14L4 13L3 13L3 12L2 12L2 14L3 14L3 16L4 16L4 18L3 18L3 17L2 17L2 18L3 18L3 20L4 20L4 18L9 18L9 17L11 17L11 18L10 18L10 19L5 19L5 20L11 20L11 22L10 22L10 21L9 21L9 22L10 22L10 23L11 23L11 22L13 22L13 23L12 23L12 25L15 25L15 26L16 26L16 27L14 27L14 28L19 28L19 27L18 27L18 25L20 25L20 27L21 27L21 26L23 26L23 27L24 27L24 26L25 26L25 25L26 25L26 26L27 26L27 25L26 25L26 24L27 24L27 22L28 22L28 21L27 21L27 22L26 22L26 21L25 21L25 22L26 22L26 24L25 24L25 25L24 25L24 26L23 26L23 25L20 25L20 23L19 23L19 22L18 22L18 21L20 21L20 19L22 19L22 20L23 20L23 18L24 18L24 17L23 17L23 18L22 18L22 17L21 17L21 16L20 16L20 14L21 14L21 13L20 13L20 14L19 14L19 16L20 16L20 18L19 18L19 17L16 17L16 16L18 16L18 15L16 15L16 16L14 16L14 15L15 15L15 14L18 14L18 13L19 13L19 12L21 12L21 11L22 11L22 13L23 13L23 14L24 14L24 13L26 13L26 12L24 12L24 11L26 11L26 10L24 10L24 9L23 9L23 10L22 10L22 9L20 9L20 5ZM9 6L9 7L10 7L10 6ZM11 6L11 7L12 7L12 6ZM18 6L18 7L19 7L19 6ZM17 8L17 9L18 9L18 8ZM10 9L10 11L11 11L11 9ZM20 10L20 11L21 11L21 10ZM28 11L28 12L29 12L29 11ZM14 12L14 13L15 13L15 12ZM16 12L16 13L18 13L18 12ZM23 12L23 13L24 13L24 12ZM28 13L28 14L27 14L27 15L28 15L28 14L29 14L29 13ZM5 14L5 17L7 17L7 16L6 16L6 15L9 15L9 14ZM10 14L10 15L11 15L11 17L12 17L12 18L13 18L13 19L12 19L12 21L13 21L13 20L14 20L14 21L18 21L18 20L14 20L14 19L19 19L19 18L15 18L15 17L12 17L12 15L13 15L13 14ZM8 16L8 17L9 17L9 16ZM25 17L25 20L27 20L27 18L28 18L28 17L27 17L27 18L26 18L26 17ZM21 21L21 24L24 24L24 21ZM15 22L15 23L14 23L14 24L15 24L15 25L18 25L18 24L19 24L19 23L18 23L18 24L15 24L15 23L16 23L16 22ZM22 22L22 23L23 23L23 22ZM0 0L0 7L7 7L7 0ZM1 1L1 6L6 6L6 1ZM2 2L2 5L5 5L5 2ZM22 0L22 7L29 7L29 0ZM23 1L23 6L28 6L28 1ZM24 2L24 5L27 5L27 2ZM0 22L0 29L7 29L7 22ZM1 23L1 28L6 28L6 23ZM2 24L2 27L5 27L5 24Z" fill="#000000"/></g></g></svg>
