<?xml version="1.0" encoding="UTF-8"?>
<svg xmlns="http://www.w3.org/2000/svg" version="1.1" width="100" height="100" viewBox="0 0 100 100"><rect x="0" y="0" width="100" height="100" fill="#ffffff"/><g transform="scale(3.448)"><g transform="translate(0,0)"><path fill-rule="evenodd" d="M8 0L8 1L9 1L9 2L8 2L8 5L9 5L9 4L11 4L11 5L10 5L10 10L9 10L9 8L8 8L8 10L6 10L6 9L7 9L7 8L6 8L6 9L4 9L4 8L0 8L0 11L1 11L1 12L0 12L0 14L1 14L1 16L0 16L0 17L1 17L1 16L3 16L3 17L2 17L2 18L4 18L4 19L2 19L2 20L1 20L1 21L2 21L2 20L3 20L3 21L5 21L5 20L4 20L4 19L7 19L7 18L4 18L4 17L5 17L5 16L6 16L6 17L8 17L8 18L9 18L9 15L10 15L10 17L11 17L11 16L12 16L12 17L13 17L13 16L12 16L12 14L13 14L13 15L14 15L14 18L13 18L13 21L15 21L15 19L17 19L17 21L18 21L18 20L19 20L19 21L20 21L20 22L19 22L19 23L18 23L18 22L16 22L16 23L15 23L15 22L14 22L14 23L11 23L11 24L9 24L9 25L8 25L8 29L9 29L9 28L10 28L10 27L9 27L9 25L11 25L11 26L12 26L12 28L11 28L11 29L12 29L12 28L14 28L14 27L15 27L15 29L17 29L17 28L16 28L16 27L17 27L17 26L19 26L19 28L20 28L20 29L22 29L22 26L21 26L21 27L20 27L20 25L23 25L23 28L24 28L24 29L25 29L25 27L24 27L24 26L25 26L25 25L26 25L26 26L27 26L27 24L26 24L26 23L27 23L27 22L26 22L26 21L28 21L28 22L29 22L29 20L27 20L27 18L26 18L26 17L25 17L25 16L26 16L26 14L25 14L25 15L24 15L24 14L23 14L23 13L22 13L22 12L20 12L20 11L22 11L22 10L23 10L23 12L24 12L24 10L25 10L25 9L27 9L27 8L24 8L24 10L23 10L23 9L22 9L22 8L20 8L20 7L21 7L21 3L20 3L20 2L21 2L21 1L20 1L20 0L19 0L19 1L16 1L16 0L15 0L15 1L16 1L16 2L19 2L19 3L14 3L14 5L13 5L13 3L12 3L12 4L11 4L11 2L14 2L14 0L12 0L12 1L11 1L11 0L10 0L10 1L9 1L9 0ZM19 1L19 2L20 2L20 1ZM19 3L19 4L16 4L16 5L14 5L14 6L13 6L13 5L12 5L12 6L11 6L11 8L12 8L12 6L13 6L13 8L14 8L14 9L15 9L15 10L14 10L14 11L11 11L11 13L9 13L9 12L7 12L7 11L6 11L6 10L5 10L5 11L6 11L6 12L7 12L7 13L5 13L5 12L4 12L4 9L2 9L2 10L3 10L3 12L4 12L4 14L7 14L7 15L6 15L6 16L8 16L8 15L9 15L9 14L11 14L11 13L12 13L12 12L13 12L13 14L14 14L14 15L17 15L17 16L15 16L15 17L16 17L16 18L17 18L17 19L18 19L18 18L19 18L19 19L20 19L20 20L25 20L25 21L26 21L26 18L25 18L25 17L24 17L24 18L25 18L25 19L23 19L23 14L22 14L22 13L21 13L21 14L22 14L22 15L21 15L21 17L18 17L18 16L20 16L20 15L18 15L18 14L19 14L19 11L20 11L20 10L22 10L22 9L20 9L20 10L19 10L19 11L17 11L17 10L18 10L18 9L17 9L17 7L18 7L18 5L19 5L19 4L20 4L20 3ZM16 5L16 7L17 7L17 5ZM8 6L8 7L9 7L9 6ZM14 6L14 7L15 7L15 6ZM19 6L19 7L20 7L20 6ZM15 8L15 9L16 9L16 8ZM28 8L28 10L29 10L29 8ZM11 9L11 10L12 10L12 9ZM8 10L8 11L9 11L9 10ZM15 11L15 12L14 12L14 14L16 14L16 13L17 13L17 14L18 14L18 12L17 12L17 11ZM25 11L25 13L27 13L27 14L28 14L28 15L29 15L29 11L28 11L28 12L26 12L26 11ZM2 13L2 14L3 14L3 13ZM7 13L7 14L9 14L9 13ZM3 15L3 16L4 16L4 15ZM21 17L21 18L22 18L22 17ZM0 18L0 19L1 19L1 18ZM10 18L10 19L9 19L9 21L8 21L8 22L9 22L9 21L10 21L10 22L11 22L11 20L12 20L12 19L11 19L11 18ZM6 20L6 21L7 21L7 20ZM21 21L21 24L24 24L24 21ZM22 22L22 23L23 23L23 22ZM17 23L17 24L16 24L16 25L17 25L17 24L18 24L18 23ZM19 23L19 25L20 25L20 23ZM28 23L28 24L29 24L29 23ZM12 24L12 26L13 26L13 27L14 27L14 26L15 26L15 27L16 27L16 26L15 26L15 24ZM13 25L13 26L14 26L14 25ZM28 25L28 27L27 27L27 29L28 29L28 27L29 27L29 25ZM0 0L0 7L7 7L7 0ZM1 1L1 6L6 6L6 1ZM2 2L2 5L5 5L5 2ZM22 0L22 7L29 7L29 0ZM23 1L23 6L28 6L28 1ZM24 2L24 5L27 5L27 2ZM0 22L0 29L7 29L7 22ZM1 23L1 28L6 28L6 23ZM2 24L2 27L5 27L5 24Z" fill="#000000"/></g></g></svg>
