<?xml version="1.0" encoding="UTF-8"?>
<svg xmlns="http://www.w3.org/2000/svg" version="1.1" width="100" height="100" viewBox="0 0 100 100"><rect x="0" y="0" width="100" height="100" fill="#ffffff"/><g transform="scale(3.448)"><g transform="translate(0,0)"><path fill-rule="evenodd" d="M10 0L10 2L11 2L11 0ZM12 0L12 1L13 1L13 2L12 2L12 4L13 4L13 3L14 3L14 4L15 4L15 3L16 3L16 4L17 4L17 5L20 5L20 7L19 7L19 6L18 6L18 7L19 7L19 8L15 8L15 6L16 6L16 7L17 7L17 6L16 6L16 5L15 5L15 6L14 6L14 8L15 8L15 9L12 9L12 7L13 7L13 5L11 5L11 6L10 6L10 4L11 4L11 3L8 3L8 4L9 4L9 5L8 5L8 7L9 7L9 8L6 8L6 9L7 9L7 10L6 10L6 11L4 11L4 10L5 10L5 8L0 8L0 10L1 10L1 12L0 12L0 15L1 15L1 16L0 16L0 21L1 21L1 18L3 18L3 17L2 17L2 16L4 16L4 17L5 17L5 18L4 18L4 19L5 19L5 20L2 20L2 21L5 21L5 20L6 20L6 21L8 21L8 23L9 23L9 22L10 22L10 23L11 23L11 24L10 24L10 25L12 25L12 26L13 26L13 27L12 27L12 29L13 29L13 28L14 28L14 29L15 29L15 28L16 28L16 29L20 29L20 28L22 28L22 29L24 29L24 28L25 28L25 27L27 27L27 28L26 28L26 29L27 29L27 28L28 28L28 26L29 26L29 25L27 25L27 24L28 24L28 22L29 22L29 21L28 21L28 20L29 20L29 19L28 19L28 20L26 20L26 19L24 19L24 20L22 20L22 19L18 19L18 20L17 20L17 21L16 21L16 20L14 20L14 19L16 19L16 18L15 18L15 17L19 17L19 18L20 18L20 16L21 16L21 17L22 17L22 18L23 18L23 17L24 17L24 18L25 18L25 17L27 17L27 18L29 18L29 17L28 17L28 16L29 16L29 15L28 15L28 14L29 14L29 13L28 13L28 14L27 14L27 16L25 16L25 14L26 14L26 13L27 13L27 12L25 12L25 11L21 11L21 13L19 13L19 12L20 12L20 11L19 11L19 10L20 10L20 9L22 9L22 10L23 10L23 9L24 9L24 10L25 10L25 9L26 9L26 8L25 8L25 9L24 9L24 8L23 8L23 9L22 9L22 8L21 8L21 4L19 4L19 3L21 3L21 2L19 2L19 1L20 1L20 0L19 0L19 1L17 1L17 2L18 2L18 3L16 3L16 0L15 0L15 1L14 1L14 0ZM8 1L8 2L9 2L9 1ZM14 2L14 3L15 3L15 2ZM9 6L9 7L10 7L10 6ZM11 6L11 7L12 7L12 6ZM10 8L10 9L8 9L8 10L7 10L7 11L6 11L6 12L7 12L7 11L8 11L8 10L9 10L9 12L8 12L8 13L6 13L6 14L7 14L7 15L4 15L4 16L5 16L5 17L6 17L6 18L5 18L5 19L6 19L6 20L9 20L9 21L10 21L10 22L13 22L13 23L12 23L12 25L15 25L15 26L17 26L17 27L16 27L16 28L20 28L20 27L22 27L22 28L23 28L23 27L22 27L22 26L27 26L27 25L22 25L22 26L20 26L20 24L19 24L19 23L18 23L18 22L20 22L20 20L19 20L19 21L18 21L18 22L16 22L16 21L14 21L14 20L13 20L13 21L12 21L12 19L13 19L13 18L12 18L12 17L15 17L15 16L20 16L20 14L19 14L19 13L14 13L14 12L15 12L15 11L14 11L14 12L13 12L13 13L12 13L12 11L13 11L13 10L12 10L12 9L11 9L11 8ZM19 8L19 9L18 9L18 10L17 10L17 9L15 9L15 10L17 10L17 12L19 12L19 11L18 11L18 10L19 10L19 9L20 9L20 8ZM27 8L27 10L26 10L26 11L27 11L27 10L29 10L29 9L28 9L28 8ZM1 9L1 10L2 10L2 11L3 11L3 12L4 12L4 11L3 11L3 10L2 10L2 9ZM10 9L10 11L11 11L11 9ZM1 12L1 13L2 13L2 14L1 14L1 15L3 15L3 13L2 13L2 12ZM9 12L9 13L11 13L11 12ZM22 12L22 13L23 13L23 14L24 14L24 13L25 13L25 12L24 12L24 13L23 13L23 12ZM8 14L8 17L7 17L7 16L6 16L6 17L7 17L7 18L6 18L6 19L7 19L7 18L8 18L8 17L12 17L12 15L13 15L13 14L10 14L10 16L9 16L9 14ZM15 14L15 15L14 15L14 16L15 16L15 15L16 15L16 14ZM17 14L17 15L18 15L18 14ZM21 14L21 16L22 16L22 17L23 17L23 16L24 16L24 17L25 17L25 16L24 16L24 15L22 15L22 14ZM9 18L9 19L10 19L10 20L11 20L11 18ZM25 20L25 21L26 21L26 22L25 22L25 24L27 24L27 22L28 22L28 21L26 21L26 20ZM21 21L21 24L24 24L24 21ZM15 22L15 23L14 23L14 24L15 24L15 25L19 25L19 24L16 24L16 22ZM22 22L22 23L23 23L23 22ZM8 24L8 29L11 29L11 26L10 26L10 28L9 28L9 24ZM14 27L14 28L15 28L15 27ZM0 0L0 7L7 7L7 0ZM1 1L1 6L6 6L6 1ZM2 2L2 5L5 5L5 2ZM22 0L22 7L29 7L29 0ZM23 1L23 6L28 6L28 1ZM24 2L24 5L27 5L27 2ZM0 22L0 29L7 29L7 22ZM1 23L1 28L6 28L6 23ZM2 24L2 27L5 27L5 24Z" fill="#000000"/></g></g></svg>
