<?xml version="1.0" encoding="UTF-8"?>
<svg xmlns="http://www.w3.org/2000/svg" version="1.1" width="100" height="100" viewBox="0 0 100 100"><rect x="0" y="0" width="100" height="100" fill="#ffffff"/><g transform="scale(3.448)"><g transform="translate(0,0)"><path fill-rule="evenodd" d="M9 0L9 1L10 1L10 2L8 2L8 3L9 3L9 4L10 4L10 5L9 5L9 6L8 6L8 8L4 8L4 9L3 9L3 8L0 8L0 11L1 11L1 12L0 12L0 14L3 14L3 15L2 15L2 17L1 17L1 15L0 15L0 17L1 17L1 18L0 18L0 19L1 19L1 20L0 20L0 21L1 21L1 20L2 20L2 21L3 21L3 20L4 20L4 21L5 21L5 20L6 20L6 21L8 21L8 25L9 25L9 26L8 26L8 29L9 29L9 28L10 28L10 29L11 29L11 28L12 28L12 29L13 29L13 28L12 28L12 27L10 27L10 26L12 26L12 24L14 24L14 26L13 26L13 27L14 27L14 26L15 26L15 25L16 25L16 23L15 23L15 22L14 22L14 21L13 21L13 20L12 20L12 19L11 19L11 18L12 18L12 16L14 16L14 18L13 18L13 19L14 19L14 18L15 18L15 14L14 14L14 13L13 13L13 12L12 12L12 11L11 11L11 12L12 12L12 13L11 13L11 15L10 15L10 13L9 13L9 11L10 11L10 10L12 10L12 8L14 8L14 10L13 10L13 11L14 11L14 10L15 10L15 6L16 6L16 7L17 7L17 8L16 8L16 10L17 10L17 13L18 13L18 15L17 15L17 17L18 17L18 19L15 19L15 20L16 20L16 22L17 22L17 26L18 26L18 27L15 27L15 28L17 28L17 29L19 29L19 26L20 26L20 25L24 25L24 27L25 27L25 28L26 28L26 27L25 27L25 26L26 26L26 25L25 25L25 22L26 22L26 23L27 23L27 26L28 26L28 27L27 27L27 29L29 29L29 28L28 28L28 27L29 27L29 24L28 24L28 23L29 23L29 20L27 20L27 21L26 21L26 17L25 17L25 20L24 20L24 19L23 19L23 18L24 18L24 16L22 16L22 18L20 18L20 19L21 19L21 20L20 20L20 21L19 21L19 23L20 23L20 25L19 25L19 24L18 24L18 20L19 20L19 17L21 17L21 15L22 15L22 14L23 14L23 15L24 15L24 11L23 11L23 10L24 10L24 9L23 9L23 8L21 8L21 5L20 5L20 3L21 3L21 1L20 1L20 0L18 0L18 1L17 1L17 0L16 0L16 1L15 1L15 0L12 0L12 1L10 1L10 0ZM13 1L13 2L14 2L14 1ZM16 1L16 2L15 2L15 3L16 3L16 2L17 2L17 4L19 4L19 1L18 1L18 2L17 2L17 1ZM11 2L11 3L12 3L12 4L11 4L11 5L10 5L10 6L9 6L9 7L10 7L10 6L11 6L11 8L12 8L12 6L13 6L13 7L14 7L14 6L15 6L15 5L14 5L14 4L13 4L13 3L12 3L12 2ZM13 5L13 6L14 6L14 5ZM16 5L16 6L17 6L17 7L18 7L18 6L17 6L17 5ZM19 6L19 7L20 7L20 6ZM9 8L9 10L8 10L8 9L6 9L6 10L5 10L5 11L3 11L3 12L2 12L2 13L3 13L3 12L4 12L4 14L5 14L5 17L4 17L4 18L3 18L3 17L2 17L2 18L1 18L1 19L2 19L2 20L3 20L3 19L4 19L4 18L5 18L5 19L6 19L6 20L8 20L8 21L9 21L9 22L11 22L11 21L12 21L12 20L11 20L11 19L10 19L10 21L9 21L9 17L10 17L10 16L9 16L9 15L8 15L8 14L9 14L9 13L8 13L8 11L9 11L9 10L10 10L10 8ZM18 8L18 12L19 12L19 11L20 11L20 13L19 13L19 15L21 15L21 13L22 13L22 12L23 12L23 11L22 11L22 12L21 12L21 10L22 10L22 9L21 9L21 10L20 10L20 8ZM26 8L26 9L25 9L25 14L26 14L26 15L27 15L27 14L26 14L26 11L27 11L27 12L28 12L28 11L29 11L29 9L28 9L28 11L27 11L27 10L26 10L26 9L27 9L27 8ZM2 9L2 10L1 10L1 11L2 11L2 10L3 10L3 9ZM6 10L6 11L5 11L5 13L7 13L7 12L6 12L6 11L7 11L7 10ZM15 11L15 13L16 13L16 11ZM28 13L28 16L27 16L27 17L28 17L28 19L29 19L29 13ZM6 14L6 15L7 15L7 16L6 16L6 17L5 17L5 18L6 18L6 19L7 19L7 18L6 18L6 17L9 17L9 16L8 16L8 15L7 15L7 14ZM13 14L13 15L14 15L14 14ZM3 15L3 16L4 16L4 15ZM11 15L11 16L12 16L12 15ZM22 19L22 20L23 20L23 19ZM21 21L21 24L24 24L24 21ZM13 22L13 23L14 23L14 22ZM22 22L22 23L23 23L23 22ZM10 23L10 25L11 25L11 24L12 24L12 23ZM20 27L20 29L24 29L24 28L22 28L22 27ZM0 0L0 7L7 7L7 0ZM1 1L1 6L6 6L6 1ZM2 2L2 5L5 5L5 2ZM22 0L22 7L29 7L29 0ZM23 1L23 6L28 6L28 1ZM24 2L24 5L27 5L27 2ZM0 22L0 29L7 29L7 22ZM1 23L1 28L6 28L6 23ZM2 24L2 27L5 27L5 24Z" fill="#000000"/></g></g></svg>
