<?xml version="1.0" encoding="UTF-8"?>
<svg xmlns="http://www.w3.org/2000/svg" version="1.1" width="100" height="100" viewBox="0 0 100 100"><rect x="0" y="0" width="100" height="100" fill="#ffffff"/><g transform="scale(3.448)"><g transform="translate(0,0)"><path fill-rule="evenodd" d="M10 0L10 2L11 2L11 0ZM12 0L12 1L13 1L13 2L12 2L12 4L13 4L13 3L14 3L14 4L17 4L17 5L15 5L15 6L14 6L14 8L15 8L15 9L12 9L12 7L13 7L13 5L11 5L11 6L10 6L10 4L11 4L11 3L8 3L8 4L9 4L9 5L8 5L8 7L9 7L9 8L6 8L6 9L5 9L5 8L0 8L0 9L1 9L1 11L0 11L0 12L2 12L2 10L4 10L4 11L3 11L3 12L4 12L4 11L7 11L7 12L6 12L6 13L5 13L5 14L4 14L4 13L2 13L2 15L1 15L1 14L0 14L0 15L1 15L1 16L0 16L0 21L1 21L1 18L2 18L2 15L4 15L4 16L6 16L6 17L8 17L8 16L9 16L9 17L10 17L10 16L11 16L11 17L12 17L12 18L13 18L13 19L12 19L12 21L13 21L13 20L14 20L14 21L15 21L15 20L16 20L16 21L19 21L19 23L20 23L20 26L21 26L21 27L19 27L19 26L18 26L18 25L19 25L19 24L17 24L17 25L16 25L16 23L17 23L17 22L15 22L15 23L14 23L14 24L15 24L15 25L12 25L12 23L13 23L13 22L11 22L11 25L10 25L10 24L8 24L8 29L9 29L9 28L10 28L10 27L11 27L11 25L12 25L12 26L13 26L13 27L12 27L12 29L13 29L13 28L14 28L14 29L19 29L19 28L22 28L22 27L23 27L23 29L24 29L24 28L25 28L25 27L27 27L27 28L26 28L26 29L27 29L27 28L28 28L28 26L29 26L29 25L27 25L27 24L28 24L28 23L27 23L27 22L29 22L29 21L27 21L27 20L29 20L29 19L28 19L28 18L29 18L29 16L26 16L26 15L25 15L25 14L26 14L26 13L27 13L27 14L29 14L29 13L27 13L27 12L26 12L26 11L28 11L28 10L29 10L29 9L28 9L28 8L27 8L27 9L28 9L28 10L26 10L26 8L25 8L25 9L24 9L24 8L23 8L23 9L22 9L22 8L21 8L21 6L20 6L20 7L19 7L19 6L18 6L18 7L19 7L19 8L21 8L21 9L18 9L18 8L17 8L17 5L20 5L20 4L21 4L21 2L19 2L19 1L21 1L21 0L18 0L18 1L17 1L17 2L18 2L18 3L14 3L14 2L16 2L16 0L15 0L15 1L14 1L14 0ZM8 1L8 2L9 2L9 1ZM19 3L19 4L20 4L20 3ZM9 6L9 7L10 7L10 6ZM11 6L11 7L12 7L12 6ZM15 6L15 7L16 7L16 6ZM10 8L10 9L6 9L6 10L7 10L7 11L8 11L8 10L9 10L9 12L11 12L11 13L9 13L9 14L8 14L8 15L6 15L6 16L8 16L8 15L10 15L10 14L13 14L13 15L12 15L12 17L15 17L15 18L17 18L17 19L16 19L16 20L21 20L21 19L22 19L22 20L24 20L24 19L25 19L25 20L27 20L27 18L28 18L28 17L26 17L26 16L24 16L24 17L23 17L23 15L22 15L22 14L21 14L21 13L20 13L20 14L19 14L19 13L16 13L16 12L22 12L22 13L23 13L23 14L24 14L24 13L26 13L26 12L24 12L24 11L26 11L26 10L24 10L24 11L23 11L23 10L22 10L22 11L21 11L21 10L18 10L18 9L17 9L17 8L16 8L16 9L15 9L15 10L16 10L16 9L17 9L17 11L16 11L16 12L15 12L15 11L14 11L14 12L13 12L13 13L12 13L12 11L13 11L13 10L12 10L12 9L11 9L11 8ZM10 9L10 11L11 11L11 9ZM22 11L22 12L23 12L23 13L24 13L24 12L23 12L23 11ZM14 12L14 13L15 13L15 12ZM6 13L6 14L7 14L7 13ZM15 14L15 15L14 15L14 16L15 16L15 17L18 17L18 19L19 19L19 18L20 18L20 16L21 16L21 17L22 17L22 18L23 18L23 19L24 19L24 18L25 18L25 19L26 19L26 18L25 18L25 17L24 17L24 18L23 18L23 17L22 17L22 16L21 16L21 14L20 14L20 16L19 16L19 15L18 15L18 14ZM15 15L15 16L18 16L18 17L19 17L19 16L18 16L18 15ZM4 17L4 18L3 18L3 19L4 19L4 20L3 20L3 21L4 21L4 20L5 20L5 21L7 21L7 20L9 20L9 21L8 21L8 23L10 23L10 21L11 21L11 20L9 20L9 19L10 19L10 18L8 18L8 19L7 19L7 18L5 18L5 17ZM4 18L4 19L5 19L5 20L7 20L7 19L5 19L5 18ZM14 19L14 20L15 20L15 19ZM21 21L21 24L24 24L24 21ZM25 21L25 24L27 24L27 23L26 23L26 22L27 22L27 21ZM22 22L22 23L23 23L23 22ZM9 25L9 26L10 26L10 25ZM15 25L15 26L16 26L16 27L14 27L14 28L18 28L18 26L16 26L16 25ZM21 25L21 26L23 26L23 27L24 27L24 26L27 26L27 25L24 25L24 26L23 26L23 25ZM0 0L0 7L7 7L7 0ZM1 1L1 6L6 6L6 1ZM2 2L2 5L5 5L5 2ZM22 0L22 7L29 7L29 0ZM23 1L23 6L28 6L28 1ZM24 2L24 5L27 5L27 2ZM0 22L0 29L7 29L7 22ZM1 23L1 28L6 28L6 23ZM2 24L2 27L5 27L5 24Z" fill="#000000"/></g></g></svg>
