<?xml version="1.0" encoding="UTF-8"?>
<svg xmlns="http://www.w3.org/2000/svg" version="1.1" width="100" height="100" viewBox="0 0 100 100"><rect x="0" y="0" width="100" height="100" fill="#ffffff"/><g transform="scale(3.448)"><g transform="translate(0,0)"><path fill-rule="evenodd" d="M10 0L10 2L11 2L11 0ZM12 0L12 1L13 1L13 2L12 2L12 4L13 4L13 3L14 3L14 4L17 4L17 5L15 5L15 6L14 6L14 8L15 8L15 9L12 9L12 7L13 7L13 5L11 5L11 6L10 6L10 4L11 4L11 3L8 3L8 4L9 4L9 5L8 5L8 7L9 7L9 8L6 8L6 9L5 9L5 8L0 8L0 9L2 9L2 11L1 11L1 10L0 10L0 11L1 11L1 12L0 12L0 13L2 13L2 14L1 14L1 15L2 15L2 14L4 14L4 15L3 15L3 17L0 17L0 21L1 21L1 18L3 18L3 19L2 19L2 21L3 21L3 19L4 19L4 20L5 20L5 21L7 21L7 20L5 20L5 19L7 19L7 18L8 18L8 19L9 19L9 20L10 20L10 19L9 19L9 13L11 13L11 12L9 12L9 11L8 11L8 12L6 12L6 13L8 13L8 16L5 16L5 17L7 17L7 18L5 18L5 19L4 19L4 15L7 15L7 14L5 14L5 13L4 13L4 12L5 12L5 11L3 11L3 10L6 10L6 11L7 11L7 10L9 10L9 9L10 9L10 11L11 11L11 9L12 9L12 10L13 10L13 11L12 11L12 13L13 13L13 12L14 12L14 13L16 13L16 14L15 14L15 15L14 15L14 16L15 16L15 17L12 17L12 15L13 15L13 14L10 14L10 15L11 15L11 16L10 16L10 18L11 18L11 17L12 17L12 18L13 18L13 19L12 19L12 21L13 21L13 20L14 20L14 21L18 21L18 23L20 23L20 25L18 25L18 24L16 24L16 22L15 22L15 23L14 23L14 24L15 24L15 25L12 25L12 23L13 23L13 22L11 22L11 21L10 21L10 23L9 23L9 21L8 21L8 23L9 23L9 24L8 24L8 29L10 29L10 28L11 28L11 25L12 25L12 26L13 26L13 27L12 27L12 29L13 29L13 28L14 28L14 29L15 29L15 28L16 28L16 29L20 29L20 28L21 28L21 29L22 29L22 28L23 28L23 29L24 29L24 28L25 28L25 27L26 27L26 25L27 25L27 28L26 28L26 29L27 29L27 28L28 28L28 26L29 26L29 25L27 25L27 24L28 24L28 23L27 23L27 22L29 22L29 21L28 21L28 20L29 20L29 19L28 19L28 18L29 18L29 17L28 17L28 16L29 16L29 15L27 15L27 16L26 16L26 15L24 15L24 14L25 14L25 13L26 13L26 14L29 14L29 13L27 13L27 12L29 12L29 11L28 11L28 10L29 10L29 9L28 9L28 8L27 8L27 9L28 9L28 10L27 10L27 12L25 12L25 11L22 11L22 10L26 10L26 8L25 8L25 9L24 9L24 8L23 8L23 9L22 9L22 8L21 8L21 9L19 9L19 8L20 8L20 7L21 7L21 6L20 6L20 7L19 7L19 6L18 6L18 7L19 7L19 8L15 8L15 6L16 6L16 7L17 7L17 5L20 5L20 4L21 4L21 2L19 2L19 1L20 1L20 0L19 0L19 1L18 1L18 2L19 2L19 3L17 3L17 1L16 1L16 0L15 0L15 1L14 1L14 0ZM8 1L8 2L9 2L9 1ZM14 2L14 3L16 3L16 2ZM19 3L19 4L20 4L20 3ZM9 6L9 7L10 7L10 6ZM11 6L11 7L12 7L12 6ZM10 8L10 9L11 9L11 8ZM6 9L6 10L7 10L7 9ZM15 9L15 10L16 10L16 11L17 11L17 12L16 12L16 13L17 13L17 14L16 14L16 15L15 15L15 16L16 16L16 17L15 17L15 18L16 18L16 19L14 19L14 20L16 20L16 19L17 19L17 20L18 20L18 21L20 21L20 19L22 19L22 20L24 20L24 19L25 19L25 18L28 18L28 17L26 17L26 16L24 16L24 17L23 17L23 15L22 15L22 14L21 14L21 13L20 13L20 14L19 14L19 16L20 16L20 18L19 18L19 17L17 17L17 16L18 16L18 15L17 15L17 14L18 14L18 13L19 13L19 12L21 12L21 10L19 10L19 9ZM14 11L14 12L15 12L15 11ZM17 12L17 13L18 13L18 12ZM22 12L22 13L25 13L25 12ZM20 14L20 16L21 16L21 17L22 17L22 18L23 18L23 19L24 19L24 18L25 18L25 17L24 17L24 18L23 18L23 17L22 17L22 16L21 16L21 14ZM16 15L16 16L17 16L17 15ZM16 17L16 18L17 18L17 19L18 19L18 18L17 18L17 17ZM26 19L26 20L25 20L25 21L26 21L26 22L25 22L25 23L26 23L26 24L25 24L25 25L24 25L24 26L23 26L23 25L22 25L22 26L21 26L21 25L20 25L20 26L18 26L18 25L15 25L15 26L16 26L16 28L20 28L20 27L22 27L22 26L23 26L23 27L24 27L24 26L25 26L25 25L26 25L26 24L27 24L27 23L26 23L26 22L27 22L27 21L26 21L26 20L28 20L28 19ZM21 21L21 24L24 24L24 21ZM22 22L22 23L23 23L23 22ZM9 24L9 25L11 25L11 24ZM9 26L9 28L10 28L10 26ZM14 27L14 28L15 28L15 27ZM0 0L0 7L7 7L7 0ZM1 1L1 6L6 6L6 1ZM2 2L2 5L5 5L5 2ZM22 0L22 7L29 7L29 0ZM23 1L23 6L28 6L28 1ZM24 2L24 5L27 5L27 2ZM0 22L0 29L7 29L7 22ZM1 23L1 28L6 28L6 23ZM2 24L2 27L5 27L5 24Z" fill="#000000"/></g></g></svg>
