<?xml version="1.0" encoding="UTF-8"?>
<svg xmlns="http://www.w3.org/2000/svg" version="1.1" width="100" height="100" viewBox="0 0 100 100"><rect x="0" y="0" width="100" height="100" fill="#ffffff"/><g transform="scale(3.448)"><g transform="translate(0,0)"><path fill-rule="evenodd" d="M10 0L10 2L11 2L11 0ZM12 0L12 1L13 1L13 2L12 2L12 4L13 4L13 3L14 3L14 4L17 4L17 5L15 5L15 6L14 6L14 8L16 8L16 9L17 9L17 10L18 10L18 12L17 12L17 11L16 11L16 10L15 10L15 9L12 9L12 7L13 7L13 5L11 5L11 6L10 6L10 4L11 4L11 3L8 3L8 4L9 4L9 5L8 5L8 7L9 7L9 8L6 8L6 9L10 9L10 11L11 11L11 9L12 9L12 10L13 10L13 11L12 11L12 13L13 13L13 12L14 12L14 13L19 13L19 14L20 14L20 16L16 16L16 14L15 14L15 15L14 15L14 16L15 16L15 17L12 17L12 15L13 15L13 14L10 14L10 13L11 13L11 12L9 12L9 11L8 11L8 10L6 10L6 11L2 11L2 10L5 10L5 8L0 8L0 10L1 10L1 11L2 11L2 13L1 13L1 12L0 12L0 13L1 13L1 14L0 14L0 15L1 15L1 16L3 16L3 14L4 14L4 13L3 13L3 12L6 12L6 13L5 13L5 14L6 14L6 15L8 15L8 17L7 17L7 16L5 16L5 18L3 18L3 17L0 17L0 21L1 21L1 18L2 18L2 19L3 19L3 20L4 20L4 21L8 21L8 23L9 23L9 24L8 24L8 29L9 29L9 24L11 24L11 25L10 25L10 26L11 26L11 25L12 25L12 26L13 26L13 27L12 27L12 29L13 29L13 28L14 28L14 29L19 29L19 28L21 28L21 29L22 29L22 28L23 28L23 29L24 29L24 28L25 28L25 26L22 26L22 25L25 25L25 24L26 24L26 25L27 25L27 26L26 26L26 27L27 27L27 28L26 28L26 29L27 29L27 28L28 28L28 26L29 26L29 25L27 25L27 24L28 24L28 23L27 23L27 22L29 22L29 21L28 21L28 20L25 20L25 19L26 19L26 18L27 18L27 19L28 19L28 18L29 18L29 17L28 17L28 16L25 16L25 15L27 15L27 14L29 14L29 13L27 13L27 12L28 12L28 10L29 10L29 9L28 9L28 8L27 8L27 9L28 9L28 10L27 10L27 12L25 12L25 11L26 11L26 8L25 8L25 9L24 9L24 8L23 8L23 9L22 9L22 8L20 8L20 7L21 7L21 6L20 6L20 7L19 7L19 6L18 6L18 7L19 7L19 8L16 8L16 7L17 7L17 5L20 5L20 4L21 4L21 2L20 2L20 4L19 4L19 2L18 2L18 3L17 3L17 2L16 2L16 0L15 0L15 1L14 1L14 0ZM19 0L19 1L20 1L20 0ZM8 1L8 2L9 2L9 1ZM14 2L14 3L15 3L15 2ZM9 6L9 7L10 7L10 6ZM11 6L11 7L12 7L12 6ZM15 6L15 7L16 7L16 6ZM10 8L10 9L11 9L11 8ZM19 8L19 9L18 9L18 10L19 10L19 11L20 11L20 12L19 12L19 13L21 13L21 11L23 11L23 10L24 10L24 9L23 9L23 10L22 10L22 9L20 9L20 8ZM1 9L1 10L2 10L2 9ZM19 9L19 10L20 10L20 9ZM6 11L6 12L7 12L7 13L6 13L6 14L7 14L7 13L8 13L8 14L9 14L9 12L8 12L8 11ZM14 11L14 12L16 12L16 11ZM22 12L22 13L25 13L25 14L24 14L24 15L22 15L22 14L21 14L21 16L20 16L20 18L19 18L19 17L15 17L15 18L18 18L18 19L14 19L14 20L13 20L13 21L12 21L12 19L13 19L13 18L12 18L12 17L10 17L10 16L11 16L11 15L10 15L10 16L9 16L9 19L8 19L8 18L7 18L7 17L6 17L6 18L7 18L7 19L4 19L4 20L7 20L7 19L8 19L8 20L10 20L10 22L9 22L9 23L11 23L11 22L13 22L13 23L12 23L12 25L15 25L15 26L17 26L17 27L14 27L14 28L18 28L18 26L20 26L20 27L22 27L22 26L20 26L20 23L18 23L18 22L19 22L19 21L20 21L20 20L21 20L21 19L22 19L22 20L23 20L23 19L25 19L25 18L26 18L26 17L25 17L25 16L24 16L24 15L25 15L25 14L27 14L27 13L25 13L25 12ZM2 13L2 14L1 14L1 15L2 15L2 14L3 14L3 13ZM21 16L21 17L22 17L22 18L25 18L25 17L22 17L22 16ZM27 17L27 18L28 18L28 17ZM18 19L18 20L17 20L17 21L16 21L16 20L14 20L14 21L16 21L16 22L15 22L15 23L14 23L14 24L15 24L15 25L17 25L17 26L18 26L18 25L19 25L19 24L15 24L15 23L16 23L16 22L17 22L17 21L19 21L19 20L20 20L20 19ZM21 21L21 24L24 24L24 21ZM25 21L25 23L26 23L26 24L27 24L27 23L26 23L26 22L27 22L27 21ZM22 22L22 23L23 23L23 22ZM10 27L10 28L11 28L11 27ZM0 0L0 7L7 7L7 0ZM1 1L1 6L6 6L6 1ZM2 2L2 5L5 5L5 2ZM22 0L22 7L29 7L29 0ZM23 1L23 6L28 6L28 1ZM24 2L24 5L27 5L27 2ZM0 22L0 29L7 29L7 22ZM1 23L1 28L6 28L6 23ZM2 24L2 27L5 27L5 24Z" fill="#000000"/></g></g></svg>
