<?xml version="1.0" encoding="UTF-8"?>
<svg xmlns="http://www.w3.org/2000/svg" version="1.1" width="100" height="100" viewBox="0 0 100 100"><rect x="0" y="0" width="100" height="100" fill="#ffffff"/><g transform="scale(3.448)"><g transform="translate(0,0)"><path fill-rule="evenodd" d="M10 0L10 2L11 2L11 0ZM12 0L12 1L13 1L13 2L12 2L12 4L13 4L13 3L14 3L14 4L16 4L16 5L15 5L15 6L14 6L14 8L15 8L15 9L12 9L12 7L13 7L13 5L11 5L11 6L10 6L10 4L11 4L11 3L8 3L8 4L9 4L9 5L8 5L8 7L9 7L9 8L6 8L6 9L7 9L7 10L4 10L4 9L5 9L5 8L0 8L0 9L3 9L3 10L2 10L2 11L0 11L0 12L1 12L1 13L0 13L0 14L1 14L1 17L0 17L0 21L1 21L1 18L2 18L2 21L3 21L3 20L5 20L5 21L7 21L7 20L8 20L8 18L9 18L9 21L8 21L8 23L10 23L10 19L11 19L11 17L12 17L12 18L13 18L13 19L12 19L12 21L13 21L13 20L14 20L14 21L19 21L19 23L18 23L18 22L15 22L15 23L14 23L14 24L16 24L16 25L19 25L19 23L20 23L20 25L21 25L21 26L22 26L22 27L20 27L20 26L19 26L19 28L16 28L16 26L15 26L15 25L12 25L12 23L13 23L13 22L11 22L11 25L12 25L12 26L13 26L13 27L12 27L12 29L13 29L13 28L14 28L14 29L19 29L19 28L21 28L21 29L22 29L22 28L23 28L23 29L24 29L24 28L25 28L25 27L27 27L27 28L26 28L26 29L27 29L27 28L28 28L28 26L29 26L29 25L27 25L27 24L28 24L28 23L27 23L27 22L29 22L29 21L28 21L28 20L25 20L25 19L24 19L24 20L22 20L22 19L19 19L19 18L20 18L20 16L21 16L21 17L22 17L22 18L23 18L23 17L24 17L24 18L26 18L26 19L28 19L28 18L29 18L29 17L28 17L28 14L29 14L29 13L28 13L28 12L29 12L29 11L28 11L28 12L25 12L25 11L26 11L26 8L25 8L25 9L24 9L24 8L23 8L23 9L22 9L22 8L21 8L21 5L20 5L20 4L21 4L21 2L20 2L20 4L19 4L19 3L17 3L17 2L16 2L16 0L15 0L15 1L14 1L14 0ZM19 0L19 1L18 1L18 2L19 2L19 1L20 1L20 0ZM8 1L8 2L9 2L9 1ZM14 2L14 3L16 3L16 4L17 4L17 3L16 3L16 2ZM16 5L16 6L15 6L15 7L16 7L16 8L19 8L19 9L15 9L15 10L16 10L16 12L15 12L15 11L14 11L14 12L13 12L13 13L12 13L12 11L13 11L13 10L12 10L12 9L11 9L11 8L10 8L10 9L8 9L8 10L7 10L7 11L6 11L6 12L7 12L7 11L8 11L8 12L11 12L11 13L10 13L10 17L11 17L11 14L13 14L13 15L12 15L12 17L15 17L15 18L16 18L16 20L19 20L19 21L20 21L20 20L19 20L19 19L17 19L17 18L19 18L19 17L17 17L17 16L18 16L18 15L17 15L17 14L19 14L19 16L20 16L20 14L21 14L21 16L22 16L22 17L23 17L23 16L24 16L24 17L25 17L25 16L27 16L27 14L28 14L28 13L27 13L27 14L26 14L26 13L25 13L25 12L24 12L24 13L23 13L23 12L22 12L22 13L23 13L23 14L24 14L24 13L25 13L25 14L26 14L26 15L22 15L22 14L21 14L21 13L20 13L20 14L19 14L19 13L16 13L16 12L18 12L18 11L19 11L19 12L21 12L21 10L22 10L22 11L23 11L23 10L24 10L24 9L23 9L23 10L22 10L22 9L20 9L20 8L19 8L19 7L20 7L20 5ZM9 6L9 7L10 7L10 6ZM11 6L11 7L12 7L12 6ZM16 6L16 7L17 7L17 6ZM18 6L18 7L19 7L19 6ZM27 8L27 10L29 10L29 9L28 9L28 8ZM10 9L10 11L11 11L11 9ZM19 9L19 10L20 10L20 9ZM17 10L17 11L18 11L18 10ZM4 11L4 13L3 13L3 14L2 14L2 15L3 15L3 16L2 16L2 18L3 18L3 19L5 19L5 18L3 18L3 16L7 16L7 17L6 17L6 18L8 18L8 17L9 17L9 15L8 15L8 14L7 14L7 13L5 13L5 11ZM14 12L14 13L15 13L15 12ZM4 13L4 14L5 14L5 13ZM6 14L6 15L7 15L7 14ZM15 14L15 15L14 15L14 16L15 16L15 17L16 17L16 18L17 18L17 17L16 17L16 16L17 16L17 15L16 15L16 14ZM26 17L26 18L28 18L28 17ZM6 19L6 20L7 20L7 19ZM14 19L14 20L15 20L15 19ZM21 21L21 24L24 24L24 21ZM25 21L25 23L26 23L26 24L25 24L25 25L22 25L22 26L27 26L27 25L26 25L26 24L27 24L27 23L26 23L26 22L27 22L27 21ZM22 22L22 23L23 23L23 22ZM16 23L16 24L18 24L18 23ZM8 24L8 29L11 29L11 26L10 26L10 28L9 28L9 24ZM17 26L17 27L18 27L18 26ZM14 27L14 28L15 28L15 27ZM0 0L0 7L7 7L7 0ZM1 1L1 6L6 6L6 1ZM2 2L2 5L5 5L5 2ZM22 0L22 7L29 7L29 0ZM23 1L23 6L28 6L28 1ZM24 2L24 5L27 5L27 2ZM0 22L0 29L7 29L7 22ZM1 23L1 28L6 28L6 23ZM2 24L2 27L5 27L5 24Z" fill="#000000"/></g></g></svg>
