<?xml version="1.0" encoding="UTF-8"?>
<svg xmlns="http://www.w3.org/2000/svg" version="1.1" width="100" height="100" viewBox="0 0 100 100"><rect x="0" y="0" width="100" height="100" fill="#ffffff"/><g transform="scale(3.448)"><g transform="translate(0,0)"><path fill-rule="evenodd" d="M10 0L10 2L11 2L11 0ZM12 0L12 1L13 1L13 2L12 2L12 4L13 4L13 3L14 3L14 4L15 4L15 3L16 3L16 4L17 4L17 5L15 5L15 6L14 6L14 8L15 8L15 9L12 9L12 7L13 7L13 5L11 5L11 6L10 6L10 4L11 4L11 3L8 3L8 4L9 4L9 5L8 5L8 7L9 7L9 8L6 8L6 9L5 9L5 8L0 8L0 9L3 9L3 11L2 11L2 10L0 10L0 11L1 11L1 12L3 12L3 13L2 13L2 14L0 14L0 15L1 15L1 16L0 16L0 21L1 21L1 16L2 16L2 21L3 21L3 20L4 20L4 21L8 21L8 23L9 23L9 24L8 24L8 29L9 29L9 24L11 24L11 25L10 25L10 28L11 28L11 25L12 25L12 26L13 26L13 27L12 27L12 29L13 29L13 28L14 28L14 29L20 29L20 28L21 28L21 27L20 27L20 26L22 26L22 27L23 27L23 29L24 29L24 28L25 28L25 26L26 26L26 27L27 27L27 28L26 28L26 29L27 29L27 28L28 28L28 26L29 26L29 25L27 25L27 24L28 24L28 22L29 22L29 21L28 21L28 22L27 22L27 24L26 24L26 23L25 23L25 22L26 22L26 21L27 21L27 20L26 20L26 19L28 19L28 18L29 18L29 17L28 17L28 16L29 16L29 15L28 15L28 16L26 16L26 15L25 15L25 14L26 14L26 13L27 13L27 14L29 14L29 13L27 13L27 12L28 12L28 11L27 11L27 10L29 10L29 9L28 9L28 8L27 8L27 10L25 10L25 9L26 9L26 8L25 8L25 9L24 9L24 8L23 8L23 9L22 9L22 8L20 8L20 9L19 9L19 8L16 8L16 7L17 7L17 5L20 5L20 7L21 7L21 5L20 5L20 4L21 4L21 2L20 2L20 4L19 4L19 2L18 2L18 1L17 1L17 2L18 2L18 3L16 3L16 0L15 0L15 1L14 1L14 0ZM19 0L19 1L20 1L20 0ZM8 1L8 2L9 2L9 1ZM14 2L14 3L15 3L15 2ZM9 6L9 7L10 7L10 6ZM11 6L11 7L12 7L12 6ZM15 6L15 7L16 7L16 6ZM18 6L18 7L19 7L19 6ZM10 8L10 9L8 9L8 10L9 10L9 11L8 11L8 12L7 12L7 11L6 11L6 12L5 12L5 13L4 13L4 14L2 14L2 15L5 15L5 13L6 13L6 14L7 14L7 15L6 15L6 16L7 16L7 17L4 17L4 16L3 16L3 17L4 17L4 18L7 18L7 19L6 19L6 20L8 20L8 21L10 21L10 20L11 20L11 22L13 22L13 23L12 23L12 25L15 25L15 26L16 26L16 27L14 27L14 28L16 28L16 27L17 27L17 28L18 28L18 27L19 27L19 28L20 28L20 27L19 27L19 26L20 26L20 23L19 23L19 22L18 22L18 21L20 21L20 18L21 18L21 19L22 19L22 20L23 20L23 19L24 19L24 17L25 17L25 19L26 19L26 18L28 18L28 17L26 17L26 16L24 16L24 17L23 17L23 15L22 15L22 14L21 14L21 16L20 16L20 14L19 14L19 13L21 13L21 12L22 12L22 13L23 13L23 14L24 14L24 13L25 13L25 12L27 12L27 11L25 11L25 10L22 10L22 11L20 11L20 10L21 10L21 9L20 9L20 10L19 10L19 9L15 9L15 10L19 10L19 13L17 13L17 12L18 12L18 11L16 11L16 13L14 13L14 12L15 12L15 11L14 11L14 12L13 12L13 13L12 13L12 11L13 11L13 10L12 10L12 9L11 9L11 8ZM6 9L6 10L7 10L7 9ZM10 9L10 11L11 11L11 9ZM22 11L22 12L23 12L23 13L24 13L24 12L25 12L25 11L24 11L24 12L23 12L23 11ZM6 12L6 13L7 13L7 14L9 14L9 15L7 15L7 16L10 16L10 15L11 15L11 17L10 17L10 18L8 18L8 17L7 17L7 18L8 18L8 20L9 20L9 19L11 19L11 17L12 17L12 18L13 18L13 19L12 19L12 21L13 21L13 20L14 20L14 21L16 21L16 22L15 22L15 23L14 23L14 24L15 24L15 25L18 25L18 26L19 26L19 25L18 25L18 24L19 24L19 23L18 23L18 22L17 22L17 21L18 21L18 20L17 20L17 19L16 19L16 18L15 18L15 17L17 17L17 18L18 18L18 19L19 19L19 18L20 18L20 16L19 16L19 15L18 15L18 14L17 14L17 13L16 13L16 14L15 14L15 15L14 15L14 16L15 16L15 17L12 17L12 15L13 15L13 14L9 14L9 13L11 13L11 12L9 12L9 13L7 13L7 12ZM16 15L16 16L18 16L18 15ZM21 16L21 17L22 17L22 18L23 18L23 17L22 17L22 16ZM18 17L18 18L19 18L19 17ZM14 19L14 20L15 20L15 19ZM16 20L16 21L17 21L17 20ZM25 20L25 21L26 21L26 20ZM21 21L21 24L24 24L24 21ZM9 22L9 23L10 23L10 22ZM22 22L22 23L23 23L23 22ZM16 23L16 24L18 24L18 23ZM25 24L25 25L22 25L22 26L25 26L25 25L26 25L26 26L27 26L27 25L26 25L26 24ZM0 0L0 7L7 7L7 0ZM1 1L1 6L6 6L6 1ZM2 2L2 5L5 5L5 2ZM22 0L22 7L29 7L29 0ZM23 1L23 6L28 6L28 1ZM24 2L24 5L27 5L27 2ZM0 22L0 29L7 29L7 22ZM1 23L1 28L6 28L6 23ZM2 24L2 27L5 27L5 24Z" fill="#000000"/></g></g></svg>
