<?xml version="1.0" encoding="UTF-8"?>
<svg xmlns="http://www.w3.org/2000/svg" version="1.1" width="100" height="100" viewBox="0 0 100 100"><rect x="0" y="0" width="100" height="100" fill="#ffffff"/><g transform="scale(3.448)"><g transform="translate(0,0)"><path fill-rule="evenodd" d="M10 0L10 2L11 2L11 0ZM12 0L12 1L13 1L13 2L12 2L12 4L13 4L13 3L14 3L14 4L16 4L16 5L15 5L15 6L14 6L14 8L15 8L15 9L12 9L12 7L13 7L13 5L11 5L11 6L10 6L10 4L11 4L11 3L8 3L8 4L9 4L9 5L8 5L8 7L9 7L9 8L6 8L6 9L5 9L5 8L0 8L0 11L1 11L1 16L2 16L2 17L0 17L0 21L1 21L1 18L2 18L2 19L3 19L3 20L4 20L4 19L5 19L5 20L6 20L6 21L8 21L8 23L9 23L9 24L8 24L8 29L11 29L11 28L10 28L10 26L9 26L9 24L10 24L10 25L12 25L12 26L13 26L13 27L12 27L12 29L13 29L13 28L14 28L14 29L16 29L16 28L17 28L17 29L18 29L18 28L19 28L19 29L20 29L20 28L23 28L23 29L24 29L24 28L25 28L25 27L26 27L26 26L24 26L24 25L27 25L27 28L26 28L26 29L27 29L27 28L28 28L28 26L29 26L29 25L27 25L27 24L28 24L28 22L29 22L29 21L28 21L28 22L27 22L27 24L25 24L25 23L26 23L26 22L25 22L25 21L27 21L27 20L28 20L28 19L27 19L27 20L25 20L25 19L26 19L26 17L27 17L27 18L29 18L29 17L28 17L28 16L25 16L25 17L24 17L24 16L23 16L23 17L22 17L22 16L21 16L21 14L22 14L22 15L23 15L23 13L24 13L24 15L26 15L26 14L25 14L25 13L24 13L24 12L26 12L26 13L28 13L28 14L27 14L27 15L28 15L28 14L29 14L29 13L28 13L28 12L29 12L29 11L28 11L28 12L26 12L26 8L25 8L25 9L24 9L24 8L23 8L23 9L22 9L22 8L21 8L21 9L19 9L19 8L15 8L15 6L16 6L16 7L17 7L17 6L16 6L16 5L20 5L20 7L21 7L21 4L19 4L19 3L20 3L20 2L21 2L21 1L20 1L20 0L19 0L19 1L17 1L17 2L16 2L16 0L15 0L15 1L14 1L14 0ZM8 1L8 2L9 2L9 1ZM19 1L19 2L17 2L17 3L16 3L16 2L14 2L14 3L16 3L16 4L17 4L17 3L19 3L19 2L20 2L20 1ZM9 6L9 7L10 7L10 6ZM11 6L11 7L12 7L12 6ZM18 6L18 7L19 7L19 6ZM10 8L10 9L6 9L6 10L5 10L5 9L4 9L4 11L3 11L3 10L2 10L2 9L1 9L1 10L2 10L2 13L6 13L6 14L5 14L5 16L3 16L3 18L5 18L5 19L6 19L6 20L8 20L8 21L9 21L9 22L10 22L10 24L11 24L11 22L13 22L13 23L12 23L12 25L15 25L15 26L16 26L16 27L17 27L17 28L18 28L18 27L17 27L17 26L19 26L19 25L20 25L20 27L19 27L19 28L20 28L20 27L22 27L22 26L23 26L23 27L24 27L24 26L23 26L23 25L22 25L22 26L21 26L21 25L20 25L20 23L17 23L17 22L18 22L18 21L19 21L19 20L21 20L21 19L22 19L22 20L23 20L23 19L24 19L24 17L23 17L23 18L22 18L22 17L21 17L21 16L20 16L20 14L21 14L21 13L20 13L20 14L19 14L19 15L18 15L18 13L19 13L19 12L21 12L21 11L20 11L20 10L19 10L19 9L15 9L15 10L19 10L19 11L17 11L17 12L18 12L18 13L14 13L14 12L15 12L15 11L14 11L14 12L13 12L13 13L12 13L12 11L13 11L13 10L12 10L12 9L11 9L11 8ZM27 8L27 10L29 10L29 9L28 9L28 8ZM10 9L10 11L11 11L11 9ZM6 10L6 11L5 11L5 12L6 12L6 13L7 13L7 14L6 14L6 15L8 15L8 16L5 16L5 18L6 18L6 19L8 19L8 20L10 20L10 21L11 21L11 20L10 20L10 19L11 19L11 17L12 17L12 18L13 18L13 19L12 19L12 21L13 21L13 20L14 20L14 21L18 21L18 20L19 20L19 18L20 18L20 19L21 19L21 18L20 18L20 16L17 16L17 15L16 15L16 14L15 14L15 15L14 15L14 16L15 16L15 17L12 17L12 15L13 15L13 14L10 14L10 13L11 13L11 12L9 12L9 10ZM22 10L22 11L23 11L23 12L22 12L22 13L23 13L23 12L24 12L24 11L23 11L23 10ZM6 11L6 12L7 12L7 11ZM8 12L8 13L9 13L9 12ZM2 14L2 15L3 15L3 14ZM10 15L10 17L8 17L8 18L10 18L10 17L11 17L11 15ZM15 15L15 16L16 16L16 17L15 17L15 18L16 18L16 19L14 19L14 20L16 20L16 19L17 19L17 20L18 20L18 18L19 18L19 17L17 17L17 16L16 16L16 15ZM6 17L6 18L7 18L7 17ZM16 17L16 18L17 18L17 17ZM21 21L21 24L24 24L24 21ZM15 22L15 23L14 23L14 24L15 24L15 25L19 25L19 24L15 24L15 23L16 23L16 22ZM22 22L22 23L23 23L23 22ZM14 27L14 28L15 28L15 27ZM0 0L0 7L7 7L7 0ZM1 1L1 6L6 6L6 1ZM2 2L2 5L5 5L5 2ZM22 0L22 7L29 7L29 0ZM23 1L23 6L28 6L28 1ZM24 2L24 5L27 5L27 2ZM0 22L0 29L7 29L7 22ZM1 23L1 28L6 28L6 23ZM2 24L2 27L5 27L5 24Z" fill="#000000"/></g></g></svg>
