<?xml version="1.0" encoding="UTF-8"?>
<svg xmlns="http://www.w3.org/2000/svg" version="1.1" width="100" height="100" viewBox="0 0 100 100"><rect x="0" y="0" width="100" height="100" fill="#ffffff"/><g transform="scale(3.448)"><g transform="translate(0,0)"><path fill-rule="evenodd" d="M10 0L10 2L11 2L11 0ZM12 0L12 1L13 1L13 2L12 2L12 4L13 4L13 3L14 3L14 4L16 4L16 5L15 5L15 6L14 6L14 8L15 8L15 9L12 9L12 7L13 7L13 5L11 5L11 6L10 6L10 4L11 4L11 3L8 3L8 4L9 4L9 5L8 5L8 7L9 7L9 8L6 8L6 9L5 9L5 8L0 8L0 12L2 12L2 10L3 10L3 11L5 11L5 12L4 12L4 13L2 13L2 14L3 14L3 15L0 15L0 21L1 21L1 18L2 18L2 17L1 17L1 16L6 16L6 17L5 17L5 18L6 18L6 19L7 19L7 18L6 18L6 17L7 17L7 16L6 16L6 15L7 15L7 14L4 14L4 13L7 13L7 12L8 12L8 13L11 13L11 12L9 12L9 9L10 9L10 11L11 11L11 9L12 9L12 10L13 10L13 11L12 11L12 13L13 13L13 12L14 12L14 13L16 13L16 14L15 14L15 15L14 15L14 16L15 16L15 17L12 17L12 15L13 15L13 14L10 14L10 15L9 15L9 17L8 17L8 20L11 20L11 19L9 19L9 17L12 17L12 18L13 18L13 19L12 19L12 21L13 21L13 20L14 20L14 21L16 21L16 22L15 22L15 23L14 23L14 24L15 24L15 25L12 25L12 23L13 23L13 22L11 22L11 23L10 23L10 21L8 21L8 23L10 23L10 24L11 24L11 25L9 25L9 24L8 24L8 29L11 29L11 28L9 28L9 27L10 27L10 26L11 26L11 25L12 25L12 26L13 26L13 27L12 27L12 29L13 29L13 28L14 28L14 29L20 29L20 28L21 28L21 29L24 29L24 28L25 28L25 27L26 27L26 26L21 26L21 27L20 27L20 26L17 26L17 27L20 27L20 28L16 28L16 26L15 26L15 25L19 25L19 23L20 23L20 25L25 25L25 24L26 24L26 25L27 25L27 28L26 28L26 29L27 29L27 28L28 28L28 26L29 26L29 25L27 25L27 24L28 24L28 22L29 22L29 21L28 21L28 22L27 22L27 24L26 24L26 22L25 22L25 21L27 21L27 20L28 20L28 19L27 19L27 20L25 20L25 19L24 19L24 20L22 20L22 19L21 19L21 18L20 18L20 16L21 16L21 17L22 17L22 18L23 18L23 17L24 17L24 18L26 18L26 17L27 17L27 18L29 18L29 17L28 17L28 16L25 16L25 15L24 15L24 14L26 14L26 15L28 15L28 14L29 14L29 13L28 13L28 12L25 12L25 10L26 10L26 11L28 11L28 10L29 10L29 9L28 9L28 8L27 8L27 9L28 9L28 10L26 10L26 8L25 8L25 9L24 9L24 8L23 8L23 9L22 9L22 8L21 8L21 6L20 6L20 7L19 7L19 6L18 6L18 7L19 7L19 8L17 8L17 5L20 5L20 4L21 4L21 2L20 2L20 4L19 4L19 1L20 1L20 0L19 0L19 1L17 1L17 2L16 2L16 0L15 0L15 1L14 1L14 0ZM8 1L8 2L9 2L9 1ZM14 2L14 3L15 3L15 2ZM17 2L17 3L16 3L16 4L17 4L17 3L18 3L18 2ZM9 6L9 7L10 7L10 6ZM11 6L11 7L12 7L12 6ZM15 6L15 7L16 7L16 6ZM10 8L10 9L11 9L11 8ZM16 8L16 9L15 9L15 10L16 10L16 11L14 11L14 12L16 12L16 13L17 13L17 12L19 12L19 13L18 13L18 14L17 14L17 15L15 15L15 16L20 16L20 14L19 14L19 13L21 13L21 12L22 12L22 13L23 13L23 14L24 14L24 13L25 13L25 12L24 12L24 13L23 13L23 11L20 11L20 10L22 10L22 9L20 9L20 8L19 8L19 9L18 9L18 10L16 10L16 9L17 9L17 8ZM1 9L1 10L2 10L2 9ZM4 9L4 10L5 10L5 9ZM6 9L6 10L7 10L7 11L6 11L6 12L7 12L7 11L8 11L8 10L7 10L7 9ZM19 9L19 10L18 10L18 11L19 11L19 10L20 10L20 9ZM23 9L23 10L24 10L24 9ZM16 11L16 12L17 12L17 11ZM26 13L26 14L28 14L28 13ZM18 14L18 15L19 15L19 14ZM21 14L21 16L22 16L22 17L23 17L23 16L24 16L24 17L25 17L25 16L24 16L24 15L22 15L22 14ZM10 15L10 16L11 16L11 15ZM3 17L3 20L2 20L2 21L3 21L3 20L4 20L4 17ZM15 17L15 18L18 18L18 19L17 19L17 20L16 20L16 21L17 21L17 22L16 22L16 23L15 23L15 24L16 24L16 23L17 23L17 24L18 24L18 22L19 22L19 21L20 21L20 20L21 20L21 19L20 19L20 18L19 18L19 17ZM14 19L14 20L15 20L15 19ZM6 20L6 21L7 21L7 20ZM17 20L17 21L19 21L19 20ZM21 21L21 24L24 24L24 21ZM22 22L22 23L23 23L23 22ZM14 27L14 28L15 28L15 27ZM21 27L21 28L23 28L23 27ZM0 0L0 7L7 7L7 0ZM1 1L1 6L6 6L6 1ZM2 2L2 5L5 5L5 2ZM22 0L22 7L29 7L29 0ZM23 1L23 6L28 6L28 1ZM24 2L24 5L27 5L27 2ZM0 22L0 29L7 29L7 22ZM1 23L1 28L6 28L6 23ZM2 24L2 27L5 27L5 24Z" fill="#000000"/></g></g></svg>
