<?xml version="1.0" encoding="UTF-8"?>
<svg xmlns="http://www.w3.org/2000/svg" version="1.1" width="100" height="100" viewBox="0 0 100 100"><rect x="0" y="0" width="100" height="100" fill="#ffffff"/><g transform="scale(3.448)"><g transform="translate(0,0)"><path fill-rule="evenodd" d="M10 0L10 2L11 2L11 0ZM12 0L12 1L13 1L13 2L12 2L12 4L13 4L13 3L14 3L14 4L17 4L17 5L15 5L15 6L14 6L14 8L15 8L15 9L12 9L12 7L13 7L13 5L11 5L11 6L10 6L10 4L11 4L11 3L8 3L8 4L9 4L9 5L8 5L8 7L9 7L9 8L6 8L6 9L5 9L5 8L0 8L0 9L1 9L1 11L0 11L0 12L1 12L1 11L3 11L3 13L1 13L1 14L0 14L0 16L1 16L1 17L0 17L0 21L1 21L1 18L3 18L3 17L4 17L4 16L3 16L3 13L4 13L4 15L5 15L5 13L9 13L9 14L8 14L8 15L7 15L7 14L6 14L6 15L7 15L7 16L5 16L5 19L4 19L4 21L5 21L5 20L6 20L6 21L7 21L7 20L6 20L6 19L8 19L8 18L6 18L6 17L7 17L7 16L8 16L8 15L11 15L11 16L9 16L9 17L10 17L10 18L9 18L9 19L10 19L10 20L9 20L9 21L8 21L8 23L9 23L9 22L10 22L10 23L11 23L11 24L10 24L10 25L9 25L9 24L8 24L8 29L11 29L11 25L12 25L12 26L13 26L13 27L12 27L12 29L13 29L13 28L14 28L14 29L19 29L19 28L21 28L21 29L22 29L22 28L21 28L21 26L22 26L22 27L23 27L23 29L24 29L24 28L25 28L25 26L26 26L26 25L27 25L27 28L26 28L26 29L27 29L27 28L28 28L28 26L29 26L29 25L27 25L27 24L28 24L28 22L29 22L29 21L28 21L28 20L26 20L26 18L25 18L25 17L24 17L24 16L23 16L23 17L22 17L22 16L21 16L21 14L22 14L22 15L23 15L23 13L24 13L24 15L25 15L25 16L26 16L26 17L28 17L28 18L27 18L27 19L28 19L28 18L29 18L29 17L28 17L28 15L27 15L27 16L26 16L26 15L25 15L25 14L26 14L26 13L27 13L27 14L29 14L29 13L27 13L27 12L29 12L29 11L28 11L28 10L29 10L29 9L28 9L28 8L27 8L27 9L26 9L26 8L25 8L25 9L24 9L24 8L23 8L23 9L22 9L22 8L21 8L21 4L19 4L19 1L20 1L20 2L21 2L21 1L20 1L20 0L19 0L19 1L16 1L16 0L15 0L15 1L14 1L14 0ZM8 1L8 2L9 2L9 1ZM14 2L14 3L15 3L15 2ZM17 2L17 3L18 3L18 2ZM17 5L17 8L16 8L16 9L15 9L15 10L16 10L16 9L17 9L17 11L14 11L14 12L13 12L13 13L12 13L12 11L13 11L13 10L12 10L12 9L11 9L11 8L10 8L10 9L9 9L9 11L8 11L8 12L11 12L11 13L10 13L10 14L13 14L13 15L12 15L12 17L11 17L11 22L13 22L13 23L12 23L12 25L15 25L15 26L16 26L16 27L14 27L14 28L16 28L16 27L17 27L17 28L18 28L18 27L20 27L20 26L21 26L21 25L20 25L20 23L19 23L19 21L17 21L17 20L18 20L18 19L19 19L19 20L21 20L21 19L22 19L22 20L23 20L23 19L25 19L25 18L24 18L24 17L23 17L23 18L22 18L22 17L21 17L21 16L20 16L20 14L18 14L18 13L21 13L21 12L22 12L22 13L23 13L23 10L24 10L24 9L23 9L23 10L22 10L22 9L21 9L21 8L20 8L20 5ZM9 6L9 7L10 7L10 6ZM11 6L11 7L12 7L12 6ZM15 6L15 7L16 7L16 6ZM18 6L18 7L19 7L19 6ZM17 8L17 9L18 9L18 11L19 11L19 12L20 12L20 11L19 11L19 10L21 10L21 11L22 11L22 10L21 10L21 9L18 9L18 8ZM2 9L2 10L5 10L5 11L6 11L6 12L7 12L7 11L6 11L6 10L7 10L7 9L6 9L6 10L5 10L5 9ZM10 9L10 11L11 11L11 9ZM25 9L25 10L26 10L26 11L25 11L25 12L24 12L24 13L25 13L25 12L27 12L27 10L28 10L28 9L27 9L27 10L26 10L26 9ZM4 12L4 13L5 13L5 12ZM14 12L14 13L18 13L18 12ZM1 14L1 16L2 16L2 14ZM15 14L15 15L14 15L14 16L15 16L15 17L12 17L12 18L13 18L13 19L12 19L12 21L13 21L13 20L14 20L14 21L16 21L16 22L15 22L15 23L14 23L14 24L15 24L15 25L16 25L16 26L17 26L17 27L18 27L18 26L17 26L17 25L19 25L19 24L17 24L17 23L18 23L18 22L17 22L17 21L16 21L16 19L17 19L17 18L15 18L15 17L18 17L18 18L20 18L20 19L21 19L21 18L20 18L20 16L19 16L19 15L18 15L18 14L17 14L17 15L16 15L16 14ZM15 15L15 16L16 16L16 15ZM17 15L17 16L18 16L18 17L19 17L19 16L18 16L18 15ZM14 19L14 20L15 20L15 19ZM2 20L2 21L3 21L3 20ZM25 20L25 22L26 22L26 24L25 24L25 25L22 25L22 26L25 26L25 25L26 25L26 24L27 24L27 22L28 22L28 21L26 21L26 20ZM21 21L21 24L24 24L24 21ZM22 22L22 23L23 23L23 22ZM16 24L16 25L17 25L17 24ZM0 0L0 7L7 7L7 0ZM1 1L1 6L6 6L6 1ZM2 2L2 5L5 5L5 2ZM22 0L22 7L29 7L29 0ZM23 1L23 6L28 6L28 1ZM24 2L24 5L27 5L27 2ZM0 22L0 29L7 29L7 22ZM1 23L1 28L6 28L6 23ZM2 24L2 27L5 27L5 24Z" fill="#000000"/></g></g></svg>
