<?xml version="1.0" encoding="UTF-8"?>
<svg xmlns="http://www.w3.org/2000/svg" version="1.1" width="100" height="100" viewBox="0 0 100 100"><rect x="0" y="0" width="100" height="100" fill="#ffffff"/><g transform="scale(3.448)"><g transform="translate(0,0)"><path fill-rule="evenodd" d="M9 0L9 1L8 1L8 3L9 3L9 4L8 4L8 8L6 8L6 9L4 9L4 8L3 8L3 9L4 9L4 11L3 11L3 10L2 10L2 8L0 8L0 9L1 9L1 11L0 11L0 12L1 12L1 11L3 11L3 12L4 12L4 13L0 13L0 15L1 15L1 14L3 14L3 16L4 16L4 14L5 14L5 15L7 15L7 14L6 14L6 13L7 13L7 12L8 12L8 15L9 15L9 17L10 17L10 16L11 16L11 17L12 17L12 16L13 16L13 17L15 17L15 16L16 16L16 17L18 17L18 16L20 16L20 18L21 18L21 19L20 19L20 23L19 23L19 20L18 20L18 19L17 19L17 18L16 18L16 20L18 20L18 21L17 21L17 23L19 23L19 24L17 24L17 25L16 25L16 23L15 23L15 22L14 22L14 21L15 21L15 20L14 20L14 18L13 18L13 20L12 20L12 19L11 19L11 18L9 18L9 20L6 20L6 19L8 19L8 18L6 18L6 17L8 17L8 16L6 16L6 17L4 17L4 18L6 18L6 19L5 19L5 20L3 20L3 17L2 17L2 16L1 16L1 17L2 17L2 20L3 20L3 21L5 21L5 20L6 20L6 21L8 21L8 23L10 23L10 26L9 26L9 25L8 25L8 26L9 26L9 27L8 27L8 29L9 29L9 28L12 28L12 29L14 29L14 28L12 28L12 24L14 24L14 25L13 25L13 27L15 27L15 28L16 28L16 29L22 29L22 28L23 28L23 29L24 29L24 28L23 28L23 27L25 27L25 29L26 29L26 24L27 24L27 26L28 26L28 27L27 27L27 29L28 29L28 27L29 27L29 26L28 26L28 25L29 25L29 24L28 24L28 23L27 23L27 22L26 22L26 21L27 21L27 20L26 20L26 19L27 19L27 17L25 17L25 18L26 18L26 19L25 19L25 20L23 20L23 19L24 19L24 17L22 17L22 18L21 18L21 15L22 15L22 13L23 13L23 14L24 14L24 15L23 15L23 16L24 16L24 15L25 15L25 16L26 16L26 12L27 12L27 13L29 13L29 11L28 11L28 12L27 12L27 10L26 10L26 9L28 9L28 10L29 10L29 9L28 9L28 8L26 8L26 9L25 9L25 8L22 8L22 10L23 10L23 12L22 12L22 13L21 13L21 14L20 14L20 12L21 12L21 10L19 10L19 8L20 8L20 9L21 9L21 6L20 6L20 5L19 5L19 4L20 4L20 2L21 2L21 1L20 1L20 0L18 0L18 2L17 2L17 0L16 0L16 1L15 1L15 0L12 0L12 1L11 1L11 2L9 2L9 1L10 1L10 0ZM19 1L19 2L20 2L20 1ZM14 2L14 3L15 3L15 4L16 4L16 6L15 6L15 7L16 7L16 6L17 6L17 7L18 7L18 5L17 5L17 4L19 4L19 3L17 3L17 4L16 4L16 2ZM12 3L12 4L9 4L9 5L10 5L10 6L9 6L9 7L10 7L10 8L8 8L8 9L9 9L9 10L10 10L10 8L11 8L11 9L12 9L12 10L11 10L11 11L9 11L9 15L11 15L11 16L12 16L12 14L10 14L10 13L12 13L12 12L13 12L13 15L18 15L18 14L16 14L16 13L17 13L17 12L18 12L18 11L19 11L19 10L17 10L17 9L18 9L18 8L16 8L16 9L15 9L15 8L14 8L14 6L13 6L13 3ZM11 5L11 6L10 6L10 7L11 7L11 6L12 6L12 8L13 8L13 6L12 6L12 5ZM19 6L19 7L20 7L20 6ZM6 9L6 10L5 10L5 12L7 12L7 11L6 11L6 10L7 10L7 9ZM14 9L14 10L15 10L15 9ZM24 9L24 10L25 10L25 11L24 11L24 14L25 14L25 11L26 11L26 10L25 10L25 9ZM14 11L14 12L15 12L15 11ZM16 11L16 12L17 12L17 11ZM19 14L19 15L20 15L20 14ZM28 14L28 16L29 16L29 14ZM28 17L28 22L29 22L29 17ZM0 18L0 19L1 19L1 18ZM0 20L0 21L1 21L1 20ZM9 20L9 22L10 22L10 23L11 23L11 22L10 22L10 21L11 21L11 20ZM13 20L13 21L14 21L14 20ZM25 20L25 21L26 21L26 20ZM21 21L21 24L24 24L24 21ZM22 22L22 23L23 23L23 22ZM25 22L25 23L26 23L26 22ZM14 23L14 24L15 24L15 23ZM19 24L19 26L18 26L18 28L20 28L20 27L21 27L21 26L20 26L20 24ZM15 25L15 27L17 27L17 26L16 26L16 25ZM23 25L23 26L22 26L22 27L23 27L23 26L24 26L24 25ZM0 0L0 7L7 7L7 0ZM1 1L1 6L6 6L6 1ZM2 2L2 5L5 5L5 2ZM22 0L22 7L29 7L29 0ZM23 1L23 6L28 6L28 1ZM24 2L24 5L27 5L27 2ZM0 22L0 29L7 29L7 22ZM1 23L1 28L6 28L6 23ZM2 24L2 27L5 27L5 24Z" fill="#000000"/></g></g></svg>
