<?xml version="1.0" encoding="UTF-8"?>
<svg xmlns="http://www.w3.org/2000/svg" version="1.1" width="100" height="100" viewBox="0 0 100 100"><rect x="0" y="0" width="100" height="100" fill="#ffffff"/><g transform="scale(3.448)"><g transform="translate(0,0)"><path fill-rule="evenodd" d="M10 0L10 2L11 2L11 0ZM12 0L12 1L13 1L13 2L12 2L12 4L13 4L13 3L14 3L14 4L17 4L17 5L20 5L20 7L19 7L19 6L18 6L18 7L19 7L19 8L17 8L17 6L16 6L16 5L15 5L15 6L14 6L14 8L15 8L15 9L12 9L12 7L13 7L13 5L11 5L11 6L10 6L10 4L11 4L11 3L8 3L8 4L9 4L9 5L8 5L8 7L9 7L9 8L6 8L6 9L5 9L5 8L0 8L0 10L3 10L3 12L4 12L4 13L5 13L5 15L7 15L7 14L8 14L8 18L5 18L5 17L7 17L7 16L5 16L5 17L4 17L4 14L3 14L3 13L2 13L2 11L0 11L0 21L1 21L1 18L2 18L2 20L3 20L3 21L8 21L8 23L11 23L11 25L10 25L10 26L9 26L9 24L8 24L8 29L11 29L11 27L10 27L10 26L11 26L11 25L12 25L12 26L13 26L13 27L12 27L12 29L13 29L13 28L14 28L14 29L15 29L15 28L16 28L16 29L20 29L20 28L22 28L22 29L24 29L24 28L25 28L25 26L24 26L24 25L27 25L27 26L26 26L26 27L27 27L27 28L26 28L26 29L27 29L27 28L28 28L28 26L29 26L29 25L27 25L27 24L28 24L28 22L29 22L29 21L28 21L28 22L26 22L26 23L27 23L27 24L25 24L25 20L26 20L26 21L27 21L27 20L29 20L29 19L28 19L28 18L29 18L29 17L28 17L28 16L29 16L29 15L28 15L28 16L26 16L26 15L27 15L27 14L29 14L29 13L27 13L27 12L25 12L25 11L28 11L28 10L29 10L29 9L28 9L28 8L27 8L27 9L28 9L28 10L26 10L26 8L25 8L25 9L24 9L24 8L23 8L23 9L22 9L22 8L21 8L21 5L20 5L20 4L21 4L21 2L19 2L19 1L21 1L21 0L18 0L18 1L16 1L16 0L15 0L15 1L14 1L14 0ZM8 1L8 2L9 2L9 1ZM14 2L14 3L16 3L16 2ZM17 2L17 3L18 3L18 2ZM19 3L19 4L20 4L20 3ZM9 6L9 7L10 7L10 6ZM11 6L11 7L12 7L12 6ZM15 6L15 8L16 8L16 9L15 9L15 10L16 10L16 9L17 9L17 12L16 12L16 13L14 13L14 12L15 12L15 11L14 11L14 12L13 12L13 13L12 13L12 11L13 11L13 10L12 10L12 9L11 9L11 8L10 8L10 9L6 9L6 10L4 10L4 9L3 9L3 10L4 10L4 11L5 11L5 12L7 12L7 11L9 11L9 12L8 12L8 13L9 13L9 12L11 12L11 13L10 13L10 15L9 15L9 18L10 18L10 20L11 20L11 21L10 21L10 22L13 22L13 23L12 23L12 25L15 25L15 26L16 26L16 28L18 28L18 27L19 27L19 28L20 28L20 27L21 27L21 26L23 26L23 27L22 27L22 28L23 28L23 27L24 27L24 26L23 26L23 25L21 25L21 26L19 26L19 25L20 25L20 24L19 24L19 25L17 25L17 24L18 24L18 23L19 23L19 22L20 22L20 18L21 18L21 19L22 19L22 20L23 20L23 18L24 18L24 17L25 17L25 19L26 19L26 20L27 20L27 19L26 19L26 18L28 18L28 17L26 17L26 16L24 16L24 17L23 17L23 15L22 15L22 14L21 14L21 13L20 13L20 14L19 14L19 13L18 13L18 14L17 14L17 15L15 15L15 14L16 14L16 13L17 13L17 12L22 12L22 13L25 13L25 14L27 14L27 13L25 13L25 12L22 12L22 11L23 11L23 10L22 10L22 11L21 11L21 9L20 9L20 8L19 8L19 9L17 9L17 8L16 8L16 6ZM10 9L10 11L11 11L11 9ZM19 9L19 10L20 10L20 9ZM6 10L6 11L7 11L7 10ZM1 13L1 15L3 15L3 14L2 14L2 13ZM6 13L6 14L7 14L7 13ZM11 14L11 17L10 17L10 18L11 18L11 17L12 17L12 18L13 18L13 19L12 19L12 21L13 21L13 20L14 20L14 21L19 21L19 19L18 19L18 20L17 20L17 18L15 18L15 17L19 17L19 18L20 18L20 16L21 16L21 17L22 17L22 18L23 18L23 17L22 17L22 16L21 16L21 14L20 14L20 16L15 16L15 15L14 15L14 16L15 16L15 17L12 17L12 15L13 15L13 14ZM18 14L18 15L19 15L19 14ZM2 16L2 18L3 18L3 19L5 19L5 18L3 18L3 16ZM6 19L6 20L8 20L8 21L9 21L9 19ZM14 19L14 20L15 20L15 19ZM21 21L21 24L24 24L24 21ZM15 22L15 23L14 23L14 24L15 24L15 25L16 25L16 26L17 26L17 25L16 25L16 24L15 24L15 23L17 23L17 22ZM22 22L22 23L23 23L23 22ZM9 27L9 28L10 28L10 27ZM14 27L14 28L15 28L15 27ZM0 0L0 7L7 7L7 0ZM1 1L1 6L6 6L6 1ZM2 2L2 5L5 5L5 2ZM22 0L22 7L29 7L29 0ZM23 1L23 6L28 6L28 1ZM24 2L24 5L27 5L27 2ZM0 22L0 29L7 29L7 22ZM1 23L1 28L6 28L6 23ZM2 24L2 27L5 27L5 24Z" fill="#000000"/></g></g></svg>
