<?xml version="1.0" encoding="UTF-8"?>
<svg xmlns="http://www.w3.org/2000/svg" version="1.1" width="100" height="100" viewBox="0 0 100 100"><rect x="0" y="0" width="100" height="100" fill="#ffffff"/><g transform="scale(3.448)"><g transform="translate(0,0)"><path fill-rule="evenodd" d="M8 0L8 1L9 1L9 2L8 2L8 5L9 5L9 4L11 4L11 5L10 5L10 10L9 10L9 8L8 8L8 10L6 10L6 11L5 11L5 10L4 10L4 8L0 8L0 9L2 9L2 10L1 10L1 11L2 11L2 10L4 10L4 11L3 11L3 12L2 12L2 13L0 13L0 16L1 16L1 18L0 18L0 19L1 19L1 18L5 18L5 15L7 15L7 16L6 16L6 17L7 17L7 18L6 18L6 19L7 19L7 20L5 20L5 19L4 19L4 20L3 20L3 19L2 19L2 20L1 20L1 21L2 21L2 20L3 20L3 21L4 21L4 20L5 20L5 21L7 21L7 20L8 20L8 22L9 22L9 20L10 20L10 23L9 23L9 24L10 24L10 23L11 23L11 26L12 26L12 28L11 28L11 29L12 29L12 28L14 28L14 27L15 27L15 29L17 29L17 28L16 28L16 27L15 27L15 26L16 26L16 25L17 25L17 27L18 27L18 28L19 28L19 29L21 29L21 28L22 28L22 29L23 29L23 28L24 28L24 29L25 29L25 27L27 27L27 29L28 29L28 27L29 27L29 25L28 25L28 27L27 27L27 24L26 24L26 23L27 23L27 22L25 22L25 21L28 21L28 22L29 22L29 20L27 20L27 19L28 19L28 17L27 17L27 18L26 18L26 19L25 19L25 20L24 20L24 18L23 18L23 20L21 20L21 18L22 18L22 17L21 17L21 15L22 15L22 14L24 14L24 17L25 17L25 16L26 16L26 15L25 15L25 14L24 14L24 12L23 12L23 11L22 11L22 10L24 10L24 11L25 11L25 13L27 13L27 14L28 14L28 16L29 16L29 13L27 13L27 12L26 12L26 11L27 11L27 10L26 10L26 9L27 9L27 8L24 8L24 9L22 9L22 8L19 8L19 6L20 6L20 7L21 7L21 6L20 6L20 4L19 4L19 3L20 3L20 2L18 2L18 3L17 3L17 1L16 1L16 0L15 0L15 1L16 1L16 4L15 4L15 3L14 3L14 5L13 5L13 3L12 3L12 4L11 4L11 2L14 2L14 0L12 0L12 1L11 1L11 0L10 0L10 1L9 1L9 0ZM18 0L18 1L21 1L21 0ZM16 4L16 5L14 5L14 6L13 6L13 5L12 5L12 6L11 6L11 8L12 8L12 6L13 6L13 8L14 8L14 9L15 9L15 10L14 10L14 11L11 11L11 13L8 13L8 14L9 14L9 15L8 15L8 17L9 17L9 18L7 18L7 19L8 19L8 20L9 20L9 19L10 19L10 20L11 20L11 23L14 23L14 22L15 22L15 24L12 24L12 26L13 26L13 27L14 27L14 26L15 26L15 25L16 25L16 22L18 22L18 23L17 23L17 24L18 24L18 26L20 26L20 27L19 27L19 28L20 28L20 27L22 27L22 28L23 28L23 25L22 25L22 26L21 26L21 25L20 25L20 23L19 23L19 22L20 22L20 21L19 21L19 20L18 20L18 21L17 21L17 20L16 20L16 19L15 19L15 21L13 21L13 18L14 18L14 15L16 15L16 16L17 16L17 18L18 18L18 19L20 19L20 18L21 18L21 17L19 17L19 16L20 16L20 15L18 15L18 14L19 14L19 12L18 12L18 11L20 11L20 12L21 12L21 11L20 11L20 10L21 10L21 9L20 9L20 10L18 10L18 9L17 9L17 10L18 10L18 11L16 11L16 6L17 6L17 7L18 7L18 5L19 5L19 4ZM8 6L8 7L9 7L9 6ZM14 6L14 7L15 7L15 6ZM6 8L6 9L7 9L7 8ZM28 8L28 10L29 10L29 8ZM11 9L11 10L12 10L12 9ZM8 10L8 12L9 12L9 10ZM25 10L25 11L26 11L26 10ZM4 11L4 12L5 12L5 11ZM6 11L6 12L7 12L7 11ZM12 12L12 13L11 13L11 15L9 15L9 17L10 17L10 18L11 18L11 17L10 17L10 16L12 16L12 17L13 17L13 16L12 16L12 14L13 14L13 15L14 15L14 14L16 14L16 15L17 15L17 14L18 14L18 12L14 12L14 14L13 14L13 12ZM22 12L22 13L21 13L21 14L22 14L22 13L23 13L23 12ZM2 13L2 14L1 14L1 15L3 15L3 16L4 16L4 13ZM6 13L6 14L7 14L7 13ZM16 13L16 14L17 14L17 13ZM18 17L18 18L19 18L19 17ZM11 19L11 20L12 20L12 19ZM21 21L21 24L24 24L24 21ZM22 22L22 23L23 23L23 22ZM18 23L18 24L19 24L19 23ZM28 23L28 24L29 24L29 23ZM8 25L8 29L10 29L10 27L9 27L9 26L10 26L10 25ZM13 25L13 26L14 26L14 25ZM25 25L25 26L24 26L24 27L25 27L25 26L26 26L26 25ZM0 0L0 7L7 7L7 0ZM1 1L1 6L6 6L6 1ZM2 2L2 5L5 5L5 2ZM22 0L22 7L29 7L29 0ZM23 1L23 6L28 6L28 1ZM24 2L24 5L27 5L27 2ZM0 22L0 29L7 29L7 22ZM1 23L1 28L6 28L6 23ZM2 24L2 27L5 27L5 24Z" fill="#000000"/></g></g></svg>
