<?xml version="1.0" encoding="UTF-8"?>
<svg xmlns="http://www.w3.org/2000/svg" version="1.1" width="100" height="100" viewBox="0 0 100 100"><rect x="0" y="0" width="100" height="100" fill="#ffffff"/><g transform="scale(3.448)"><g transform="translate(0,0)"><path fill-rule="evenodd" d="M8 0L8 1L9 1L9 2L8 2L8 5L9 5L9 4L11 4L11 5L10 5L10 10L9 10L9 8L8 8L8 10L9 10L9 11L8 11L8 12L6 12L6 13L5 13L5 11L7 11L7 10L5 10L5 9L4 9L4 8L0 8L0 12L2 12L2 13L4 13L4 15L2 15L2 16L1 16L1 15L0 15L0 17L2 17L2 18L4 18L4 19L5 19L5 20L3 20L3 19L2 19L2 20L1 20L1 21L2 21L2 20L3 20L3 21L7 21L7 20L6 20L6 19L8 19L8 18L9 18L9 19L10 19L10 20L8 20L8 22L9 22L9 25L8 25L8 29L9 29L9 28L10 28L10 29L12 29L12 28L14 28L14 27L15 27L15 29L17 29L17 28L16 28L16 27L15 27L15 26L18 26L18 28L20 28L20 29L22 29L22 28L21 28L21 27L20 27L20 26L22 26L22 25L24 25L24 26L25 26L25 25L26 25L26 27L27 27L27 29L28 29L28 27L29 27L29 25L28 25L28 27L27 27L27 24L26 24L26 23L25 23L25 20L18 20L18 19L17 19L17 21L18 21L18 22L16 22L16 23L15 23L15 22L14 22L14 23L11 23L11 22L9 22L9 21L10 21L10 20L12 20L12 19L10 19L10 15L11 15L11 16L12 16L12 17L13 17L13 16L12 16L12 14L13 14L13 15L14 15L14 18L13 18L13 21L16 21L16 20L15 20L15 19L16 19L16 18L17 18L17 16L16 16L16 17L15 17L15 15L14 15L14 14L16 14L16 13L17 13L17 14L18 14L18 17L21 17L21 18L22 18L22 17L21 17L21 15L22 15L22 14L23 14L23 15L24 15L24 16L23 16L23 19L24 19L24 17L25 17L25 18L27 18L27 17L28 17L28 15L29 15L29 13L28 13L28 14L27 14L27 17L26 17L26 16L25 16L25 14L24 14L24 12L25 12L25 13L27 13L27 12L26 12L26 11L27 11L27 8L24 8L24 10L23 10L23 9L22 9L22 8L21 8L21 6L20 6L20 5L21 5L21 3L20 3L20 2L18 2L18 0L17 0L17 1L16 1L16 0L15 0L15 1L16 1L16 2L15 2L15 3L14 3L14 5L13 5L13 3L12 3L12 4L11 4L11 2L14 2L14 0L12 0L12 1L11 1L11 0L10 0L10 1L9 1L9 0ZM19 0L19 1L20 1L20 0ZM16 2L16 3L18 3L18 2ZM16 4L16 5L14 5L14 6L13 6L13 5L12 5L12 6L11 6L11 8L12 8L12 6L13 6L13 8L14 8L14 9L15 9L15 10L14 10L14 11L11 11L11 13L9 13L9 14L8 14L8 13L6 13L6 14L8 14L8 15L6 15L6 16L5 16L5 15L4 15L4 16L2 16L2 17L5 17L5 18L8 18L8 17L6 17L6 16L8 16L8 15L10 15L10 14L11 14L11 13L12 13L12 12L13 12L13 14L14 14L14 12L15 12L15 11L16 11L16 12L18 12L18 11L20 11L20 12L19 12L19 13L20 13L20 14L22 14L22 13L23 13L23 12L24 12L24 11L25 11L25 10L26 10L26 9L25 9L25 10L24 10L24 11L23 11L23 10L22 10L22 9L21 9L21 8L20 8L20 9L21 9L21 10L19 10L19 8L18 8L18 9L17 9L17 10L18 10L18 11L16 11L16 6L17 6L17 7L18 7L18 5L19 5L19 4ZM8 6L8 7L9 7L9 6ZM14 6L14 7L15 7L15 6ZM19 6L19 7L20 7L20 6ZM6 8L6 9L7 9L7 8ZM28 8L28 10L29 10L29 8ZM3 9L3 10L4 10L4 11L3 11L3 12L4 12L4 11L5 11L5 10L4 10L4 9ZM11 9L11 10L12 10L12 9ZM28 11L28 12L29 12L29 11ZM21 12L21 13L22 13L22 12ZM19 15L19 16L20 16L20 15ZM0 18L0 19L1 19L1 18ZM26 19L26 21L27 21L27 20L28 20L28 22L29 22L29 19ZM19 21L19 22L20 22L20 21ZM21 21L21 24L24 24L24 21ZM22 22L22 23L23 23L23 22ZM10 23L10 24L11 24L11 23ZM17 23L17 24L16 24L16 25L17 25L17 24L18 24L18 23ZM19 23L19 26L20 26L20 23ZM28 23L28 24L29 24L29 23ZM12 24L12 26L11 26L11 27L10 27L10 25L9 25L9 27L10 27L10 28L12 28L12 26L13 26L13 27L14 27L14 26L15 26L15 24ZM13 25L13 26L14 26L14 25ZM23 27L23 28L24 28L24 29L25 29L25 27ZM0 0L0 7L7 7L7 0ZM1 1L1 6L6 6L6 1ZM2 2L2 5L5 5L5 2ZM22 0L22 7L29 7L29 0ZM23 1L23 6L28 6L28 1ZM24 2L24 5L27 5L27 2ZM0 22L0 29L7 29L7 22ZM1 23L1 28L6 28L6 23ZM2 24L2 27L5 27L5 24Z" fill="#000000"/></g></g></svg>
