<?xml version="1.0" encoding="UTF-8"?>
<svg xmlns="http://www.w3.org/2000/svg" version="1.1" width="100" height="100" viewBox="0 0 100 100"><rect x="0" y="0" width="100" height="100" fill="#ffffff"/><g transform="scale(3.448)"><g transform="translate(0,0)"><path fill-rule="evenodd" d="M10 0L10 2L11 2L11 0ZM12 0L12 1L13 1L13 2L12 2L12 4L13 4L13 3L14 3L14 4L16 4L16 5L15 5L15 6L14 6L14 8L15 8L15 9L12 9L12 7L13 7L13 5L11 5L11 6L10 6L10 4L11 4L11 3L8 3L8 4L9 4L9 5L8 5L8 7L9 7L9 8L6 8L6 9L7 9L7 10L6 10L6 11L7 11L7 12L6 12L6 13L5 13L5 12L4 12L4 14L3 14L3 16L0 16L0 21L1 21L1 17L2 17L2 18L4 18L4 17L3 17L3 16L6 16L6 17L5 17L5 19L7 19L7 20L6 20L6 21L8 21L8 23L10 23L10 24L11 24L11 25L12 25L12 26L13 26L13 27L12 27L12 29L13 29L13 28L14 28L14 29L19 29L19 28L21 28L21 29L22 29L22 28L23 28L23 29L24 29L24 28L25 28L25 27L26 27L26 26L22 26L22 25L27 25L27 28L26 28L26 29L27 29L27 28L28 28L28 26L29 26L29 25L27 25L27 24L28 24L28 23L27 23L27 22L29 22L29 21L28 21L28 20L26 20L26 19L28 19L28 18L29 18L29 17L28 17L28 18L26 18L26 19L25 19L25 17L22 17L22 16L21 16L21 14L22 14L22 15L23 15L23 16L26 16L26 17L27 17L27 16L26 16L26 15L27 15L27 14L29 14L29 13L27 13L27 12L29 12L29 11L28 11L28 10L29 10L29 9L28 9L28 8L27 8L27 9L28 9L28 10L27 10L27 12L26 12L26 11L25 11L25 9L26 9L26 8L25 8L25 9L24 9L24 8L23 8L23 9L22 9L22 8L21 8L21 4L19 4L19 1L20 1L20 3L21 3L21 0L18 0L18 1L16 1L16 0L15 0L15 1L14 1L14 0ZM8 1L8 2L9 2L9 1ZM14 2L14 3L15 3L15 2ZM16 2L16 4L17 4L17 3L18 3L18 2ZM16 5L16 6L15 6L15 7L16 7L16 8L19 8L19 9L15 9L15 10L18 10L18 11L14 11L14 12L13 12L13 13L12 13L12 11L13 11L13 10L12 10L12 9L11 9L11 8L10 8L10 9L9 9L9 11L8 11L8 12L7 12L7 13L6 13L6 14L7 14L7 15L6 15L6 16L7 16L7 15L8 15L8 16L9 16L9 15L10 15L10 14L13 14L13 15L12 15L12 17L10 17L10 18L9 18L9 19L8 19L8 18L7 18L7 17L6 17L6 18L7 18L7 19L8 19L8 21L9 21L9 22L10 22L10 21L11 21L11 22L13 22L13 23L12 23L12 25L15 25L15 26L16 26L16 28L19 28L19 27L22 27L22 26L21 26L21 25L20 25L20 24L18 24L18 23L19 23L19 22L20 22L20 18L21 18L21 19L22 19L22 20L23 20L23 18L22 18L22 17L21 17L21 16L20 16L20 14L18 14L18 13L21 13L21 12L22 12L22 13L23 13L23 15L26 15L26 14L27 14L27 13L26 13L26 12L24 12L24 13L23 13L23 10L24 10L24 9L23 9L23 10L22 10L22 9L20 9L20 8L19 8L19 7L20 7L20 5ZM9 6L9 7L10 7L10 6ZM11 6L11 7L12 7L12 6ZM16 6L16 7L17 7L17 6ZM18 6L18 7L19 7L19 6ZM0 8L0 13L1 13L1 14L0 14L0 15L2 15L2 12L3 12L3 11L4 11L4 10L5 10L5 8ZM2 9L2 11L1 11L1 12L2 12L2 11L3 11L3 9ZM10 9L10 11L11 11L11 9ZM19 9L19 10L20 10L20 11L22 11L22 10L20 10L20 9ZM8 12L8 13L9 13L9 14L8 14L8 15L9 15L9 14L10 14L10 13L11 13L11 12ZM14 12L14 13L18 13L18 12ZM24 13L24 14L25 14L25 13ZM15 14L15 15L14 15L14 16L16 16L16 17L19 17L19 18L20 18L20 16L19 16L19 15L18 15L18 14ZM16 15L16 16L18 16L18 15ZM12 17L12 18L13 18L13 19L12 19L12 21L13 21L13 20L14 20L14 21L16 21L16 22L15 22L15 23L14 23L14 24L16 24L16 25L18 25L18 27L19 27L19 25L18 25L18 24L16 24L16 22L17 22L17 21L18 21L18 22L19 22L19 21L18 21L18 20L19 20L19 19L18 19L18 18L17 18L17 19L18 19L18 20L17 20L17 21L16 21L16 20L14 20L14 19L16 19L16 18L15 18L15 17ZM3 19L3 20L2 20L2 21L3 21L3 20L4 20L4 21L5 21L5 20L4 20L4 19ZM9 20L9 21L10 21L10 20ZM25 20L25 24L27 24L27 23L26 23L26 22L27 22L27 21L26 21L26 20ZM21 21L21 24L24 24L24 21ZM22 22L22 23L23 23L23 22ZM8 24L8 29L9 29L9 28L10 28L10 29L11 29L11 28L10 28L10 27L11 27L11 26L10 26L10 25L9 25L9 24ZM14 27L14 28L15 28L15 27ZM0 0L0 7L7 7L7 0ZM1 1L1 6L6 6L6 1ZM2 2L2 5L5 5L5 2ZM22 0L22 7L29 7L29 0ZM23 1L23 6L28 6L28 1ZM24 2L24 5L27 5L27 2ZM0 22L0 29L7 29L7 22ZM1 23L1 28L6 28L6 23ZM2 24L2 27L5 27L5 24Z" fill="#000000"/></g></g></svg>
