<?xml version="1.0" encoding="UTF-8"?>
<svg xmlns="http://www.w3.org/2000/svg" version="1.1" width="100" height="100" viewBox="0 0 100 100"><rect x="0" y="0" width="100" height="100" fill="#ffffff"/><g transform="scale(3.448)"><g transform="translate(0,0)"><path fill-rule="evenodd" d="M10 0L10 2L11 2L11 0ZM12 0L12 1L13 1L13 2L12 2L12 4L13 4L13 3L14 3L14 4L17 4L17 5L20 5L20 4L21 4L21 3L20 3L20 4L19 4L19 1L20 1L20 0L19 0L19 1L18 1L18 0L17 0L17 1L18 1L18 3L16 3L16 0L15 0L15 1L14 1L14 0ZM8 1L8 2L9 2L9 1ZM14 2L14 3L15 3L15 2ZM8 3L8 4L9 4L9 5L8 5L8 7L9 7L9 8L6 8L6 9L7 9L7 10L6 10L6 11L5 11L5 8L0 8L0 10L2 10L2 9L4 9L4 10L3 10L3 11L5 11L5 13L7 13L7 14L6 14L6 15L5 15L5 14L4 14L4 13L2 13L2 11L1 11L1 12L0 12L0 21L1 21L1 18L3 18L3 19L2 19L2 20L3 20L3 21L5 21L5 20L6 20L6 21L8 21L8 23L9 23L9 22L10 22L10 24L8 24L8 29L9 29L9 28L11 28L11 27L10 27L10 24L11 24L11 25L12 25L12 26L13 26L13 27L12 27L12 29L13 29L13 28L14 28L14 29L19 29L19 28L21 28L21 27L20 27L20 26L22 26L22 27L23 27L23 29L24 29L24 28L25 28L25 26L24 26L24 25L27 25L27 26L26 26L26 27L27 27L27 28L26 28L26 29L27 29L27 28L28 28L28 26L29 26L29 25L27 25L27 24L28 24L28 22L29 22L29 20L28 20L28 19L27 19L27 20L22 20L22 19L21 19L21 18L20 18L20 16L21 16L21 17L22 17L22 18L23 18L23 19L26 19L26 17L27 17L27 18L29 18L29 17L28 17L28 16L29 16L29 15L28 15L28 14L29 14L29 13L28 13L28 12L25 12L25 11L26 11L26 10L25 10L25 9L26 9L26 8L25 8L25 9L24 9L24 8L23 8L23 9L22 9L22 8L21 8L21 6L20 6L20 9L18 9L18 8L16 8L16 7L17 7L17 6L16 6L16 5L15 5L15 6L14 6L14 8L16 8L16 9L18 9L18 10L15 10L15 9L12 9L12 7L13 7L13 5L11 5L11 6L10 6L10 4L11 4L11 3ZM9 6L9 7L10 7L10 6ZM11 6L11 7L12 7L12 6ZM15 6L15 7L16 7L16 6ZM18 6L18 7L19 7L19 6ZM10 8L10 9L8 9L8 10L7 10L7 11L6 11L6 12L7 12L7 13L8 13L8 14L7 14L7 15L6 15L6 16L4 16L4 18L8 18L8 19L6 19L6 20L10 20L10 18L11 18L11 22L13 22L13 23L12 23L12 25L15 25L15 26L18 26L18 27L17 27L17 28L19 28L19 25L20 25L20 23L19 23L19 25L15 25L15 24L14 24L14 23L15 23L15 22L17 22L17 24L18 24L18 22L19 22L19 21L20 21L20 20L21 20L21 19L20 19L20 18L19 18L19 17L15 17L15 16L18 16L18 15L15 15L15 14L16 14L16 13L17 13L17 14L18 14L18 13L19 13L19 12L22 12L22 13L25 13L25 14L23 14L23 15L22 15L22 14L21 14L21 13L20 13L20 14L19 14L19 16L20 16L20 14L21 14L21 16L22 16L22 17L23 17L23 18L24 18L24 17L25 17L25 16L27 16L27 14L28 14L28 13L25 13L25 12L23 12L23 11L24 11L24 9L23 9L23 10L22 10L22 9L20 9L20 10L19 10L19 12L18 12L18 11L14 11L14 12L13 12L13 13L12 13L12 11L13 11L13 10L12 10L12 9L11 9L11 8ZM27 8L27 10L29 10L29 9L28 9L28 8ZM10 9L10 11L11 11L11 9ZM8 10L8 11L7 11L7 12L9 12L9 13L11 13L11 12L9 12L9 10ZM20 10L20 11L22 11L22 10ZM14 12L14 13L16 13L16 12ZM17 12L17 13L18 13L18 12ZM1 13L1 14L2 14L2 13ZM8 14L8 15L11 15L11 17L12 17L12 18L13 18L13 19L12 19L12 21L13 21L13 20L14 20L14 21L17 21L17 22L18 22L18 21L19 21L19 18L18 18L18 20L16 20L16 19L17 19L17 18L15 18L15 17L12 17L12 15L13 15L13 14ZM25 14L25 15L24 15L24 16L23 16L23 17L24 17L24 16L25 16L25 15L26 15L26 14ZM2 15L2 16L1 16L1 17L2 17L2 16L3 16L3 15ZM14 15L14 16L15 16L15 15ZM6 16L6 17L7 17L7 16ZM8 16L8 18L9 18L9 16ZM4 19L4 20L5 20L5 19ZM14 19L14 20L15 20L15 19ZM21 21L21 24L24 24L24 21ZM26 21L26 22L25 22L25 24L27 24L27 22L28 22L28 21ZM22 22L22 23L23 23L23 22ZM22 25L22 26L23 26L23 27L24 27L24 26L23 26L23 25ZM14 27L14 28L15 28L15 27ZM0 0L0 7L7 7L7 0ZM1 1L1 6L6 6L6 1ZM2 2L2 5L5 5L5 2ZM22 0L22 7L29 7L29 0ZM23 1L23 6L28 6L28 1ZM24 2L24 5L27 5L27 2ZM0 22L0 29L7 29L7 22ZM1 23L1 28L6 28L6 23ZM2 24L2 27L5 27L5 24Z" fill="#000000"/></g></g></svg>
