<?xml version="1.0" encoding="UTF-8"?>
<svg xmlns="http://www.w3.org/2000/svg" version="1.1" width="100" height="100" viewBox="0 0 100 100"><rect x="0" y="0" width="100" height="100" fill="#ffffff"/><g transform="scale(3.448)"><g transform="translate(0,0)"><path fill-rule="evenodd" d="M10 0L10 2L11 2L11 0ZM12 0L12 1L13 1L13 2L12 2L12 4L13 4L13 3L14 3L14 4L17 4L17 5L15 5L15 6L14 6L14 8L15 8L15 9L12 9L12 7L13 7L13 5L11 5L11 6L10 6L10 4L11 4L11 3L8 3L8 4L9 4L9 5L8 5L8 7L9 7L9 8L6 8L6 9L5 9L5 8L0 8L0 9L1 9L1 10L0 10L0 12L3 12L3 11L4 11L4 12L5 12L5 13L0 13L0 16L1 16L1 17L0 17L0 21L1 21L1 18L2 18L2 16L1 16L1 14L3 14L3 16L5 16L5 15L7 15L7 14L8 14L8 15L9 15L9 14L8 14L8 13L11 13L11 12L8 12L8 13L7 13L7 12L6 12L6 11L7 11L7 10L8 10L8 9L10 9L10 11L11 11L11 9L12 9L12 10L13 10L13 11L12 11L12 13L13 13L13 12L14 12L14 13L15 13L15 12L16 12L16 13L19 13L19 14L20 14L20 16L19 16L19 15L18 15L18 14L15 14L15 15L14 15L14 16L15 16L15 17L12 17L12 15L13 15L13 14L11 14L11 16L10 16L10 17L12 17L12 18L13 18L13 19L12 19L12 21L13 21L13 20L14 20L14 21L19 21L19 23L20 23L20 25L19 25L19 24L17 24L17 25L16 25L16 24L15 24L15 23L18 23L18 22L15 22L15 23L14 23L14 24L15 24L15 25L12 25L12 23L13 23L13 22L10 22L10 20L9 20L9 19L10 19L10 18L9 18L9 16L8 16L8 20L4 20L4 19L7 19L7 18L6 18L6 17L7 17L7 16L6 16L6 17L5 17L5 18L4 18L4 17L3 17L3 18L4 18L4 19L2 19L2 20L4 20L4 21L8 21L8 23L9 23L9 22L10 22L10 24L8 24L8 29L11 29L11 28L10 28L10 27L11 27L11 25L12 25L12 26L13 26L13 27L12 27L12 29L13 29L13 28L14 28L14 29L16 29L16 28L14 28L14 27L16 27L16 26L17 26L17 25L19 25L19 26L18 26L18 28L17 28L17 29L18 29L18 28L21 28L21 29L22 29L22 27L23 27L23 29L24 29L24 28L25 28L25 26L24 26L24 25L27 25L27 28L26 28L26 29L27 29L27 28L28 28L28 26L29 26L29 25L27 25L27 24L28 24L28 22L29 22L29 21L28 21L28 20L25 20L25 19L23 19L23 20L22 20L22 19L21 19L21 20L17 20L17 19L18 19L18 18L15 18L15 17L19 17L19 18L20 18L20 16L21 16L21 17L22 17L22 18L23 18L23 17L24 17L24 18L25 18L25 17L27 17L27 16L25 16L25 17L24 17L24 16L23 16L23 17L22 17L22 16L21 16L21 14L22 14L22 15L23 15L23 13L24 13L24 15L25 15L25 14L26 14L26 15L27 15L27 14L29 14L29 13L27 13L27 12L25 12L25 11L26 11L26 10L25 10L25 9L26 9L26 8L25 8L25 9L24 9L24 8L23 8L23 9L22 9L22 8L20 8L20 7L21 7L21 6L20 6L20 7L19 7L19 6L18 6L18 7L19 7L19 8L20 8L20 9L18 9L18 8L17 8L17 9L16 9L16 8L15 8L15 6L16 6L16 7L17 7L17 5L20 5L20 4L21 4L21 1L20 1L20 0L19 0L19 1L18 1L18 0L17 0L17 1L16 1L16 0L15 0L15 1L14 1L14 0ZM8 1L8 2L9 2L9 1ZM17 1L17 3L18 3L18 1ZM19 1L19 4L20 4L20 1ZM14 2L14 3L16 3L16 2ZM9 6L9 7L10 7L10 6ZM11 6L11 7L12 7L12 6ZM10 8L10 9L11 9L11 8ZM27 8L27 9L28 9L28 10L27 10L27 11L28 11L28 10L29 10L29 9L28 9L28 8ZM2 9L2 10L1 10L1 11L3 11L3 10L4 10L4 11L5 11L5 9ZM6 9L6 10L7 10L7 9ZM15 9L15 10L16 10L16 12L19 12L19 13L21 13L21 12L22 12L22 13L23 13L23 12L24 12L24 13L25 13L25 12L24 12L24 11L25 11L25 10L24 10L24 11L23 11L23 10L22 10L22 11L20 11L20 10L21 10L21 9L20 9L20 10L18 10L18 9L17 9L17 10L16 10L16 9ZM14 11L14 12L15 12L15 11ZM22 11L22 12L23 12L23 11ZM5 13L5 14L4 14L4 15L5 15L5 14L7 14L7 13ZM26 13L26 14L27 14L27 13ZM16 15L16 16L18 16L18 15ZM28 17L28 18L26 18L26 19L28 19L28 18L29 18L29 17ZM14 19L14 20L15 20L15 19ZM8 20L8 21L9 21L9 20ZM21 21L21 24L24 24L24 21ZM26 21L26 22L28 22L28 21ZM22 22L22 23L23 23L23 22ZM25 23L25 24L27 24L27 23ZM15 25L15 26L16 26L16 25ZM22 25L22 26L20 26L20 27L22 27L22 26L23 26L23 27L24 27L24 26L23 26L23 25ZM9 26L9 27L10 27L10 26ZM0 0L0 7L7 7L7 0ZM1 1L1 6L6 6L6 1ZM2 2L2 5L5 5L5 2ZM22 0L22 7L29 7L29 0ZM23 1L23 6L28 6L28 1ZM24 2L24 5L27 5L27 2ZM0 22L0 29L7 29L7 22ZM1 23L1 28L6 28L6 23ZM2 24L2 27L5 27L5 24Z" fill="#000000"/></g></g></svg>
