<?xml version="1.0" encoding="UTF-8"?>
<svg xmlns="http://www.w3.org/2000/svg" version="1.1" width="100" height="100" viewBox="0 0 100 100"><rect x="0" y="0" width="100" height="100" fill="#ffffff"/><g transform="scale(3.448)"><g transform="translate(0,0)"><path fill-rule="evenodd" d="M10 0L10 2L11 2L11 0ZM12 0L12 1L13 1L13 2L12 2L12 4L13 4L13 3L14 3L14 4L16 4L16 5L15 5L15 6L14 6L14 8L15 8L15 9L12 9L12 7L13 7L13 5L11 5L11 6L10 6L10 4L11 4L11 3L8 3L8 4L9 4L9 5L8 5L8 7L9 7L9 8L6 8L6 9L5 9L5 8L0 8L0 10L3 10L3 9L4 9L4 10L5 10L5 11L4 11L4 14L5 14L5 15L4 15L4 16L3 16L3 15L2 15L2 16L1 16L1 13L2 13L2 14L3 14L3 12L0 12L0 21L1 21L1 17L2 17L2 19L3 19L3 20L4 20L4 21L5 21L5 20L6 20L6 21L7 21L7 20L8 20L8 23L9 23L9 24L8 24L8 29L11 29L11 28L9 28L9 27L11 27L11 26L9 26L9 24L10 24L10 25L12 25L12 26L13 26L13 27L12 27L12 29L13 29L13 28L14 28L14 29L20 29L20 28L21 28L21 29L24 29L24 28L25 28L25 26L21 26L21 27L20 27L20 25L26 25L26 26L27 26L27 28L26 28L26 29L27 29L27 28L28 28L28 26L29 26L29 25L27 25L27 24L28 24L28 22L29 22L29 21L28 21L28 22L27 22L27 24L25 24L25 23L26 23L26 22L25 22L25 21L27 21L27 20L25 20L25 18L26 18L26 17L28 17L28 18L27 18L27 19L28 19L28 18L29 18L29 16L28 16L28 14L29 14L29 12L25 12L25 11L26 11L26 8L25 8L25 9L24 9L24 8L23 8L23 9L22 9L22 8L21 8L21 6L20 6L20 8L21 8L21 9L18 9L18 8L17 8L17 9L16 9L16 8L15 8L15 6L16 6L16 7L17 7L17 6L16 6L16 5L20 5L20 4L21 4L21 3L20 3L20 2L21 2L21 0L18 0L18 1L17 1L17 2L16 2L16 0L15 0L15 1L14 1L14 0ZM8 1L8 2L9 2L9 1ZM18 1L18 2L17 2L17 3L16 3L16 4L17 4L17 3L18 3L18 2L20 2L20 1ZM14 2L14 3L15 3L15 2ZM19 3L19 4L20 4L20 3ZM9 6L9 7L10 7L10 6ZM11 6L11 7L12 7L12 6ZM18 6L18 7L19 7L19 6ZM10 8L10 9L9 9L9 10L8 10L8 12L11 12L11 13L9 13L9 14L8 14L8 17L9 17L9 18L10 18L10 19L8 19L8 18L7 18L7 17L5 17L5 19L4 19L4 20L5 20L5 19L6 19L6 20L7 20L7 19L8 19L8 20L9 20L9 21L10 21L10 19L11 19L11 22L13 22L13 23L12 23L12 25L15 25L15 26L16 26L16 28L18 28L18 27L17 27L17 26L19 26L19 25L20 25L20 23L19 23L19 21L14 21L14 20L15 20L15 19L14 19L14 20L13 20L13 21L12 21L12 19L13 19L13 18L12 18L12 17L15 17L15 18L16 18L16 19L17 19L17 20L18 20L18 19L17 19L17 18L18 18L18 17L19 17L19 16L20 16L20 18L19 18L19 20L21 20L21 19L22 19L22 20L24 20L24 19L23 19L23 18L24 18L24 17L26 17L26 16L27 16L27 15L26 15L26 16L25 16L25 15L24 15L24 13L25 13L25 12L24 12L24 11L25 11L25 10L24 10L24 9L23 9L23 10L22 10L22 9L21 9L21 10L18 10L18 9L17 9L17 10L18 10L18 11L14 11L14 12L13 12L13 13L12 13L12 11L13 11L13 10L12 10L12 9L11 9L11 8ZM27 8L27 10L29 10L29 9L28 9L28 8ZM6 9L6 10L7 10L7 9ZM10 9L10 11L11 11L11 9ZM15 9L15 10L16 10L16 9ZM6 11L6 12L7 12L7 11ZM18 11L18 12L14 12L14 13L19 13L19 14L18 14L18 16L16 16L16 14L15 14L15 15L14 15L14 16L16 16L16 17L18 17L18 16L19 16L19 14L20 14L20 16L21 16L21 17L22 17L22 18L23 18L23 17L24 17L24 16L23 16L23 17L22 17L22 16L21 16L21 14L22 14L22 15L23 15L23 13L24 13L24 12L23 12L23 11L21 11L21 13L19 13L19 12L20 12L20 11ZM22 12L22 13L23 13L23 12ZM5 13L5 14L7 14L7 13ZM26 13L26 14L28 14L28 13ZM11 14L11 17L10 17L10 16L9 16L9 17L10 17L10 18L11 18L11 17L12 17L12 15L13 15L13 14ZM6 15L6 16L7 16L7 15ZM2 16L2 17L3 17L3 18L4 18L4 17L3 17L3 16ZM6 18L6 19L7 19L7 18ZM20 18L20 19L21 19L21 18ZM21 21L21 24L24 24L24 21ZM9 22L9 23L10 23L10 24L11 24L11 23L10 23L10 22ZM15 22L15 23L14 23L14 24L15 24L15 25L19 25L19 24L15 24L15 23L16 23L16 22ZM22 22L22 23L23 23L23 22ZM14 27L14 28L15 28L15 27ZM19 27L19 28L20 28L20 27ZM22 27L22 28L23 28L23 27ZM0 0L0 7L7 7L7 0ZM1 1L1 6L6 6L6 1ZM2 2L2 5L5 5L5 2ZM22 0L22 7L29 7L29 0ZM23 1L23 6L28 6L28 1ZM24 2L24 5L27 5L27 2ZM0 22L0 29L7 29L7 22ZM1 23L1 28L6 28L6 23ZM2 24L2 27L5 27L5 24Z" fill="#000000"/></g></g></svg>
