<?xml version="1.0" encoding="UTF-8"?>
<svg xmlns="http://www.w3.org/2000/svg" version="1.1" width="100" height="100" viewBox="0 0 100 100"><rect x="0" y="0" width="100" height="100" fill="#ffffff"/><g transform="scale(3.448)"><g transform="translate(0,0)"><path fill-rule="evenodd" d="M10 0L10 2L11 2L11 0ZM12 0L12 1L13 1L13 2L12 2L12 4L13 4L13 3L14 3L14 4L15 4L15 3L16 3L16 4L17 4L17 5L15 5L15 6L14 6L14 8L15 8L15 9L12 9L12 7L13 7L13 5L11 5L11 6L10 6L10 4L11 4L11 3L8 3L8 4L9 4L9 5L8 5L8 7L9 7L9 8L6 8L6 9L7 9L7 10L6 10L6 11L7 11L7 10L8 10L8 14L6 14L6 13L7 13L7 12L4 12L4 13L5 13L5 14L4 14L4 15L2 15L2 14L3 14L3 12L2 12L2 14L1 14L1 13L0 13L0 14L1 14L1 15L0 15L0 21L1 21L1 17L3 17L3 18L2 18L2 19L3 19L3 20L4 20L4 21L8 21L8 23L10 23L10 22L11 22L11 24L10 24L10 25L9 25L9 24L8 24L8 29L10 29L10 28L9 28L9 26L11 26L11 25L12 25L12 26L13 26L13 27L12 27L12 29L13 29L13 28L14 28L14 29L16 29L16 28L17 28L17 29L18 29L18 28L17 28L17 27L20 27L20 28L19 28L19 29L20 29L20 28L21 28L21 27L20 27L20 25L21 25L21 26L22 26L22 27L23 27L23 29L24 29L24 28L25 28L25 26L24 26L24 25L25 25L25 24L26 24L26 25L27 25L27 26L26 26L26 27L27 27L27 28L26 28L26 29L27 29L27 28L28 28L28 26L29 26L29 25L27 25L27 24L28 24L28 23L27 23L27 24L26 24L26 23L25 23L25 22L26 22L26 21L27 21L27 22L29 22L29 21L27 21L27 20L26 20L26 17L28 17L28 18L27 18L27 19L28 19L28 18L29 18L29 17L28 17L28 14L29 14L29 13L28 13L28 12L29 12L29 11L27 11L27 10L29 10L29 9L28 9L28 8L27 8L27 10L26 10L26 8L25 8L25 9L24 9L24 8L23 8L23 9L22 9L22 8L21 8L21 6L20 6L20 7L19 7L19 6L18 6L18 7L19 7L19 8L17 8L17 9L16 9L16 7L17 7L17 5L21 5L21 4L19 4L19 3L21 3L21 2L19 2L19 1L20 1L20 0L19 0L19 1L16 1L16 0L15 0L15 1L14 1L14 0ZM8 1L8 2L9 2L9 1ZM14 2L14 3L15 3L15 2ZM16 2L16 3L18 3L18 2ZM9 6L9 7L10 7L10 6ZM11 6L11 7L12 7L12 6ZM15 6L15 7L16 7L16 6ZM0 8L0 10L1 10L1 11L0 11L0 12L1 12L1 11L5 11L5 10L2 10L2 9L5 9L5 8ZM10 8L10 9L8 9L8 10L9 10L9 12L11 12L11 13L9 13L9 14L13 14L13 15L12 15L12 17L11 17L11 18L10 18L10 19L11 19L11 20L9 20L9 17L10 17L10 16L11 16L11 15L6 15L6 14L5 14L5 15L4 15L4 16L3 16L3 17L5 17L5 16L8 16L8 21L9 21L9 22L10 22L10 21L11 21L11 22L13 22L13 23L12 23L12 25L15 25L15 26L16 26L16 27L14 27L14 28L16 28L16 27L17 27L17 26L19 26L19 25L20 25L20 24L19 24L19 23L17 23L17 22L20 22L20 20L21 20L21 19L22 19L22 20L25 20L25 21L26 21L26 20L25 20L25 19L23 19L23 18L24 18L24 17L25 17L25 16L27 16L27 15L26 15L26 14L28 14L28 13L26 13L26 12L27 12L27 11L26 11L26 10L25 10L25 11L26 11L26 12L24 12L24 13L23 13L23 10L24 10L24 9L23 9L23 10L22 10L22 9L21 9L21 8L19 8L19 9L17 9L17 11L16 11L16 13L14 13L14 12L15 12L15 11L14 11L14 12L13 12L13 13L12 13L12 11L13 11L13 10L12 10L12 9L11 9L11 8ZM10 9L10 11L11 11L11 9ZM15 9L15 10L16 10L16 9ZM19 9L19 10L18 10L18 11L19 11L19 10L20 10L20 11L21 11L21 12L17 12L17 13L16 13L16 14L15 14L15 15L14 15L14 16L16 16L16 17L19 17L19 18L20 18L20 16L21 16L21 17L22 17L22 18L23 18L23 17L24 17L24 16L25 16L25 15L24 15L24 16L23 16L23 17L22 17L22 16L21 16L21 14L22 14L22 15L23 15L23 13L22 13L22 10L21 10L21 9ZM17 13L17 14L18 14L18 15L16 15L16 16L20 16L20 14L21 14L21 13L20 13L20 14L19 14L19 13ZM24 13L24 14L26 14L26 13ZM1 15L1 16L2 16L2 15ZM6 17L6 18L7 18L7 17ZM12 17L12 18L13 18L13 19L12 19L12 21L13 21L13 20L14 20L14 21L16 21L16 22L15 22L15 23L14 23L14 24L15 24L15 25L16 25L16 26L17 26L17 25L19 25L19 24L17 24L17 23L16 23L16 22L17 22L17 21L19 21L19 20L20 20L20 19L19 19L19 20L17 20L17 21L16 21L16 20L14 20L14 19L16 19L16 18L15 18L15 17ZM4 19L4 20L7 20L7 19ZM21 21L21 24L24 24L24 21ZM22 22L22 23L23 23L23 22ZM15 23L15 24L16 24L16 25L17 25L17 24L16 24L16 23ZM22 25L22 26L23 26L23 27L24 27L24 26L23 26L23 25ZM0 0L0 7L7 7L7 0ZM1 1L1 6L6 6L6 1ZM2 2L2 5L5 5L5 2ZM22 0L22 7L29 7L29 0ZM23 1L23 6L28 6L28 1ZM24 2L24 5L27 5L27 2ZM0 22L0 29L7 29L7 22ZM1 23L1 28L6 28L6 23ZM2 24L2 27L5 27L5 24Z" fill="#000000"/></g></g></svg>
