<?xml version="1.0" encoding="UTF-8"?>
<svg xmlns="http://www.w3.org/2000/svg" version="1.1" width="100" height="100" viewBox="0 0 100 100"><rect x="0" y="0" width="100" height="100" fill="#ffffff"/><g transform="scale(3.448)"><g transform="translate(0,0)"><path fill-rule="evenodd" d="M10 0L10 2L11 2L11 0ZM12 0L12 1L13 1L13 2L12 2L12 4L13 4L13 3L14 3L14 4L17 4L17 5L15 5L15 6L14 6L14 8L15 8L15 9L12 9L12 7L13 7L13 5L11 5L11 6L10 6L10 4L11 4L11 3L8 3L8 4L9 4L9 5L8 5L8 7L9 7L9 8L6 8L6 9L8 9L8 10L6 10L6 11L9 11L9 9L10 9L10 11L11 11L11 9L12 9L12 10L13 10L13 11L12 11L12 13L13 13L13 12L14 12L14 13L15 13L15 12L16 12L16 13L19 13L19 14L15 14L15 15L14 15L14 16L16 16L16 17L17 17L17 18L15 18L15 17L12 17L12 15L13 15L13 14L9 14L9 13L11 13L11 12L5 12L5 10L4 10L4 9L5 9L5 8L0 8L0 12L1 12L1 13L0 13L0 16L1 16L1 17L0 17L0 21L1 21L1 17L2 17L2 16L3 16L3 15L4 15L4 17L3 17L3 18L4 18L4 19L5 19L5 21L8 21L8 23L10 23L10 24L11 24L11 25L9 25L9 24L8 24L8 29L9 29L9 28L10 28L10 27L11 27L11 25L12 25L12 26L13 26L13 27L12 27L12 29L13 29L13 28L14 28L14 29L19 29L19 28L21 28L21 27L20 27L20 25L21 25L21 26L22 26L22 27L23 27L23 28L22 28L22 29L24 29L24 28L25 28L25 26L26 26L26 25L27 25L27 28L26 28L26 29L27 29L27 28L28 28L28 26L29 26L29 25L27 25L27 24L28 24L28 22L29 22L29 20L26 20L26 17L27 17L27 18L29 18L29 17L28 17L28 16L26 16L26 15L28 15L28 14L29 14L29 13L28 13L28 14L26 14L26 15L24 15L24 14L25 14L25 13L24 13L24 12L23 12L23 11L22 11L22 10L24 10L24 11L25 11L25 12L26 12L26 13L27 13L27 12L28 12L28 11L27 11L27 12L26 12L26 11L25 11L25 10L26 10L26 8L25 8L25 9L24 9L24 8L23 8L23 9L22 9L22 8L20 8L20 7L21 7L21 4L19 4L19 3L20 3L20 2L18 2L18 1L21 1L21 0L18 0L18 1L17 1L17 2L16 2L16 0L15 0L15 1L14 1L14 0ZM8 1L8 2L9 2L9 1ZM14 2L14 3L15 3L15 2ZM17 2L17 3L18 3L18 2ZM17 5L17 8L19 8L19 9L15 9L15 10L19 10L19 12L22 12L22 13L23 13L23 14L24 14L24 13L23 13L23 12L22 12L22 11L20 11L20 10L21 10L21 9L20 9L20 8L19 8L19 7L20 7L20 5ZM9 6L9 7L10 7L10 6ZM11 6L11 7L12 7L12 6ZM15 6L15 7L16 7L16 6ZM18 6L18 7L19 7L19 6ZM10 8L10 9L11 9L11 8ZM27 8L27 10L29 10L29 9L28 9L28 8ZM2 9L2 11L1 11L1 12L2 12L2 13L4 13L4 12L2 12L2 11L3 11L3 9ZM19 9L19 10L20 10L20 9ZM14 11L14 12L15 12L15 11ZM16 11L16 12L18 12L18 11ZM6 13L6 14L7 14L7 15L6 15L6 16L5 16L5 17L4 17L4 18L5 18L5 19L6 19L6 20L8 20L8 21L9 21L9 20L11 20L11 21L10 21L10 23L11 23L11 22L13 22L13 23L12 23L12 25L15 25L15 26L16 26L16 27L14 27L14 28L16 28L16 27L17 27L17 28L19 28L19 26L18 26L18 25L20 25L20 23L18 23L18 22L19 22L19 21L20 21L20 20L21 20L21 19L22 19L22 20L24 20L24 19L23 19L23 18L24 18L24 17L26 17L26 16L24 16L24 17L23 17L23 15L22 15L22 14L21 14L21 13L20 13L20 14L19 14L19 15L16 15L16 16L20 16L20 18L19 18L19 17L18 17L18 18L17 18L17 20L16 20L16 21L14 21L14 20L15 20L15 19L14 19L14 20L13 20L13 21L12 21L12 19L13 19L13 18L12 18L12 17L11 17L11 19L10 19L10 15L9 15L9 14L8 14L8 13ZM2 14L2 15L1 15L1 16L2 16L2 15L3 15L3 14ZM20 14L20 16L21 16L21 17L22 17L22 18L23 18L23 17L22 17L22 16L21 16L21 14ZM8 15L8 16L9 16L9 15ZM6 16L6 17L7 17L7 18L6 18L6 19L9 19L9 17L7 17L7 16ZM18 18L18 20L17 20L17 21L16 21L16 22L15 22L15 23L14 23L14 24L15 24L15 25L16 25L16 26L17 26L17 25L18 25L18 24L17 24L17 23L16 23L16 22L18 22L18 21L19 21L19 18ZM2 19L2 21L4 21L4 20L3 20L3 19ZM25 20L25 21L26 21L26 22L25 22L25 23L26 23L26 24L25 24L25 25L24 25L24 26L23 26L23 25L22 25L22 26L23 26L23 27L24 27L24 26L25 26L25 25L26 25L26 24L27 24L27 22L28 22L28 21L26 21L26 20ZM21 21L21 24L24 24L24 21ZM22 22L22 23L23 23L23 22ZM16 24L16 25L17 25L17 24ZM0 0L0 7L7 7L7 0ZM1 1L1 6L6 6L6 1ZM2 2L2 5L5 5L5 2ZM22 0L22 7L29 7L29 0ZM23 1L23 6L28 6L28 1ZM24 2L24 5L27 5L27 2ZM0 22L0 29L7 29L7 22ZM1 23L1 28L6 28L6 23ZM2 24L2 27L5 27L5 24Z" fill="#000000"/></g></g></svg>
