<?xml version="1.0" encoding="UTF-8"?>
<svg xmlns="http://www.w3.org/2000/svg" version="1.1" width="100" height="100" viewBox="0 0 100 100"><rect x="0" y="0" width="100" height="100" fill="#ffffff"/><g transform="scale(3.448)"><g transform="translate(0,0)"><path fill-rule="evenodd" d="M8 0L8 1L9 1L9 2L8 2L8 5L9 5L9 4L11 4L11 5L10 5L10 10L9 10L9 8L8 8L8 10L6 10L6 9L7 9L7 8L6 8L6 9L4 9L4 8L0 8L0 10L1 10L1 9L2 9L2 10L3 10L3 11L0 11L0 12L1 12L1 13L0 13L0 15L1 15L1 17L2 17L2 19L4 19L4 17L5 17L5 19L8 19L8 20L9 20L9 18L10 18L10 17L11 17L11 16L12 16L12 17L13 17L13 16L12 16L12 14L13 14L13 15L14 15L14 18L13 18L13 21L15 21L15 19L17 19L17 21L18 21L18 22L17 22L17 23L20 23L20 26L22 26L22 25L24 25L24 26L27 26L27 24L26 24L26 23L28 23L28 24L29 24L29 23L28 23L28 22L29 22L29 20L28 20L28 19L25 19L25 20L24 20L24 18L23 18L23 20L21 20L21 18L22 18L22 17L21 17L21 15L22 15L22 14L23 14L23 13L22 13L22 12L23 12L23 11L25 11L25 13L28 13L28 14L27 14L27 15L29 15L29 13L28 13L28 11L27 11L27 10L25 10L25 9L27 9L27 8L24 8L24 9L22 9L22 8L21 8L21 6L20 6L20 5L21 5L21 3L20 3L20 4L19 4L19 2L18 2L18 1L21 1L21 0L18 0L18 1L17 1L17 2L18 2L18 3L17 3L17 4L16 4L16 3L14 3L14 5L13 5L13 3L12 3L12 4L11 4L11 2L14 2L14 0L12 0L12 1L11 1L11 0L10 0L10 1L9 1L9 0ZM15 0L15 1L16 1L16 0ZM17 4L17 7L18 7L18 5L19 5L19 4ZM12 5L12 6L11 6L11 8L12 8L12 6L13 6L13 8L14 8L14 9L15 9L15 10L14 10L14 11L11 11L11 13L10 13L10 14L8 14L8 13L9 13L9 12L7 12L7 11L6 11L6 12L7 12L7 13L5 13L5 14L8 14L8 16L7 16L7 15L6 15L6 16L5 16L5 15L4 15L4 14L3 14L3 15L4 15L4 16L5 16L5 17L6 17L6 18L8 18L8 17L10 17L10 16L11 16L11 13L12 13L12 12L13 12L13 14L14 14L14 15L16 15L16 16L15 16L15 17L16 17L16 16L17 16L17 18L18 18L18 17L19 17L19 19L18 19L18 20L19 20L19 19L20 19L20 18L21 18L21 17L19 17L19 16L20 16L20 15L19 15L19 14L18 14L18 13L17 13L17 12L18 12L18 11L20 11L20 12L22 12L22 11L23 11L23 10L22 10L22 11L21 11L21 10L19 10L19 8L18 8L18 9L17 9L17 12L16 12L16 13L17 13L17 14L14 14L14 12L15 12L15 11L16 11L16 8L15 8L15 7L16 7L16 5L14 5L14 6L13 6L13 5ZM8 6L8 7L9 7L9 6ZM14 6L14 7L15 7L15 6ZM19 6L19 7L20 7L20 6ZM20 8L20 9L21 9L21 8ZM28 8L28 10L29 10L29 8ZM3 9L3 10L4 10L4 11L3 11L3 12L2 12L2 13L1 13L1 14L2 14L2 13L4 13L4 12L5 12L5 10L4 10L4 9ZM11 9L11 10L12 10L12 9ZM26 11L26 12L27 12L27 11ZM21 13L21 14L22 14L22 13ZM24 14L24 17L25 17L25 16L26 16L26 14ZM18 15L18 16L19 16L19 15ZM2 16L2 17L3 17L3 16ZM6 16L6 17L7 17L7 16ZM27 16L27 17L28 17L28 16ZM0 18L0 19L1 19L1 18ZM11 19L11 20L12 20L12 19ZM1 20L1 21L2 21L2 20ZM3 20L3 21L5 21L5 20ZM6 20L6 21L7 21L7 20ZM27 20L27 21L26 21L26 22L25 22L25 23L26 23L26 22L27 22L27 21L28 21L28 20ZM8 21L8 22L10 22L10 21ZM19 21L19 22L20 22L20 21ZM21 21L21 24L24 24L24 21ZM14 22L14 23L11 23L11 24L10 24L10 23L9 23L9 24L10 24L10 27L11 27L11 26L12 26L12 28L10 28L10 29L12 29L12 28L14 28L14 27L15 27L15 28L16 28L16 29L17 29L17 27L18 27L18 26L19 26L19 24L17 24L17 25L16 25L16 23L15 23L15 22ZM22 22L22 23L23 23L23 22ZM12 24L12 26L13 26L13 27L14 27L14 26L15 26L15 27L17 27L17 26L15 26L15 24ZM8 25L8 29L9 29L9 25ZM13 25L13 26L14 26L14 25ZM28 25L28 27L27 27L27 29L28 29L28 27L29 27L29 25ZM19 27L19 28L20 28L20 29L22 29L22 28L21 28L21 27ZM23 27L23 28L24 28L24 29L25 29L25 27ZM0 0L0 7L7 7L7 0ZM1 1L1 6L6 6L6 1ZM2 2L2 5L5 5L5 2ZM22 0L22 7L29 7L29 0ZM23 1L23 6L28 6L28 1ZM24 2L24 5L27 5L27 2ZM0 22L0 29L7 29L7 22ZM1 23L1 28L6 28L6 23ZM2 24L2 27L5 27L5 24Z" fill="#000000"/></g></g></svg>
