<?xml version="1.0" encoding="UTF-8"?>
<svg xmlns="http://www.w3.org/2000/svg" version="1.1" width="100" height="100" viewBox="0 0 100 100"><rect x="0" y="0" width="100" height="100" fill="#ffffff"/><g transform="scale(3.448)"><g transform="translate(0,0)"><path fill-rule="evenodd" d="M10 0L10 2L11 2L11 0ZM12 0L12 1L13 1L13 2L12 2L12 4L13 4L13 3L14 3L14 4L16 4L16 5L15 5L15 6L14 6L14 8L15 8L15 9L12 9L12 7L13 7L13 5L11 5L11 6L10 6L10 4L11 4L11 3L8 3L8 4L9 4L9 5L8 5L8 7L9 7L9 8L6 8L6 9L10 9L10 11L11 11L11 9L12 9L12 10L13 10L13 11L12 11L12 13L13 13L13 12L14 12L14 13L19 13L19 14L20 14L20 16L19 16L19 17L18 17L18 16L16 16L16 14L15 14L15 15L14 15L14 16L15 16L15 17L12 17L12 15L13 15L13 14L11 14L11 17L10 17L10 16L6 16L6 15L8 15L8 14L9 14L9 15L10 15L10 13L11 13L11 12L6 12L6 13L5 13L5 12L4 12L4 9L5 9L5 8L0 8L0 10L1 10L1 9L3 9L3 12L2 12L2 13L1 13L1 12L0 12L0 13L1 13L1 14L0 14L0 15L2 15L2 13L5 13L5 14L6 14L6 15L3 15L3 18L2 18L2 19L3 19L3 20L2 20L2 21L4 21L4 20L5 20L5 21L8 21L8 23L9 23L9 24L8 24L8 29L9 29L9 28L10 28L10 27L11 27L11 25L12 25L12 26L13 26L13 27L12 27L12 29L13 29L13 28L14 28L14 29L15 29L15 28L16 28L16 29L19 29L19 28L22 28L22 27L23 27L23 29L24 29L24 28L25 28L25 27L26 27L26 25L27 25L27 28L26 28L26 29L27 29L27 28L28 28L28 26L29 26L29 25L27 25L27 24L28 24L28 23L27 23L27 24L25 24L25 21L26 21L26 22L29 22L29 21L28 21L28 20L25 20L25 17L27 17L27 16L25 16L25 15L23 15L23 14L26 14L26 15L27 15L27 14L29 14L29 13L28 13L28 12L26 12L26 11L27 11L27 10L29 10L29 9L28 9L28 8L27 8L27 10L25 10L25 9L26 9L26 8L25 8L25 9L24 9L24 8L23 8L23 9L22 9L22 8L21 8L21 9L19 9L19 8L20 8L20 7L21 7L21 4L19 4L19 3L17 3L17 4L16 4L16 3L14 3L14 2L16 2L16 0L15 0L15 1L14 1L14 0ZM18 0L18 1L21 1L21 0ZM8 1L8 2L9 2L9 1ZM20 2L20 3L21 3L21 2ZM16 5L16 6L15 6L15 7L16 7L16 6L17 6L17 8L16 8L16 9L15 9L15 10L16 10L16 11L14 11L14 12L16 12L16 11L17 11L17 12L19 12L19 13L21 13L21 12L22 12L22 13L26 13L26 14L27 14L27 13L26 13L26 12L22 12L22 11L23 11L23 10L22 10L22 11L20 11L20 10L19 10L19 9L17 9L17 8L19 8L19 7L20 7L20 5ZM9 6L9 7L10 7L10 6ZM11 6L11 7L12 7L12 6ZM18 6L18 7L19 7L19 6ZM10 8L10 9L11 9L11 8ZM16 9L16 10L17 10L17 11L18 11L18 10L17 10L17 9ZM5 10L5 11L7 11L7 10ZM6 13L6 14L8 14L8 13ZM21 14L21 16L20 16L20 18L18 18L18 17L15 17L15 18L16 18L16 19L14 19L14 20L13 20L13 21L12 21L12 19L13 19L13 18L12 18L12 17L11 17L11 18L10 18L10 17L9 17L9 18L8 18L8 19L9 19L9 20L11 20L11 22L13 22L13 23L12 23L12 25L15 25L15 26L16 26L16 28L18 28L18 27L17 27L17 26L18 26L18 25L20 25L20 23L18 23L18 22L19 22L19 21L20 21L20 20L21 20L21 19L22 19L22 20L23 20L23 18L24 18L24 17L25 17L25 16L24 16L24 17L23 17L23 15L22 15L22 14ZM0 16L0 21L1 21L1 16ZM5 16L5 17L4 17L4 18L3 18L3 19L6 19L6 20L7 20L7 19L6 19L6 18L7 18L7 17L6 17L6 16ZM21 16L21 17L22 17L22 18L23 18L23 17L22 17L22 16ZM28 17L28 18L27 18L27 19L28 19L28 18L29 18L29 17ZM9 18L9 19L10 19L10 18ZM14 20L14 21L19 21L19 20ZM9 21L9 23L10 23L10 21ZM21 21L21 24L24 24L24 21ZM15 22L15 23L14 23L14 24L15 24L15 25L18 25L18 24L17 24L17 23L16 23L16 22ZM22 22L22 23L23 23L23 22ZM15 23L15 24L16 24L16 23ZM9 24L9 26L10 26L10 25L11 25L11 24ZM21 25L21 26L20 26L20 27L21 27L21 26L25 26L25 25ZM14 27L14 28L15 28L15 27ZM0 0L0 7L7 7L7 0ZM1 1L1 6L6 6L6 1ZM2 2L2 5L5 5L5 2ZM22 0L22 7L29 7L29 0ZM23 1L23 6L28 6L28 1ZM24 2L24 5L27 5L27 2ZM0 22L0 29L7 29L7 22ZM1 23L1 28L6 28L6 23ZM2 24L2 27L5 27L5 24Z" fill="#000000"/></g></g></svg>
