<?xml version="1.0" encoding="UTF-8"?>
<svg xmlns="http://www.w3.org/2000/svg" version="1.1" width="100" height="100" viewBox="0 0 100 100"><rect x="0" y="0" width="100" height="100" fill="#ffffff"/><g transform="scale(3.448)"><g transform="translate(0,0)"><path fill-rule="evenodd" d="M10 0L10 2L11 2L11 0ZM12 0L12 1L13 1L13 2L12 2L12 4L13 4L13 3L14 3L14 4L17 4L17 5L20 5L20 7L21 7L21 4L19 4L19 3L16 3L16 2L17 2L17 1L16 1L16 0L15 0L15 1L14 1L14 0ZM18 0L18 1L21 1L21 0ZM8 1L8 2L9 2L9 1ZM14 2L14 3L15 3L15 2ZM20 2L20 3L21 3L21 2ZM8 3L8 4L9 4L9 5L8 5L8 7L9 7L9 8L6 8L6 9L5 9L5 8L0 8L0 12L1 12L1 13L0 13L0 15L1 15L1 16L0 16L0 21L1 21L1 18L3 18L3 17L1 17L1 16L3 16L3 14L2 14L2 10L4 10L4 11L5 11L5 12L4 12L4 18L5 18L5 17L7 17L7 16L5 16L5 15L7 15L7 14L8 14L8 15L9 15L9 13L11 13L11 12L9 12L9 13L7 13L7 12L8 12L8 11L9 11L9 9L10 9L10 11L11 11L11 9L12 9L12 10L13 10L13 11L12 11L12 13L13 13L13 12L14 12L14 13L16 13L16 14L15 14L15 15L14 15L14 16L15 16L15 17L12 17L12 15L13 15L13 14L11 14L11 15L10 15L10 16L9 16L9 17L8 17L8 18L9 18L9 19L10 19L10 20L8 20L8 23L9 23L9 24L8 24L8 29L10 29L10 28L9 28L9 27L10 27L10 26L9 26L9 24L11 24L11 25L12 25L12 26L13 26L13 27L12 27L12 29L13 29L13 28L14 28L14 29L20 29L20 28L21 28L21 27L20 27L20 26L19 26L19 27L20 27L20 28L16 28L16 26L17 26L17 27L18 27L18 26L17 26L17 25L19 25L19 23L20 23L20 25L21 25L21 26L22 26L22 27L23 27L23 28L22 28L22 29L24 29L24 28L25 28L25 26L24 26L24 25L25 25L25 24L26 24L26 25L27 25L27 26L26 26L26 27L27 27L27 28L26 28L26 29L27 29L27 28L28 28L28 26L29 26L29 25L27 25L27 24L28 24L28 22L29 22L29 21L28 21L28 20L29 20L29 19L28 19L28 18L29 18L29 16L28 16L28 14L29 14L29 13L28 13L28 12L29 12L29 11L28 11L28 10L29 10L29 9L28 9L28 8L27 8L27 9L28 9L28 10L26 10L26 8L25 8L25 9L24 9L24 8L23 8L23 9L22 9L22 8L20 8L20 9L18 9L18 8L17 8L17 6L16 6L16 5L15 5L15 6L14 6L14 8L15 8L15 9L12 9L12 7L13 7L13 5L11 5L11 6L10 6L10 4L11 4L11 3ZM9 6L9 7L10 7L10 6ZM11 6L11 7L12 7L12 6ZM15 6L15 7L16 7L16 6ZM18 6L18 7L19 7L19 6ZM10 8L10 9L11 9L11 8ZM16 8L16 9L15 9L15 10L16 10L16 11L14 11L14 12L16 12L16 13L17 13L17 14L16 14L16 15L17 15L17 16L18 16L18 17L15 17L15 18L16 18L16 20L15 20L15 19L14 19L14 20L13 20L13 21L12 21L12 19L13 19L13 18L12 18L12 17L11 17L11 16L10 16L10 17L9 17L9 18L10 18L10 17L11 17L11 22L10 22L10 23L11 23L11 22L13 22L13 23L12 23L12 25L15 25L15 26L16 26L16 25L17 25L17 24L18 24L18 23L19 23L19 22L18 22L18 21L19 21L19 20L21 20L21 19L22 19L22 20L24 20L24 17L25 17L25 18L26 18L26 19L25 19L25 20L27 20L27 18L28 18L28 17L25 17L25 16L27 16L27 14L28 14L28 13L27 13L27 14L26 14L26 13L25 13L25 12L28 12L28 11L25 11L25 12L24 12L24 13L23 13L23 10L21 10L21 9L20 9L20 10L19 10L19 12L18 12L18 11L17 11L17 10L18 10L18 9L17 9L17 8ZM6 9L6 10L5 10L5 11L6 11L6 12L5 12L5 14L7 14L7 13L6 13L6 12L7 12L7 11L6 11L6 10L8 10L8 9ZM16 9L16 10L17 10L17 9ZM20 10L20 11L21 11L21 10ZM17 12L17 13L18 13L18 14L20 14L20 16L19 16L19 15L18 15L18 16L19 16L19 17L18 17L18 18L20 18L20 19L21 19L21 18L20 18L20 16L21 16L21 17L22 17L22 18L23 18L23 17L24 17L24 16L25 16L25 15L26 15L26 14L25 14L25 13L24 13L24 16L23 16L23 17L22 17L22 16L21 16L21 14L22 14L22 15L23 15L23 13L22 13L22 12L21 12L21 13L18 13L18 12ZM6 18L6 19L7 19L7 18ZM2 19L2 21L4 21L4 20L3 20L3 19ZM6 20L6 21L7 21L7 20ZM14 20L14 21L15 21L15 20ZM16 20L16 21L18 21L18 20ZM21 21L21 24L24 24L24 21ZM26 21L26 22L28 22L28 21ZM15 22L15 23L14 23L14 24L15 24L15 25L16 25L16 24L17 24L17 23L16 23L16 22ZM22 22L22 23L23 23L23 22ZM26 23L26 24L27 24L27 23ZM22 25L22 26L23 26L23 27L24 27L24 26L23 26L23 25ZM14 27L14 28L15 28L15 27ZM0 0L0 7L7 7L7 0ZM1 1L1 6L6 6L6 1ZM2 2L2 5L5 5L5 2ZM22 0L22 7L29 7L29 0ZM23 1L23 6L28 6L28 1ZM24 2L24 5L27 5L27 2ZM0 22L0 29L7 29L7 22ZM1 23L1 28L6 28L6 23ZM2 24L2 27L5 27L5 24Z" fill="#000000"/></g></g></svg>
