<?xml version="1.0" encoding="UTF-8"?>
<svg xmlns="http://www.w3.org/2000/svg" version="1.1" width="100" height="100" viewBox="0 0 100 100"><rect x="0" y="0" width="100" height="100" fill="#ffffff"/><g transform="scale(3.448)"><g transform="translate(0,0)"><path fill-rule="evenodd" d="M8 0L8 1L9 1L9 2L10 2L10 3L11 3L11 1L13 1L13 0L11 0L11 1L9 1L9 0ZM14 0L14 1L16 1L16 2L15 2L15 3L17 3L17 4L18 4L18 5L16 5L16 7L15 7L15 6L14 6L14 7L13 7L13 5L12 5L12 4L13 4L13 2L12 2L12 4L11 4L11 5L10 5L10 4L9 4L9 5L10 5L10 8L9 8L9 6L8 6L8 8L9 8L9 10L8 10L8 14L6 14L6 13L7 13L7 12L6 12L6 11L7 11L7 10L5 10L5 8L3 8L3 10L2 10L2 8L0 8L0 9L1 9L1 10L0 10L0 13L1 13L1 16L2 16L2 18L1 18L1 17L0 17L0 21L2 21L2 20L5 20L5 19L7 19L7 18L6 18L6 17L7 17L7 16L8 16L8 14L9 14L9 13L10 13L10 12L11 12L11 13L13 13L13 14L10 14L10 15L11 15L11 16L12 16L12 15L14 15L14 14L15 14L15 16L14 16L14 17L9 17L9 18L8 18L8 20L9 20L9 21L8 21L8 22L9 22L9 24L8 24L8 26L9 26L9 24L10 24L10 22L11 22L11 21L10 21L10 20L11 20L11 19L12 19L12 21L14 21L14 24L13 24L13 25L12 25L12 26L13 26L13 25L15 25L15 26L14 26L14 27L12 27L12 28L11 28L11 29L13 29L13 28L15 28L15 29L17 29L17 27L18 27L18 29L19 29L19 28L20 28L20 29L22 29L22 28L25 28L25 26L24 26L24 25L25 25L25 20L26 20L26 23L27 23L27 19L26 19L26 18L25 18L25 17L23 17L23 18L22 18L22 16L27 16L27 17L28 17L28 15L29 15L29 12L27 12L27 13L24 13L24 14L27 14L27 13L28 13L28 15L21 15L21 14L19 14L19 13L22 13L22 14L23 14L23 12L25 12L25 11L26 11L26 10L27 10L27 11L28 11L28 9L29 9L29 8L28 8L28 9L26 9L26 10L25 10L25 9L23 9L23 8L22 8L22 9L23 9L23 11L22 11L22 12L20 12L20 11L21 11L21 10L20 10L20 7L21 7L21 6L20 6L20 7L19 7L19 6L18 6L18 5L21 5L21 4L19 4L19 2L20 2L20 1L21 1L21 0L20 0L20 1L18 1L18 0ZM17 1L17 3L18 3L18 1ZM14 4L14 5L15 5L15 4ZM11 5L11 7L12 7L12 9L10 9L10 10L9 10L9 11L10 11L10 10L12 10L12 11L13 11L13 10L12 10L12 9L13 9L13 7L12 7L12 5ZM17 6L17 7L16 7L16 9L17 9L17 10L16 10L16 11L17 11L17 10L18 10L18 11L20 11L20 10L18 10L18 9L19 9L19 7L18 7L18 6ZM14 7L14 13L15 13L15 7ZM6 8L6 9L7 9L7 8ZM17 8L17 9L18 9L18 8ZM1 10L1 13L2 13L2 15L5 15L5 16L3 16L3 17L6 17L6 16L7 16L7 15L5 15L5 14L3 14L3 13L6 13L6 12L5 12L5 10L4 10L4 11L2 11L2 10ZM17 12L17 14L16 14L16 15L17 15L17 17L18 17L18 18L19 18L19 17L18 17L18 16L21 16L21 15L18 15L18 13L19 13L19 12ZM20 17L20 19L21 19L21 20L23 20L23 19L24 19L24 18L23 18L23 19L22 19L22 18L21 18L21 17ZM3 18L3 19L4 19L4 18ZM9 18L9 20L10 20L10 18ZM12 18L12 19L13 19L13 20L14 20L14 19L15 19L15 20L18 20L18 19L17 19L17 18L16 18L16 19L15 19L15 18ZM28 18L28 21L29 21L29 18ZM6 20L6 21L7 21L7 20ZM9 21L9 22L10 22L10 21ZM16 21L16 22L19 22L19 21ZM21 21L21 24L24 24L24 21ZM12 22L12 23L13 23L13 22ZM22 22L22 23L23 23L23 22ZM15 23L15 24L17 24L17 26L16 26L16 27L17 27L17 26L18 26L18 25L19 25L19 26L20 26L20 28L21 28L21 25L19 25L19 24L20 24L20 23L18 23L18 24L17 24L17 23ZM28 23L28 26L27 26L27 25L26 25L26 26L27 26L27 27L26 27L26 28L27 28L27 27L28 27L28 28L29 28L29 23ZM22 25L22 27L24 27L24 26L23 26L23 25ZM10 26L10 27L11 27L11 26ZM8 27L8 29L10 29L10 28L9 28L9 27ZM0 0L0 7L7 7L7 0ZM1 1L1 6L6 6L6 1ZM2 2L2 5L5 5L5 2ZM22 0L22 7L29 7L29 0ZM23 1L23 6L28 6L28 1ZM24 2L24 5L27 5L27 2ZM0 22L0 29L7 29L7 22ZM1 23L1 28L6 28L6 23ZM2 24L2 27L5 27L5 24Z" fill="#000000"/></g></g></svg>
