<?xml version="1.0" encoding="UTF-8"?>
<svg xmlns="http://www.w3.org/2000/svg" version="1.1" width="100" height="100" viewBox="0 0 100 100"><rect x="0" y="0" width="100" height="100" fill="#ffffff"/><g transform="scale(3.448)"><g transform="translate(0,0)"><path fill-rule="evenodd" d="M10 0L10 2L11 2L11 0ZM12 0L12 1L13 1L13 2L12 2L12 4L13 4L13 3L14 3L14 4L16 4L16 5L15 5L15 6L14 6L14 8L15 8L15 9L12 9L12 7L13 7L13 5L11 5L11 6L10 6L10 4L11 4L11 3L8 3L8 4L9 4L9 5L8 5L8 7L9 7L9 8L6 8L6 9L7 9L7 10L6 10L6 11L7 11L7 12L5 12L5 14L6 14L6 15L2 15L2 14L1 14L1 13L0 13L0 14L1 14L1 15L2 15L2 17L1 17L1 16L0 16L0 21L1 21L1 18L2 18L2 17L3 17L3 20L2 20L2 21L3 21L3 20L4 20L4 21L7 21L7 20L4 20L4 18L5 18L5 19L7 19L7 18L6 18L6 17L9 17L9 16L8 16L8 15L10 15L10 18L9 18L9 20L8 20L8 23L10 23L10 22L11 22L11 24L8 24L8 29L11 29L11 28L10 28L10 26L11 26L11 25L12 25L12 26L13 26L13 27L12 27L12 29L13 29L13 28L14 28L14 29L16 29L16 28L14 28L14 27L16 27L16 26L15 26L15 25L18 25L18 26L20 26L20 25L21 25L21 26L22 26L22 27L20 27L20 28L19 28L19 27L18 27L18 28L17 28L17 29L18 29L18 28L19 28L19 29L20 29L20 28L23 28L23 29L24 29L24 28L25 28L25 27L26 27L26 25L27 25L27 28L26 28L26 29L27 29L27 28L28 28L28 26L29 26L29 25L27 25L27 24L28 24L28 22L29 22L29 21L28 21L28 22L27 22L27 24L26 24L26 22L25 22L25 21L27 21L27 20L28 20L28 19L27 19L27 20L25 20L25 19L26 19L26 17L27 17L27 18L29 18L29 17L27 17L27 16L28 16L28 14L29 14L29 13L28 13L28 12L29 12L29 11L28 11L28 10L29 10L29 9L28 9L28 8L27 8L27 9L26 9L26 8L25 8L25 9L24 9L24 8L23 8L23 9L22 9L22 8L20 8L20 9L18 9L18 8L16 8L16 7L17 7L17 5L20 5L20 7L21 7L21 5L20 5L20 4L21 4L21 2L18 2L18 3L17 3L17 2L16 2L16 0L15 0L15 1L14 1L14 0ZM19 0L19 1L20 1L20 0ZM8 1L8 2L9 2L9 1ZM14 2L14 3L16 3L16 4L17 4L17 3L16 3L16 2ZM19 3L19 4L20 4L20 3ZM9 6L9 7L10 7L10 6ZM11 6L11 7L12 7L12 6ZM15 6L15 7L16 7L16 6ZM18 6L18 7L19 7L19 6ZM0 8L0 9L1 9L1 10L0 10L0 12L3 12L3 14L4 14L4 10L5 10L5 8ZM10 8L10 9L9 9L9 11L8 11L8 12L7 12L7 13L6 13L6 14L7 14L7 15L6 15L6 16L4 16L4 17L6 17L6 16L7 16L7 15L8 15L8 14L13 14L13 15L12 15L12 17L11 17L11 18L10 18L10 19L11 19L11 20L10 20L10 21L11 21L11 22L13 22L13 23L12 23L12 25L15 25L15 24L18 24L18 25L20 25L20 24L18 24L18 22L20 22L20 20L21 20L21 19L22 19L22 20L24 20L24 19L25 19L25 18L24 18L24 19L23 19L23 18L22 18L22 17L25 17L25 16L27 16L27 15L25 15L25 14L23 14L23 15L22 15L22 14L21 14L21 13L20 13L20 14L19 14L19 16L20 16L20 18L19 18L19 17L15 17L15 16L18 16L18 15L17 15L17 14L18 14L18 13L19 13L19 12L21 12L21 11L22 11L22 13L25 13L25 12L27 12L27 10L28 10L28 9L27 9L27 10L26 10L26 9L25 9L25 10L26 10L26 11L25 11L25 12L24 12L24 11L23 11L23 10L21 10L21 9L20 9L20 10L19 10L19 12L18 12L18 11L17 11L17 12L18 12L18 13L14 13L14 12L15 12L15 11L14 11L14 12L13 12L13 13L12 13L12 11L13 11L13 10L12 10L12 9L11 9L11 8ZM2 9L2 11L3 11L3 10L4 10L4 9ZM10 9L10 11L11 11L11 9ZM15 9L15 10L18 10L18 9ZM9 12L9 13L11 13L11 12ZM7 13L7 14L8 14L8 13ZM26 13L26 14L28 14L28 13ZM15 14L15 15L14 15L14 16L15 16L15 15L16 15L16 14ZM20 14L20 16L21 16L21 17L22 17L22 16L21 16L21 14ZM23 15L23 16L25 16L25 15ZM12 17L12 18L13 18L13 19L12 19L12 21L13 21L13 20L14 20L14 21L19 21L19 20L20 20L20 19L21 19L21 18L20 18L20 19L19 19L19 18L15 18L15 17ZM14 19L14 20L18 20L18 19ZM21 21L21 24L24 24L24 21ZM15 22L15 23L14 23L14 24L15 24L15 23L17 23L17 22ZM22 22L22 23L23 23L23 22ZM25 24L25 25L24 25L24 26L23 26L23 25L22 25L22 26L23 26L23 27L24 27L24 26L25 26L25 25L26 25L26 24ZM0 0L0 7L7 7L7 0ZM1 1L1 6L6 6L6 1ZM2 2L2 5L5 5L5 2ZM22 0L22 7L29 7L29 0ZM23 1L23 6L28 6L28 1ZM24 2L24 5L27 5L27 2ZM0 22L0 29L7 29L7 22ZM1 23L1 28L6 28L6 23ZM2 24L2 27L5 27L5 24Z" fill="#000000"/></g></g></svg>
