<?xml version="1.0" encoding="UTF-8"?>
<svg xmlns="http://www.w3.org/2000/svg" version="1.1" width="100" height="100" viewBox="0 0 100 100"><rect x="0" y="0" width="100" height="100" fill="#ffffff"/><g transform="scale(3.448)"><g transform="translate(0,0)"><path fill-rule="evenodd" d="M10 0L10 2L11 2L11 0ZM12 0L12 1L13 1L13 2L12 2L12 4L13 4L13 3L14 3L14 4L17 4L17 5L15 5L15 6L14 6L14 8L15 8L15 9L12 9L12 7L13 7L13 5L11 5L11 6L10 6L10 4L11 4L11 3L8 3L8 4L9 4L9 5L8 5L8 7L9 7L9 8L6 8L6 9L10 9L10 11L11 11L11 9L12 9L12 10L13 10L13 11L12 11L12 13L13 13L13 12L14 12L14 13L18 13L18 14L15 14L15 15L14 15L14 16L16 16L16 17L19 17L19 18L20 18L20 19L21 19L21 20L20 20L20 21L19 21L19 19L18 19L18 18L15 18L15 17L12 17L12 15L13 15L13 14L11 14L11 15L9 15L9 16L8 16L8 17L7 17L7 16L6 16L6 15L8 15L8 14L4 14L4 13L3 13L3 14L2 14L2 11L1 11L1 10L2 10L2 9L5 9L5 8L0 8L0 9L1 9L1 10L0 10L0 11L1 11L1 15L0 15L0 21L1 21L1 17L2 17L2 19L4 19L4 20L3 20L3 21L4 21L4 20L5 20L5 19L8 19L8 18L9 18L9 19L10 19L10 20L9 20L9 21L8 21L8 23L9 23L9 24L8 24L8 29L11 29L11 26L9 26L9 25L10 25L10 23L11 23L11 25L12 25L12 26L13 26L13 27L12 27L12 29L13 29L13 28L14 28L14 29L16 29L16 28L17 28L17 29L18 29L18 28L17 28L17 27L16 27L16 26L15 26L15 25L19 25L19 23L20 23L20 26L19 26L19 27L20 27L20 28L19 28L19 29L20 29L20 28L22 28L22 27L23 27L23 29L24 29L24 28L25 28L25 26L26 26L26 27L27 27L27 28L26 28L26 29L27 29L27 28L28 28L28 26L29 26L29 25L27 25L27 24L28 24L28 22L29 22L29 20L25 20L25 19L24 19L24 20L22 20L22 19L21 19L21 18L20 18L20 16L21 16L21 17L22 17L22 18L26 18L26 19L28 19L28 18L29 18L29 17L28 17L28 18L26 18L26 17L27 17L27 16L26 16L26 15L28 15L28 16L29 16L29 15L28 15L28 14L29 14L29 13L28 13L28 12L25 12L25 11L23 11L23 13L22 13L22 12L21 12L21 13L18 13L18 12L14 12L14 11L16 11L16 10L15 10L15 9L19 9L19 10L20 10L20 11L22 11L22 10L23 10L23 9L24 9L24 10L25 10L25 9L26 9L26 8L25 8L25 9L24 9L24 8L23 8L23 9L22 9L22 8L21 8L21 9L19 9L19 8L15 8L15 6L16 6L16 7L17 7L17 5L20 5L20 7L21 7L21 5L20 5L20 4L21 4L21 3L20 3L20 2L19 2L19 1L20 1L20 0L19 0L19 1L18 1L18 0L17 0L17 1L16 1L16 0L15 0L15 1L14 1L14 0ZM8 1L8 2L9 2L9 1ZM17 1L17 2L14 2L14 3L18 3L18 1ZM19 3L19 4L20 4L20 3ZM9 6L9 7L10 7L10 6ZM11 6L11 7L12 7L12 6ZM18 6L18 7L19 7L19 6ZM10 8L10 9L11 9L11 8ZM27 8L27 9L28 9L28 10L27 10L27 11L28 11L28 10L29 10L29 9L28 9L28 8ZM21 9L21 10L22 10L22 9ZM5 10L5 12L6 12L6 13L11 13L11 12L8 12L8 11L7 11L7 10ZM3 11L3 12L4 12L4 11ZM6 11L6 12L7 12L7 11ZM24 12L24 13L23 13L23 14L24 14L24 13L25 13L25 12ZM26 13L26 14L25 14L25 15L26 15L26 14L28 14L28 13ZM3 14L3 15L2 15L2 16L3 16L3 17L6 17L6 18L7 18L7 17L6 17L6 16L3 16L3 15L4 15L4 14ZM19 14L19 15L16 15L16 16L20 16L20 14ZM21 14L21 16L22 16L22 17L26 17L26 16L23 16L23 15L22 15L22 14ZM9 17L9 18L10 18L10 17ZM11 17L11 20L10 20L10 21L9 21L9 22L10 22L10 21L11 21L11 22L13 22L13 23L12 23L12 25L15 25L15 24L14 24L14 23L15 23L15 22L19 22L19 21L14 21L14 20L15 20L15 19L14 19L14 20L13 20L13 21L12 21L12 19L13 19L13 18L12 18L12 17ZM17 19L17 20L18 20L18 19ZM6 20L6 21L7 21L7 20ZM21 21L21 24L24 24L24 21ZM25 21L25 23L26 23L26 24L25 24L25 25L24 25L24 26L23 26L23 25L21 25L21 26L20 26L20 27L21 27L21 26L23 26L23 27L24 27L24 26L25 26L25 25L26 25L26 26L27 26L27 25L26 25L26 24L27 24L27 22L28 22L28 21L27 21L27 22L26 22L26 21ZM22 22L22 23L23 23L23 22ZM16 23L16 24L18 24L18 23ZM9 27L9 28L10 28L10 27ZM14 27L14 28L15 28L15 27ZM0 0L0 7L7 7L7 0ZM1 1L1 6L6 6L6 1ZM2 2L2 5L5 5L5 2ZM22 0L22 7L29 7L29 0ZM23 1L23 6L28 6L28 1ZM24 2L24 5L27 5L27 2ZM0 22L0 29L7 29L7 22ZM1 23L1 28L6 28L6 23ZM2 24L2 27L5 27L5 24Z" fill="#000000"/></g></g></svg>
