<?xml version="1.0" encoding="UTF-8"?>
<svg xmlns="http://www.w3.org/2000/svg" version="1.1" width="100" height="100" viewBox="0 0 100 100"><rect x="0" y="0" width="100" height="100" fill="#ffffff"/><g transform="scale(3.448)"><g transform="translate(0,0)"><path fill-rule="evenodd" d="M10 0L10 2L11 2L11 0ZM12 0L12 1L13 1L13 2L12 2L12 4L13 4L13 3L14 3L14 4L17 4L17 5L20 5L20 4L21 4L21 3L19 3L19 1L21 1L21 0L18 0L18 1L16 1L16 0L15 0L15 1L14 1L14 0ZM8 1L8 2L9 2L9 1ZM14 2L14 3L18 3L18 2ZM8 3L8 4L9 4L9 5L8 5L8 7L9 7L9 8L6 8L6 9L8 9L8 10L9 10L9 9L10 9L10 11L11 11L11 9L12 9L12 10L13 10L13 11L12 11L12 13L13 13L13 12L14 12L14 13L18 13L18 14L17 14L17 15L16 15L16 14L15 14L15 15L14 15L14 16L15 16L15 17L12 17L12 15L13 15L13 14L10 14L10 13L11 13L11 12L8 12L8 13L9 13L9 17L8 17L8 14L6 14L6 13L7 13L7 12L5 12L5 11L7 11L7 10L5 10L5 8L0 8L0 10L1 10L1 12L3 12L3 13L0 13L0 14L4 14L4 17L8 17L8 18L9 18L9 19L8 19L8 20L6 20L6 19L7 19L7 18L5 18L5 19L4 19L4 18L3 18L3 15L0 15L0 16L1 16L1 17L0 17L0 21L1 21L1 17L2 17L2 18L3 18L3 19L2 19L2 20L3 20L3 21L4 21L4 20L6 20L6 21L8 21L8 23L9 23L9 24L8 24L8 29L9 29L9 28L11 28L11 27L10 27L10 26L9 26L9 25L12 25L12 26L13 26L13 27L12 27L12 29L13 29L13 28L14 28L14 29L16 29L16 28L17 28L17 29L18 29L18 28L17 28L17 27L16 27L16 26L17 26L17 25L19 25L19 27L20 27L20 28L19 28L19 29L20 29L20 28L21 28L21 29L24 29L24 28L25 28L25 26L24 26L24 25L25 25L25 24L26 24L26 25L27 25L27 26L26 26L26 27L27 27L27 28L26 28L26 29L27 29L27 28L28 28L28 26L29 26L29 25L27 25L27 24L28 24L28 23L27 23L27 24L26 24L26 22L25 22L25 21L27 21L27 22L29 22L29 21L28 21L28 20L22 20L22 19L19 19L19 20L16 20L16 19L18 19L18 18L15 18L15 17L19 17L19 18L20 18L20 16L21 16L21 17L22 17L22 18L23 18L23 17L24 17L24 19L25 19L25 17L24 17L24 16L26 16L26 17L28 17L28 18L26 18L26 19L28 19L28 18L29 18L29 16L28 16L28 15L27 15L27 16L26 16L26 13L27 13L27 14L29 14L29 13L28 13L28 12L29 12L29 11L28 11L28 10L29 10L29 9L28 9L28 8L27 8L27 9L28 9L28 10L26 10L26 11L27 11L27 12L25 12L25 9L26 9L26 8L25 8L25 9L24 9L24 8L23 8L23 9L22 9L22 8L21 8L21 6L20 6L20 7L19 7L19 6L18 6L18 7L19 7L19 8L21 8L21 9L18 9L18 8L16 8L16 7L17 7L17 6L16 6L16 5L15 5L15 6L14 6L14 8L16 8L16 9L18 9L18 11L19 11L19 10L20 10L20 11L21 11L21 10L23 10L23 11L24 11L24 12L25 12L25 13L22 13L22 12L21 12L21 13L18 13L18 12L16 12L16 10L15 10L15 9L12 9L12 7L13 7L13 5L11 5L11 6L10 6L10 4L11 4L11 3ZM9 6L9 7L10 7L10 6ZM11 6L11 7L12 7L12 6ZM15 6L15 7L16 7L16 6ZM10 8L10 9L11 9L11 8ZM1 9L1 10L4 10L4 9ZM14 11L14 12L15 12L15 11ZM4 13L4 14L5 14L5 15L6 15L6 16L7 16L7 15L6 15L6 14L5 14L5 13ZM19 14L19 15L17 15L17 16L20 16L20 14ZM21 14L21 16L22 16L22 17L23 17L23 15L25 15L25 14L23 14L23 15L22 15L22 14ZM10 15L10 17L11 17L11 18L10 18L10 19L9 19L9 20L10 20L10 21L9 21L9 23L10 23L10 24L11 24L11 22L13 22L13 23L12 23L12 25L15 25L15 26L16 26L16 25L17 25L17 24L19 24L19 25L20 25L20 27L22 27L22 28L23 28L23 27L24 27L24 26L23 26L23 25L22 25L22 26L21 26L21 25L20 25L20 24L19 24L19 22L20 22L20 20L19 20L19 21L16 21L16 20L15 20L15 19L14 19L14 20L13 20L13 21L12 21L12 19L13 19L13 18L12 18L12 17L11 17L11 15ZM15 15L15 16L16 16L16 15ZM10 19L10 20L11 20L11 19ZM14 20L14 21L15 21L15 20ZM10 21L10 22L11 22L11 21ZM21 21L21 24L24 24L24 21ZM15 22L15 23L14 23L14 24L15 24L15 25L16 25L16 24L17 24L17 22ZM22 22L22 23L23 23L23 22ZM22 26L22 27L23 27L23 26ZM14 27L14 28L16 28L16 27ZM0 0L0 7L7 7L7 0ZM1 1L1 6L6 6L6 1ZM2 2L2 5L5 5L5 2ZM22 0L22 7L29 7L29 0ZM23 1L23 6L28 6L28 1ZM24 2L24 5L27 5L27 2ZM0 22L0 29L7 29L7 22ZM1 23L1 28L6 28L6 23ZM2 24L2 27L5 27L5 24Z" fill="#000000"/></g></g></svg>
