<?xml version="1.0" encoding="UTF-8"?>
<svg xmlns="http://www.w3.org/2000/svg" version="1.1" width="100" height="100" viewBox="0 0 100 100"><rect x="0" y="0" width="100" height="100" fill="#ffffff"/><g transform="scale(3.448)"><g transform="translate(0,0)"><path fill-rule="evenodd" d="M8 0L8 1L9 1L9 2L8 2L8 5L9 5L9 4L11 4L11 5L10 5L10 10L8 10L8 11L7 11L7 10L6 10L6 11L7 11L7 12L3 12L3 13L4 13L4 14L3 14L3 15L2 15L2 11L3 11L3 10L4 10L4 11L5 11L5 9L4 9L4 8L0 8L0 11L1 11L1 12L0 12L0 13L1 13L1 14L0 14L0 15L2 15L2 16L0 16L0 17L1 17L1 18L0 18L0 19L1 19L1 18L4 18L4 20L3 20L3 19L2 19L2 20L1 20L1 21L5 21L5 20L6 20L6 21L7 21L7 20L8 20L8 22L10 22L10 24L9 24L9 25L8 25L8 29L9 29L9 28L10 28L10 29L12 29L12 28L14 28L14 27L15 27L15 28L16 28L16 27L15 27L15 26L18 26L18 27L19 27L19 26L21 26L21 27L20 27L20 28L18 28L18 29L23 29L23 28L24 28L24 29L25 29L25 27L24 27L24 26L25 26L25 22L26 22L26 23L27 23L27 22L26 22L26 21L27 21L27 19L28 19L28 22L29 22L29 19L28 19L28 17L26 17L26 16L25 16L25 14L24 14L24 12L25 12L25 11L26 11L26 10L25 10L25 9L27 9L27 8L24 8L24 10L23 10L23 9L22 9L22 8L21 8L21 9L20 9L20 7L21 7L21 6L20 6L20 5L21 5L21 1L20 1L20 0L19 0L19 1L18 1L18 3L17 3L17 4L16 4L16 2L15 2L15 3L14 3L14 5L13 5L13 3L12 3L12 4L11 4L11 2L14 2L14 0L12 0L12 1L11 1L11 0L10 0L10 1L9 1L9 0ZM15 0L15 1L16 1L16 0ZM19 1L19 4L17 4L17 5L14 5L14 6L13 6L13 5L12 5L12 6L11 6L11 8L12 8L12 6L13 6L13 8L14 8L14 9L15 9L15 10L14 10L14 11L11 11L11 13L10 13L10 14L9 14L9 11L8 11L8 12L7 12L7 13L5 13L5 14L7 14L7 13L8 13L8 15L10 15L10 17L11 17L11 18L10 18L10 19L8 19L8 20L9 20L9 21L11 21L11 23L14 23L14 22L15 22L15 23L17 23L17 24L16 24L16 25L17 25L17 24L18 24L18 23L17 23L17 22L20 22L20 21L19 21L19 20L25 20L25 21L26 21L26 19L27 19L27 18L26 18L26 19L24 19L24 18L25 18L25 17L24 17L24 18L23 18L23 15L24 15L24 14L22 14L22 13L23 13L23 12L24 12L24 11L25 11L25 10L24 10L24 11L23 11L23 12L22 12L22 9L21 9L21 10L19 10L19 11L17 11L17 12L18 12L18 14L17 14L17 13L16 13L16 10L18 10L18 9L17 9L17 8L16 8L16 6L17 6L17 7L18 7L18 5L19 5L19 4L20 4L20 1ZM8 6L8 7L9 7L9 6ZM14 6L14 7L15 7L15 6ZM19 6L19 7L20 7L20 6ZM6 8L6 9L7 9L7 8ZM8 8L8 9L9 9L9 8ZM28 8L28 10L29 10L29 8ZM1 9L1 11L2 11L2 9ZM11 9L11 10L12 10L12 9ZM19 11L19 14L18 14L18 17L21 17L21 18L22 18L22 17L21 17L21 15L22 15L22 14L21 14L21 13L22 13L22 12L20 12L20 11ZM27 11L27 12L26 12L26 14L28 14L28 15L27 15L27 16L29 16L29 13L28 13L28 11ZM12 12L12 13L11 13L11 14L10 14L10 15L11 15L11 16L12 16L12 17L13 17L13 16L12 16L12 14L13 14L13 15L14 15L14 18L13 18L13 21L15 21L15 20L17 20L17 21L18 21L18 19L17 19L17 15L14 15L14 14L16 14L16 13L15 13L15 12L14 12L14 14L13 14L13 12ZM6 15L6 16L7 16L7 15ZM19 15L19 16L20 16L20 15ZM2 16L2 17L3 17L3 16ZM4 16L4 18L5 18L5 19L6 19L6 20L7 20L7 19L6 19L6 18L7 18L7 17L6 17L6 18L5 18L5 16ZM8 16L8 18L9 18L9 16ZM15 16L15 17L16 17L16 16ZM10 19L10 20L12 20L12 19ZM21 21L21 24L24 24L24 21ZM22 22L22 23L23 23L23 22ZM19 23L19 25L20 25L20 23ZM28 23L28 24L29 24L29 23ZM12 24L12 26L9 26L9 27L11 27L11 28L12 28L12 26L13 26L13 27L14 27L14 26L15 26L15 24ZM26 24L26 26L27 26L27 24ZM13 25L13 26L14 26L14 25ZM21 25L21 26L22 26L22 27L21 27L21 28L23 28L23 25ZM28 25L28 27L27 27L27 29L28 29L28 27L29 27L29 25ZM0 0L0 7L7 7L7 0ZM1 1L1 6L6 6L6 1ZM2 2L2 5L5 5L5 2ZM22 0L22 7L29 7L29 0ZM23 1L23 6L28 6L28 1ZM24 2L24 5L27 5L27 2ZM0 22L0 29L7 29L7 22ZM1 23L1 28L6 28L6 23ZM2 24L2 27L5 27L5 24Z" fill="#000000"/></g></g></svg>
