<?xml version="1.0" encoding="UTF-8"?>
<svg xmlns="http://www.w3.org/2000/svg" version="1.1" width="100" height="100" viewBox="0 0 100 100"><rect x="0" y="0" width="100" height="100" fill="#ffffff"/><g transform="scale(3.448)"><g transform="translate(0,0)"><path fill-rule="evenodd" d="M10 0L10 2L11 2L11 0ZM12 0L12 1L13 1L13 2L12 2L12 4L13 4L13 3L14 3L14 4L17 4L17 5L15 5L15 6L14 6L14 8L15 8L15 9L12 9L12 7L13 7L13 5L11 5L11 6L10 6L10 4L11 4L11 3L8 3L8 4L9 4L9 5L8 5L8 7L9 7L9 8L6 8L6 9L8 9L8 10L9 10L9 9L10 9L10 11L11 11L11 9L12 9L12 10L13 10L13 11L12 11L12 13L13 13L13 12L14 12L14 13L18 13L18 15L19 15L19 14L20 14L20 16L16 16L16 15L17 15L17 14L15 14L15 15L14 15L14 16L16 16L16 17L19 17L19 18L18 18L18 20L14 20L14 19L17 19L17 18L15 18L15 17L12 17L12 15L13 15L13 14L9 14L9 13L11 13L11 12L9 12L9 13L8 13L8 11L7 11L7 10L6 10L6 11L5 11L5 10L3 10L3 9L5 9L5 8L0 8L0 9L1 9L1 11L0 11L0 14L1 14L1 15L0 15L0 16L2 16L2 17L3 17L3 18L2 18L2 19L4 19L4 21L5 21L5 19L9 19L9 20L8 20L8 23L9 23L9 22L10 22L10 21L11 21L11 20L10 20L10 19L9 19L9 18L10 18L10 17L9 17L9 18L6 18L6 17L8 17L8 16L6 16L6 17L3 17L3 16L2 16L2 15L3 15L3 14L4 14L4 13L3 13L3 14L2 14L2 12L4 12L4 11L5 11L5 13L7 13L7 14L6 14L6 15L7 15L7 14L9 14L9 16L10 16L10 15L11 15L11 17L12 17L12 18L13 18L13 19L12 19L12 21L13 21L13 20L14 20L14 21L18 21L18 22L17 22L17 23L18 23L18 24L16 24L16 22L15 22L15 23L14 23L14 24L16 24L16 25L19 25L19 24L20 24L20 26L21 26L21 27L20 27L20 28L19 28L19 29L20 29L20 28L21 28L21 27L23 27L23 29L24 29L24 28L25 28L25 26L24 26L24 25L27 25L27 28L26 28L26 29L27 29L27 28L28 28L28 26L29 26L29 25L27 25L27 24L28 24L28 22L29 22L29 21L28 21L28 22L26 22L26 21L27 21L27 20L29 20L29 19L28 19L28 18L29 18L29 17L28 17L28 16L29 16L29 15L28 15L28 16L26 16L26 13L27 13L27 14L29 14L29 13L28 13L28 12L29 12L29 11L27 11L27 10L29 10L29 9L28 9L28 8L27 8L27 10L25 10L25 9L26 9L26 8L25 8L25 9L24 9L24 8L23 8L23 9L22 9L22 8L21 8L21 4L19 4L19 1L20 1L20 3L21 3L21 1L20 1L20 0L19 0L19 1L18 1L18 3L17 3L17 1L16 1L16 0L15 0L15 1L14 1L14 0ZM8 1L8 2L9 2L9 1ZM14 2L14 3L16 3L16 2ZM17 5L17 8L19 8L19 9L15 9L15 10L17 10L17 11L14 11L14 12L18 12L18 13L19 13L19 12L21 12L21 11L23 11L23 12L22 12L22 13L23 13L23 15L22 15L22 14L21 14L21 13L20 13L20 14L21 14L21 16L20 16L20 18L19 18L19 20L18 20L18 21L19 21L19 22L20 22L20 18L21 18L21 19L22 19L22 20L23 20L23 19L24 19L24 17L26 17L26 18L25 18L25 20L27 20L27 18L28 18L28 17L26 17L26 16L24 16L24 15L25 15L25 14L24 14L24 13L26 13L26 12L27 12L27 11L26 11L26 12L24 12L24 10L21 10L21 9L20 9L20 5ZM9 6L9 7L10 7L10 6ZM11 6L11 7L12 7L12 6ZM15 6L15 8L16 8L16 6ZM18 6L18 7L19 7L19 6ZM10 8L10 9L11 9L11 8ZM19 9L19 10L18 10L18 12L19 12L19 10L20 10L20 9ZM2 10L2 11L1 11L1 12L2 12L2 11L3 11L3 10ZM6 11L6 12L7 12L7 11ZM23 12L23 13L24 13L24 12ZM21 16L21 17L22 17L22 18L23 18L23 17L24 17L24 16L23 16L23 17L22 17L22 16ZM0 17L0 21L1 21L1 17ZM4 18L4 19L5 19L5 18ZM2 20L2 21L3 21L3 20ZM6 20L6 21L7 21L7 20ZM21 21L21 24L24 24L24 21ZM11 22L11 24L8 24L8 29L10 29L10 27L11 27L11 25L12 25L12 26L13 26L13 27L12 27L12 29L13 29L13 28L14 28L14 29L16 29L16 28L14 28L14 27L18 27L18 26L15 26L15 25L12 25L12 23L13 23L13 22ZM22 22L22 23L23 23L23 22ZM25 23L25 24L27 24L27 23ZM9 25L9 27L10 27L10 25ZM21 25L21 26L23 26L23 27L24 27L24 26L23 26L23 25ZM17 28L17 29L18 29L18 28ZM0 0L0 7L7 7L7 0ZM1 1L1 6L6 6L6 1ZM2 2L2 5L5 5L5 2ZM22 0L22 7L29 7L29 0ZM23 1L23 6L28 6L28 1ZM24 2L24 5L27 5L27 2ZM0 22L0 29L7 29L7 22ZM1 23L1 28L6 28L6 23ZM2 24L2 27L5 27L5 24Z" fill="#000000"/></g></g></svg>
