<?xml version="1.0" encoding="UTF-8"?>
<svg xmlns="http://www.w3.org/2000/svg" version="1.1" width="100" height="100" viewBox="0 0 100 100"><rect x="0" y="0" width="100" height="100" fill="#ffffff"/><g transform="scale(3.448)"><g transform="translate(0,0)"><path fill-rule="evenodd" d="M10 0L10 2L11 2L11 0ZM12 0L12 1L13 1L13 2L12 2L12 4L13 4L13 3L14 3L14 4L16 4L16 5L15 5L15 6L14 6L14 8L15 8L15 9L12 9L12 7L13 7L13 5L11 5L11 6L10 6L10 4L11 4L11 3L8 3L8 4L9 4L9 5L8 5L8 7L9 7L9 8L6 8L6 9L10 9L10 11L11 11L11 9L12 9L12 10L13 10L13 11L12 11L12 13L13 13L13 12L14 12L14 13L16 13L16 14L15 14L15 15L14 15L14 16L15 16L15 17L12 17L12 15L13 15L13 14L10 14L10 13L11 13L11 12L9 12L9 11L8 11L8 10L5 10L5 11L4 11L4 12L3 12L3 11L2 11L2 10L3 10L3 9L5 9L5 8L0 8L0 10L1 10L1 11L0 11L0 12L1 12L1 13L2 13L2 12L3 12L3 14L2 14L2 15L0 15L0 21L1 21L1 18L2 18L2 20L3 20L3 21L4 21L4 18L5 18L5 19L8 19L8 17L9 17L9 19L11 19L11 18L10 18L10 17L12 17L12 18L13 18L13 19L12 19L12 21L13 21L13 20L14 20L14 21L19 21L19 20L20 20L20 22L18 22L18 24L17 24L17 23L16 23L16 22L15 22L15 23L14 23L14 24L15 24L15 25L12 25L12 23L13 23L13 22L11 22L11 23L9 23L9 21L10 21L10 20L5 20L5 21L8 21L8 23L9 23L9 24L8 24L8 29L9 29L9 24L11 24L11 25L12 25L12 26L13 26L13 27L12 27L12 29L13 29L13 28L14 28L14 29L16 29L16 28L17 28L17 29L18 29L18 28L17 28L17 27L19 27L19 25L18 25L18 24L20 24L20 26L22 26L22 27L20 27L20 28L19 28L19 29L20 29L20 28L22 28L22 27L23 27L23 29L24 29L24 28L25 28L25 26L24 26L24 25L26 25L26 26L27 26L27 28L26 28L26 29L27 29L27 28L28 28L28 26L29 26L29 25L27 25L27 24L28 24L28 22L29 22L29 21L28 21L28 22L26 22L26 21L27 21L27 20L29 20L29 19L27 19L27 20L26 20L26 18L25 18L25 17L24 17L24 16L26 16L26 17L27 17L27 18L29 18L29 17L28 17L28 16L26 16L26 13L27 13L27 14L29 14L29 13L27 13L27 12L26 12L26 11L28 11L28 10L29 10L29 9L28 9L28 8L27 8L27 9L28 9L28 10L25 10L25 9L26 9L26 8L25 8L25 9L24 9L24 8L23 8L23 9L22 9L22 8L19 8L19 9L18 9L18 8L17 8L17 5L20 5L20 4L21 4L21 2L20 2L20 4L19 4L19 2L18 2L18 3L17 3L17 1L16 1L16 0L15 0L15 1L14 1L14 0ZM19 0L19 1L20 1L20 0ZM8 1L8 2L9 2L9 1ZM14 2L14 3L15 3L15 2ZM16 3L16 4L17 4L17 3ZM9 6L9 7L10 7L10 6ZM11 6L11 7L12 7L12 6ZM15 6L15 7L16 7L16 6ZM18 6L18 7L19 7L19 6ZM20 6L20 7L21 7L21 6ZM10 8L10 9L11 9L11 8ZM1 9L1 10L2 10L2 9ZM15 9L15 10L16 10L16 11L14 11L14 12L16 12L16 13L17 13L17 12L22 12L22 13L23 13L23 15L22 15L22 14L21 14L21 13L20 13L20 14L19 14L19 13L18 13L18 14L16 14L16 15L15 15L15 16L16 16L16 15L17 15L17 16L18 16L18 17L15 17L15 18L16 18L16 19L14 19L14 20L19 20L19 19L22 19L22 20L24 20L24 19L25 19L25 18L24 18L24 17L23 17L23 15L24 15L24 13L26 13L26 12L24 12L24 11L25 11L25 10L24 10L24 9L23 9L23 10L22 10L22 9L20 9L20 10L18 10L18 9ZM20 10L20 11L22 11L22 12L23 12L23 13L24 13L24 12L23 12L23 11L22 11L22 10ZM1 11L1 12L2 12L2 11ZM5 11L5 12L8 12L8 11ZM5 13L5 14L3 14L3 18L4 18L4 17L5 17L5 16L4 16L4 15L6 15L6 16L7 16L7 15L8 15L8 16L10 16L10 14L9 14L9 15L8 15L8 13ZM6 14L6 15L7 15L7 14ZM18 14L18 15L19 15L19 14ZM20 14L20 16L19 16L19 17L18 17L18 18L20 18L20 16L21 16L21 17L22 17L22 18L23 18L23 17L22 17L22 16L21 16L21 14ZM1 16L1 17L2 17L2 16ZM6 17L6 18L7 18L7 17ZM25 20L25 21L26 21L26 20ZM21 21L21 24L24 24L24 21ZM22 22L22 23L23 23L23 22ZM25 22L25 24L27 24L27 23L26 23L26 22ZM15 23L15 24L16 24L16 25L15 25L15 26L16 26L16 27L14 27L14 28L16 28L16 27L17 27L17 26L18 26L18 25L17 25L17 24L16 24L16 23ZM16 25L16 26L17 26L17 25ZM22 25L22 26L23 26L23 27L24 27L24 26L23 26L23 25ZM10 26L10 29L11 29L11 26ZM0 0L0 7L7 7L7 0ZM1 1L1 6L6 6L6 1ZM2 2L2 5L5 5L5 2ZM22 0L22 7L29 7L29 0ZM23 1L23 6L28 6L28 1ZM24 2L24 5L27 5L27 2ZM0 22L0 29L7 29L7 22ZM1 23L1 28L6 28L6 23ZM2 24L2 27L5 27L5 24Z" fill="#000000"/></g></g></svg>
