<?xml version="1.0" encoding="UTF-8"?>
<svg xmlns="http://www.w3.org/2000/svg" version="1.1" width="100" height="100" viewBox="0 0 100 100"><rect x="0" y="0" width="100" height="100" fill="#ffffff"/><g transform="scale(3.448)"><g transform="translate(0,0)"><path fill-rule="evenodd" d="M8 0L8 4L10 4L10 3L11 3L11 4L12 4L12 2L11 2L11 0ZM12 0L12 1L13 1L13 0ZM14 0L14 1L15 1L15 0ZM18 0L18 1L17 1L17 3L19 3L19 2L20 2L20 1L19 1L19 0ZM9 2L9 3L10 3L10 2ZM13 2L13 3L14 3L14 4L13 4L13 5L11 5L11 6L10 6L10 7L9 7L9 5L8 5L8 7L9 7L9 8L10 8L10 7L11 7L11 6L12 6L12 8L11 8L11 9L7 9L7 8L4 8L4 9L2 9L2 8L0 8L0 10L1 10L1 11L0 11L0 12L1 12L1 14L0 14L0 18L2 18L2 17L4 17L4 18L3 18L3 19L4 19L4 20L0 20L0 21L4 21L4 20L6 20L6 21L7 21L7 20L12 20L12 21L13 21L13 22L15 22L15 23L14 23L14 24L13 24L13 23L12 23L12 24L11 24L11 23L10 23L10 21L8 21L8 22L9 22L9 23L8 23L8 25L9 25L9 27L8 27L8 29L10 29L10 24L11 24L11 25L12 25L12 26L11 26L11 28L12 28L12 29L14 29L14 27L15 27L15 29L21 29L21 28L23 28L23 29L24 29L24 28L23 28L23 27L24 27L24 25L25 25L25 26L26 26L26 27L27 27L27 29L28 29L28 28L29 28L29 25L28 25L28 24L29 24L29 21L28 21L28 20L29 20L29 17L26 17L26 13L24 13L24 12L23 12L23 13L22 13L22 14L23 14L23 13L24 13L24 14L25 14L25 17L21 17L21 13L20 13L20 20L19 20L19 18L17 18L17 17L19 17L19 14L18 14L18 15L17 15L17 17L15 17L15 16L16 16L16 13L19 13L19 11L17 11L17 10L16 10L16 9L18 9L18 10L19 10L19 9L21 9L21 10L20 10L20 11L21 11L21 10L22 10L22 11L24 11L24 10L25 10L25 9L26 9L26 11L27 11L27 12L29 12L29 8L25 8L25 9L24 9L24 8L23 8L23 9L21 9L21 3L20 3L20 5L19 5L19 4L17 4L17 5L16 5L16 3L14 3L14 2ZM15 5L15 9L13 9L13 8L14 8L14 6L13 6L13 8L12 8L12 9L11 9L11 10L7 10L7 9L5 9L5 10L2 10L2 9L1 9L1 10L2 10L2 12L3 12L3 13L2 13L2 14L1 14L1 17L2 17L2 16L3 16L3 15L4 15L4 14L5 14L5 16L7 16L7 17L6 17L6 18L7 18L7 19L6 19L6 20L7 20L7 19L9 19L9 18L10 18L10 19L11 19L11 18L12 18L12 17L13 17L13 18L15 18L15 17L13 17L13 16L14 16L14 15L15 15L15 14L13 14L13 13L12 13L12 12L13 12L13 11L12 11L12 12L11 12L11 13L10 13L10 11L11 11L11 10L12 10L12 9L13 9L13 10L15 10L15 9L16 9L16 8L17 8L17 7L18 7L18 6L19 6L19 8L18 8L18 9L19 9L19 8L20 8L20 6L19 6L19 5L17 5L17 7L16 7L16 5ZM23 9L23 10L24 10L24 9ZM27 9L27 11L28 11L28 9ZM5 10L5 12L4 12L4 13L3 13L3 14L2 14L2 15L3 15L3 14L4 14L4 13L8 13L8 14L6 14L6 15L7 15L7 16L8 16L8 15L10 15L10 16L11 16L11 17L12 17L12 16L13 16L13 15L12 15L12 16L11 16L11 14L10 14L10 13L9 13L9 11L8 11L8 12L6 12L6 11L7 11L7 10ZM14 11L14 13L16 13L16 11ZM27 13L27 15L29 15L29 13ZM22 15L22 16L23 16L23 15ZM8 17L8 18L9 18L9 17ZM16 18L16 19L14 19L14 21L16 21L16 22L17 22L17 23L16 23L16 24L15 24L15 25L13 25L13 24L12 24L12 25L13 25L13 26L15 26L15 25L17 25L17 26L16 26L16 27L17 27L17 26L18 26L18 25L19 25L19 24L20 24L20 23L19 23L19 22L20 22L20 21L19 21L19 20L18 20L18 21L16 21L16 20L17 20L17 18ZM21 18L21 19L22 19L22 18ZM23 18L23 19L25 19L25 21L26 21L26 23L25 23L25 25L27 25L27 26L28 26L28 25L27 25L27 19L26 19L26 18ZM12 19L12 20L13 20L13 19ZM18 21L18 22L19 22L19 21ZM21 21L21 24L24 24L24 21ZM22 22L22 23L23 23L23 22ZM9 23L9 24L10 24L10 23ZM17 23L17 25L18 25L18 23ZM21 25L21 26L19 26L19 27L23 27L23 25ZM12 27L12 28L13 28L13 27ZM25 28L25 29L26 29L26 28ZM0 0L0 7L7 7L7 0ZM1 1L1 6L6 6L6 1ZM2 2L2 5L5 5L5 2ZM22 0L22 7L29 7L29 0ZM23 1L23 6L28 6L28 1ZM24 2L24 5L27 5L27 2ZM0 22L0 29L7 29L7 22ZM1 23L1 28L6 28L6 23ZM2 24L2 27L5 27L5 24Z" fill="#000000"/></g></g></svg>
