<?xml version="1.0" encoding="UTF-8"?>
<svg xmlns="http://www.w3.org/2000/svg" version="1.1" width="100" height="100" viewBox="0 0 100 100"><rect x="0" y="0" width="100" height="100" fill="#ffffff"/><g transform="scale(3.448)"><g transform="translate(0,0)"><path fill-rule="evenodd" d="M10 0L10 2L11 2L11 0ZM12 0L12 1L13 1L13 2L12 2L12 4L13 4L13 3L14 3L14 4L15 4L15 3L16 3L16 4L17 4L17 5L20 5L20 7L21 7L21 4L19 4L19 3L20 3L20 2L21 2L21 1L20 1L20 0L19 0L19 1L20 1L20 2L19 2L19 3L16 3L16 0L15 0L15 1L14 1L14 0ZM8 1L8 2L9 2L9 1ZM17 1L17 2L18 2L18 1ZM14 2L14 3L15 3L15 2ZM8 3L8 4L9 4L9 5L8 5L8 7L9 7L9 8L6 8L6 9L5 9L5 8L0 8L0 9L3 9L3 11L4 11L4 10L6 10L6 11L7 11L7 12L2 12L2 11L1 11L1 10L0 10L0 12L2 12L2 13L1 13L1 14L2 14L2 17L1 17L1 16L0 16L0 21L1 21L1 18L2 18L2 17L4 17L4 18L3 18L3 19L4 19L4 20L2 20L2 21L5 21L5 20L6 20L6 21L7 21L7 20L9 20L9 21L8 21L8 23L9 23L9 22L11 22L11 24L8 24L8 29L10 29L10 28L9 28L9 26L10 26L10 27L11 27L11 25L12 25L12 26L13 26L13 27L12 27L12 29L13 29L13 28L14 28L14 29L19 29L19 28L22 28L22 27L23 27L23 29L24 29L24 28L25 28L25 26L24 26L24 25L27 25L27 26L26 26L26 27L27 27L27 28L26 28L26 29L27 29L27 28L28 28L28 26L29 26L29 25L27 25L27 24L28 24L28 22L29 22L29 21L28 21L28 20L29 20L29 19L28 19L28 18L29 18L29 17L28 17L28 15L27 15L27 16L25 16L25 15L24 15L24 16L25 16L25 17L22 17L22 16L21 16L21 14L22 14L22 15L23 15L23 13L24 13L24 14L25 14L25 13L26 13L26 14L29 14L29 13L28 13L28 12L25 12L25 11L24 11L24 10L25 10L25 9L26 9L26 10L27 10L27 11L28 11L28 10L29 10L29 9L28 9L28 8L27 8L27 9L26 9L26 8L25 8L25 9L24 9L24 8L23 8L23 9L22 9L22 8L21 8L21 9L19 9L19 8L16 8L16 7L17 7L17 6L16 6L16 5L15 5L15 6L14 6L14 8L15 8L15 9L12 9L12 7L13 7L13 5L11 5L11 6L10 6L10 4L11 4L11 3ZM9 6L9 7L10 7L10 6ZM11 6L11 7L12 7L12 6ZM15 6L15 7L16 7L16 6ZM18 6L18 7L19 7L19 6ZM10 8L10 9L8 9L8 10L7 10L7 9L6 9L6 10L7 10L7 11L8 11L8 12L11 12L11 13L5 13L5 15L3 15L3 16L5 16L5 15L6 15L6 16L7 16L7 17L5 17L5 18L4 18L4 19L5 19L5 18L7 18L7 19L6 19L6 20L7 20L7 19L8 19L8 18L11 18L11 22L13 22L13 23L12 23L12 25L15 25L15 26L16 26L16 27L14 27L14 28L16 28L16 27L17 27L17 28L19 28L19 27L22 27L22 26L23 26L23 27L24 27L24 26L23 26L23 25L22 25L22 26L21 26L21 25L20 25L20 23L19 23L19 25L16 25L16 24L18 24L18 22L19 22L19 21L20 21L20 20L19 20L19 19L20 19L20 18L21 18L21 19L22 19L22 20L25 20L25 22L26 22L26 23L25 23L25 24L27 24L27 22L28 22L28 21L26 21L26 20L28 20L28 19L27 19L27 18L28 18L28 17L25 17L25 18L26 18L26 20L25 20L25 19L23 19L23 18L22 18L22 17L21 17L21 16L20 16L20 14L21 14L21 13L20 13L20 14L18 14L18 13L19 13L19 12L22 12L22 13L23 13L23 12L22 12L22 11L23 11L23 10L24 10L24 9L23 9L23 10L22 10L22 9L21 9L21 11L20 11L20 10L19 10L19 9L15 9L15 10L17 10L17 11L16 11L16 13L14 13L14 12L15 12L15 11L14 11L14 12L13 12L13 13L12 13L12 11L13 11L13 10L12 10L12 9L11 9L11 8ZM10 9L10 11L11 11L11 9ZM27 9L27 10L28 10L28 9ZM18 10L18 11L19 11L19 10ZM17 12L17 13L16 13L16 14L15 14L15 15L14 15L14 16L15 16L15 17L12 17L12 15L13 15L13 14L10 14L10 15L9 15L9 14L6 14L6 15L8 15L8 16L9 16L9 17L12 17L12 18L13 18L13 19L12 19L12 21L13 21L13 20L14 20L14 21L16 21L16 22L15 22L15 23L14 23L14 24L16 24L16 23L17 23L17 21L19 21L19 20L17 20L17 21L16 21L16 20L14 20L14 19L16 19L16 18L15 18L15 17L19 17L19 18L20 18L20 16L17 16L17 15L16 15L16 14L17 14L17 13L18 13L18 12ZM24 12L24 13L25 13L25 12ZM2 13L2 14L4 14L4 13ZM10 15L10 16L11 16L11 15ZM9 19L9 20L10 20L10 19ZM21 21L21 24L24 24L24 21ZM22 22L22 23L23 23L23 22ZM19 25L19 26L20 26L20 25ZM17 26L17 27L18 27L18 26ZM0 0L0 7L7 7L7 0ZM1 1L1 6L6 6L6 1ZM2 2L2 5L5 5L5 2ZM22 0L22 7L29 7L29 0ZM23 1L23 6L28 6L28 1ZM24 2L24 5L27 5L27 2ZM0 22L0 29L7 29L7 22ZM1 23L1 28L6 28L6 23ZM2 24L2 27L5 27L5 24Z" fill="#000000"/></g></g></svg>
