<?xml version="1.0" encoding="UTF-8"?>
<svg xmlns="http://www.w3.org/2000/svg" version="1.1" width="100" height="100" viewBox="0 0 100 100"><rect x="0" y="0" width="100" height="100" fill="#ffffff"/><g transform="scale(3.448)"><g transform="translate(0,0)"><path fill-rule="evenodd" d="M10 0L10 2L11 2L11 0ZM12 0L12 1L13 1L13 2L12 2L12 4L13 4L13 3L14 3L14 4L16 4L16 5L15 5L15 6L14 6L14 8L15 8L15 9L12 9L12 7L13 7L13 5L11 5L11 6L10 6L10 4L11 4L11 3L8 3L8 4L9 4L9 5L8 5L8 7L9 7L9 8L6 8L6 9L5 9L5 8L0 8L0 9L3 9L3 10L2 10L2 11L1 11L1 10L0 10L0 13L1 13L1 12L2 12L2 11L4 11L4 14L5 14L5 15L7 15L7 14L8 14L8 16L6 16L6 17L7 17L7 18L4 18L4 19L2 19L2 21L7 21L7 20L8 20L8 23L9 23L9 24L8 24L8 29L11 29L11 26L9 26L9 25L12 25L12 26L13 26L13 27L12 27L12 29L13 29L13 28L14 28L14 29L16 29L16 28L17 28L17 29L18 29L18 28L22 28L22 29L24 29L24 28L25 28L25 26L21 26L21 27L20 27L20 25L25 25L25 24L26 24L26 25L27 25L27 26L26 26L26 27L27 27L27 28L26 28L26 29L27 29L27 28L28 28L28 26L29 26L29 25L27 25L27 24L28 24L28 22L29 22L29 21L28 21L28 22L27 22L27 24L26 24L26 22L25 22L25 20L26 20L26 21L27 21L27 20L28 20L28 18L29 18L29 17L28 17L28 14L29 14L29 12L25 12L25 11L24 11L24 10L26 10L26 8L25 8L25 9L24 9L24 8L23 8L23 9L22 9L22 8L19 8L19 9L18 9L18 8L17 8L17 6L16 6L16 5L20 5L20 7L21 7L21 4L19 4L19 3L21 3L21 2L18 2L18 3L17 3L17 1L16 1L16 0L15 0L15 1L14 1L14 0ZM19 0L19 1L20 1L20 0ZM8 1L8 2L9 2L9 1ZM14 2L14 3L15 3L15 2ZM16 3L16 4L17 4L17 3ZM9 6L9 7L10 7L10 6ZM11 6L11 7L12 7L12 6ZM15 6L15 7L16 7L16 6ZM18 6L18 7L19 7L19 6ZM10 8L10 9L6 9L6 10L7 10L7 11L5 11L5 13L6 13L6 14L7 14L7 13L8 13L8 14L9 14L9 13L8 13L8 10L9 10L9 12L11 12L11 13L10 13L10 15L9 15L9 16L8 16L8 20L11 20L11 22L13 22L13 23L12 23L12 25L15 25L15 26L17 26L17 28L18 28L18 27L19 27L19 26L18 26L18 25L20 25L20 23L17 23L17 22L18 22L18 21L20 21L20 19L22 19L22 20L24 20L24 19L23 19L23 18L24 18L24 17L25 17L25 18L26 18L26 20L27 20L27 18L28 18L28 17L25 17L25 16L27 16L27 15L25 15L25 14L28 14L28 13L25 13L25 12L24 12L24 11L23 11L23 10L24 10L24 9L23 9L23 10L22 10L22 9L20 9L20 10L18 10L18 9L15 9L15 10L17 10L17 12L19 12L19 13L14 13L14 12L16 12L16 11L14 11L14 12L13 12L13 13L12 13L12 11L13 11L13 10L12 10L12 9L11 9L11 8ZM27 8L27 10L29 10L29 9L28 9L28 8ZM4 9L4 10L5 10L5 9ZM10 9L10 11L11 11L11 9ZM19 11L19 12L20 12L20 11ZM22 11L22 12L21 12L21 13L19 13L19 14L20 14L20 16L19 16L19 15L18 15L18 16L17 16L17 17L16 17L16 15L17 15L17 14L15 14L15 15L14 15L14 16L15 16L15 17L12 17L12 15L13 15L13 14L11 14L11 16L9 16L9 17L10 17L10 19L11 19L11 17L12 17L12 18L13 18L13 19L12 19L12 21L13 21L13 20L14 20L14 21L18 21L18 20L17 20L17 19L16 19L16 18L17 18L17 17L19 17L19 18L20 18L20 16L21 16L21 17L22 17L22 18L23 18L23 17L24 17L24 16L25 16L25 15L24 15L24 14L25 14L25 13L24 13L24 12L23 12L23 11ZM6 12L6 13L7 13L7 12ZM22 12L22 13L23 13L23 14L24 14L24 13L23 13L23 12ZM2 13L2 14L0 14L0 16L1 16L1 17L0 17L0 21L1 21L1 17L5 17L5 16L4 16L4 15L3 15L3 13ZM21 14L21 16L22 16L22 17L23 17L23 16L24 16L24 15L22 15L22 14ZM1 15L1 16L2 16L2 15ZM15 17L15 18L16 18L16 17ZM4 19L4 20L7 20L7 19ZM14 19L14 20L16 20L16 19ZM9 21L9 22L10 22L10 21ZM21 21L21 24L24 24L24 21ZM15 22L15 23L14 23L14 24L15 24L15 25L18 25L18 24L16 24L16 22ZM22 22L22 23L23 23L23 22ZM10 23L10 24L11 24L11 23ZM9 27L9 28L10 28L10 27ZM14 27L14 28L15 28L15 27ZM22 27L22 28L23 28L23 27ZM0 0L0 7L7 7L7 0ZM1 1L1 6L6 6L6 1ZM2 2L2 5L5 5L5 2ZM22 0L22 7L29 7L29 0ZM23 1L23 6L28 6L28 1ZM24 2L24 5L27 5L27 2ZM0 22L0 29L7 29L7 22ZM1 23L1 28L6 28L6 23ZM2 24L2 27L5 27L5 24Z" fill="#000000"/></g></g></svg>
