<?xml version="1.0" encoding="UTF-8"?>
<svg xmlns="http://www.w3.org/2000/svg" version="1.1" width="100" height="100" viewBox="0 0 100 100"><rect x="0" y="0" width="100" height="100" fill="#ffffff"/><g transform="scale(3.448)"><g transform="translate(0,0)"><path fill-rule="evenodd" d="M10 0L10 2L11 2L11 0ZM12 0L12 1L13 1L13 2L12 2L12 4L13 4L13 3L14 3L14 4L17 4L17 5L15 5L15 6L14 6L14 8L15 8L15 9L12 9L12 7L13 7L13 5L11 5L11 6L10 6L10 4L11 4L11 3L8 3L8 4L9 4L9 5L8 5L8 7L9 7L9 8L6 8L6 9L8 9L8 10L9 10L9 9L10 9L10 11L11 11L11 9L12 9L12 10L13 10L13 11L12 11L12 13L13 13L13 12L14 12L14 13L19 13L19 14L20 14L20 16L17 16L17 17L16 17L16 15L18 15L18 14L15 14L15 15L14 15L14 16L15 16L15 17L12 17L12 15L13 15L13 14L11 14L11 15L10 15L10 14L9 14L9 13L11 13L11 12L9 12L9 13L7 13L7 12L8 12L8 11L7 11L7 10L6 10L6 11L5 11L5 13L3 13L3 11L4 11L4 10L5 10L5 8L0 8L0 10L1 10L1 11L2 11L2 12L1 12L1 13L0 13L0 14L2 14L2 15L0 15L0 16L1 16L1 17L0 17L0 21L1 21L1 18L2 18L2 17L3 17L3 15L5 15L5 14L6 14L6 15L7 15L7 14L8 14L8 15L10 15L10 18L9 18L9 16L6 16L6 17L5 17L5 20L4 20L4 21L8 21L8 23L9 23L9 21L11 21L11 17L12 17L12 18L13 18L13 19L12 19L12 21L13 21L13 20L14 20L14 21L18 21L18 22L15 22L15 23L14 23L14 24L15 24L15 25L12 25L12 23L13 23L13 22L10 22L10 24L8 24L8 29L9 29L9 28L10 28L10 29L11 29L11 28L10 28L10 27L11 27L11 25L12 25L12 26L13 26L13 27L12 27L12 29L13 29L13 28L14 28L14 29L16 29L16 27L17 27L17 25L19 25L19 24L17 24L17 25L16 25L16 24L15 24L15 23L20 23L20 25L23 25L23 26L21 26L21 27L18 27L18 28L17 28L17 29L18 29L18 28L21 28L21 29L22 29L22 28L21 28L21 27L23 27L23 29L24 29L24 28L25 28L25 26L26 26L26 25L27 25L27 28L26 28L26 29L27 29L27 28L28 28L28 26L29 26L29 25L27 25L27 24L28 24L28 23L27 23L27 24L25 24L25 21L26 21L26 22L29 22L29 21L27 21L27 20L22 20L22 19L21 19L21 18L20 18L20 16L21 16L21 17L22 17L22 18L23 18L23 19L25 19L25 18L26 18L26 19L28 19L28 18L29 18L29 17L28 17L28 18L26 18L26 17L27 17L27 16L25 16L25 14L26 14L26 15L27 15L27 14L29 14L29 13L28 13L28 12L25 12L25 11L28 11L28 10L29 10L29 9L28 9L28 8L27 8L27 9L28 9L28 10L25 10L25 9L26 9L26 8L25 8L25 9L24 9L24 8L23 8L23 9L22 9L22 8L21 8L21 6L20 6L20 7L19 7L19 6L18 6L18 7L19 7L19 8L17 8L17 9L16 9L16 7L17 7L17 5L21 5L21 4L19 4L19 3L20 3L20 2L19 2L19 1L20 1L20 0L19 0L19 1L17 1L17 2L18 2L18 3L14 3L14 2L16 2L16 0L15 0L15 1L14 1L14 0ZM8 1L8 2L9 2L9 1ZM9 6L9 7L10 7L10 6ZM11 6L11 7L12 7L12 6ZM15 6L15 7L16 7L16 6ZM10 8L10 9L11 9L11 8ZM19 8L19 9L17 9L17 10L18 10L18 11L17 11L17 12L18 12L18 11L19 11L19 12L21 12L21 11L20 11L20 10L22 10L22 11L24 11L24 9L23 9L23 10L22 10L22 9L20 9L20 8ZM1 9L1 10L2 10L2 9ZM3 9L3 10L4 10L4 9ZM15 9L15 10L16 10L16 9ZM19 9L19 10L20 10L20 9ZM6 11L6 12L7 12L7 11ZM14 11L14 12L16 12L16 11ZM22 12L22 13L25 13L25 12ZM2 13L2 14L3 14L3 13ZM6 13L6 14L7 14L7 13ZM20 13L20 14L21 14L21 16L22 16L22 17L25 17L25 16L24 16L24 15L22 15L22 14L21 14L21 13ZM26 13L26 14L27 14L27 13ZM28 15L28 16L29 16L29 15ZM6 17L6 18L8 18L8 17ZM15 17L15 18L16 18L16 19L14 19L14 20L16 20L16 19L17 19L17 20L18 20L18 21L20 21L20 20L18 20L18 18L19 18L19 19L20 19L20 18L19 18L19 17L17 17L17 18L16 18L16 17ZM2 19L2 21L3 21L3 19ZM6 19L6 20L10 20L10 19ZM21 21L21 24L24 24L24 21ZM22 22L22 23L23 23L23 22ZM10 24L10 25L11 25L11 24ZM15 25L15 26L16 26L16 25ZM24 25L24 26L23 26L23 27L24 27L24 26L25 26L25 25ZM9 26L9 27L10 27L10 26ZM14 27L14 28L15 28L15 27ZM0 0L0 7L7 7L7 0ZM1 1L1 6L6 6L6 1ZM2 2L2 5L5 5L5 2ZM22 0L22 7L29 7L29 0ZM23 1L23 6L28 6L28 1ZM24 2L24 5L27 5L27 2ZM0 22L0 29L7 29L7 22ZM1 23L1 28L6 28L6 23ZM2 24L2 27L5 27L5 24Z" fill="#000000"/></g></g></svg>
