<?xml version="1.0" encoding="UTF-8"?>
<svg xmlns="http://www.w3.org/2000/svg" version="1.1" width="100" height="100" viewBox="0 0 100 100"><rect x="0" y="0" width="100" height="100" fill="#ffffff"/><g transform="scale(3.448)"><g transform="translate(0,0)"><path fill-rule="evenodd" d="M10 0L10 2L11 2L11 0ZM12 0L12 1L13 1L13 2L12 2L12 4L13 4L13 3L14 3L14 4L17 4L17 5L15 5L15 6L14 6L14 8L15 8L15 9L12 9L12 7L13 7L13 5L11 5L11 6L10 6L10 4L11 4L11 3L8 3L8 4L9 4L9 5L8 5L8 7L9 7L9 8L6 8L6 9L7 9L7 10L6 10L6 11L5 11L5 10L4 10L4 9L5 9L5 8L0 8L0 10L1 10L1 9L2 9L2 11L1 11L1 12L0 12L0 14L1 14L1 13L2 13L2 11L3 11L3 10L4 10L4 12L3 12L3 14L2 14L2 15L4 15L4 13L7 13L7 14L6 14L6 15L5 15L5 16L6 16L6 17L7 17L7 18L6 18L6 19L4 19L4 18L5 18L5 17L4 17L4 16L2 16L2 19L3 19L3 20L5 20L5 21L7 21L7 20L9 20L9 19L7 19L7 18L10 18L10 19L11 19L11 18L10 18L10 17L12 17L12 18L13 18L13 19L12 19L12 21L13 21L13 20L14 20L14 21L16 21L16 22L15 22L15 23L14 23L14 24L16 24L16 25L18 25L18 26L15 26L15 25L12 25L12 23L13 23L13 22L10 22L10 21L11 21L11 20L10 20L10 21L8 21L8 23L9 23L9 24L8 24L8 29L9 29L9 28L10 28L10 27L11 27L11 25L12 25L12 26L13 26L13 27L12 27L12 29L13 29L13 28L14 28L14 29L20 29L20 28L22 28L22 29L24 29L24 28L25 28L25 26L26 26L26 27L27 27L27 28L26 28L26 29L27 29L27 28L28 28L28 26L29 26L29 25L27 25L27 24L28 24L28 22L29 22L29 20L28 20L28 18L29 18L29 17L28 17L28 16L26 16L26 15L28 15L28 14L29 14L29 13L28 13L28 12L29 12L29 11L28 11L28 10L29 10L29 9L28 9L28 8L27 8L27 9L26 9L26 8L25 8L25 9L24 9L24 8L23 8L23 9L22 9L22 8L20 8L20 9L18 9L18 8L17 8L17 5L20 5L20 7L21 7L21 4L19 4L19 3L21 3L21 2L18 2L18 1L21 1L21 0L18 0L18 1L17 1L17 2L18 2L18 3L14 3L14 2L16 2L16 0L15 0L15 1L14 1L14 0ZM8 1L8 2L9 2L9 1ZM9 6L9 7L10 7L10 6ZM11 6L11 7L12 7L12 6ZM15 6L15 8L16 8L16 6ZM18 6L18 7L19 7L19 6ZM10 8L10 9L9 9L9 12L8 12L8 13L9 13L9 12L11 12L11 13L10 13L10 14L7 14L7 15L6 15L6 16L7 16L7 17L8 17L8 16L9 16L9 17L10 17L10 16L11 16L11 14L13 14L13 15L12 15L12 17L15 17L15 18L16 18L16 19L14 19L14 20L16 20L16 21L17 21L17 22L16 22L16 24L18 24L18 25L20 25L20 26L19 26L19 27L16 27L16 28L20 28L20 27L21 27L21 26L23 26L23 27L22 27L22 28L23 28L23 27L24 27L24 26L25 26L25 25L26 25L26 26L27 26L27 25L26 25L26 24L27 24L27 22L28 22L28 21L26 21L26 24L25 24L25 25L24 25L24 26L23 26L23 25L20 25L20 24L19 24L19 22L20 22L20 19L22 19L22 20L24 20L24 17L25 17L25 20L27 20L27 19L26 19L26 18L28 18L28 17L26 17L26 16L24 16L24 17L23 17L23 15L25 15L25 14L28 14L28 13L26 13L26 12L28 12L28 11L27 11L27 10L28 10L28 9L27 9L27 10L26 10L26 9L25 9L25 11L23 11L23 10L24 10L24 9L23 9L23 10L22 10L22 9L20 9L20 10L19 10L19 11L20 11L20 12L18 12L18 11L16 11L16 13L14 13L14 12L15 12L15 11L14 11L14 12L13 12L13 13L12 13L12 11L13 11L13 10L12 10L12 9L11 9L11 8ZM10 9L10 11L11 11L11 9ZM15 9L15 10L18 10L18 9ZM6 11L6 12L7 12L7 11ZM21 11L21 13L18 13L18 12L17 12L17 13L16 13L16 14L15 14L15 15L14 15L14 16L15 16L15 17L19 17L19 18L18 18L18 20L17 20L17 21L18 21L18 22L19 22L19 21L18 21L18 20L19 20L19 18L20 18L20 16L21 16L21 17L22 17L22 18L23 18L23 17L22 17L22 16L21 16L21 14L22 14L22 15L23 15L23 13L24 13L24 14L25 14L25 13L24 13L24 12L23 12L23 13L22 13L22 11ZM25 11L25 12L26 12L26 11ZM17 13L17 14L16 14L16 15L15 15L15 16L16 16L16 15L17 15L17 16L18 16L18 15L19 15L19 16L20 16L20 14L18 14L18 13ZM17 14L17 15L18 15L18 14ZM9 15L9 16L10 16L10 15ZM0 17L0 21L1 21L1 17ZM3 17L3 18L4 18L4 17ZM6 19L6 20L7 20L7 19ZM21 21L21 24L24 24L24 21ZM9 22L9 23L10 23L10 22ZM22 22L22 23L23 23L23 22ZM9 24L9 25L10 25L10 24ZM9 26L9 27L10 27L10 26ZM14 27L14 28L15 28L15 27ZM0 0L0 7L7 7L7 0ZM1 1L1 6L6 6L6 1ZM2 2L2 5L5 5L5 2ZM22 0L22 7L29 7L29 0ZM23 1L23 6L28 6L28 1ZM24 2L24 5L27 5L27 2ZM0 22L0 29L7 29L7 22ZM1 23L1 28L6 28L6 23ZM2 24L2 27L5 27L5 24Z" fill="#000000"/></g></g></svg>
