<?xml version="1.0" encoding="UTF-8"?>
<svg xmlns="http://www.w3.org/2000/svg" version="1.1" width="100" height="100" viewBox="0 0 100 100"><rect x="0" y="0" width="100" height="100" fill="#ffffff"/><g transform="scale(3.448)"><g transform="translate(0,0)"><path fill-rule="evenodd" d="M8 0L8 1L9 1L9 2L8 2L8 5L9 5L9 4L11 4L11 5L10 5L10 10L8 10L8 9L9 9L9 8L8 8L8 9L7 9L7 8L6 8L6 9L4 9L4 8L0 8L0 10L2 10L2 11L0 11L0 16L1 16L1 15L2 15L2 17L1 17L1 18L0 18L0 19L1 19L1 18L2 18L2 17L3 17L3 18L4 18L4 19L3 19L3 20L1 20L1 21L4 21L4 19L5 19L5 18L6 18L6 19L7 19L7 20L6 20L6 21L7 21L7 20L8 20L8 22L9 22L9 23L10 23L10 21L11 21L11 20L12 20L12 19L11 19L11 17L10 17L10 15L11 15L11 16L12 16L12 17L13 17L13 16L12 16L12 14L13 14L13 15L14 15L14 18L13 18L13 21L15 21L15 19L16 19L16 22L17 22L17 21L18 21L18 20L19 20L19 22L18 22L18 23L19 23L19 24L17 24L17 23L16 23L16 24L15 24L15 22L14 22L14 23L11 23L11 26L12 26L12 28L11 28L11 27L9 27L9 25L10 25L10 24L9 24L9 25L8 25L8 29L9 29L9 28L11 28L11 29L12 29L12 28L14 28L14 27L15 27L15 26L16 26L16 28L17 28L17 26L21 26L21 27L20 27L20 28L19 28L19 27L18 27L18 29L23 29L23 28L24 28L24 29L25 29L25 27L24 27L24 26L25 26L25 25L26 25L26 27L27 27L27 29L28 29L28 27L29 27L29 25L28 25L28 27L27 27L27 24L26 24L26 23L27 23L27 22L25 22L25 20L24 20L24 18L23 18L23 20L21 20L21 18L22 18L22 17L21 17L21 15L22 15L22 14L24 14L24 15L23 15L23 16L24 16L24 17L25 17L25 18L26 18L26 21L28 21L28 22L29 22L29 20L27 20L27 18L26 18L26 17L25 17L25 16L26 16L26 14L24 14L24 12L23 12L23 13L22 13L22 12L20 12L20 11L21 11L21 9L22 9L22 10L23 10L23 9L22 9L22 8L21 8L21 9L20 9L20 8L19 8L19 6L20 6L20 7L21 7L21 6L20 6L20 5L21 5L21 3L20 3L20 2L19 2L19 3L14 3L14 5L13 5L13 3L12 3L12 4L11 4L11 2L14 2L14 0L12 0L12 1L11 1L11 0L10 0L10 1L9 1L9 0ZM15 0L15 1L16 1L16 2L17 2L17 1L16 1L16 0ZM18 0L18 1L21 1L21 0ZM19 3L19 4L16 4L16 5L14 5L14 6L13 6L13 5L12 5L12 6L11 6L11 8L12 8L12 6L13 6L13 8L14 8L14 9L15 9L15 10L14 10L14 11L11 11L11 13L10 13L10 14L11 14L11 13L12 13L12 12L13 12L13 14L14 14L14 15L16 15L16 14L14 14L14 12L16 12L16 13L17 13L17 12L19 12L19 11L20 11L20 10L19 10L19 8L18 8L18 9L17 9L17 8L16 8L16 5L17 5L17 7L18 7L18 5L19 5L19 4L20 4L20 3ZM8 6L8 7L9 7L9 6ZM14 6L14 7L15 7L15 6ZM24 8L24 11L25 11L25 13L27 13L27 12L26 12L26 11L27 11L27 10L26 10L26 9L27 9L27 8ZM28 8L28 10L29 10L29 8ZM2 9L2 10L3 10L3 11L2 11L2 12L1 12L1 13L3 13L3 14L2 14L2 15L3 15L3 16L4 16L4 17L6 17L6 18L8 18L8 20L9 20L9 21L10 21L10 19L9 19L9 18L10 18L10 17L9 17L9 16L8 16L8 15L9 15L9 13L8 13L8 15L6 15L6 14L7 14L7 13L6 13L6 12L7 12L7 11L4 11L4 9ZM6 9L6 10L7 10L7 9ZM11 9L11 10L12 10L12 9ZM16 10L16 11L18 11L18 10ZM25 10L25 11L26 11L26 10ZM3 11L3 13L4 13L4 11ZM8 11L8 12L9 12L9 11ZM28 11L28 12L29 12L29 11ZM5 13L5 14L6 14L6 13ZM21 13L21 14L22 14L22 13ZM28 13L28 14L27 14L27 17L28 17L28 16L29 16L29 13ZM17 14L17 16L15 16L15 17L16 17L16 18L17 18L17 19L20 19L20 18L21 18L21 17L19 17L19 16L20 16L20 15L18 15L18 14ZM4 15L4 16L5 16L5 15ZM6 16L6 17L8 17L8 16ZM18 17L18 18L19 18L19 17ZM21 21L21 24L24 24L24 21ZM22 22L22 23L23 23L23 22ZM28 23L28 24L29 24L29 23ZM12 24L12 26L13 26L13 27L14 27L14 26L15 26L15 24ZM19 24L19 25L20 25L20 24ZM13 25L13 26L14 26L14 25ZM16 25L16 26L17 26L17 25ZM21 25L21 26L22 26L22 27L21 27L21 28L23 28L23 25ZM0 0L0 7L7 7L7 0ZM1 1L1 6L6 6L6 1ZM2 2L2 5L5 5L5 2ZM22 0L22 7L29 7L29 0ZM23 1L23 6L28 6L28 1ZM24 2L24 5L27 5L27 2ZM0 22L0 29L7 29L7 22ZM1 23L1 28L6 28L6 23ZM2 24L2 27L5 27L5 24Z" fill="#000000"/></g></g></svg>
