<?xml version="1.0" encoding="UTF-8"?>
<svg xmlns="http://www.w3.org/2000/svg" version="1.1" width="100" height="100" viewBox="0 0 100 100"><rect x="0" y="0" width="100" height="100" fill="#ffffff"/><g transform="scale(3.448)"><g transform="translate(0,0)"><path fill-rule="evenodd" d="M10 0L10 2L11 2L11 0ZM12 0L12 1L13 1L13 2L12 2L12 4L13 4L13 3L14 3L14 4L16 4L16 5L15 5L15 6L14 6L14 8L15 8L15 9L12 9L12 7L13 7L13 5L11 5L11 6L10 6L10 4L11 4L11 3L8 3L8 4L9 4L9 5L8 5L8 7L9 7L9 8L6 8L6 9L10 9L10 11L11 11L11 9L12 9L12 10L13 10L13 11L12 11L12 13L13 13L13 12L14 12L14 13L17 13L17 14L18 14L18 15L19 15L19 14L20 14L20 16L17 16L17 15L16 15L16 14L15 14L15 15L14 15L14 16L15 16L15 17L12 17L12 15L13 15L13 14L10 14L10 13L11 13L11 12L8 12L8 10L6 10L6 11L7 11L7 12L5 12L5 13L2 13L2 12L3 12L3 11L5 11L5 8L0 8L0 10L1 10L1 9L2 9L2 11L1 11L1 13L0 13L0 14L1 14L1 13L2 13L2 14L4 14L4 15L5 15L5 16L4 16L4 17L3 17L3 15L2 15L2 17L0 17L0 21L1 21L1 18L2 18L2 20L3 20L3 21L4 21L4 20L5 20L5 21L8 21L8 23L9 23L9 24L8 24L8 29L9 29L9 28L10 28L10 29L11 29L11 28L10 28L10 26L11 26L11 25L12 25L12 26L13 26L13 27L12 27L12 29L13 29L13 28L14 28L14 29L20 29L20 28L22 28L22 29L24 29L24 28L25 28L25 26L26 26L26 25L27 25L27 28L26 28L26 29L27 29L27 28L28 28L28 26L29 26L29 25L27 25L27 24L28 24L28 23L27 23L27 24L25 24L25 21L26 21L26 22L29 22L29 21L28 21L28 20L25 20L25 19L27 19L27 18L29 18L29 17L27 17L27 16L26 16L26 15L27 15L27 14L29 14L29 13L27 13L27 12L26 12L26 11L28 11L28 10L29 10L29 9L28 9L28 8L27 8L27 9L28 9L28 10L26 10L26 8L25 8L25 9L24 9L24 8L23 8L23 9L22 9L22 8L21 8L21 6L20 6L20 7L19 7L19 6L18 6L18 7L19 7L19 8L20 8L20 9L18 9L18 8L15 8L15 6L16 6L16 7L17 7L17 5L21 5L21 4L19 4L19 3L21 3L21 2L18 2L18 3L17 3L17 1L16 1L16 0L15 0L15 1L14 1L14 0ZM18 0L18 1L21 1L21 0ZM8 1L8 2L9 2L9 1ZM14 2L14 3L15 3L15 2ZM16 3L16 4L17 4L17 3ZM9 6L9 7L10 7L10 6ZM11 6L11 7L12 7L12 6ZM10 8L10 9L11 9L11 8ZM15 9L15 10L18 10L18 9ZM20 9L20 10L19 10L19 13L18 13L18 14L19 14L19 13L21 13L21 11L20 11L20 10L22 10L22 13L25 13L25 14L24 14L24 15L22 15L22 14L21 14L21 16L20 16L20 18L19 18L19 17L15 17L15 18L17 18L17 20L18 20L18 21L14 21L14 20L15 20L15 19L14 19L14 20L13 20L13 21L12 21L12 19L13 19L13 18L12 18L12 17L10 17L10 16L11 16L11 15L10 15L10 14L9 14L9 13L8 13L8 12L7 12L7 13L6 13L6 14L7 14L7 13L8 13L8 15L9 15L9 17L10 17L10 18L11 18L11 19L10 19L10 20L9 20L9 18L7 18L7 17L8 17L8 16L7 16L7 15L6 15L6 16L7 16L7 17L6 17L6 18L5 18L5 17L4 17L4 18L3 18L3 19L4 19L4 18L5 18L5 20L8 20L8 21L10 21L10 22L9 22L9 23L10 23L10 24L11 24L11 23L10 23L10 22L13 22L13 23L12 23L12 25L15 25L15 26L17 26L17 28L20 28L20 27L22 27L22 28L23 28L23 27L24 27L24 26L25 26L25 25L24 25L24 26L23 26L23 25L22 25L22 26L19 26L19 25L20 25L20 24L19 24L19 25L18 25L18 26L17 26L17 25L15 25L15 24L14 24L14 23L15 23L15 22L16 22L16 24L18 24L18 23L19 23L19 22L20 22L20 19L22 19L22 20L24 20L24 17L25 17L25 18L27 18L27 17L26 17L26 16L24 16L24 15L26 15L26 14L27 14L27 13L26 13L26 12L23 12L23 11L26 11L26 10L24 10L24 9L23 9L23 10L22 10L22 9ZM14 11L14 12L18 12L18 11ZM0 15L0 16L1 16L1 15ZM21 16L21 17L22 17L22 18L23 18L23 17L24 17L24 16L23 16L23 17L22 17L22 16ZM6 18L6 19L7 19L7 18ZM10 20L10 21L11 21L11 20ZM18 21L18 22L17 22L17 23L18 23L18 22L19 22L19 21ZM21 21L21 24L24 24L24 21ZM22 22L22 23L23 23L23 22ZM18 26L18 27L19 27L19 26ZM22 26L22 27L23 27L23 26ZM14 27L14 28L15 28L15 27ZM0 0L0 7L7 7L7 0ZM1 1L1 6L6 6L6 1ZM2 2L2 5L5 5L5 2ZM22 0L22 7L29 7L29 0ZM23 1L23 6L28 6L28 1ZM24 2L24 5L27 5L27 2ZM0 22L0 29L7 29L7 22ZM1 23L1 28L6 28L6 23ZM2 24L2 27L5 27L5 24Z" fill="#000000"/></g></g></svg>
