<?xml version="1.0" encoding="UTF-8"?>
<svg xmlns="http://www.w3.org/2000/svg" version="1.1" width="100" height="100" viewBox="0 0 100 100"><rect x="0" y="0" width="100" height="100" fill="#ffffff"/><g transform="scale(3.448)"><g transform="translate(0,0)"><path fill-rule="evenodd" d="M8 0L8 1L9 1L9 2L8 2L8 5L9 5L9 4L11 4L11 5L10 5L10 10L9 10L9 8L8 8L8 9L7 9L7 8L6 8L6 9L4 9L4 8L0 8L0 9L1 9L1 10L0 10L0 12L1 12L1 10L2 10L2 11L3 11L3 13L2 13L2 14L3 14L3 13L4 13L4 12L5 12L5 11L4 11L4 10L6 10L6 11L7 11L7 12L6 12L6 13L8 13L8 12L9 12L9 15L8 15L8 17L7 17L7 16L6 16L6 15L7 15L7 14L4 14L4 15L5 15L5 17L4 17L4 16L2 16L2 15L1 15L1 13L0 13L0 15L1 15L1 16L2 16L2 17L1 17L1 18L0 18L0 19L1 19L1 18L3 18L3 19L5 19L5 20L6 20L6 21L7 21L7 20L9 20L9 21L8 21L8 22L9 22L9 23L10 23L10 24L9 24L9 25L8 25L8 29L10 29L10 28L11 28L11 29L12 29L12 28L14 28L14 27L15 27L15 26L16 26L16 28L17 28L17 27L18 27L18 26L19 26L19 28L18 28L18 29L19 29L19 28L20 28L20 29L21 29L21 28L22 28L22 29L23 29L23 28L24 28L24 29L25 29L25 27L27 27L27 29L28 29L28 27L29 27L29 25L28 25L28 27L27 27L27 24L26 24L26 26L25 26L25 23L26 23L26 22L25 22L25 20L20 20L20 19L19 19L19 17L21 17L21 18L22 18L22 17L21 17L21 15L22 15L22 14L24 14L24 15L23 15L23 18L24 18L24 19L25 19L25 18L27 18L27 19L26 19L26 21L27 21L27 19L28 19L28 16L29 16L29 13L27 13L27 12L29 12L29 11L27 11L27 10L26 10L26 9L27 9L27 8L24 8L24 9L22 9L22 8L21 8L21 6L20 6L20 5L21 5L21 3L20 3L20 2L19 2L19 1L21 1L21 0L18 0L18 1L16 1L16 0L15 0L15 1L16 1L16 2L15 2L15 3L14 3L14 5L13 5L13 3L12 3L12 4L11 4L11 2L14 2L14 0L12 0L12 1L11 1L11 0L10 0L10 1L9 1L9 0ZM17 2L17 3L16 3L16 4L17 4L17 5L14 5L14 6L13 6L13 5L12 5L12 6L11 6L11 8L12 8L12 6L13 6L13 8L14 8L14 9L15 9L15 10L14 10L14 11L11 11L11 13L10 13L10 15L9 15L9 17L10 17L10 18L8 18L8 19L9 19L9 20L10 20L10 23L14 23L14 22L15 22L15 24L12 24L12 26L11 26L11 25L10 25L10 27L11 27L11 28L12 28L12 26L13 26L13 27L14 27L14 26L15 26L15 25L16 25L16 26L17 26L17 25L16 25L16 22L18 22L18 21L17 21L17 19L15 19L15 21L13 21L13 18L14 18L14 15L16 15L16 16L15 16L15 17L16 17L16 18L18 18L18 17L19 17L19 16L20 16L20 15L19 15L19 16L18 16L18 14L19 14L19 11L20 11L20 12L22 12L22 13L21 13L21 14L22 14L22 13L23 13L23 12L24 12L24 14L25 14L25 16L26 16L26 17L27 17L27 15L28 15L28 14L25 14L25 13L26 13L26 12L27 12L27 11L26 11L26 10L25 10L25 11L24 11L24 10L21 10L21 9L20 9L20 10L19 10L19 8L20 8L20 6L19 6L19 8L18 8L18 9L17 9L17 8L15 8L15 7L16 7L16 6L17 6L17 7L18 7L18 5L19 5L19 4L20 4L20 3L19 3L19 4L17 4L17 3L18 3L18 2ZM8 6L8 7L9 7L9 6ZM14 6L14 7L15 7L15 6ZM28 8L28 10L29 10L29 8ZM3 9L3 10L4 10L4 9ZM6 9L6 10L7 10L7 11L9 11L9 10L7 10L7 9ZM11 9L11 10L12 10L12 9ZM17 10L17 11L19 11L19 10ZM15 11L15 12L14 12L14 14L13 14L13 12L12 12L12 13L11 13L11 15L10 15L10 17L11 17L11 16L12 16L12 17L13 17L13 16L12 16L12 14L13 14L13 15L14 15L14 14L18 14L18 12L17 12L17 13L16 13L16 11ZM5 17L5 18L7 18L7 17ZM24 17L24 18L25 18L25 17ZM6 19L6 20L7 20L7 19ZM11 19L11 20L12 20L12 19ZM1 20L1 21L2 21L2 20ZM28 20L28 22L29 22L29 20ZM19 21L19 22L20 22L20 21ZM21 21L21 24L24 24L24 21ZM22 22L22 23L23 23L23 22ZM17 23L17 24L18 24L18 23ZM19 23L19 26L20 26L20 27L22 27L22 28L23 28L23 27L25 27L25 26L24 26L24 25L22 25L22 26L20 26L20 23ZM28 23L28 24L29 24L29 23ZM13 25L13 26L14 26L14 25ZM0 0L0 7L7 7L7 0ZM1 1L1 6L6 6L6 1ZM2 2L2 5L5 5L5 2ZM22 0L22 7L29 7L29 0ZM23 1L23 6L28 6L28 1ZM24 2L24 5L27 5L27 2ZM0 22L0 29L7 29L7 22ZM1 23L1 28L6 28L6 23ZM2 24L2 27L5 27L5 24Z" fill="#000000"/></g></g></svg>
