<?xml version="1.0" encoding="UTF-8"?>
<svg xmlns="http://www.w3.org/2000/svg" version="1.1" width="100" height="100" viewBox="0 0 100 100"><rect x="0" y="0" width="100" height="100" fill="#ffffff"/><g transform="scale(3.448)"><g transform="translate(0,0)"><path fill-rule="evenodd" d="M10 0L10 2L11 2L11 0ZM12 0L12 1L13 1L13 2L12 2L12 4L13 4L13 3L14 3L14 4L16 4L16 5L15 5L15 6L14 6L14 8L15 8L15 9L12 9L12 7L13 7L13 5L11 5L11 6L10 6L10 4L11 4L11 3L8 3L8 4L9 4L9 5L8 5L8 7L9 7L9 8L6 8L6 9L5 9L5 8L0 8L0 9L1 9L1 10L2 10L2 9L4 9L4 10L5 10L5 12L4 12L4 13L3 13L3 12L0 12L0 13L3 13L3 14L2 14L2 16L1 16L1 14L0 14L0 21L1 21L1 17L3 17L3 18L2 18L2 21L7 21L7 20L8 20L8 19L7 19L7 18L8 18L8 17L7 17L7 16L9 16L9 18L11 18L11 17L12 17L12 18L13 18L13 19L12 19L12 21L13 21L13 20L14 20L14 21L16 21L16 22L15 22L15 23L14 23L14 24L15 24L15 25L12 25L12 23L13 23L13 22L11 22L11 21L8 21L8 23L10 23L10 24L11 24L11 25L12 25L12 26L13 26L13 27L12 27L12 29L13 29L13 28L14 28L14 29L16 29L16 28L14 28L14 27L16 27L16 26L15 26L15 25L19 25L19 24L20 24L20 26L18 26L18 28L17 28L17 29L18 29L18 28L23 28L23 29L24 29L24 28L25 28L25 26L24 26L24 25L27 25L27 28L26 28L26 29L27 29L27 28L28 28L28 26L29 26L29 25L27 25L27 24L28 24L28 22L29 22L29 21L28 21L28 20L29 20L29 19L27 19L27 18L29 18L29 17L27 17L27 16L28 16L28 14L29 14L29 12L26 12L26 11L28 11L28 10L29 10L29 9L28 9L28 8L27 8L27 9L28 9L28 10L26 10L26 8L25 8L25 9L24 9L24 8L23 8L23 9L22 9L22 8L20 8L20 9L19 9L19 8L16 8L16 7L17 7L17 5L20 5L20 4L21 4L21 3L20 3L20 4L19 4L19 1L20 1L20 0L19 0L19 1L16 1L16 0L15 0L15 1L14 1L14 0ZM8 1L8 2L9 2L9 1ZM14 2L14 3L15 3L15 2ZM16 2L16 4L17 4L17 3L18 3L18 2ZM9 6L9 7L10 7L10 6ZM11 6L11 7L12 7L12 6ZM15 6L15 7L16 7L16 6ZM18 6L18 7L19 7L19 6ZM20 6L20 7L21 7L21 6ZM10 8L10 9L9 9L9 11L8 11L8 12L7 12L7 11L6 11L6 12L7 12L7 13L6 13L6 14L7 14L7 15L5 15L5 13L4 13L4 15L3 15L3 17L5 17L5 18L4 18L4 19L3 19L3 20L5 20L5 18L7 18L7 17L5 17L5 16L7 16L7 15L8 15L8 14L9 14L9 13L8 13L8 12L11 12L11 13L10 13L10 14L13 14L13 15L12 15L12 17L15 17L15 18L17 18L17 20L16 20L16 21L17 21L17 24L19 24L19 23L18 23L18 21L19 21L19 22L20 22L20 19L22 19L22 20L27 20L27 19L26 19L26 18L27 18L27 17L26 17L26 18L25 18L25 19L24 19L24 17L25 17L25 16L27 16L27 15L26 15L26 14L28 14L28 13L26 13L26 12L24 12L24 11L25 11L25 10L24 10L24 9L23 9L23 10L22 10L22 9L20 9L20 10L19 10L19 9L15 9L15 10L16 10L16 11L14 11L14 12L13 12L13 13L12 13L12 11L13 11L13 10L12 10L12 9L11 9L11 8ZM6 9L6 10L7 10L7 9ZM10 9L10 11L11 11L11 9ZM18 10L18 12L14 12L14 13L18 13L18 14L15 14L15 15L14 15L14 16L15 16L15 17L17 17L17 18L18 18L18 19L19 19L19 18L20 18L20 16L21 16L21 17L22 17L22 18L23 18L23 17L24 17L24 16L25 16L25 15L24 15L24 14L25 14L25 13L22 13L22 12L23 12L23 11L24 11L24 10L23 10L23 11L22 11L22 12L21 12L21 13L18 13L18 12L20 12L20 11L19 11L19 10ZM18 14L18 15L15 15L15 16L18 16L18 15L19 15L19 16L20 16L20 14ZM21 14L21 16L22 16L22 17L23 17L23 16L24 16L24 15L22 15L22 14ZM10 15L10 16L11 16L11 15ZM18 17L18 18L19 18L19 17ZM6 19L6 20L7 20L7 19ZM9 19L9 20L11 20L11 19ZM14 19L14 20L15 20L15 19ZM17 20L17 21L18 21L18 20ZM21 21L21 24L24 24L24 21ZM25 21L25 24L27 24L27 23L26 23L26 22L28 22L28 21ZM10 22L10 23L11 23L11 22ZM22 22L22 23L23 23L23 22ZM15 23L15 24L16 24L16 23ZM8 24L8 29L9 29L9 28L10 28L10 29L11 29L11 28L10 28L10 27L11 27L11 26L10 26L10 25L9 25L9 24ZM22 25L22 26L20 26L20 27L22 27L22 26L23 26L23 27L24 27L24 26L23 26L23 25ZM0 0L0 7L7 7L7 0ZM1 1L1 6L6 6L6 1ZM2 2L2 5L5 5L5 2ZM22 0L22 7L29 7L29 0ZM23 1L23 6L28 6L28 1ZM24 2L24 5L27 5L27 2ZM0 22L0 29L7 29L7 22ZM1 23L1 28L6 28L6 23ZM2 24L2 27L5 27L5 24Z" fill="#000000"/></g></g></svg>
