<?xml version="1.0" encoding="UTF-8"?>
<svg xmlns="http://www.w3.org/2000/svg" version="1.1" width="100" height="100" viewBox="0 0 100 100"><rect x="0" y="0" width="100" height="100" fill="#ffffff"/><g transform="scale(3.448)"><g transform="translate(0,0)"><path fill-rule="evenodd" d="M10 0L10 2L11 2L11 0ZM12 0L12 1L13 1L13 2L12 2L12 4L13 4L13 3L14 3L14 4L17 4L17 5L20 5L20 7L19 7L19 6L18 6L18 7L19 7L19 8L17 8L17 6L16 6L16 5L15 5L15 6L14 6L14 8L15 8L15 9L12 9L12 7L13 7L13 5L11 5L11 6L10 6L10 4L11 4L11 3L8 3L8 4L9 4L9 5L8 5L8 7L9 7L9 8L6 8L6 9L10 9L10 11L11 11L11 9L12 9L12 10L13 10L13 11L12 11L12 13L13 13L13 12L14 12L14 13L15 13L15 12L16 12L16 13L19 13L19 14L20 14L20 16L17 16L17 15L18 15L18 14L15 14L15 15L14 15L14 16L15 16L15 17L12 17L12 15L13 15L13 14L10 14L10 13L11 13L11 12L9 12L9 10L8 10L8 11L7 11L7 10L6 10L6 11L7 11L7 12L5 12L5 8L0 8L0 11L1 11L1 13L0 13L0 14L1 14L1 13L2 13L2 14L3 14L3 15L2 15L2 16L1 16L1 15L0 15L0 16L1 16L1 17L0 17L0 21L1 21L1 17L4 17L4 16L5 16L5 18L4 18L4 20L3 20L3 18L2 18L2 21L4 21L4 20L5 20L5 21L7 21L7 20L6 20L6 19L7 19L7 18L10 18L10 19L11 19L11 18L10 18L10 17L12 17L12 18L13 18L13 19L12 19L12 21L13 21L13 20L14 20L14 21L18 21L18 22L15 22L15 23L14 23L14 24L15 24L15 25L12 25L12 23L13 23L13 22L11 22L11 23L10 23L10 24L11 24L11 25L12 25L12 26L13 26L13 27L12 27L12 29L13 29L13 28L14 28L14 29L19 29L19 28L21 28L21 29L22 29L22 27L23 27L23 29L24 29L24 28L25 28L25 27L26 27L26 26L24 26L24 25L25 25L25 24L26 24L26 25L27 25L27 28L26 28L26 29L27 29L27 28L28 28L28 26L29 26L29 25L27 25L27 24L28 24L28 23L27 23L27 22L29 22L29 21L28 21L28 20L22 20L22 19L21 19L21 20L20 20L20 19L19 19L19 18L20 18L20 16L21 16L21 17L22 17L22 18L24 18L24 19L25 19L25 17L28 17L28 18L27 18L27 19L28 19L28 18L29 18L29 16L28 16L28 14L29 14L29 13L28 13L28 14L26 14L26 13L27 13L27 12L29 12L29 11L27 11L27 12L25 12L25 11L26 11L26 10L25 10L25 9L26 9L26 8L25 8L25 9L24 9L24 8L23 8L23 9L22 9L22 8L21 8L21 5L20 5L20 4L21 4L21 2L20 2L20 4L19 4L19 3L16 3L16 2L17 2L17 1L18 1L18 2L19 2L19 1L20 1L20 0L19 0L19 1L18 1L18 0L17 0L17 1L16 1L16 0L15 0L15 1L14 1L14 0ZM8 1L8 2L9 2L9 1ZM14 2L14 3L15 3L15 2ZM9 6L9 7L10 7L10 6ZM11 6L11 7L12 7L12 6ZM15 6L15 7L16 7L16 6ZM10 8L10 9L11 9L11 8ZM19 8L19 9L15 9L15 10L16 10L16 12L18 12L18 11L19 11L19 13L21 13L21 12L22 12L22 13L23 13L23 15L22 15L22 14L21 14L21 16L22 16L22 17L25 17L25 16L27 16L27 15L25 15L25 16L23 16L23 15L24 15L24 13L25 13L25 12L24 12L24 13L23 13L23 12L22 12L22 11L24 11L24 9L23 9L23 10L22 10L22 9L20 9L20 8ZM27 8L27 10L29 10L29 9L28 9L28 8ZM2 9L2 10L3 10L3 11L2 11L2 12L4 12L4 13L3 13L3 14L4 14L4 13L5 13L5 12L4 12L4 9ZM19 9L19 10L20 10L20 11L22 11L22 10L20 10L20 9ZM17 10L17 11L18 11L18 10ZM14 11L14 12L15 12L15 11ZM6 13L6 14L5 14L5 15L6 15L6 16L7 16L7 15L6 15L6 14L9 14L9 13ZM3 15L3 16L4 16L4 15ZM8 15L8 17L10 17L10 16L11 16L11 15L10 15L10 16L9 16L9 15ZM6 17L6 18L7 18L7 17ZM15 17L15 18L17 18L17 19L14 19L14 20L18 20L18 21L20 21L20 20L19 20L19 19L18 19L18 18L19 18L19 17L18 17L18 18L17 18L17 17ZM8 20L8 23L9 23L9 22L10 22L10 20ZM21 21L21 24L24 24L24 21ZM25 21L25 23L26 23L26 24L27 24L27 23L26 23L26 22L27 22L27 21ZM22 22L22 23L23 23L23 22ZM15 23L15 24L16 24L16 23ZM17 23L17 24L18 24L18 25L15 25L15 26L16 26L16 27L14 27L14 28L16 28L16 27L17 27L17 28L19 28L19 27L22 27L22 26L23 26L23 27L24 27L24 26L23 26L23 25L22 25L22 26L19 26L19 27L17 27L17 26L18 26L18 25L20 25L20 23ZM8 24L8 29L9 29L9 28L11 28L11 27L9 27L9 24ZM0 0L0 7L7 7L7 0ZM1 1L1 6L6 6L6 1ZM2 2L2 5L5 5L5 2ZM22 0L22 7L29 7L29 0ZM23 1L23 6L28 6L28 1ZM24 2L24 5L27 5L27 2ZM0 22L0 29L7 29L7 22ZM1 23L1 28L6 28L6 23ZM2 24L2 27L5 27L5 24Z" fill="#000000"/></g></g></svg>
