<?xml version="1.0" encoding="UTF-8"?>
<svg xmlns="http://www.w3.org/2000/svg" version="1.1" width="100" height="100" viewBox="0 0 100 100"><rect x="0" y="0" width="100" height="100" fill="#ffffff"/><g transform="scale(3.448)"><g transform="translate(0,0)"><path fill-rule="evenodd" d="M10 0L10 2L11 2L11 0ZM12 0L12 1L13 1L13 2L12 2L12 4L13 4L13 3L14 3L14 4L17 4L17 5L20 5L20 7L21 7L21 5L20 5L20 4L21 4L21 3L20 3L20 2L19 2L19 1L20 1L20 0L19 0L19 1L17 1L17 2L16 2L16 0L15 0L15 1L14 1L14 0ZM8 1L8 2L9 2L9 1ZM14 2L14 3L16 3L16 2ZM17 2L17 3L18 3L18 2ZM8 3L8 4L9 4L9 5L8 5L8 7L9 7L9 8L6 8L6 9L8 9L8 10L6 10L6 11L7 11L7 12L4 12L4 10L5 10L5 8L0 8L0 11L3 11L3 12L2 12L2 13L3 13L3 12L4 12L4 13L5 13L5 17L9 17L9 18L10 18L10 19L9 19L9 20L10 20L10 19L11 19L11 17L12 17L12 18L13 18L13 19L12 19L12 21L13 21L13 20L14 20L14 21L18 21L18 22L17 22L17 23L16 23L16 22L15 22L15 23L14 23L14 24L15 24L15 25L12 25L12 23L13 23L13 22L11 22L11 24L10 24L10 28L9 28L9 24L8 24L8 29L10 29L10 28L11 28L11 25L12 25L12 26L13 26L13 27L12 27L12 29L13 29L13 28L14 28L14 29L20 29L20 28L22 28L22 29L24 29L24 28L25 28L25 26L24 26L24 25L27 25L27 28L26 28L26 29L27 29L27 28L28 28L28 26L29 26L29 25L27 25L27 24L28 24L28 22L29 22L29 20L28 20L28 18L29 18L29 17L28 17L28 16L29 16L29 15L28 15L28 14L29 14L29 12L28 12L28 10L29 10L29 9L28 9L28 8L27 8L27 9L28 9L28 10L27 10L27 12L25 12L25 11L26 11L26 10L25 10L25 9L26 9L26 8L25 8L25 9L24 9L24 8L23 8L23 9L22 9L22 8L20 8L20 9L19 9L19 8L17 8L17 6L16 6L16 5L15 5L15 6L14 6L14 8L15 8L15 9L12 9L12 7L13 7L13 5L11 5L11 6L10 6L10 4L11 4L11 3ZM19 3L19 4L20 4L20 3ZM9 6L9 7L10 7L10 6ZM11 6L11 7L12 7L12 6ZM15 6L15 8L16 8L16 9L15 9L15 10L16 10L16 11L14 11L14 12L13 12L13 13L12 13L12 11L13 11L13 10L12 10L12 9L11 9L11 8L10 8L10 9L9 9L9 11L8 11L8 13L9 13L9 14L7 14L7 13L6 13L6 14L7 14L7 15L6 15L6 16L10 16L10 17L11 17L11 15L10 15L10 14L13 14L13 15L12 15L12 17L15 17L15 18L16 18L16 19L14 19L14 20L16 20L16 19L17 19L17 20L18 20L18 21L19 21L19 22L20 22L20 20L21 20L21 19L22 19L22 20L27 20L27 18L28 18L28 17L26 17L26 18L25 18L25 19L23 19L23 18L22 18L22 17L25 17L25 16L28 16L28 15L26 15L26 14L28 14L28 13L25 13L25 12L24 12L24 13L23 13L23 12L22 12L22 11L23 11L23 10L24 10L24 9L23 9L23 10L22 10L22 9L20 9L20 10L19 10L19 9L17 9L17 8L16 8L16 6ZM18 6L18 7L19 7L19 6ZM1 9L1 10L2 10L2 9ZM10 9L10 11L11 11L11 9ZM16 9L16 10L17 10L17 9ZM18 10L18 12L17 12L17 13L16 13L16 12L14 12L14 13L16 13L16 14L15 14L15 15L14 15L14 16L15 16L15 17L19 17L19 18L20 18L20 19L21 19L21 18L20 18L20 16L21 16L21 17L22 17L22 16L21 16L21 14L22 14L22 15L23 15L23 13L22 13L22 12L19 12L19 10ZM9 12L9 13L11 13L11 12ZM18 13L18 14L16 14L16 15L15 15L15 16L20 16L20 14L21 14L21 13L20 13L20 14L19 14L19 13ZM24 13L24 14L25 14L25 13ZM0 14L0 15L2 15L2 16L4 16L4 14ZM18 14L18 15L19 15L19 14ZM24 15L24 16L25 16L25 15ZM0 16L0 21L1 21L1 16ZM2 17L2 18L3 18L3 17ZM5 18L5 19L8 19L8 18ZM2 20L2 21L3 21L3 20ZM5 20L5 21L8 21L8 23L10 23L10 22L9 22L9 21L8 21L8 20ZM21 21L21 24L24 24L24 21ZM26 21L26 22L28 22L28 21ZM22 22L22 23L23 23L23 22ZM17 23L17 24L18 24L18 25L15 25L15 26L18 26L18 25L19 25L19 26L20 26L20 27L16 27L16 28L20 28L20 27L22 27L22 28L23 28L23 27L24 27L24 26L23 26L23 25L22 25L22 26L20 26L20 24L19 24L19 23ZM25 23L25 24L27 24L27 23ZM22 26L22 27L23 27L23 26ZM14 27L14 28L15 28L15 27ZM0 0L0 7L7 7L7 0ZM1 1L1 6L6 6L6 1ZM2 2L2 5L5 5L5 2ZM22 0L22 7L29 7L29 0ZM23 1L23 6L28 6L28 1ZM24 2L24 5L27 5L27 2ZM0 22L0 29L7 29L7 22ZM1 23L1 28L6 28L6 23ZM2 24L2 27L5 27L5 24Z" fill="#000000"/></g></g></svg>
