<?xml version="1.0" encoding="UTF-8"?>
<svg xmlns="http://www.w3.org/2000/svg" version="1.1" width="100" height="100" viewBox="0 0 100 100"><rect x="0" y="0" width="100" height="100" fill="#ffffff"/><g transform="scale(3.448)"><g transform="translate(0,0)"><path fill-rule="evenodd" d="M10 0L10 2L11 2L11 0ZM12 0L12 1L13 1L13 2L12 2L12 4L13 4L13 3L14 3L14 4L15 4L15 3L16 3L16 4L17 4L17 5L20 5L20 9L18 9L18 8L17 8L17 6L16 6L16 5L15 5L15 6L14 6L14 8L15 8L15 9L12 9L12 7L13 7L13 5L11 5L11 6L10 6L10 4L11 4L11 3L8 3L8 4L9 4L9 5L8 5L8 7L9 7L9 8L6 8L6 9L8 9L8 10L6 10L6 11L5 11L5 8L0 8L0 9L1 9L1 11L0 11L0 12L1 12L1 11L2 11L2 14L1 14L1 13L0 13L0 15L1 15L1 16L0 16L0 21L1 21L1 18L2 18L2 21L4 21L4 20L5 20L5 19L9 19L9 17L10 17L10 18L11 18L11 17L12 17L12 18L13 18L13 19L12 19L12 21L13 21L13 20L14 20L14 21L16 21L16 22L15 22L15 23L14 23L14 24L15 24L15 25L12 25L12 23L13 23L13 22L11 22L11 20L10 20L10 21L8 21L8 20L6 20L6 21L8 21L8 23L9 23L9 24L8 24L8 29L10 29L10 28L11 28L11 26L9 26L9 25L10 25L10 24L11 24L11 25L12 25L12 26L13 26L13 27L12 27L12 29L13 29L13 28L14 28L14 29L19 29L19 28L21 28L21 29L22 29L22 28L21 28L21 27L19 27L19 26L20 26L20 25L21 25L21 26L22 26L22 27L23 27L23 29L24 29L24 28L25 28L25 27L27 27L27 28L26 28L26 29L27 29L27 28L28 28L28 26L29 26L29 25L27 25L27 24L28 24L28 22L29 22L29 21L28 21L28 22L26 22L26 21L27 21L27 20L25 20L25 19L26 19L26 17L27 17L27 16L28 16L28 15L27 15L27 14L29 14L29 13L27 13L27 12L28 12L28 11L27 11L27 12L25 12L25 10L26 10L26 8L25 8L25 9L24 9L24 8L23 8L23 9L22 9L22 8L21 8L21 5L20 5L20 4L21 4L21 3L19 3L19 1L20 1L20 2L21 2L21 0L18 0L18 1L16 1L16 0L15 0L15 1L14 1L14 0ZM8 1L8 2L9 2L9 1ZM14 2L14 3L15 3L15 2ZM16 2L16 3L18 3L18 2ZM9 6L9 7L10 7L10 6ZM11 6L11 7L12 7L12 6ZM15 6L15 7L16 7L16 6ZM18 6L18 7L19 7L19 6ZM10 8L10 9L9 9L9 10L8 10L8 11L6 11L6 12L5 12L5 11L4 11L4 13L6 13L6 14L2 14L2 18L3 18L3 17L4 17L4 19L5 19L5 16L7 16L7 17L6 17L6 18L8 18L8 17L9 17L9 16L10 16L10 17L11 17L11 16L10 16L10 14L13 14L13 15L12 15L12 17L15 17L15 18L18 18L18 19L17 19L17 20L16 20L16 21L17 21L17 22L18 22L18 21L19 21L19 22L20 22L20 20L21 20L21 19L22 19L22 20L23 20L23 19L25 19L25 18L22 18L22 17L26 17L26 16L27 16L27 15L26 15L26 16L24 16L24 15L25 15L25 14L24 14L24 13L25 13L25 12L24 12L24 11L23 11L23 10L21 10L21 9L20 9L20 10L18 10L18 9L17 9L17 8L16 8L16 9L15 9L15 10L16 10L16 9L17 9L17 11L16 11L16 12L18 12L18 11L20 11L20 12L19 12L19 13L14 13L14 12L15 12L15 11L14 11L14 12L13 12L13 13L12 13L12 11L13 11L13 10L12 10L12 9L11 9L11 8ZM27 8L27 10L29 10L29 9L28 9L28 8ZM2 9L2 10L4 10L4 9ZM10 9L10 11L11 11L11 9ZM8 11L8 12L6 12L6 13L8 13L8 12L9 12L9 14L6 14L6 15L7 15L7 16L9 16L9 14L10 14L10 13L11 13L11 12L9 12L9 11ZM21 11L21 13L19 13L19 14L18 14L18 16L15 16L15 15L17 15L17 14L15 14L15 15L14 15L14 16L15 16L15 17L19 17L19 18L20 18L20 19L21 19L21 18L20 18L20 16L21 16L21 17L22 17L22 16L21 16L21 14L22 14L22 15L23 15L23 13L24 13L24 12L23 12L23 11ZM22 12L22 13L23 13L23 12ZM26 13L26 14L27 14L27 13ZM19 14L19 16L20 16L20 14ZM4 15L4 16L5 16L5 15ZM28 17L28 18L27 18L27 19L28 19L28 18L29 18L29 17ZM14 19L14 20L15 20L15 19ZM17 20L17 21L18 21L18 20ZM21 21L21 24L24 24L24 21ZM10 22L10 23L11 23L11 22ZM22 22L22 23L23 23L23 22ZM17 23L17 24L18 24L18 25L15 25L15 26L18 26L18 25L20 25L20 24L18 24L18 23ZM25 23L25 24L27 24L27 23ZM22 25L22 26L23 26L23 27L24 27L24 26L27 26L27 25L24 25L24 26L23 26L23 25ZM9 27L9 28L10 28L10 27ZM14 27L14 28L15 28L15 27ZM16 27L16 28L19 28L19 27ZM0 0L0 7L7 7L7 0ZM1 1L1 6L6 6L6 1ZM2 2L2 5L5 5L5 2ZM22 0L22 7L29 7L29 0ZM23 1L23 6L28 6L28 1ZM24 2L24 5L27 5L27 2ZM0 22L0 29L7 29L7 22ZM1 23L1 28L6 28L6 23ZM2 24L2 27L5 27L5 24Z" fill="#000000"/></g></g></svg>
