<?xml version="1.0" encoding="UTF-8"?>
<svg xmlns="http://www.w3.org/2000/svg" version="1.1" width="100" height="100" viewBox="0 0 100 100"><rect x="0" y="0" width="100" height="100" fill="#ffffff"/><g transform="scale(3.448)"><g transform="translate(0,0)"><path fill-rule="evenodd" d="M8 0L8 1L9 1L9 2L8 2L8 5L9 5L9 4L11 4L11 5L10 5L10 10L9 10L9 8L8 8L8 10L9 10L9 12L6 12L6 11L7 11L7 10L6 10L6 9L7 9L7 8L6 8L6 9L5 9L5 10L6 10L6 11L4 11L4 13L3 13L3 12L1 12L1 15L2 15L2 16L5 16L5 17L4 17L4 18L3 18L3 17L2 17L2 20L1 20L1 21L4 21L4 20L5 20L5 21L8 21L8 22L9 22L9 23L10 23L10 25L11 25L11 26L10 26L10 27L9 27L9 25L8 25L8 29L10 29L10 28L11 28L11 29L12 29L12 28L14 28L14 27L15 27L15 29L17 29L17 28L16 28L16 27L17 27L17 26L16 26L16 25L18 25L18 26L19 26L19 27L18 27L18 28L19 28L19 29L21 29L21 27L22 27L22 26L21 26L21 25L23 25L23 28L24 28L24 29L25 29L25 27L24 27L24 26L27 26L27 24L26 24L26 23L25 23L25 21L27 21L27 23L28 23L28 24L29 24L29 23L28 23L28 22L29 22L29 19L28 19L28 17L26 17L26 16L25 16L25 15L26 15L26 14L23 14L23 13L22 13L22 12L23 12L23 11L25 11L25 13L27 13L27 14L28 14L28 15L27 15L27 16L29 16L29 13L28 13L28 12L29 12L29 11L27 11L27 10L26 10L26 9L27 9L27 8L24 8L24 10L23 10L23 9L22 9L22 8L21 8L21 3L20 3L20 2L21 2L21 1L20 1L20 0L19 0L19 1L20 1L20 2L18 2L18 1L16 1L16 0L15 0L15 1L16 1L16 2L15 2L15 3L14 3L14 5L13 5L13 3L12 3L12 4L11 4L11 2L14 2L14 0L12 0L12 1L11 1L11 0L10 0L10 1L9 1L9 0ZM17 2L17 3L18 3L18 2ZM16 4L16 5L14 5L14 6L13 6L13 5L12 5L12 6L11 6L11 8L12 8L12 6L13 6L13 8L14 8L14 9L15 9L15 10L14 10L14 11L11 11L11 13L10 13L10 14L8 14L8 16L7 16L7 15L6 15L6 14L7 14L7 13L5 13L5 15L6 15L6 16L7 16L7 17L6 17L6 18L5 18L5 19L6 19L6 20L7 20L7 19L9 19L9 20L8 20L8 21L9 21L9 22L10 22L10 21L11 21L11 23L14 23L14 22L15 22L15 24L12 24L12 26L11 26L11 28L12 28L12 26L13 26L13 27L14 27L14 26L15 26L15 27L16 27L16 26L15 26L15 25L16 25L16 23L17 23L17 24L19 24L19 25L20 25L20 23L19 23L19 22L20 22L20 21L19 21L19 19L21 19L21 20L23 20L23 19L24 19L24 20L25 20L25 17L24 17L24 16L23 16L23 14L22 14L22 13L21 13L21 11L22 11L22 9L20 9L20 10L19 10L19 8L20 8L20 6L19 6L19 8L18 8L18 9L17 9L17 10L18 10L18 11L17 11L17 12L18 12L18 14L17 14L17 13L16 13L16 8L17 8L17 7L18 7L18 5L19 5L19 4ZM8 6L8 7L9 7L9 6ZM14 6L14 7L15 7L15 6ZM16 6L16 7L17 7L17 6ZM0 8L0 9L1 9L1 10L0 10L0 11L1 11L1 10L2 10L2 11L3 11L3 10L4 10L4 8ZM28 8L28 10L29 10L29 8ZM2 9L2 10L3 10L3 9ZM11 9L11 10L12 10L12 9ZM25 10L25 11L26 11L26 12L27 12L27 11L26 11L26 10ZM19 11L19 12L20 12L20 11ZM12 12L12 13L11 13L11 14L10 14L10 15L9 15L9 16L8 16L8 17L7 17L7 18L6 18L6 19L7 19L7 18L8 18L8 17L9 17L9 16L10 16L10 17L11 17L11 16L12 16L12 17L13 17L13 16L12 16L12 14L13 14L13 15L14 15L14 18L13 18L13 21L15 21L15 19L16 19L16 20L17 20L17 21L18 21L18 19L19 19L19 17L21 17L21 18L22 18L22 17L21 17L21 15L22 15L22 14L20 14L20 13L19 13L19 14L18 14L18 15L20 15L20 16L19 16L19 17L17 17L17 16L16 16L16 15L14 15L14 14L16 14L16 13L15 13L15 12L14 12L14 14L13 14L13 12ZM2 13L2 14L3 14L3 15L4 15L4 14L3 14L3 13ZM10 15L10 16L11 16L11 15ZM15 16L15 17L16 17L16 16ZM0 18L0 19L1 19L1 18ZM16 18L16 19L18 19L18 18ZM26 18L26 19L27 19L27 21L28 21L28 19L27 19L27 18ZM3 19L3 20L4 20L4 19ZM10 19L10 20L9 20L9 21L10 21L10 20L12 20L12 19ZM21 21L21 24L24 24L24 21ZM22 22L22 23L23 23L23 22ZM13 25L13 26L14 26L14 25ZM28 25L28 27L27 27L27 29L28 29L28 27L29 27L29 25ZM20 26L20 27L19 27L19 28L20 28L20 27L21 27L21 26ZM0 0L0 7L7 7L7 0ZM1 1L1 6L6 6L6 1ZM2 2L2 5L5 5L5 2ZM22 0L22 7L29 7L29 0ZM23 1L23 6L28 6L28 1ZM24 2L24 5L27 5L27 2ZM0 22L0 29L7 29L7 22ZM1 23L1 28L6 28L6 23ZM2 24L2 27L5 27L5 24Z" fill="#000000"/></g></g></svg>
