<?xml version="1.0" encoding="UTF-8"?>
<svg xmlns="http://www.w3.org/2000/svg" version="1.1" width="100" height="100" viewBox="0 0 100 100"><rect x="0" y="0" width="100" height="100" fill="#ffffff"/><g transform="scale(3.448)"><g transform="translate(0,0)"><path fill-rule="evenodd" d="M10 0L10 2L11 2L11 0ZM12 0L12 1L13 1L13 2L12 2L12 4L13 4L13 3L14 3L14 4L17 4L17 5L20 5L20 9L18 9L18 8L16 8L16 7L17 7L17 6L16 6L16 5L15 5L15 6L14 6L14 8L15 8L15 9L12 9L12 7L13 7L13 5L11 5L11 6L10 6L10 4L11 4L11 3L8 3L8 4L9 4L9 5L8 5L8 7L9 7L9 8L6 8L6 9L5 9L5 8L0 8L0 9L1 9L1 10L0 10L0 11L1 11L1 10L2 10L2 12L1 12L1 13L2 13L2 12L3 12L3 13L4 13L4 14L1 14L1 15L3 15L3 16L0 16L0 21L1 21L1 17L2 17L2 19L3 19L3 20L2 20L2 21L3 21L3 20L4 20L4 19L3 19L3 17L5 17L5 21L8 21L8 23L9 23L9 22L11 22L11 23L10 23L10 24L8 24L8 29L9 29L9 28L10 28L10 27L11 27L11 25L12 25L12 26L13 26L13 27L12 27L12 29L13 29L13 28L14 28L14 29L20 29L20 28L22 28L22 27L23 27L23 29L24 29L24 28L25 28L25 27L27 27L27 28L26 28L26 29L27 29L27 28L28 28L28 26L29 26L29 25L27 25L27 24L28 24L28 22L29 22L29 21L28 21L28 20L29 20L29 19L28 19L28 18L29 18L29 17L28 17L28 18L26 18L26 17L27 17L27 16L28 16L28 14L29 14L29 13L28 13L28 14L26 14L26 15L27 15L27 16L25 16L25 15L23 15L23 14L25 14L25 13L22 13L22 10L23 10L23 11L24 11L24 12L26 12L26 13L27 13L27 12L26 12L26 11L28 11L28 12L29 12L29 11L28 11L28 10L29 10L29 9L28 9L28 8L27 8L27 9L28 9L28 10L26 10L26 11L24 11L24 10L25 10L25 9L26 9L26 8L25 8L25 9L24 9L24 8L23 8L23 9L22 9L22 8L21 8L21 4L19 4L19 3L21 3L21 2L19 2L19 1L20 1L20 0L19 0L19 1L16 1L16 0L15 0L15 1L14 1L14 0ZM8 1L8 2L9 2L9 1ZM14 2L14 3L15 3L15 2ZM17 2L17 3L18 3L18 2ZM9 6L9 7L10 7L10 6ZM11 6L11 7L12 7L12 6ZM15 6L15 7L16 7L16 6ZM18 6L18 7L19 7L19 6ZM10 8L10 9L9 9L9 11L8 11L8 12L7 12L7 11L6 11L6 10L8 10L8 9L6 9L6 10L5 10L5 9L4 9L4 10L5 10L5 12L7 12L7 13L6 13L6 14L5 14L5 15L4 15L4 16L5 16L5 17L6 17L6 18L7 18L7 19L6 19L6 20L7 20L7 19L9 19L9 18L10 18L10 17L11 17L11 19L10 19L10 20L11 20L11 22L13 22L13 23L12 23L12 25L15 25L15 26L16 26L16 28L18 28L18 27L17 27L17 26L20 26L20 27L19 27L19 28L20 28L20 27L22 27L22 26L23 26L23 27L24 27L24 26L27 26L27 25L26 25L26 24L27 24L27 23L26 23L26 22L28 22L28 21L25 21L25 23L26 23L26 24L25 24L25 25L24 25L24 26L23 26L23 25L22 25L22 26L21 26L21 25L20 25L20 23L19 23L19 21L14 21L14 20L15 20L15 19L14 19L14 20L13 20L13 21L12 21L12 19L13 19L13 18L12 18L12 17L15 17L15 18L16 18L16 19L17 19L17 20L18 20L18 19L19 19L19 20L21 20L21 19L22 19L22 20L24 20L24 19L25 19L25 20L27 20L27 19L26 19L26 18L24 18L24 17L25 17L25 16L24 16L24 17L23 17L23 15L22 15L22 14L21 14L21 13L20 13L20 14L19 14L19 13L14 13L14 12L15 12L15 11L14 11L14 12L13 12L13 13L12 13L12 11L13 11L13 10L12 10L12 9L11 9L11 8ZM2 9L2 10L3 10L3 9ZM10 9L10 11L11 11L11 9ZM15 9L15 10L16 10L16 11L17 11L17 12L18 12L18 11L17 11L17 10L18 10L18 9ZM20 9L20 10L19 10L19 12L21 12L21 11L20 11L20 10L22 10L22 9ZM23 9L23 10L24 10L24 9ZM9 12L9 14L10 14L10 13L11 13L11 12ZM6 14L6 15L5 15L5 16L6 16L6 17L7 17L7 16L8 16L8 17L10 17L10 16L11 16L11 17L12 17L12 15L13 15L13 14L11 14L11 15L10 15L10 16L8 16L8 15L7 15L7 14ZM15 14L15 15L14 15L14 16L15 16L15 17L16 17L16 18L17 18L17 19L18 19L18 18L20 18L20 16L21 16L21 17L22 17L22 18L23 18L23 17L22 17L22 16L21 16L21 14L20 14L20 16L19 16L19 17L18 17L18 16L17 16L17 14ZM6 15L6 16L7 16L7 15ZM16 16L16 17L17 17L17 18L18 18L18 17L17 17L17 16ZM21 21L21 24L24 24L24 21ZM15 22L15 23L14 23L14 24L15 24L15 25L19 25L19 23L18 23L18 22ZM22 22L22 23L23 23L23 22ZM15 23L15 24L16 24L16 23ZM17 23L17 24L18 24L18 23ZM9 26L9 27L10 27L10 26ZM14 27L14 28L15 28L15 27ZM0 0L0 7L7 7L7 0ZM1 1L1 6L6 6L6 1ZM2 2L2 5L5 5L5 2ZM22 0L22 7L29 7L29 0ZM23 1L23 6L28 6L28 1ZM24 2L24 5L27 5L27 2ZM0 22L0 29L7 29L7 22ZM1 23L1 28L6 28L6 23ZM2 24L2 27L5 27L5 24Z" fill="#000000"/></g></g></svg>
