<?xml version="1.0" encoding="UTF-8"?>
<svg xmlns="http://www.w3.org/2000/svg" version="1.1" width="100" height="100" viewBox="0 0 100 100"><rect x="0" y="0" width="100" height="100" fill="#ffffff"/><g transform="scale(3.448)"><g transform="translate(0,0)"><path fill-rule="evenodd" d="M10 0L10 2L11 2L11 0ZM12 0L12 1L13 1L13 2L12 2L12 4L13 4L13 3L14 3L14 4L17 4L17 5L21 5L21 4L19 4L19 1L20 1L20 3L21 3L21 1L20 1L20 0L19 0L19 1L16 1L16 0L15 0L15 1L14 1L14 0ZM8 1L8 2L9 2L9 1ZM14 2L14 3L15 3L15 2ZM16 2L16 3L18 3L18 2ZM8 3L8 4L9 4L9 5L8 5L8 7L9 7L9 8L6 8L6 9L5 9L5 8L0 8L0 10L1 10L1 9L4 9L4 10L6 10L6 11L8 11L8 10L6 10L6 9L10 9L10 11L11 11L11 9L12 9L12 10L13 10L13 11L12 11L12 13L13 13L13 12L14 12L14 13L15 13L15 12L16 12L16 13L19 13L19 14L20 14L20 16L19 16L19 17L18 17L18 16L17 16L17 14L15 14L15 15L14 15L14 16L15 16L15 17L12 17L12 15L13 15L13 14L9 14L9 13L11 13L11 12L9 12L9 13L7 13L7 12L5 12L5 11L4 11L4 13L7 13L7 14L3 14L3 15L2 15L2 16L0 16L0 21L1 21L1 17L2 17L2 19L4 19L4 20L3 20L3 21L5 21L5 18L4 18L4 17L5 17L5 16L6 16L6 17L7 17L7 16L6 16L6 15L7 15L7 14L9 14L9 15L11 15L11 16L8 16L8 19L9 19L9 21L8 21L8 20L6 20L6 21L8 21L8 23L9 23L9 24L8 24L8 29L9 29L9 26L10 26L10 27L11 27L11 26L10 26L10 25L12 25L12 26L13 26L13 27L12 27L12 29L13 29L13 28L14 28L14 29L20 29L20 28L21 28L21 29L22 29L22 27L23 27L23 29L24 29L24 28L25 28L25 27L27 27L27 28L26 28L26 29L27 29L27 28L28 28L28 26L29 26L29 25L27 25L27 24L28 24L28 22L29 22L29 21L28 21L28 22L27 22L27 24L25 24L25 23L26 23L26 21L27 21L27 20L25 20L25 19L24 19L24 18L26 18L26 19L28 19L28 20L29 20L29 19L28 19L28 18L29 18L29 17L28 17L28 16L29 16L29 15L28 15L28 14L29 14L29 13L28 13L28 12L29 12L29 11L27 11L27 12L26 12L26 10L25 10L25 9L26 9L26 8L25 8L25 9L24 9L24 8L23 8L23 9L22 9L22 8L21 8L21 9L19 9L19 8L20 8L20 7L21 7L21 6L20 6L20 7L19 7L19 6L18 6L18 7L19 7L19 8L17 8L17 6L16 6L16 5L15 5L15 6L14 6L14 8L15 8L15 9L12 9L12 7L13 7L13 5L11 5L11 6L10 6L10 4L11 4L11 3ZM9 6L9 7L10 7L10 6ZM11 6L11 7L12 7L12 6ZM15 6L15 8L16 8L16 6ZM10 8L10 9L11 9L11 8ZM27 8L27 10L29 10L29 9L28 9L28 8ZM15 9L15 10L16 10L16 12L21 12L21 11L20 11L20 10L19 10L19 9L18 9L18 10L17 10L17 9ZM18 10L18 11L19 11L19 10ZM22 10L22 11L25 11L25 10ZM14 11L14 12L15 12L15 11ZM1 12L1 13L0 13L0 15L1 15L1 13L3 13L3 12ZM22 12L22 13L25 13L25 15L26 15L26 16L24 16L24 15L22 15L22 14L21 14L21 13L20 13L20 14L21 14L21 16L20 16L20 18L19 18L19 19L16 19L16 20L15 20L15 19L14 19L14 20L13 20L13 21L12 21L12 19L13 19L13 18L12 18L12 17L9 17L9 18L11 18L11 19L10 19L10 20L11 20L11 22L10 22L10 21L9 21L9 23L11 23L11 22L13 22L13 23L12 23L12 25L15 25L15 26L16 26L16 27L17 27L17 28L20 28L20 27L22 27L22 26L23 26L23 27L24 27L24 26L27 26L27 25L24 25L24 26L23 26L23 25L22 25L22 26L19 26L19 25L20 25L20 23L19 23L19 25L17 25L17 24L18 24L18 22L19 22L19 21L16 21L16 20L21 20L21 19L22 19L22 20L24 20L24 19L23 19L23 18L24 18L24 17L26 17L26 18L28 18L28 17L26 17L26 16L27 16L27 15L26 15L26 14L28 14L28 13L26 13L26 12ZM3 15L3 16L2 16L2 17L4 17L4 15ZM16 16L16 17L15 17L15 18L16 18L16 17L17 17L17 18L18 18L18 17L17 17L17 16ZM21 16L21 17L22 17L22 18L23 18L23 17L24 17L24 16L23 16L23 17L22 17L22 16ZM6 18L6 19L7 19L7 18ZM14 20L14 21L15 21L15 20ZM21 21L21 24L24 24L24 21ZM15 22L15 23L14 23L14 24L15 24L15 25L16 25L16 26L17 26L17 27L18 27L18 26L17 26L17 25L16 25L16 24L17 24L17 23L16 23L16 22ZM22 22L22 23L23 23L23 22ZM14 27L14 28L15 28L15 27ZM0 0L0 7L7 7L7 0ZM1 1L1 6L6 6L6 1ZM2 2L2 5L5 5L5 2ZM22 0L22 7L29 7L29 0ZM23 1L23 6L28 6L28 1ZM24 2L24 5L27 5L27 2ZM0 22L0 29L7 29L7 22ZM1 23L1 28L6 28L6 23ZM2 24L2 27L5 27L5 24Z" fill="#000000"/></g></g></svg>
