<?xml version="1.0" encoding="UTF-8"?>
<svg xmlns="http://www.w3.org/2000/svg" version="1.1" width="100" height="100" viewBox="0 0 100 100"><rect x="0" y="0" width="100" height="100" fill="#ffffff"/><g transform="scale(3.448)"><g transform="translate(0,0)"><path fill-rule="evenodd" d="M8 0L8 1L9 1L9 2L10 2L10 3L11 3L11 1L13 1L13 0L11 0L11 1L9 1L9 0ZM14 0L14 1L16 1L16 2L15 2L15 4L14 4L14 5L15 5L15 4L16 4L16 3L17 3L17 4L18 4L18 5L16 5L16 7L17 7L17 6L18 6L18 7L19 7L19 6L18 6L18 5L21 5L21 4L19 4L19 2L20 2L20 3L21 3L21 2L20 2L20 1L21 1L21 0L20 0L20 1L18 1L18 0ZM17 1L17 3L18 3L18 1ZM12 2L12 4L11 4L11 5L10 5L10 4L9 4L9 5L10 5L10 8L9 8L9 6L8 6L8 8L9 8L9 10L8 10L8 9L7 9L7 8L6 8L6 9L7 9L7 10L5 10L5 11L4 11L4 10L3 10L3 9L5 9L5 8L3 8L3 9L2 9L2 8L0 8L0 10L1 10L1 13L2 13L2 12L3 12L3 14L2 14L2 16L1 16L1 14L0 14L0 16L1 16L1 17L0 17L0 21L2 21L2 20L3 20L3 21L4 21L4 20L5 20L5 21L7 21L7 20L8 20L8 22L9 22L9 24L8 24L8 26L9 26L9 27L8 27L8 29L9 29L9 27L10 27L10 26L11 26L11 25L9 25L9 24L10 24L10 23L11 23L11 20L8 20L8 19L9 19L9 18L10 18L10 19L12 19L12 21L14 21L14 24L13 24L13 25L12 25L12 26L13 26L13 25L15 25L15 26L14 26L14 27L12 27L12 28L11 28L11 29L13 29L13 28L15 28L15 29L16 29L16 28L17 28L17 27L16 27L16 24L15 24L15 23L17 23L17 24L18 24L18 25L17 25L17 26L18 26L18 28L20 28L20 29L21 29L21 28L20 28L20 26L21 26L21 25L25 25L25 26L23 26L23 27L22 27L22 28L25 28L25 26L26 26L26 25L25 25L25 23L27 23L27 22L25 22L25 20L26 20L26 21L27 21L27 19L26 19L26 16L27 16L27 17L28 17L28 16L29 16L29 12L28 12L28 15L26 15L26 13L24 13L24 12L25 12L25 11L24 11L24 10L27 10L27 11L28 11L28 9L29 9L29 8L28 8L28 9L24 9L24 10L22 10L22 9L23 9L23 8L22 8L22 9L21 9L21 10L20 10L20 8L19 8L19 9L18 9L18 8L17 8L17 9L16 9L16 8L15 8L15 11L17 11L17 12L18 12L18 13L17 13L17 14L16 14L16 12L15 12L15 13L14 13L14 7L15 7L15 6L14 6L14 7L13 7L13 5L12 5L12 4L13 4L13 2ZM11 5L11 7L12 7L12 9L10 9L10 10L9 10L9 11L8 11L8 10L7 10L7 11L5 11L5 12L8 12L8 13L9 13L9 14L8 14L8 16L7 16L7 15L6 15L6 16L7 16L7 17L6 17L6 18L5 18L5 14L7 14L7 13L5 13L5 14L3 14L3 16L2 16L2 17L3 17L3 18L5 18L5 20L7 20L7 19L8 19L8 18L9 18L9 15L10 15L10 16L11 16L11 17L14 17L14 16L16 16L16 15L15 15L15 14L14 14L14 15L12 15L12 16L11 16L11 15L10 15L10 14L13 14L13 13L11 13L11 12L10 12L10 13L9 13L9 11L10 11L10 10L12 10L12 11L13 11L13 10L12 10L12 9L13 9L13 7L12 7L12 5ZM20 6L20 7L21 7L21 6ZM1 9L1 10L2 10L2 9ZM17 9L17 10L18 10L18 11L20 11L20 12L22 12L22 11L20 11L20 10L18 10L18 9ZM23 11L23 12L24 12L24 11ZM18 13L18 14L17 14L17 17L18 17L18 18L19 18L19 17L18 17L18 14L21 14L21 15L19 15L19 16L21 16L21 15L24 15L24 14L22 14L22 13ZM25 15L25 16L24 16L24 17L23 17L23 16L22 16L22 18L21 18L21 17L20 17L20 19L19 19L19 20L20 20L20 19L21 19L21 20L24 20L24 19L25 19L25 18L24 18L24 17L25 17L25 16L26 16L26 15ZM7 17L7 18L6 18L6 19L7 19L7 18L8 18L8 17ZM12 18L12 19L13 19L13 20L14 20L14 19L15 19L15 18ZM16 18L16 20L18 20L18 19L17 19L17 18ZM22 18L22 19L24 19L24 18ZM28 18L28 19L29 19L29 18ZM3 19L3 20L4 20L4 19ZM28 20L28 21L29 21L29 20ZM16 21L16 22L17 22L17 23L18 23L18 24L20 24L20 23L18 23L18 22L19 22L19 21ZM21 21L21 24L24 24L24 21ZM12 22L12 23L13 23L13 22ZM22 22L22 23L23 23L23 22ZM28 23L28 26L27 26L27 27L26 27L26 28L27 28L27 27L28 27L28 28L29 28L29 23ZM18 25L18 26L20 26L20 25ZM15 27L15 28L16 28L16 27ZM0 0L0 7L7 7L7 0ZM1 1L1 6L6 6L6 1ZM2 2L2 5L5 5L5 2ZM22 0L22 7L29 7L29 0ZM23 1L23 6L28 6L28 1ZM24 2L24 5L27 5L27 2ZM0 22L0 29L7 29L7 22ZM1 23L1 28L6 28L6 23ZM2 24L2 27L5 27L5 24Z" fill="#000000"/></g></g></svg>
