<?xml version="1.0" encoding="UTF-8"?>
<svg xmlns="http://www.w3.org/2000/svg" version="1.1" width="100" height="100" viewBox="0 0 100 100"><rect x="0" y="0" width="100" height="100" fill="#ffffff"/><g transform="scale(3.448)"><g transform="translate(0,0)"><path fill-rule="evenodd" d="M10 0L10 2L11 2L11 0ZM12 0L12 1L13 1L13 2L12 2L12 4L13 4L13 3L14 3L14 4L16 4L16 5L15 5L15 6L14 6L14 8L15 8L15 9L12 9L12 7L13 7L13 5L11 5L11 6L10 6L10 4L11 4L11 3L8 3L8 4L9 4L9 5L8 5L8 7L9 7L9 8L6 8L6 9L5 9L5 8L0 8L0 10L1 10L1 9L5 9L5 12L6 12L6 13L7 13L7 12L6 12L6 11L7 11L7 10L8 10L8 13L9 13L9 14L10 14L10 13L11 13L11 12L9 12L9 9L10 9L10 11L11 11L11 9L12 9L12 10L13 10L13 11L12 11L12 13L13 13L13 12L14 12L14 13L16 13L16 14L15 14L15 15L14 15L14 16L15 16L15 17L12 17L12 15L13 15L13 14L11 14L11 16L9 16L9 15L8 15L8 16L9 16L9 17L12 17L12 18L13 18L13 19L12 19L12 21L13 21L13 20L14 20L14 21L16 21L16 22L15 22L15 23L14 23L14 24L15 24L15 25L12 25L12 23L13 23L13 22L11 22L11 21L8 21L8 20L11 20L11 18L10 18L10 19L9 19L9 18L8 18L8 17L7 17L7 16L5 16L5 15L7 15L7 14L5 14L5 13L2 13L2 14L1 14L1 12L0 12L0 16L1 16L1 17L0 17L0 21L1 21L1 18L2 18L2 17L4 17L4 18L3 18L3 19L4 19L4 20L5 20L5 21L8 21L8 23L9 23L9 22L11 22L11 25L10 25L10 24L8 24L8 29L10 29L10 28L11 28L11 25L12 25L12 26L13 26L13 27L12 27L12 29L13 29L13 28L14 28L14 29L16 29L16 28L14 28L14 27L20 27L20 28L19 28L19 29L20 29L20 28L22 28L22 27L23 27L23 29L24 29L24 28L25 28L25 27L26 27L26 25L27 25L27 28L26 28L26 29L27 29L27 28L28 28L28 26L29 26L29 25L27 25L27 24L28 24L28 22L29 22L29 21L28 21L28 19L27 19L27 18L29 18L29 17L27 17L27 16L28 16L28 14L29 14L29 13L28 13L28 12L29 12L29 11L28 11L28 10L29 10L29 9L28 9L28 8L27 8L27 9L28 9L28 10L26 10L26 11L25 11L25 9L26 9L26 8L25 8L25 9L24 9L24 8L23 8L23 9L22 9L22 8L20 8L20 7L21 7L21 4L19 4L19 3L17 3L17 4L16 4L16 3L14 3L14 2L16 2L16 0L15 0L15 1L14 1L14 0ZM18 0L18 2L19 2L19 1L21 1L21 0ZM8 1L8 2L9 2L9 1ZM20 2L20 3L21 3L21 2ZM17 5L17 7L16 7L16 6L15 6L15 7L16 7L16 9L15 9L15 10L16 10L16 9L17 9L17 10L18 10L18 11L14 11L14 12L16 12L16 13L17 13L17 14L16 14L16 15L15 15L15 16L18 16L18 17L15 17L15 18L16 18L16 19L14 19L14 20L16 20L16 21L17 21L17 22L18 22L18 21L19 21L19 22L20 22L20 20L21 20L21 19L22 19L22 20L24 20L24 19L25 19L25 20L27 20L27 19L25 19L25 18L27 18L27 17L26 17L26 16L27 16L27 14L28 14L28 13L26 13L26 12L27 12L27 11L26 11L26 12L24 12L24 9L23 9L23 10L22 10L22 9L20 9L20 8L19 8L19 7L20 7L20 5ZM9 6L9 7L10 7L10 6ZM11 6L11 7L12 7L12 6ZM18 6L18 7L19 7L19 6ZM10 8L10 9L11 9L11 8ZM17 8L17 9L19 9L19 10L20 10L20 11L21 11L21 13L19 13L19 11L18 11L18 12L17 12L17 13L19 13L19 14L20 14L20 16L19 16L19 15L18 15L18 16L19 16L19 17L18 17L18 19L19 19L19 18L20 18L20 19L21 19L21 18L20 18L20 16L21 16L21 17L22 17L22 18L23 18L23 17L24 17L24 18L25 18L25 17L24 17L24 16L26 16L26 14L25 14L25 13L24 13L24 12L23 12L23 13L22 13L22 10L20 10L20 9L19 9L19 8ZM6 9L6 10L7 10L7 9ZM3 10L3 11L2 11L2 12L4 12L4 10ZM23 13L23 14L24 14L24 15L22 15L22 14L21 14L21 16L22 16L22 17L23 17L23 16L24 16L24 15L25 15L25 14L24 14L24 13ZM2 14L2 16L3 16L3 15L5 15L5 14ZM4 16L4 17L5 17L5 16ZM6 17L6 18L7 18L7 17ZM5 19L5 20L8 20L8 19ZM16 19L16 20L17 20L17 21L18 21L18 20L17 20L17 19ZM21 21L21 24L24 24L24 21ZM26 21L26 22L25 22L25 24L27 24L27 22L28 22L28 21ZM22 22L22 23L23 23L23 22ZM15 23L15 24L18 24L18 23ZM19 24L19 25L15 25L15 26L20 26L20 27L21 27L21 26L23 26L23 27L24 27L24 26L25 26L25 25L24 25L24 26L23 26L23 25L20 25L20 24ZM9 27L9 28L10 28L10 27ZM17 28L17 29L18 29L18 28ZM0 0L0 7L7 7L7 0ZM1 1L1 6L6 6L6 1ZM2 2L2 5L5 5L5 2ZM22 0L22 7L29 7L29 0ZM23 1L23 6L28 6L28 1ZM24 2L24 5L27 5L27 2ZM0 22L0 29L7 29L7 22ZM1 23L1 28L6 28L6 23ZM2 24L2 27L5 27L5 24Z" fill="#000000"/></g></g></svg>
