<?xml version="1.0" encoding="UTF-8"?>
<svg xmlns="http://www.w3.org/2000/svg" version="1.1" width="100" height="100" viewBox="0 0 100 100"><rect x="0" y="0" width="100" height="100" fill="#ffffff"/><g transform="scale(3.448)"><g transform="translate(0,0)"><path fill-rule="evenodd" d="M10 0L10 2L11 2L11 0ZM12 0L12 1L13 1L13 2L12 2L12 4L13 4L13 3L14 3L14 4L17 4L17 5L20 5L20 7L21 7L21 4L19 4L19 2L18 2L18 3L17 3L17 2L16 2L16 0L15 0L15 1L14 1L14 0ZM18 0L18 1L20 1L20 2L21 2L21 0ZM8 1L8 2L9 2L9 1ZM14 2L14 3L16 3L16 2ZM8 3L8 4L9 4L9 5L8 5L8 7L9 7L9 8L6 8L6 9L5 9L5 8L0 8L0 10L1 10L1 9L3 9L3 10L2 10L2 11L1 11L1 12L0 12L0 21L1 21L1 18L2 18L2 21L3 21L3 18L4 18L4 19L5 19L5 20L4 20L4 21L7 21L7 20L6 20L6 19L7 19L7 18L6 18L6 17L8 17L8 19L9 19L9 17L12 17L12 18L13 18L13 19L12 19L12 21L13 21L13 20L14 20L14 21L18 21L18 22L19 22L19 24L17 24L17 25L16 25L16 24L15 24L15 23L16 23L16 22L15 22L15 23L14 23L14 24L15 24L15 25L12 25L12 23L13 23L13 22L11 22L11 21L10 21L10 20L9 20L9 21L8 21L8 23L9 23L9 22L10 22L10 25L9 25L9 24L8 24L8 29L9 29L9 28L10 28L10 29L11 29L11 25L12 25L12 26L13 26L13 27L12 27L12 29L13 29L13 28L14 28L14 29L19 29L19 28L22 28L22 29L24 29L24 28L25 28L25 26L21 26L21 25L25 25L25 24L26 24L26 25L27 25L27 26L26 26L26 27L27 27L27 28L26 28L26 29L27 29L27 28L28 28L28 26L29 26L29 25L27 25L27 24L28 24L28 23L27 23L27 22L29 22L29 21L28 21L28 20L29 20L29 19L28 19L28 20L26 20L26 18L25 18L25 17L27 17L27 18L29 18L29 17L27 17L27 16L29 16L29 15L27 15L27 16L25 16L25 17L24 17L24 16L23 16L23 17L22 17L22 16L21 16L21 14L22 14L22 15L26 15L26 14L25 14L25 13L27 13L27 14L29 14L29 13L27 13L27 12L25 12L25 9L26 9L26 8L25 8L25 9L24 9L24 8L23 8L23 9L22 9L22 8L20 8L20 9L18 9L18 8L17 8L17 6L16 6L16 5L15 5L15 6L14 6L14 8L15 8L15 9L12 9L12 7L13 7L13 5L11 5L11 6L10 6L10 4L11 4L11 3ZM9 6L9 7L10 7L10 6ZM11 6L11 7L12 7L12 6ZM15 6L15 7L16 7L16 6ZM18 6L18 7L19 7L19 6ZM10 8L10 9L9 9L9 10L8 10L8 9L6 9L6 10L7 10L7 11L6 11L6 12L5 12L5 13L4 13L4 14L3 14L3 13L2 13L2 12L1 12L1 17L2 17L2 18L3 18L3 16L2 16L2 15L4 15L4 16L5 16L5 15L6 15L6 16L7 16L7 15L9 15L9 16L10 16L10 15L11 15L11 14L13 14L13 15L12 15L12 17L15 17L15 18L16 18L16 17L17 17L17 20L18 20L18 21L19 21L19 22L20 22L20 19L22 19L22 20L23 20L23 19L25 19L25 18L24 18L24 17L23 17L23 18L22 18L22 17L21 17L21 16L20 16L20 14L19 14L19 15L15 15L15 14L18 14L18 13L21 13L21 11L20 11L20 10L21 10L21 9L20 9L20 10L19 10L19 11L18 11L18 9L17 9L17 8L16 8L16 9L15 9L15 10L16 10L16 9L17 9L17 12L18 12L18 13L14 13L14 12L16 12L16 11L14 11L14 12L13 12L13 13L12 13L12 11L13 11L13 10L12 10L12 9L11 9L11 8ZM27 8L27 9L28 9L28 10L26 10L26 11L28 11L28 10L29 10L29 9L28 9L28 8ZM10 9L10 11L11 11L11 9ZM4 10L4 11L3 11L3 12L4 12L4 11L5 11L5 10ZM22 10L22 11L24 11L24 10ZM6 12L6 13L5 13L5 14L6 14L6 15L7 15L7 14L6 14L6 13L8 13L8 14L9 14L9 15L10 15L10 14L9 14L9 13L11 13L11 12ZM22 12L22 13L25 13L25 12ZM14 15L14 16L15 16L15 17L16 17L16 16L15 16L15 15ZM17 16L17 17L19 17L19 18L18 18L18 20L19 20L19 18L20 18L20 16ZM5 18L5 19L6 19L6 18ZM10 18L10 19L11 19L11 18ZM14 19L14 20L16 20L16 19ZM25 20L25 21L26 21L26 22L25 22L25 23L26 23L26 24L27 24L27 23L26 23L26 22L27 22L27 21L26 21L26 20ZM21 21L21 24L24 24L24 21ZM22 22L22 23L23 23L23 22ZM19 24L19 25L17 25L17 26L16 26L16 25L15 25L15 26L16 26L16 27L14 27L14 28L19 28L19 27L18 27L18 26L20 26L20 27L21 27L21 26L20 26L20 24ZM9 26L9 27L10 27L10 26ZM22 27L22 28L23 28L23 27ZM0 0L0 7L7 7L7 0ZM1 1L1 6L6 6L6 1ZM2 2L2 5L5 5L5 2ZM22 0L22 7L29 7L29 0ZM23 1L23 6L28 6L28 1ZM24 2L24 5L27 5L27 2ZM0 22L0 29L7 29L7 22ZM1 23L1 28L6 28L6 23ZM2 24L2 27L5 27L5 24Z" fill="#000000"/></g></g></svg>
