<?xml version="1.0" encoding="UTF-8"?>
<svg xmlns="http://www.w3.org/2000/svg" version="1.1" width="100" height="100" viewBox="0 0 100 100"><rect x="0" y="0" width="100" height="100" fill="#ffffff"/><g transform="scale(3.448)"><g transform="translate(0,0)"><path fill-rule="evenodd" d="M10 0L10 2L11 2L11 0ZM12 0L12 1L13 1L13 2L12 2L12 4L13 4L13 3L14 3L14 4L16 4L16 5L15 5L15 6L14 6L14 8L15 8L15 9L12 9L12 7L13 7L13 5L11 5L11 6L10 6L10 4L11 4L11 3L8 3L8 4L9 4L9 5L8 5L8 7L9 7L9 8L6 8L6 9L5 9L5 8L0 8L0 9L2 9L2 12L1 12L1 13L2 13L2 14L3 14L3 15L2 15L2 16L1 16L1 14L0 14L0 21L1 21L1 18L2 18L2 21L3 21L3 20L5 20L5 21L7 21L7 20L8 20L8 23L9 23L9 24L8 24L8 29L10 29L10 27L11 27L11 25L12 25L12 26L13 26L13 27L12 27L12 29L13 29L13 28L14 28L14 29L19 29L19 28L21 28L21 27L20 27L20 25L21 25L21 26L22 26L22 27L23 27L23 29L24 29L24 28L25 28L25 27L26 27L26 26L22 26L22 25L25 25L25 24L26 24L26 25L27 25L27 28L26 28L26 29L27 29L27 28L28 28L28 26L29 26L29 25L27 25L27 24L28 24L28 22L29 22L29 21L28 21L28 22L27 22L27 24L26 24L26 23L25 23L25 22L26 22L26 21L27 21L27 20L25 20L25 19L26 19L26 18L25 18L25 17L24 17L24 16L26 16L26 17L27 17L27 18L29 18L29 17L28 17L28 16L29 16L29 15L28 15L28 14L29 14L29 13L28 13L28 14L26 14L26 15L24 15L24 16L23 16L23 17L22 17L22 16L21 16L21 14L22 14L22 15L23 15L23 14L25 14L25 13L22 13L22 10L23 10L23 11L24 11L24 12L26 12L26 13L27 13L27 12L26 12L26 11L28 11L28 10L29 10L29 9L28 9L28 8L27 8L27 9L28 9L28 10L26 10L26 11L24 11L24 10L25 10L25 9L26 9L26 8L25 8L25 9L24 9L24 8L23 8L23 9L22 9L22 8L21 8L21 5L20 5L20 4L21 4L21 0L18 0L18 1L20 1L20 4L19 4L19 2L18 2L18 3L17 3L17 2L16 2L16 0L15 0L15 1L14 1L14 0ZM8 1L8 2L9 2L9 1ZM14 2L14 3L15 3L15 2ZM16 3L16 4L17 4L17 3ZM16 5L16 6L15 6L15 8L16 8L16 9L15 9L15 10L16 10L16 11L14 11L14 12L13 12L13 13L12 13L12 11L13 11L13 10L12 10L12 9L11 9L11 8L10 8L10 9L8 9L8 10L7 10L7 9L6 9L6 10L7 10L7 11L5 11L5 12L7 12L7 11L8 11L8 10L9 10L9 12L11 12L11 13L8 13L8 15L9 15L9 14L10 14L10 15L11 15L11 14L13 14L13 15L12 15L12 17L11 17L11 22L10 22L10 21L9 21L9 22L10 22L10 25L11 25L11 22L13 22L13 23L12 23L12 25L15 25L15 26L18 26L18 27L16 27L16 28L18 28L18 27L19 27L19 25L20 25L20 23L19 23L19 21L16 21L16 20L21 20L21 19L22 19L22 20L23 20L23 18L24 18L24 17L23 17L23 18L22 18L22 17L21 17L21 16L20 16L20 14L21 14L21 13L20 13L20 14L19 14L19 13L18 13L18 14L17 14L17 13L14 13L14 12L21 12L21 10L22 10L22 9L20 9L20 8L19 8L19 7L20 7L20 5ZM9 6L9 7L10 7L10 6ZM11 6L11 7L12 7L12 6ZM16 6L16 7L17 7L17 6ZM18 6L18 7L19 7L19 6ZM17 8L17 9L16 9L16 10L17 10L17 11L19 11L19 10L20 10L20 9L19 9L19 8ZM3 9L3 10L4 10L4 9ZM10 9L10 11L11 11L11 9ZM17 9L17 10L19 10L19 9ZM23 9L23 10L24 10L24 9ZM3 11L3 13L4 13L4 11ZM6 13L6 14L4 14L4 15L6 15L6 16L7 16L7 15L6 15L6 14L7 14L7 13ZM15 14L15 15L14 15L14 16L15 16L15 17L12 17L12 18L13 18L13 19L12 19L12 21L13 21L13 20L14 20L14 21L15 21L15 20L16 20L16 19L19 19L19 18L20 18L20 19L21 19L21 18L20 18L20 16L19 16L19 17L18 17L18 16L17 16L17 14ZM18 14L18 15L19 15L19 14ZM26 15L26 16L27 16L27 15ZM2 16L2 17L3 17L3 18L4 18L4 17L5 17L5 16ZM8 16L8 18L7 18L7 17L6 17L6 18L7 18L7 19L6 19L6 20L7 20L7 19L8 19L8 20L9 20L9 19L10 19L10 18L9 18L9 17L10 17L10 16ZM15 17L15 18L18 18L18 17ZM14 19L14 20L15 20L15 19ZM21 21L21 24L24 24L24 21ZM15 22L15 23L14 23L14 24L15 24L15 25L19 25L19 24L16 24L16 23L18 23L18 22ZM22 22L22 23L23 23L23 22ZM9 26L9 27L10 27L10 26ZM14 27L14 28L15 28L15 27ZM0 0L0 7L7 7L7 0ZM1 1L1 6L6 6L6 1ZM2 2L2 5L5 5L5 2ZM22 0L22 7L29 7L29 0ZM23 1L23 6L28 6L28 1ZM24 2L24 5L27 5L27 2ZM0 22L0 29L7 29L7 22ZM1 23L1 28L6 28L6 23ZM2 24L2 27L5 27L5 24Z" fill="#000000"/></g></g></svg>
