<?xml version="1.0" encoding="UTF-8"?>
<svg xmlns="http://www.w3.org/2000/svg" version="1.1" width="100" height="100" viewBox="0 0 100 100"><rect x="0" y="0" width="100" height="100" fill="#ffffff"/><g transform="scale(3.448)"><g transform="translate(0,0)"><path fill-rule="evenodd" d="M9 0L9 1L8 1L8 3L9 3L9 4L8 4L8 8L6 8L6 9L4 9L4 8L3 8L3 9L4 9L4 10L2 10L2 8L0 8L0 9L1 9L1 10L0 10L0 11L1 11L1 10L2 10L2 13L1 13L1 14L0 14L0 15L2 15L2 16L3 16L3 17L4 17L4 16L5 16L5 18L3 18L3 19L2 19L2 21L4 21L4 20L5 20L5 21L7 21L7 20L5 20L5 19L7 19L7 18L6 18L6 17L7 17L7 16L8 16L8 18L9 18L9 17L10 17L10 20L9 20L9 21L8 21L8 23L10 23L10 25L8 25L8 26L10 26L10 27L11 27L11 28L10 28L10 29L11 29L11 28L12 28L12 29L14 29L14 28L12 28L12 24L14 24L14 25L13 25L13 27L15 27L15 24L14 24L14 23L15 23L15 22L14 22L14 21L15 21L15 20L14 20L14 18L13 18L13 20L12 20L12 19L11 19L11 17L12 17L12 16L13 16L13 17L15 17L15 15L13 15L13 12L12 12L12 13L9 13L9 11L11 11L11 10L12 10L12 9L11 9L11 8L10 8L10 7L11 7L11 6L12 6L12 8L13 8L13 6L14 6L14 8L16 8L16 11L17 11L17 10L19 10L19 11L18 11L18 12L16 12L16 13L18 13L18 14L17 14L17 16L16 16L16 17L18 17L18 18L19 18L19 16L20 16L20 18L21 18L21 19L16 19L16 20L18 20L18 21L17 21L17 22L16 22L16 23L18 23L18 24L16 24L16 25L17 25L17 26L16 26L16 28L17 28L17 29L18 29L18 27L17 27L17 26L19 26L19 24L20 24L20 25L21 25L21 27L20 27L20 28L19 28L19 29L24 29L24 28L21 28L21 27L22 27L22 26L23 26L23 27L25 27L25 29L26 29L26 27L27 27L27 29L28 29L28 27L29 27L29 26L28 26L28 25L29 25L29 24L28 24L28 23L27 23L27 22L26 22L26 21L28 21L28 22L29 22L29 20L26 20L26 19L25 19L25 18L24 18L24 19L23 19L23 17L24 17L24 16L23 16L23 17L22 17L22 18L21 18L21 15L22 15L22 13L23 13L23 12L22 12L22 13L21 13L21 14L20 14L20 12L21 12L21 11L20 11L20 10L23 10L23 11L25 11L25 14L23 14L23 15L25 15L25 14L26 14L26 12L27 12L27 11L28 11L28 10L29 10L29 9L28 9L28 8L26 8L26 9L27 9L27 10L23 10L23 9L25 9L25 8L22 8L22 9L20 9L20 10L19 10L19 8L20 8L20 7L21 7L21 5L19 5L19 4L20 4L20 3L19 3L19 4L17 4L17 3L18 3L18 0L16 0L16 1L15 1L15 0L12 0L12 1L11 1L11 2L9 2L9 1L10 1L10 0ZM19 0L19 1L20 1L20 2L21 2L21 0ZM14 2L14 3L15 3L15 2ZM16 2L16 3L17 3L17 2ZM12 3L12 4L9 4L9 5L10 5L10 6L9 6L9 7L10 7L10 6L11 6L11 5L12 5L12 6L13 6L13 3ZM16 4L16 5L17 5L17 7L16 7L16 6L15 6L15 7L16 7L16 8L17 8L17 9L18 9L18 8L17 8L17 7L18 7L18 5L17 5L17 4ZM19 6L19 7L20 7L20 6ZM8 8L8 10L7 10L7 9L6 9L6 10L4 10L4 11L6 11L6 12L5 12L5 13L6 13L6 14L4 14L4 15L3 15L3 14L2 14L2 15L3 15L3 16L4 16L4 15L5 15L5 16L7 16L7 15L6 15L6 14L8 14L8 15L9 15L9 16L10 16L10 17L11 17L11 16L12 16L12 14L11 14L11 15L10 15L10 14L9 14L9 13L6 13L6 12L7 12L7 11L8 11L8 10L10 10L10 8ZM14 9L14 10L15 10L15 9ZM6 10L6 11L7 11L7 10ZM14 11L14 12L15 12L15 11ZM28 12L28 13L29 13L29 12ZM19 14L19 15L18 15L18 16L19 16L19 15L20 15L20 14ZM28 14L28 15L27 15L27 17L26 17L26 16L25 16L25 17L26 17L26 18L27 18L27 19L29 19L29 17L28 17L28 16L29 16L29 14ZM0 16L0 17L1 17L1 16ZM0 18L0 19L1 19L1 18ZM0 20L0 21L1 21L1 20ZM13 20L13 21L14 21L14 20ZM19 20L19 23L20 23L20 20ZM25 20L25 21L26 21L26 20ZM9 21L9 22L11 22L11 21ZM21 21L21 24L24 24L24 21ZM22 22L22 23L23 23L23 22ZM25 22L25 23L26 23L26 22ZM26 24L26 26L25 26L25 27L26 27L26 26L27 26L27 27L28 27L28 26L27 26L27 24ZM10 25L10 26L11 26L11 25ZM23 25L23 26L24 26L24 25ZM8 27L8 29L9 29L9 27ZM0 0L0 7L7 7L7 0ZM1 1L1 6L6 6L6 1ZM2 2L2 5L5 5L5 2ZM22 0L22 7L29 7L29 0ZM23 1L23 6L28 6L28 1ZM24 2L24 5L27 5L27 2ZM0 22L0 29L7 29L7 22ZM1 23L1 28L6 28L6 23ZM2 24L2 27L5 27L5 24Z" fill="#000000"/></g></g></svg>
