<?xml version="1.0" encoding="UTF-8"?>
<svg xmlns="http://www.w3.org/2000/svg" version="1.1" width="100" height="100" viewBox="0 0 100 100"><rect x="0" y="0" width="100" height="100" fill="#ffffff"/><g transform="scale(3.448)"><g transform="translate(0,0)"><path fill-rule="evenodd" d="M8 0L8 1L9 1L9 2L8 2L8 5L9 5L9 4L11 4L11 5L10 5L10 10L9 10L9 8L8 8L8 9L7 9L7 8L6 8L6 9L7 9L7 10L5 10L5 9L4 9L4 8L0 8L0 10L1 10L1 12L0 12L0 13L2 13L2 14L0 14L0 16L1 16L1 18L0 18L0 19L1 19L1 18L2 18L2 19L3 19L3 20L1 20L1 21L4 21L4 20L5 20L5 19L9 19L9 20L8 20L8 22L10 22L10 21L11 21L11 20L12 20L12 19L11 19L11 18L10 18L10 17L11 17L11 16L12 16L12 17L13 17L13 16L12 16L12 14L13 14L13 15L14 15L14 18L13 18L13 21L15 21L15 20L16 20L16 25L15 25L15 26L14 26L14 25L13 25L13 26L12 26L12 24L15 24L15 22L14 22L14 23L11 23L11 25L10 25L10 23L9 23L9 25L8 25L8 29L9 29L9 27L10 27L10 26L12 26L12 28L11 28L11 29L12 29L12 28L14 28L14 27L15 27L15 28L17 28L17 26L18 26L18 24L20 24L20 25L19 25L19 28L18 28L18 29L19 29L19 28L20 28L20 29L21 29L21 28L22 28L22 26L21 26L21 25L23 25L23 28L24 28L24 29L25 29L25 27L26 27L26 26L27 26L27 24L26 24L26 25L25 25L25 21L27 21L27 20L28 20L28 16L29 16L29 13L27 13L27 12L29 12L29 11L27 11L27 10L26 10L26 9L27 9L27 8L24 8L24 10L23 10L23 9L22 9L22 8L21 8L21 6L20 6L20 4L19 4L19 2L18 2L18 1L21 1L21 0L18 0L18 1L17 1L17 2L18 2L18 3L14 3L14 5L13 5L13 3L12 3L12 4L11 4L11 2L14 2L14 0L12 0L12 1L11 1L11 0L10 0L10 1L9 1L9 0ZM15 0L15 1L16 1L16 0ZM16 4L16 5L14 5L14 6L13 6L13 5L12 5L12 6L11 6L11 8L12 8L12 6L13 6L13 8L14 8L14 9L15 9L15 10L14 10L14 11L11 11L11 13L9 13L9 12L8 12L8 11L6 11L6 12L7 12L7 13L4 13L4 10L3 10L3 9L2 9L2 10L3 10L3 11L2 11L2 12L3 12L3 14L4 14L4 16L3 16L3 17L2 17L2 18L5 18L5 17L4 17L4 16L7 16L7 17L6 17L6 18L8 18L8 17L9 17L9 16L11 16L11 15L10 15L10 14L11 14L11 13L12 13L12 12L13 12L13 14L14 14L14 15L16 15L16 16L15 16L15 17L16 17L16 16L17 16L17 19L16 19L16 20L17 20L17 19L19 19L19 20L18 20L18 21L17 21L17 22L19 22L19 20L25 20L25 19L27 19L27 16L28 16L28 14L25 14L25 13L26 13L26 12L27 12L27 11L24 11L24 15L25 15L25 16L26 16L26 18L25 18L25 17L24 17L24 16L23 16L23 14L22 14L22 13L23 13L23 10L22 10L22 9L20 9L20 6L19 6L19 8L18 8L18 9L17 9L17 8L15 8L15 7L16 7L16 6L17 6L17 7L18 7L18 5L19 5L19 4ZM8 6L8 7L9 7L9 6ZM14 6L14 7L15 7L15 6ZM28 8L28 10L29 10L29 8ZM11 9L11 10L12 10L12 9ZM19 9L19 10L18 10L18 12L17 12L17 10L16 10L16 12L14 12L14 14L16 14L16 15L17 15L17 13L18 13L18 14L19 14L19 15L18 15L18 16L19 16L19 17L18 17L18 18L19 18L19 17L21 17L21 18L22 18L22 17L21 17L21 15L22 15L22 14L20 14L20 13L19 13L19 10L20 10L20 11L21 11L21 13L22 13L22 11L21 11L21 10L20 10L20 9ZM16 12L16 13L17 13L17 12ZM7 13L7 14L5 14L5 15L7 15L7 16L9 16L9 15L8 15L8 14L9 14L9 13ZM19 15L19 16L20 16L20 15ZM9 18L9 19L10 19L10 18ZM23 18L23 19L25 19L25 18ZM6 20L6 21L7 21L7 20ZM9 20L9 21L10 21L10 20ZM21 21L21 24L24 24L24 21ZM28 21L28 22L29 22L29 21ZM22 22L22 23L23 23L23 22ZM17 23L17 24L18 24L18 23ZM28 23L28 24L29 24L29 23ZM9 25L9 26L10 26L10 25ZM16 25L16 26L15 26L15 27L16 27L16 26L17 26L17 25ZM28 25L28 27L27 27L27 29L28 29L28 27L29 27L29 25ZM13 26L13 27L14 27L14 26ZM24 26L24 27L25 27L25 26ZM0 0L0 7L7 7L7 0ZM1 1L1 6L6 6L6 1ZM2 2L2 5L5 5L5 2ZM22 0L22 7L29 7L29 0ZM23 1L23 6L28 6L28 1ZM24 2L24 5L27 5L27 2ZM0 22L0 29L7 29L7 22ZM1 23L1 28L6 28L6 23ZM2 24L2 27L5 27L5 24Z" fill="#000000"/></g></g></svg>
