<?xml version="1.0" encoding="UTF-8"?>
<svg xmlns="http://www.w3.org/2000/svg" version="1.1" width="100" height="100" viewBox="0 0 100 100"><rect x="0" y="0" width="100" height="100" fill="#ffffff"/><g transform="scale(3.448)"><g transform="translate(0,0)"><path fill-rule="evenodd" d="M8 0L8 1L9 1L9 2L8 2L8 5L9 5L9 4L11 4L11 5L10 5L10 10L9 10L9 8L8 8L8 9L7 9L7 8L6 8L6 9L7 9L7 10L6 10L6 11L5 11L5 9L4 9L4 8L0 8L0 10L1 10L1 12L0 12L0 13L2 13L2 10L3 10L3 9L4 9L4 11L3 11L3 14L2 14L2 15L1 15L1 14L0 14L0 15L1 15L1 17L2 17L2 18L3 18L3 19L2 19L2 20L1 20L1 21L2 21L2 20L3 20L3 21L4 21L4 20L6 20L6 21L7 21L7 20L6 20L6 19L7 19L7 18L8 18L8 19L9 19L9 18L11 18L11 16L12 16L12 17L13 17L13 16L12 16L12 14L13 14L13 15L14 15L14 18L13 18L13 21L15 21L15 19L16 19L16 18L17 18L17 23L18 23L18 24L17 24L17 25L16 25L16 23L15 23L15 22L14 22L14 23L11 23L11 22L10 22L10 23L9 23L9 24L10 24L10 25L8 25L8 29L12 29L12 28L14 28L14 27L15 27L15 28L17 28L17 27L19 27L19 28L18 28L18 29L19 29L19 28L20 28L20 29L21 29L21 28L22 28L22 29L23 29L23 28L24 28L24 29L25 29L25 27L24 27L24 26L25 26L25 25L26 25L26 26L27 26L27 24L26 24L26 23L27 23L27 22L26 22L26 21L28 21L28 22L29 22L29 19L28 19L28 16L29 16L29 13L28 13L28 11L27 11L27 12L26 12L26 10L25 10L25 9L27 9L27 8L24 8L24 10L23 10L23 9L22 9L22 8L21 8L21 6L20 6L20 5L21 5L21 3L20 3L20 4L19 4L19 1L20 1L20 2L21 2L21 0L18 0L18 1L16 1L16 0L15 0L15 1L16 1L16 2L18 2L18 3L17 3L17 4L16 4L16 3L14 3L14 5L13 5L13 3L12 3L12 4L11 4L11 2L14 2L14 0L12 0L12 1L11 1L11 0L10 0L10 1L9 1L9 0ZM17 4L17 5L14 5L14 6L13 6L13 5L12 5L12 6L11 6L11 8L12 8L12 6L13 6L13 8L14 8L14 9L15 9L15 10L14 10L14 11L11 11L11 13L9 13L9 12L8 12L8 13L5 13L5 14L3 14L3 15L2 15L2 16L3 16L3 18L7 18L7 17L4 17L4 16L5 16L5 14L7 14L7 15L6 15L6 16L7 16L7 15L8 15L8 13L9 13L9 14L10 14L10 16L8 16L8 17L10 17L10 16L11 16L11 13L12 13L12 12L13 12L13 14L14 14L14 15L15 15L15 17L16 17L16 14L17 14L17 18L18 18L18 23L19 23L19 26L20 26L20 27L22 27L22 28L23 28L23 25L22 25L22 26L20 26L20 23L19 23L19 22L20 22L20 21L19 21L19 20L20 20L20 18L21 18L21 20L25 20L25 21L26 21L26 18L27 18L27 15L28 15L28 14L27 14L27 15L26 15L26 14L25 14L25 12L24 12L24 11L25 11L25 10L24 10L24 11L23 11L23 10L22 10L22 9L20 9L20 10L19 10L19 8L20 8L20 6L19 6L19 8L18 8L18 11L17 11L17 12L18 12L18 14L17 14L17 13L16 13L16 10L17 10L17 7L18 7L18 5L19 5L19 4ZM8 6L8 7L9 7L9 6ZM14 6L14 7L15 7L15 6ZM16 6L16 7L17 7L17 6ZM28 8L28 10L29 10L29 8ZM1 9L1 10L2 10L2 9ZM11 9L11 10L12 10L12 9ZM8 10L8 11L9 11L9 10ZM20 10L20 11L21 11L21 10ZM6 11L6 12L7 12L7 11ZM18 11L18 12L19 12L19 11ZM14 12L14 14L16 14L16 13L15 13L15 12ZM21 12L21 13L22 13L22 14L20 14L20 13L19 13L19 14L18 14L18 17L21 17L21 18L22 18L22 17L21 17L21 15L22 15L22 14L23 14L23 15L24 15L24 16L23 16L23 19L25 19L25 18L24 18L24 17L25 17L25 16L26 16L26 15L25 15L25 14L24 14L24 12L23 12L23 13L22 13L22 12ZM3 15L3 16L4 16L4 15ZM19 15L19 16L20 16L20 15ZM0 18L0 19L1 19L1 18ZM3 19L3 20L4 20L4 19ZM10 19L10 20L12 20L12 19ZM8 20L8 22L9 22L9 20ZM21 21L21 24L24 24L24 21ZM22 22L22 23L23 23L23 22ZM28 23L28 24L29 24L29 23ZM12 24L12 26L10 26L10 28L12 28L12 26L13 26L13 27L14 27L14 26L15 26L15 27L17 27L17 26L15 26L15 24ZM13 25L13 26L14 26L14 25ZM28 25L28 27L27 27L27 29L28 29L28 27L29 27L29 25ZM0 0L0 7L7 7L7 0ZM1 1L1 6L6 6L6 1ZM2 2L2 5L5 5L5 2ZM22 0L22 7L29 7L29 0ZM23 1L23 6L28 6L28 1ZM24 2L24 5L27 5L27 2ZM0 22L0 29L7 29L7 22ZM1 23L1 28L6 28L6 23ZM2 24L2 27L5 27L5 24Z" fill="#000000"/></g></g></svg>
