<?xml version="1.0" encoding="UTF-8"?>
<svg xmlns="http://www.w3.org/2000/svg" version="1.1" width="100" height="100" viewBox="0 0 100 100"><rect x="0" y="0" width="100" height="100" fill="#ffffff"/><g transform="scale(3.448)"><g transform="translate(0,0)"><path fill-rule="evenodd" d="M10 0L10 2L11 2L11 0ZM12 0L12 1L13 1L13 2L12 2L12 4L13 4L13 3L14 3L14 4L17 4L17 5L15 5L15 6L14 6L14 8L15 8L15 9L12 9L12 7L13 7L13 5L11 5L11 6L10 6L10 4L11 4L11 3L8 3L8 4L9 4L9 5L8 5L8 7L9 7L9 8L6 8L6 9L8 9L8 10L4 10L4 9L5 9L5 8L0 8L0 9L3 9L3 10L1 10L1 11L0 11L0 12L1 12L1 13L3 13L3 12L2 12L2 11L3 11L3 10L4 10L4 11L8 11L8 12L6 12L6 13L11 13L11 12L9 12L9 11L8 11L8 10L9 10L9 9L10 9L10 11L11 11L11 9L12 9L12 10L13 10L13 11L12 11L12 13L13 13L13 12L14 12L14 13L16 13L16 14L15 14L15 15L14 15L14 16L15 16L15 17L12 17L12 15L13 15L13 14L10 14L10 15L8 15L8 14L5 14L5 16L2 16L2 15L3 15L3 14L0 14L0 21L1 21L1 17L5 17L5 18L2 18L2 19L4 19L4 20L3 20L3 21L4 21L4 20L5 20L5 21L7 21L7 20L8 20L8 23L9 23L9 24L8 24L8 29L9 29L9 28L10 28L10 29L11 29L11 26L10 26L10 25L12 25L12 26L13 26L13 27L12 27L12 29L13 29L13 28L14 28L14 29L16 29L16 28L17 28L17 29L18 29L18 28L21 28L21 27L20 27L20 25L21 25L21 26L22 26L22 27L23 27L23 29L24 29L24 28L25 28L25 27L27 27L27 28L26 28L26 29L27 29L27 28L28 28L28 26L29 26L29 25L27 25L27 24L28 24L28 22L29 22L29 20L26 20L26 19L27 19L27 18L29 18L29 17L27 17L27 16L29 16L29 15L28 15L28 14L29 14L29 13L28 13L28 12L25 12L25 11L26 11L26 10L25 10L25 9L26 9L26 8L25 8L25 9L24 9L24 8L23 8L23 9L22 9L22 8L21 8L21 6L20 6L20 7L19 7L19 6L18 6L18 7L19 7L19 8L21 8L21 9L18 9L18 8L17 8L17 9L16 9L16 8L15 8L15 6L16 6L16 7L17 7L17 5L20 5L20 4L21 4L21 3L20 3L20 4L19 4L19 3L14 3L14 2L17 2L17 1L16 1L16 0L15 0L15 1L14 1L14 0ZM19 0L19 1L18 1L18 2L19 2L19 1L20 1L20 2L21 2L21 1L20 1L20 0ZM8 1L8 2L9 2L9 1ZM9 6L9 7L10 7L10 6ZM11 6L11 7L12 7L12 6ZM10 8L10 9L11 9L11 8ZM27 8L27 10L29 10L29 9L28 9L28 8ZM15 9L15 10L16 10L16 11L14 11L14 12L16 12L16 13L17 13L17 12L18 12L18 11L17 11L17 10L18 10L18 9L17 9L17 10L16 10L16 9ZM19 10L19 12L21 12L21 10ZM22 10L22 11L25 11L25 10ZM22 12L22 13L23 13L23 14L24 14L24 15L22 15L22 14L21 14L21 13L20 13L20 14L19 14L19 13L18 13L18 14L16 14L16 15L17 15L17 16L16 16L16 17L15 17L15 18L16 18L16 19L14 19L14 20L13 20L13 21L12 21L12 19L13 19L13 18L12 18L12 17L10 17L10 16L9 16L9 17L8 17L8 15L6 15L6 16L5 16L5 17L6 17L6 18L5 18L5 19L6 19L6 20L7 20L7 19L8 19L8 20L10 20L10 19L11 19L11 21L9 21L9 23L10 23L10 24L11 24L11 23L10 23L10 22L13 22L13 23L12 23L12 25L15 25L15 26L16 26L16 27L17 27L17 28L18 28L18 27L19 27L19 25L20 25L20 23L18 23L18 21L19 21L19 20L21 20L21 19L22 19L22 20L23 20L23 18L22 18L22 17L25 17L25 16L27 16L27 15L25 15L25 14L28 14L28 13L25 13L25 12L24 12L24 13L23 13L23 12ZM24 13L24 14L25 14L25 13ZM18 14L18 15L19 15L19 14ZM20 14L20 16L19 16L19 17L18 17L18 16L17 16L17 17L16 17L16 18L17 18L17 17L18 17L18 18L20 18L20 19L21 19L21 18L20 18L20 16L21 16L21 17L22 17L22 16L21 16L21 14ZM24 15L24 16L25 16L25 15ZM6 16L6 17L7 17L7 18L6 18L6 19L7 19L7 18L8 18L8 17L7 17L7 16ZM9 17L9 19L10 19L10 17ZM26 17L26 18L27 18L27 17ZM14 20L14 21L18 21L18 20ZM25 20L25 24L27 24L27 23L26 23L26 22L28 22L28 21L26 21L26 20ZM21 21L21 24L24 24L24 21ZM15 22L15 23L14 23L14 24L15 24L15 25L16 25L16 26L17 26L17 25L19 25L19 24L17 24L17 25L16 25L16 23L17 23L17 22ZM22 22L22 23L23 23L23 22ZM22 25L22 26L25 26L25 25ZM26 25L26 26L27 26L27 25ZM9 26L9 27L10 27L10 26ZM14 27L14 28L15 28L15 27ZM0 0L0 7L7 7L7 0ZM1 1L1 6L6 6L6 1ZM2 2L2 5L5 5L5 2ZM22 0L22 7L29 7L29 0ZM23 1L23 6L28 6L28 1ZM24 2L24 5L27 5L27 2ZM0 22L0 29L7 29L7 22ZM1 23L1 28L6 28L6 23ZM2 24L2 27L5 27L5 24Z" fill="#000000"/></g></g></svg>
