<?xml version="1.0" encoding="UTF-8"?>
<svg xmlns="http://www.w3.org/2000/svg" version="1.1" width="100" height="100" viewBox="0 0 100 100"><rect x="0" y="0" width="100" height="100" fill="#ffffff"/><g transform="scale(3.448)"><g transform="translate(0,0)"><path fill-rule="evenodd" d="M10 0L10 2L11 2L11 0ZM12 0L12 1L13 1L13 2L12 2L12 4L13 4L13 3L14 3L14 4L16 4L16 5L15 5L15 6L14 6L14 8L15 8L15 9L12 9L12 7L13 7L13 5L11 5L11 6L10 6L10 4L11 4L11 3L8 3L8 4L9 4L9 5L8 5L8 7L9 7L9 8L6 8L6 9L7 9L7 10L6 10L6 11L9 11L9 9L10 9L10 11L11 11L11 9L12 9L12 10L13 10L13 11L12 11L12 13L13 13L13 12L14 12L14 13L16 13L16 14L15 14L15 15L14 15L14 16L15 16L15 17L12 17L12 15L13 15L13 14L11 14L11 15L10 15L10 13L11 13L11 12L9 12L9 15L8 15L8 16L6 16L6 17L5 17L5 19L8 19L8 20L5 20L5 21L8 21L8 23L11 23L11 24L8 24L8 29L9 29L9 28L10 28L10 27L11 27L11 25L12 25L12 26L13 26L13 27L12 27L12 29L13 29L13 28L14 28L14 29L19 29L19 28L21 28L21 29L22 29L22 28L21 28L21 27L23 27L23 29L24 29L24 28L25 28L25 26L24 26L24 25L27 25L27 28L26 28L26 29L27 29L27 28L28 28L28 26L29 26L29 25L27 25L27 24L28 24L28 22L29 22L29 21L28 21L28 20L29 20L29 19L28 19L28 20L26 20L26 19L24 19L24 20L22 20L22 19L21 19L21 18L20 18L20 16L21 16L21 17L22 17L22 18L26 18L26 17L27 17L27 18L29 18L29 17L28 17L28 16L29 16L29 15L27 15L27 14L29 14L29 13L27 13L27 12L26 12L26 11L24 11L24 10L25 10L25 9L26 9L26 10L27 10L27 11L28 11L28 10L29 10L29 9L28 9L28 8L27 8L27 9L26 9L26 8L25 8L25 9L24 9L24 8L23 8L23 9L22 9L22 8L20 8L20 7L21 7L21 5L20 5L20 4L21 4L21 2L20 2L20 4L19 4L19 1L21 1L21 0L18 0L18 1L16 1L16 0L15 0L15 1L14 1L14 0ZM8 1L8 2L9 2L9 1ZM14 2L14 3L15 3L15 2ZM17 2L17 3L16 3L16 4L17 4L17 3L18 3L18 2ZM17 5L17 7L16 7L16 6L15 6L15 7L16 7L16 8L18 8L18 9L15 9L15 10L18 10L18 9L20 9L20 10L19 10L19 11L14 11L14 12L16 12L16 13L17 13L17 16L16 16L16 17L15 17L15 18L16 18L16 19L17 19L17 20L16 20L16 21L14 21L14 20L15 20L15 19L14 19L14 20L13 20L13 21L12 21L12 19L13 19L13 18L12 18L12 17L11 17L11 16L10 16L10 15L9 15L9 16L10 16L10 17L9 17L9 20L10 20L10 22L13 22L13 23L12 23L12 25L15 25L15 26L16 26L16 25L17 25L17 28L19 28L19 27L21 27L21 26L23 26L23 27L24 27L24 26L23 26L23 25L20 25L20 23L19 23L19 25L17 25L17 24L18 24L18 23L17 23L17 22L18 22L18 21L20 21L20 20L19 20L19 19L20 19L20 18L19 18L19 17L17 17L17 16L18 16L18 14L19 14L19 16L20 16L20 14L21 14L21 16L22 16L22 17L26 17L26 16L27 16L27 15L26 15L26 16L23 16L23 15L24 15L24 14L23 14L23 15L22 15L22 14L21 14L21 13L20 13L20 14L19 14L19 13L17 13L17 12L21 12L21 10L22 10L22 13L25 13L25 14L27 14L27 13L26 13L26 12L24 12L24 11L23 11L23 10L24 10L24 9L23 9L23 10L22 10L22 9L20 9L20 8L19 8L19 7L20 7L20 5ZM9 6L9 7L10 7L10 6ZM11 6L11 7L12 7L12 6ZM18 6L18 7L19 7L19 6ZM0 8L0 9L2 9L2 10L1 10L1 12L0 12L0 21L1 21L1 16L3 16L3 17L2 17L2 19L4 19L4 18L3 18L3 17L4 17L4 16L5 16L5 15L7 15L7 14L8 14L8 12L6 12L6 13L7 13L7 14L4 14L4 13L5 13L5 11L4 11L4 10L5 10L5 8ZM10 8L10 9L11 9L11 8ZM27 9L27 10L28 10L28 9ZM2 11L2 12L1 12L1 14L3 14L3 15L4 15L4 14L3 14L3 13L2 13L2 12L4 12L4 11ZM6 17L6 18L7 18L7 17ZM16 17L16 18L17 18L17 19L19 19L19 18L17 18L17 17ZM10 18L10 19L11 19L11 18ZM2 20L2 21L4 21L4 20ZM17 20L17 21L16 21L16 22L15 22L15 23L14 23L14 24L15 24L15 25L16 25L16 24L17 24L17 23L16 23L16 22L17 22L17 21L18 21L18 20ZM25 20L25 22L28 22L28 21L26 21L26 20ZM21 21L21 24L24 24L24 21ZM22 22L22 23L23 23L23 22ZM25 23L25 24L27 24L27 23ZM9 25L9 26L10 26L10 25ZM19 25L19 26L18 26L18 27L19 27L19 26L20 26L20 25ZM14 27L14 28L15 28L15 27ZM0 0L0 7L7 7L7 0ZM1 1L1 6L6 6L6 1ZM2 2L2 5L5 5L5 2ZM22 0L22 7L29 7L29 0ZM23 1L23 6L28 6L28 1ZM24 2L24 5L27 5L27 2ZM0 22L0 29L7 29L7 22ZM1 23L1 28L6 28L6 23ZM2 24L2 27L5 27L5 24Z" fill="#000000"/></g></g></svg>
