<?xml version="1.0" encoding="UTF-8"?>
<svg xmlns="http://www.w3.org/2000/svg" version="1.1" width="100" height="100" viewBox="0 0 100 100"><rect x="0" y="0" width="100" height="100" fill="#ffffff"/><g transform="scale(3.448)"><g transform="translate(0,0)"><path fill-rule="evenodd" d="M10 0L10 2L11 2L11 0ZM12 0L12 1L13 1L13 2L12 2L12 4L13 4L13 3L14 3L14 4L17 4L17 5L15 5L15 6L14 6L14 8L15 8L15 9L12 9L12 7L13 7L13 5L11 5L11 6L10 6L10 4L11 4L11 3L8 3L8 4L9 4L9 5L8 5L8 7L9 7L9 8L6 8L6 9L5 9L5 8L0 8L0 9L1 9L1 11L4 11L4 12L6 12L6 13L11 13L11 12L9 12L9 11L8 11L8 10L9 10L9 9L10 9L10 11L11 11L11 9L12 9L12 10L13 10L13 11L12 11L12 13L13 13L13 12L14 12L14 13L18 13L18 14L20 14L20 16L19 16L19 15L18 15L18 16L17 16L17 17L16 17L16 16L15 16L15 15L17 15L17 14L15 14L15 15L14 15L14 16L15 16L15 17L12 17L12 15L13 15L13 14L11 14L11 16L9 16L9 18L11 18L11 17L12 17L12 18L13 18L13 19L12 19L12 21L13 21L13 20L14 20L14 21L15 21L15 20L16 20L16 21L18 21L18 23L19 23L19 24L16 24L16 22L15 22L15 23L14 23L14 24L16 24L16 25L19 25L19 26L22 26L22 27L20 27L20 28L19 28L19 29L20 29L20 28L21 28L21 29L22 29L22 27L23 27L23 29L24 29L24 28L25 28L25 27L27 27L27 28L26 28L26 29L27 29L27 28L28 28L28 26L29 26L29 25L27 25L27 24L28 24L28 23L27 23L27 24L25 24L25 23L26 23L26 22L25 22L25 20L26 20L26 21L27 21L27 22L29 22L29 21L28 21L28 20L29 20L29 19L28 19L28 20L26 20L26 19L27 19L27 18L29 18L29 17L28 17L28 16L29 16L29 15L28 15L28 14L29 14L29 13L28 13L28 14L26 14L26 15L25 15L25 13L27 13L27 12L28 12L28 11L27 11L27 10L29 10L29 9L28 9L28 8L27 8L27 10L26 10L26 8L25 8L25 9L24 9L24 8L23 8L23 9L22 9L22 8L20 8L20 7L21 7L21 5L20 5L20 4L21 4L21 3L20 3L20 2L19 2L19 1L20 1L20 0L19 0L19 1L16 1L16 0L15 0L15 1L14 1L14 0ZM8 1L8 2L9 2L9 1ZM14 2L14 3L16 3L16 2ZM17 2L17 3L18 3L18 2ZM19 3L19 4L20 4L20 3ZM17 5L17 7L16 7L16 6L15 6L15 7L16 7L16 9L15 9L15 10L16 10L16 11L17 11L17 12L18 12L18 13L21 13L21 12L22 12L22 13L25 13L25 12L27 12L27 11L26 11L26 10L25 10L25 12L23 12L23 11L24 11L24 10L22 10L22 11L21 11L21 9L20 9L20 8L19 8L19 7L20 7L20 5ZM9 6L9 7L10 7L10 6ZM11 6L11 7L12 7L12 6ZM18 6L18 7L19 7L19 6ZM10 8L10 9L11 9L11 8ZM17 8L17 9L16 9L16 10L17 10L17 11L19 11L19 12L20 12L20 11L19 11L19 10L20 10L20 9L18 9L18 8ZM4 9L4 11L5 11L5 9ZM6 9L6 10L7 10L7 9ZM17 9L17 10L18 10L18 9ZM6 11L6 12L7 12L7 11ZM14 11L14 12L15 12L15 11ZM2 12L2 13L1 13L1 17L0 17L0 21L1 21L1 17L4 17L4 16L5 16L5 18L6 18L6 19L8 19L8 20L6 20L6 21L8 21L8 23L9 23L9 24L8 24L8 29L9 29L9 26L10 26L10 25L9 25L9 24L11 24L11 25L12 25L12 26L13 26L13 27L12 27L12 29L13 29L13 28L14 28L14 29L16 29L16 28L17 28L17 29L18 29L18 28L17 28L17 27L18 27L18 26L17 26L17 27L16 27L16 26L15 26L15 25L12 25L12 23L13 23L13 22L11 22L11 19L10 19L10 20L9 20L9 19L8 19L8 18L6 18L6 17L7 17L7 16L5 16L5 13L4 13L4 14L3 14L3 12ZM6 14L6 15L10 15L10 14ZM21 14L21 16L20 16L20 18L19 18L19 17L17 17L17 19L16 19L16 20L18 20L18 21L19 21L19 22L20 22L20 20L21 20L21 19L22 19L22 20L24 20L24 19L26 19L26 18L27 18L27 17L26 17L26 16L27 16L27 15L26 15L26 16L24 16L24 17L23 17L23 15L22 15L22 14ZM2 15L2 16L4 16L4 15ZM21 16L21 17L22 17L22 18L23 18L23 17L22 17L22 16ZM15 17L15 18L16 18L16 17ZM24 17L24 18L26 18L26 17ZM20 18L20 19L21 19L21 18ZM4 19L4 20L5 20L5 19ZM14 19L14 20L15 20L15 19ZM2 20L2 21L3 21L3 20ZM8 20L8 21L9 21L9 20ZM21 21L21 24L24 24L24 21ZM10 22L10 23L11 23L11 22ZM22 22L22 23L23 23L23 22ZM19 24L19 25L20 25L20 24ZM22 25L22 26L25 26L25 25ZM26 25L26 26L27 26L27 25ZM14 27L14 28L16 28L16 27ZM10 28L10 29L11 29L11 28ZM0 0L0 7L7 7L7 0ZM1 1L1 6L6 6L6 1ZM2 2L2 5L5 5L5 2ZM22 0L22 7L29 7L29 0ZM23 1L23 6L28 6L28 1ZM24 2L24 5L27 5L27 2ZM0 22L0 29L7 29L7 22ZM1 23L1 28L6 28L6 23ZM2 24L2 27L5 27L5 24Z" fill="#000000"/></g></g></svg>
