<?xml version="1.0" encoding="UTF-8"?>
<svg xmlns="http://www.w3.org/2000/svg" version="1.1" width="100" height="100" viewBox="0 0 100 100"><rect x="0" y="0" width="100" height="100" fill="#ffffff"/><g transform="scale(3.448)"><g transform="translate(0,0)"><path fill-rule="evenodd" d="M10 0L10 2L11 2L11 0ZM12 0L12 1L13 1L13 2L12 2L12 4L13 4L13 3L14 3L14 4L17 4L17 5L15 5L15 6L14 6L14 8L15 8L15 9L12 9L12 7L13 7L13 5L11 5L11 6L10 6L10 4L11 4L11 3L8 3L8 4L9 4L9 5L8 5L8 7L9 7L9 8L6 8L6 9L5 9L5 8L0 8L0 9L3 9L3 11L4 11L4 12L2 12L2 13L3 13L3 14L2 14L2 15L0 15L0 21L1 21L1 17L2 17L2 18L3 18L3 19L2 19L2 20L3 20L3 21L4 21L4 20L5 20L5 19L8 19L8 17L7 17L7 16L9 16L9 15L11 15L11 16L10 16L10 18L9 18L9 20L8 20L8 23L9 23L9 24L8 24L8 29L9 29L9 28L10 28L10 29L11 29L11 27L10 27L10 26L11 26L11 25L12 25L12 26L13 26L13 27L12 27L12 29L13 29L13 28L14 28L14 29L19 29L19 28L21 28L21 29L24 29L24 28L25 28L25 27L26 27L26 26L20 26L20 27L19 27L19 25L18 25L18 24L19 24L19 23L20 23L20 25L25 25L25 24L26 24L26 25L27 25L27 28L26 28L26 29L27 29L27 28L28 28L28 26L29 26L29 25L27 25L27 24L28 24L28 22L29 22L29 21L28 21L28 22L27 22L27 24L26 24L26 22L25 22L25 20L26 20L26 21L27 21L27 20L29 20L29 19L28 19L28 18L29 18L29 17L28 17L28 18L27 18L27 20L26 20L26 19L25 19L25 18L26 18L26 17L27 17L27 16L26 16L26 13L27 13L27 14L29 14L29 13L27 13L27 12L29 12L29 11L28 11L28 10L29 10L29 9L28 9L28 8L27 8L27 9L26 9L26 8L25 8L25 9L24 9L24 8L23 8L23 9L22 9L22 8L21 8L21 5L20 5L20 4L21 4L21 3L20 3L20 4L19 4L19 3L17 3L17 2L18 2L18 1L17 1L17 2L16 2L16 0L15 0L15 1L14 1L14 0ZM19 0L19 1L20 1L20 2L21 2L21 1L20 1L20 0ZM8 1L8 2L9 2L9 1ZM14 2L14 3L15 3L15 2ZM17 5L17 8L16 8L16 9L15 9L15 10L16 10L16 9L17 9L17 11L16 11L16 12L18 12L18 13L14 13L14 12L15 12L15 11L14 11L14 12L13 12L13 13L12 13L12 11L13 11L13 10L12 10L12 9L11 9L11 8L10 8L10 9L9 9L9 11L5 11L5 9L4 9L4 11L5 11L5 12L4 12L4 14L7 14L7 15L3 15L3 16L7 16L7 15L8 15L8 12L11 12L11 13L9 13L9 14L13 14L13 15L12 15L12 17L11 17L11 19L10 19L10 20L9 20L9 23L10 23L10 22L13 22L13 23L12 23L12 25L15 25L15 26L18 26L18 25L15 25L15 24L14 24L14 23L15 23L15 22L16 22L16 24L18 24L18 23L19 23L19 21L20 21L20 20L19 20L19 19L20 19L20 18L21 18L21 19L22 19L22 20L24 20L24 19L23 19L23 18L22 18L22 17L26 17L26 16L24 16L24 15L22 15L22 14L21 14L21 13L20 13L20 14L19 14L19 16L20 16L20 18L19 18L19 17L15 17L15 16L14 16L14 15L15 15L15 14L18 14L18 13L19 13L19 12L21 12L21 11L23 11L23 12L22 12L22 13L23 13L23 14L24 14L24 13L26 13L26 12L27 12L27 10L28 10L28 9L27 9L27 10L26 10L26 9L25 9L25 11L26 11L26 12L24 12L24 11L23 11L23 10L21 10L21 9L20 9L20 5ZM9 6L9 7L10 7L10 6ZM11 6L11 7L12 7L12 6ZM15 6L15 7L16 7L16 6ZM18 6L18 7L19 7L19 6ZM17 8L17 9L18 9L18 11L19 11L19 10L20 10L20 11L21 11L21 10L20 10L20 9L18 9L18 8ZM6 9L6 10L8 10L8 9ZM10 9L10 11L11 11L11 9ZM1 10L1 11L2 11L2 10ZM5 12L5 13L7 13L7 12ZM23 12L23 13L24 13L24 12ZM20 14L20 16L21 16L21 17L22 17L22 16L21 16L21 14ZM16 15L16 16L18 16L18 15ZM28 15L28 16L29 16L29 15ZM4 17L4 19L5 19L5 17ZM6 17L6 18L7 18L7 17ZM12 17L12 18L13 18L13 19L12 19L12 21L13 21L13 20L14 20L14 21L16 21L16 22L17 22L17 21L19 21L19 20L17 20L17 19L18 19L18 18L17 18L17 19L16 19L16 18L15 18L15 17ZM14 19L14 20L15 20L15 19ZM6 20L6 21L7 21L7 20ZM10 20L10 21L11 21L11 20ZM16 20L16 21L17 21L17 20ZM21 21L21 24L24 24L24 21ZM22 22L22 23L23 23L23 22ZM9 25L9 26L10 26L10 25ZM14 27L14 28L15 28L15 27ZM17 27L17 28L19 28L19 27ZM21 27L21 28L23 28L23 27ZM0 0L0 7L7 7L7 0ZM1 1L1 6L6 6L6 1ZM2 2L2 5L5 5L5 2ZM22 0L22 7L29 7L29 0ZM23 1L23 6L28 6L28 1ZM24 2L24 5L27 5L27 2ZM0 22L0 29L7 29L7 22ZM1 23L1 28L6 28L6 23ZM2 24L2 27L5 27L5 24Z" fill="#000000"/></g></g></svg>
