<?xml version="1.0" encoding="UTF-8"?>
<svg xmlns="http://www.w3.org/2000/svg" version="1.1" width="100" height="100" viewBox="0 0 100 100"><rect x="0" y="0" width="100" height="100" fill="#ffffff"/><g transform="scale(3.448)"><g transform="translate(0,0)"><path fill-rule="evenodd" d="M10 0L10 2L11 2L11 0ZM12 0L12 1L13 1L13 2L12 2L12 4L13 4L13 3L14 3L14 4L17 4L17 5L20 5L20 4L21 4L21 3L20 3L20 4L19 4L19 3L17 3L17 1L16 1L16 0L15 0L15 1L14 1L14 0ZM18 0L18 2L19 2L19 1L20 1L20 2L21 2L21 0ZM8 1L8 2L9 2L9 1ZM14 2L14 3L15 3L15 2ZM8 3L8 4L9 4L9 5L8 5L8 7L9 7L9 8L6 8L6 9L8 9L8 10L6 10L6 11L8 11L8 10L9 10L9 9L10 9L10 11L11 11L11 9L12 9L12 10L13 10L13 11L12 11L12 13L13 13L13 12L14 12L14 13L15 13L15 12L16 12L16 13L18 13L18 14L17 14L17 15L16 15L16 14L15 14L15 15L14 15L14 16L15 16L15 17L12 17L12 15L13 15L13 14L10 14L10 13L11 13L11 12L6 12L6 13L4 13L4 14L3 14L3 12L5 12L5 10L4 10L4 9L5 9L5 8L0 8L0 11L1 11L1 12L0 12L0 13L2 13L2 14L3 14L3 15L1 15L1 14L0 14L0 15L1 15L1 16L0 16L0 21L1 21L1 18L4 18L4 19L5 19L5 14L6 14L6 15L9 15L9 16L8 16L8 17L7 17L7 16L6 16L6 17L7 17L7 18L6 18L6 19L7 19L7 20L6 20L6 21L7 21L7 20L9 20L9 21L8 21L8 23L9 23L9 24L8 24L8 29L11 29L11 25L12 25L12 26L13 26L13 27L12 27L12 29L13 29L13 28L14 28L14 29L15 29L15 28L16 28L16 29L19 29L19 28L21 28L21 29L24 29L24 28L25 28L25 26L26 26L26 27L27 27L27 28L26 28L26 29L27 29L27 28L28 28L28 26L29 26L29 25L27 25L27 24L28 24L28 22L29 22L29 20L25 20L25 19L24 19L24 20L22 20L22 19L21 19L21 20L19 20L19 19L18 19L18 18L20 18L20 16L21 16L21 17L22 17L22 18L23 18L23 17L24 17L24 18L26 18L26 19L28 19L28 18L29 18L29 17L28 17L28 15L27 15L27 16L26 16L26 14L29 14L29 13L27 13L27 12L25 12L25 11L22 11L22 10L25 10L25 9L26 9L26 10L27 10L27 11L28 11L28 10L29 10L29 9L28 9L28 8L27 8L27 9L26 9L26 8L25 8L25 9L24 9L24 8L23 8L23 9L22 9L22 8L19 8L19 9L18 9L18 8L16 8L16 7L17 7L17 6L16 6L16 5L15 5L15 6L14 6L14 8L16 8L16 9L18 9L18 10L20 10L20 11L22 11L22 12L19 12L19 13L18 13L18 12L16 12L16 11L17 11L17 10L15 10L15 9L12 9L12 7L13 7L13 5L11 5L11 6L10 6L10 4L11 4L11 3ZM9 6L9 7L10 7L10 6ZM11 6L11 7L12 7L12 6ZM15 6L15 7L16 7L16 6ZM18 6L18 7L19 7L19 6ZM20 6L20 7L21 7L21 6ZM10 8L10 9L11 9L11 8ZM20 9L20 10L21 10L21 9ZM27 9L27 10L28 10L28 9ZM1 10L1 11L4 11L4 10ZM14 11L14 12L15 12L15 11ZM22 12L22 13L23 13L23 15L22 15L22 14L21 14L21 13L20 13L20 14L19 14L19 16L18 16L18 15L17 15L17 16L18 16L18 17L15 17L15 18L16 18L16 20L15 20L15 19L14 19L14 20L13 20L13 21L12 21L12 19L13 19L13 18L12 18L12 17L11 17L11 15L10 15L10 14L9 14L9 13L8 13L8 14L9 14L9 15L10 15L10 16L9 16L9 17L8 17L8 19L9 19L9 20L10 20L10 21L9 21L9 23L11 23L11 22L13 22L13 23L12 23L12 25L15 25L15 26L16 26L16 28L19 28L19 27L20 27L20 26L21 26L21 27L22 27L22 28L23 28L23 27L22 27L22 26L25 26L25 25L26 25L26 26L27 26L27 25L26 25L26 24L27 24L27 23L26 23L26 24L25 24L25 25L22 25L22 26L21 26L21 25L20 25L20 23L19 23L19 21L16 21L16 20L18 20L18 19L17 19L17 18L18 18L18 17L19 17L19 16L20 16L20 14L21 14L21 16L22 16L22 17L23 17L23 16L24 16L24 17L26 17L26 18L28 18L28 17L26 17L26 16L24 16L24 15L25 15L25 14L26 14L26 13L25 13L25 12L24 12L24 13L23 13L23 12ZM6 13L6 14L7 14L7 13ZM24 13L24 14L25 14L25 13ZM3 15L3 16L4 16L4 15ZM15 15L15 16L16 16L16 15ZM9 17L9 18L10 18L10 19L11 19L11 17ZM4 20L4 21L5 21L5 20ZM14 20L14 21L15 21L15 20ZM10 21L10 22L11 22L11 21ZM21 21L21 24L24 24L24 21ZM25 21L25 22L28 22L28 21ZM15 22L15 23L14 23L14 24L15 24L15 25L18 25L18 26L17 26L17 27L19 27L19 26L20 26L20 25L18 25L18 24L17 24L17 23L18 23L18 22ZM22 22L22 23L23 23L23 22ZM15 23L15 24L16 24L16 23ZM9 24L9 26L10 26L10 25L11 25L11 24ZM9 27L9 28L10 28L10 27ZM14 27L14 28L15 28L15 27ZM0 0L0 7L7 7L7 0ZM1 1L1 6L6 6L6 1ZM2 2L2 5L5 5L5 2ZM22 0L22 7L29 7L29 0ZM23 1L23 6L28 6L28 1ZM24 2L24 5L27 5L27 2ZM0 22L0 29L7 29L7 22ZM1 23L1 28L6 28L6 23ZM2 24L2 27L5 27L5 24Z" fill="#000000"/></g></g></svg>
