<?xml version="1.0" encoding="UTF-8"?>
<svg xmlns="http://www.w3.org/2000/svg" version="1.1" width="100" height="100" viewBox="0 0 100 100"><rect x="0" y="0" width="100" height="100" fill="#ffffff"/><g transform="scale(3.448)"><g transform="translate(0,0)"><path fill-rule="evenodd" d="M10 0L10 2L11 2L11 0ZM12 0L12 1L13 1L13 2L12 2L12 4L13 4L13 3L14 3L14 4L16 4L16 5L15 5L15 6L14 6L14 8L15 8L15 9L12 9L12 7L13 7L13 5L11 5L11 6L10 6L10 4L11 4L11 3L8 3L8 4L9 4L9 5L8 5L8 7L9 7L9 8L6 8L6 9L5 9L5 8L0 8L0 9L1 9L1 10L2 10L2 9L3 9L3 11L1 11L1 12L0 12L0 14L1 14L1 13L2 13L2 12L3 12L3 11L4 11L4 9L5 9L5 10L6 10L6 11L8 11L8 10L6 10L6 9L10 9L10 11L11 11L11 9L12 9L12 10L13 10L13 11L12 11L12 13L13 13L13 12L14 12L14 13L17 13L17 14L15 14L15 15L14 15L14 16L15 16L15 17L12 17L12 15L13 15L13 14L11 14L11 17L10 17L10 13L11 13L11 12L6 12L6 13L7 13L7 14L6 14L6 15L5 15L5 13L3 13L3 14L4 14L4 15L5 15L5 16L3 16L3 15L2 15L2 16L0 16L0 21L1 21L1 17L3 17L3 18L2 18L2 19L3 19L3 18L5 18L5 19L4 19L4 21L8 21L8 23L11 23L11 25L10 25L10 24L8 24L8 29L9 29L9 28L10 28L10 29L11 29L11 27L9 27L9 26L11 26L11 25L12 25L12 26L13 26L13 27L12 27L12 29L13 29L13 28L14 28L14 29L16 29L16 28L17 28L17 29L18 29L18 28L17 28L17 27L18 27L18 26L15 26L15 25L19 25L19 28L21 28L21 29L22 29L22 27L23 27L23 29L24 29L24 28L25 28L25 27L27 27L27 28L26 28L26 29L27 29L27 28L28 28L28 26L29 26L29 25L27 25L27 24L28 24L28 22L29 22L29 21L28 21L28 20L29 20L29 19L28 19L28 20L25 20L25 18L26 18L26 19L27 19L27 18L29 18L29 17L28 17L28 16L26 16L26 15L27 15L27 14L29 14L29 13L28 13L28 12L29 12L29 11L28 11L28 10L29 10L29 9L28 9L28 8L27 8L27 9L28 9L28 10L27 10L27 12L26 12L26 8L25 8L25 9L24 9L24 8L23 8L23 9L22 9L22 8L21 8L21 5L20 5L20 4L21 4L21 3L20 3L20 2L21 2L21 1L20 1L20 0L19 0L19 1L20 1L20 2L18 2L18 1L16 1L16 0L15 0L15 1L14 1L14 0ZM8 1L8 2L9 2L9 1ZM14 2L14 3L15 3L15 2ZM16 2L16 4L17 4L17 3L18 3L18 2ZM19 3L19 4L20 4L20 3ZM17 5L17 8L19 8L19 9L18 9L18 10L17 10L17 9L15 9L15 10L16 10L16 11L14 11L14 12L19 12L19 13L18 13L18 14L17 14L17 16L18 16L18 14L19 14L19 16L20 16L20 18L19 18L19 17L18 17L18 18L17 18L17 17L15 17L15 18L17 18L17 19L16 19L16 20L19 20L19 21L18 21L18 22L17 22L17 21L14 21L14 20L15 20L15 19L14 19L14 20L13 20L13 21L12 21L12 19L13 19L13 18L12 18L12 17L11 17L11 18L10 18L10 17L9 17L9 18L8 18L8 17L6 17L6 16L7 16L7 15L9 15L9 14L7 14L7 15L6 15L6 16L5 16L5 17L6 17L6 18L8 18L8 19L9 19L9 18L10 18L10 19L11 19L11 20L8 20L8 21L9 21L9 22L13 22L13 23L12 23L12 25L15 25L15 24L18 24L18 22L20 22L20 18L21 18L21 19L22 19L22 20L23 20L23 19L24 19L24 17L26 17L26 18L27 18L27 17L26 17L26 16L24 16L24 17L23 17L23 15L22 15L22 14L21 14L21 16L20 16L20 14L19 14L19 13L21 13L21 12L22 12L22 13L25 13L25 14L24 14L24 15L26 15L26 14L27 14L27 13L26 13L26 12L22 12L22 11L25 11L25 10L24 10L24 9L23 9L23 10L22 10L22 9L20 9L20 5ZM9 6L9 7L10 7L10 6ZM11 6L11 7L12 7L12 6ZM15 6L15 8L16 8L16 6ZM18 6L18 7L19 7L19 6ZM10 8L10 9L11 9L11 8ZM19 9L19 10L18 10L18 11L19 11L19 12L20 12L20 11L19 11L19 10L20 10L20 9ZM15 15L15 16L16 16L16 15ZM21 16L21 17L22 17L22 18L23 18L23 17L22 17L22 16ZM18 18L18 19L19 19L19 18ZM6 19L6 20L7 20L7 19ZM21 21L21 24L24 24L24 21ZM26 21L26 22L25 22L25 23L26 23L26 24L25 24L25 25L22 25L22 26L21 26L21 25L20 25L20 24L19 24L19 25L20 25L20 27L22 27L22 26L27 26L27 25L26 25L26 24L27 24L27 23L26 23L26 22L28 22L28 21ZM15 22L15 23L14 23L14 24L15 24L15 23L17 23L17 22ZM22 22L22 23L23 23L23 22ZM14 27L14 28L15 28L15 27ZM0 0L0 7L7 7L7 0ZM1 1L1 6L6 6L6 1ZM2 2L2 5L5 5L5 2ZM22 0L22 7L29 7L29 0ZM23 1L23 6L28 6L28 1ZM24 2L24 5L27 5L27 2ZM0 22L0 29L7 29L7 22ZM1 23L1 28L6 28L6 23ZM2 24L2 27L5 27L5 24Z" fill="#000000"/></g></g></svg>
