<?xml version="1.0" encoding="UTF-8"?>
<svg xmlns="http://www.w3.org/2000/svg" version="1.1" width="100" height="100" viewBox="0 0 100 100"><rect x="0" y="0" width="100" height="100" fill="#ffffff"/><g transform="scale(3.448)"><g transform="translate(0,0)"><path fill-rule="evenodd" d="M9 0L9 1L8 1L8 3L9 3L9 4L8 4L8 8L6 8L6 9L5 9L5 10L4 10L4 8L3 8L3 10L2 10L2 8L0 8L0 9L1 9L1 10L2 10L2 11L1 11L1 12L0 12L0 14L3 14L3 17L4 17L4 15L5 15L5 16L6 16L6 17L7 17L7 18L6 18L6 19L5 19L5 18L4 18L4 19L3 19L3 18L2 18L2 19L3 19L3 20L2 20L2 21L5 21L5 20L6 20L6 21L8 21L8 23L9 23L9 25L8 25L8 26L9 26L9 27L8 27L8 29L9 29L9 28L10 28L10 26L11 26L11 28L12 28L12 29L14 29L14 28L12 28L12 24L14 24L14 25L13 25L13 27L15 27L15 28L16 28L16 29L22 29L22 26L24 26L24 27L25 27L25 29L26 29L26 25L25 25L25 22L26 22L26 21L27 21L27 20L28 20L28 22L29 22L29 17L28 17L28 16L27 16L27 17L26 17L26 16L25 16L25 20L23 20L23 18L24 18L24 17L22 17L22 18L21 18L21 15L22 15L22 13L23 13L23 14L24 14L24 15L29 15L29 14L28 14L28 13L29 13L29 11L28 11L28 10L29 10L29 9L28 9L28 8L26 8L26 9L27 9L27 10L25 10L25 13L26 13L26 12L27 12L27 11L28 11L28 13L27 13L27 14L24 14L24 12L23 12L23 11L22 11L22 10L24 10L24 9L25 9L25 8L22 8L22 10L21 10L21 9L20 9L20 10L19 10L19 8L20 8L20 7L21 7L21 3L20 3L20 2L21 2L21 0L19 0L19 1L20 1L20 2L18 2L18 1L17 1L17 0L16 0L16 1L15 1L15 0L12 0L12 1L11 1L11 2L9 2L9 1L10 1L10 0ZM16 1L16 2L14 2L14 3L16 3L16 4L19 4L19 5L20 5L20 4L19 4L19 3L17 3L17 1ZM12 3L12 4L9 4L9 5L10 5L10 6L9 6L9 7L10 7L10 8L8 8L8 10L7 10L7 9L6 9L6 10L5 10L5 11L4 11L4 10L3 10L3 11L2 11L2 13L3 13L3 14L5 14L5 13L6 13L6 14L7 14L7 15L6 15L6 16L8 16L8 15L9 15L9 16L10 16L10 17L8 17L8 19L6 19L6 20L8 20L8 21L9 21L9 20L8 20L8 19L10 19L10 18L11 18L11 19L12 19L12 20L13 20L13 21L14 21L14 22L15 22L15 23L14 23L14 24L15 24L15 27L16 27L16 28L17 28L17 27L18 27L18 26L17 26L17 25L16 25L16 24L15 24L15 23L17 23L17 24L18 24L18 23L19 23L19 25L20 25L20 26L19 26L19 28L20 28L20 26L21 26L21 25L20 25L20 22L17 22L17 21L18 21L18 20L16 20L16 21L14 21L14 20L15 20L15 19L16 19L16 17L17 17L17 19L18 19L18 18L19 18L19 21L20 21L20 19L21 19L21 18L20 18L20 16L18 16L18 17L17 17L17 16L16 16L16 14L17 14L17 13L16 13L16 12L18 12L18 15L20 15L20 14L21 14L21 13L22 13L22 11L21 11L21 10L20 10L20 11L21 11L21 12L20 12L20 14L19 14L19 12L18 12L18 11L19 11L19 10L18 10L18 11L16 11L16 10L17 10L17 9L18 9L18 8L16 8L16 6L17 6L17 7L18 7L18 5L16 5L16 6L15 6L15 8L14 8L14 6L13 6L13 3ZM11 5L11 6L10 6L10 7L11 7L11 6L12 6L12 8L13 8L13 6L12 6L12 5ZM19 6L19 7L20 7L20 6ZM10 8L10 10L8 10L8 12L6 12L6 11L7 11L7 10L6 10L6 11L5 11L5 12L6 12L6 13L9 13L9 14L12 14L12 16L11 16L11 15L10 15L10 16L11 16L11 17L12 17L12 16L13 16L13 17L15 17L15 15L13 15L13 12L12 12L12 13L9 13L9 11L11 11L11 10L12 10L12 9L11 9L11 8ZM14 9L14 10L15 10L15 9ZM3 11L3 13L4 13L4 11ZM14 11L14 12L16 12L16 11ZM0 15L0 16L1 16L1 17L2 17L2 16L1 16L1 15ZM0 18L0 19L1 19L1 18ZM13 18L13 20L14 20L14 18ZM26 18L26 20L25 20L25 21L26 21L26 20L27 20L27 18ZM4 19L4 20L5 20L5 19ZM0 20L0 21L1 21L1 20ZM10 20L10 21L11 21L11 20ZM21 21L21 24L24 24L24 21ZM10 22L10 23L11 23L11 22ZM22 22L22 23L23 23L23 22ZM26 23L26 24L27 24L27 26L28 26L28 27L27 27L27 29L28 29L28 27L29 27L29 26L28 26L28 25L29 25L29 24L28 24L28 23ZM10 24L10 25L11 25L11 24ZM16 26L16 27L17 27L17 26ZM23 28L23 29L24 29L24 28ZM0 0L0 7L7 7L7 0ZM1 1L1 6L6 6L6 1ZM2 2L2 5L5 5L5 2ZM22 0L22 7L29 7L29 0ZM23 1L23 6L28 6L28 1ZM24 2L24 5L27 5L27 2ZM0 22L0 29L7 29L7 22ZM1 23L1 28L6 28L6 23ZM2 24L2 27L5 27L5 24Z" fill="#000000"/></g></g></svg>
