<?xml version="1.0" encoding="UTF-8"?>
<svg xmlns="http://www.w3.org/2000/svg" version="1.1" width="100" height="100" viewBox="0 0 100 100"><rect x="0" y="0" width="100" height="100" fill="#ffffff"/><g transform="scale(3.448)"><g transform="translate(0,0)"><path fill-rule="evenodd" d="M10 0L10 2L11 2L11 0ZM12 0L12 1L13 1L13 2L12 2L12 4L13 4L13 3L14 3L14 4L17 4L17 5L20 5L20 7L21 7L21 4L19 4L19 3L21 3L21 2L18 2L18 1L16 1L16 0L15 0L15 1L14 1L14 0ZM19 0L19 1L20 1L20 0ZM8 1L8 2L9 2L9 1ZM14 2L14 3L16 3L16 2ZM17 2L17 3L18 3L18 2ZM8 3L8 4L9 4L9 5L8 5L8 7L9 7L9 8L6 8L6 9L5 9L5 8L0 8L0 12L1 12L1 11L2 11L2 12L3 12L3 11L4 11L4 9L5 9L5 10L6 10L6 11L8 11L8 12L4 12L4 13L11 13L11 12L9 12L9 11L8 11L8 10L6 10L6 9L10 9L10 11L11 11L11 9L12 9L12 10L13 10L13 11L12 11L12 13L13 13L13 12L14 12L14 13L19 13L19 14L20 14L20 16L16 16L16 14L15 14L15 15L14 15L14 16L15 16L15 17L12 17L12 15L13 15L13 14L11 14L11 16L10 16L10 17L12 17L12 18L13 18L13 19L12 19L12 21L13 21L13 20L14 20L14 21L19 21L19 20L20 20L20 22L19 22L19 23L18 23L18 24L16 24L16 23L17 23L17 22L15 22L15 23L14 23L14 24L15 24L15 25L12 25L12 23L13 23L13 22L11 22L11 20L10 20L10 19L11 19L11 18L10 18L10 19L9 19L9 18L6 18L6 17L7 17L7 16L8 16L8 17L9 17L9 15L8 15L8 14L6 14L6 15L7 15L7 16L5 16L5 15L4 15L4 17L5 17L5 18L2 18L2 19L4 19L4 20L5 20L5 21L8 21L8 23L9 23L9 22L11 22L11 24L8 24L8 29L9 29L9 28L10 28L10 25L12 25L12 26L13 26L13 27L12 27L12 29L13 29L13 28L14 28L14 29L20 29L20 28L21 28L21 29L22 29L22 28L21 28L21 27L23 27L23 29L24 29L24 28L25 28L25 26L26 26L26 25L27 25L27 28L26 28L26 29L27 29L27 28L28 28L28 26L29 26L29 25L27 25L27 24L28 24L28 22L29 22L29 20L26 20L26 19L28 19L28 18L29 18L29 16L28 16L28 14L29 14L29 13L28 13L28 14L26 14L26 15L27 15L27 16L25 16L25 13L27 13L27 12L28 12L28 10L29 10L29 9L28 9L28 8L27 8L27 9L28 9L28 10L27 10L27 12L25 12L25 11L26 11L26 10L25 10L25 9L26 9L26 8L25 8L25 9L24 9L24 8L23 8L23 9L22 9L22 8L20 8L20 9L19 9L19 8L17 8L17 6L16 6L16 5L15 5L15 6L14 6L14 8L15 8L15 9L12 9L12 7L13 7L13 5L11 5L11 6L10 6L10 4L11 4L11 3ZM9 6L9 7L10 7L10 6ZM11 6L11 7L12 7L12 6ZM15 6L15 7L16 7L16 6ZM18 6L18 7L19 7L19 6ZM10 8L10 9L11 9L11 8ZM16 8L16 9L15 9L15 10L16 10L16 11L14 11L14 12L16 12L16 11L17 11L17 12L19 12L19 13L21 13L21 12L22 12L22 13L25 13L25 12L24 12L24 11L25 11L25 10L24 10L24 9L23 9L23 10L24 10L24 11L21 11L21 10L22 10L22 9L20 9L20 10L19 10L19 9L17 9L17 8ZM1 9L1 10L2 10L2 11L3 11L3 9ZM16 9L16 10L17 10L17 11L18 11L18 10L17 10L17 9ZM19 11L19 12L20 12L20 11ZM0 14L0 15L1 15L1 14ZM21 14L21 16L20 16L20 18L19 18L19 17L15 17L15 18L18 18L18 19L16 19L16 20L18 20L18 19L20 19L20 20L21 20L21 19L22 19L22 20L23 20L23 19L25 19L25 18L22 18L22 17L25 17L25 16L23 16L23 15L24 15L24 14L23 14L23 15L22 15L22 14ZM2 15L2 17L3 17L3 15ZM21 16L21 17L22 17L22 16ZM0 17L0 21L1 21L1 17ZM26 17L26 18L28 18L28 17ZM5 18L5 20L8 20L8 19L6 19L6 18ZM20 18L20 19L21 19L21 18ZM14 19L14 20L15 20L15 19ZM9 20L9 21L10 21L10 20ZM25 20L25 21L26 21L26 22L25 22L25 24L27 24L27 22L28 22L28 21L26 21L26 20ZM21 21L21 24L24 24L24 21ZM22 22L22 23L23 23L23 22ZM18 24L18 25L15 25L15 26L17 26L17 28L20 28L20 27L21 27L21 26L25 26L25 25L21 25L21 26L20 26L20 24ZM18 25L18 27L20 27L20 26L19 26L19 25ZM14 27L14 28L16 28L16 27ZM0 0L0 7L7 7L7 0ZM1 1L1 6L6 6L6 1ZM2 2L2 5L5 5L5 2ZM22 0L22 7L29 7L29 0ZM23 1L23 6L28 6L28 1ZM24 2L24 5L27 5L27 2ZM0 22L0 29L7 29L7 22ZM1 23L1 28L6 28L6 23ZM2 24L2 27L5 27L5 24Z" fill="#000000"/></g></g></svg>
